<?xml version="1.0" encoding="UTF-8"?>
<svg id="Layer_2" data-name="Layer 2" xmlns="http://www.w3.org/2000/svg" viewBox="0 0 59.53 29.68">
  <defs>
    <style>
      .cls-1 {
        fill: #5071b5;
      }

      .cls-2 {
        fill: #1d1d1b;
      }

      .cls-3 {
        fill: #fff;
      }

      .cls-4 {
        fill: #e01f26;
      }
    </style>
  </defs>
  <g id="Layer_9" data-name="Layer 9">
    <g>
      <path class="cls-1" d="M24.85,28.54h.58v.63h-.04c-.24.09-.44.13-.62.13-.35,0-.64-.11-.87-.33-.22-.22-.34-.5-.34-.84s.11-.6.34-.83c.22-.23.5-.34.83-.34.35,0,.71.1,1.07.31v-.44c-.23-.1-.42-.17-.58-.2-.15-.04-.31-.06-.48-.06-.46,0-.85.15-1.16.45-.31.3-.46.68-.46,1.13s.15.79.45,1.08c.3.29.69.44,1.19.44.36,0,.73-.08,1.1-.24v-1.28h-1.01v.39ZM21.17,28.96l-2.02-2.35h-.35v3.03h.4v-2.33l2.01,2.33h.37v-3.03h-.41v2.35ZM16.68,29.64h.43v-3.03h-.43v3.03ZM13.51,29.64h1.78v-.39h-1.35v-2.63h-.43v3.03ZM11.19,27.31c.22.22.34.49.34.81s-.11.6-.34.83c-.22.22-.5.33-.84.33s-.61-.11-.83-.33c-.22-.22-.33-.49-.33-.82s.11-.61.33-.83c.22-.22.5-.33.85-.33s.6.11.83.33ZM9.2,27.01c-.3.3-.46.67-.46,1.12s.15.81.45,1.1c.3.29.68.44,1.13.44s.87-.15,1.18-.44c.31-.29.47-.66.47-1.11s-.15-.82-.46-1.11c-.31-.3-.69-.44-1.16-.44s-.85.15-1.15.44ZM6.56,27.31c.22.22.34.49.34.81s-.11.6-.34.83c-.22.22-.5.33-.84.33s-.61-.11-.83-.33c-.22-.22-.33-.49-.33-.82s.11-.61.33-.83c.22-.22.5-.33.85-.33s.6.11.83.33ZM4.56,27.01c-.3.3-.46.67-.46,1.12s.15.81.45,1.1c.3.29.68.44,1.13.44s.87-.15,1.18-.44c.31-.29.47-.66.47-1.11s-.15-.82-.46-1.11c-.31-.3-.69-.44-1.16-.44s-.85.15-1.15.44ZM1.64,29.28c-.35,0-.63-.11-.86-.32-.22-.21-.34-.49-.34-.82s.11-.6.34-.82c.23-.22.51-.33.86-.33s.68.1,1.03.3v-.47c-.39-.17-.74-.25-1.05-.25-.46,0-.84.15-1.15.45-.31.3-.47.67-.47,1.11,0,.28.07.54.2.77.14.24.32.43.55.56.23.14.52.2.85.2.41,0,.78-.09,1.09-.26v-.48c-.35.23-.7.34-1.07.34Z"/>
      <path class="cls-2" d="M30.4,27.59c-.05-.09-.07-.18-.07-.26s.03-.15.09-.21c.06-.06.14-.08.23-.08s.18.03.24.09c.06.06.1.13.1.22,0,.14-.08.27-.23.38l-.16.12c-.08-.08-.15-.16-.2-.26ZM30.61,29.19c-.1.05-.19.07-.27.07-.1,0-.19-.03-.26-.09-.07-.06-.11-.13-.11-.22,0-.16.11-.31.34-.46l.19-.13.49.57-.1.09c-.08.07-.17.13-.27.18ZM32.14,29.64l-.61-.71c.22-.26.39-.53.49-.79h-.43c-.09.19-.2.35-.32.49l-.42-.49.03-.02c.35-.25.53-.51.53-.77,0-.2-.07-.36-.21-.48-.14-.13-.32-.19-.54-.19s-.4.06-.54.19c-.14.13-.21.3-.21.5,0,.22.11.46.34.7-.07.04-.15.09-.24.16h0c-.16.13-.28.24-.35.36-.07.11-.11.24-.11.38,0,.2.07.36.22.5.14.14.32.2.53.2.13,0,.27-.03.42-.09.15-.06.28-.13.38-.22h0c.07-.06.12-.11.15-.14l.35.41h.55Z"/>
      <path class="cls-4" d="M58.52,28.54h.58v.63h-.04c-.24.09-.44.13-.62.13-.35,0-.64-.11-.87-.33-.22-.22-.34-.5-.34-.84s.11-.6.34-.83c.22-.23.5-.34.83-.34.35,0,.71.1,1.07.31v-.44c-.23-.1-.42-.17-.58-.2-.15-.04-.31-.06-.48-.06-.46,0-.85.15-1.16.45-.31.3-.46.68-.46,1.13s.15.79.45,1.08c.3.29.69.44,1.19.44.36,0,.73-.08,1.1-.24v-1.28h-1.01v.39ZM54.84,28.96l-2.02-2.35h-.35v3.03h.4v-2.33l2.01,2.33h.37v-3.03h-.41v2.35ZM50.34,29.64h.43v-3.03h-.43v3.03ZM46.41,26.99h1.03v2.65h.43v-2.65h1.05v-.39h-2.51v.39ZM43.82,28.36l.45-1.1.48,1.1h-.93ZM42.83,29.64h.44l.37-.9h1.28l.4.9h.44l-1.35-3.05h-.3l-1.29,3.05ZM39.95,29.64h1.74v-.39h-1.31v-.94h1.23v-.39h-1.23v-.92h1.27v-.39h-1.7v3.02ZM37.85,27.92h-1.69v-1.31h-.43v3.03h.43v-1.32h1.69v1.32h.43v-3.03h-.43v1.31Z"/>
      <path class="cls-2" d="M40.1,20.3h0l.89,2.4h-1.78l.89-2.4ZM36.44,24.65h2.05l.34-.92h2.53l.34.92h2.05l-2.6-5.76h-2.11l-2.6,5.76ZM31.98,22.01h0l2.06,2.65h2.42l-2.41-3.09,2.28-2.67h-2.08l-2.27,2.66v-2.66h-2.01v5.76h2.01v-2.65ZM25.88,24.65h1v-2.27h2v-1.22h-2v-1.06h2.17v-1.22h-4.18v5.76h1ZM20.52,20.3h0l.89,2.4h-1.78l.89-2.4ZM16.86,24.65h2.05l.34-.92h2.53l.34.92h2.05l-2.6-5.76h-2.11l-2.6,5.76Z"/>
      <path class="cls-4" d="M37.97,15.78h-16.23V.31h16.23v15.47ZM22.58,14.94h14.54V1.15h-14.54v13.78Z"/>
      <path class="cls-1" d="M41.97,6.98c-2.08,0-4.11-1.71-4.38-1.95-.19-.12-1.77-1.02-3.8.34-2.51,1.69-3.92,1.26-4.07,1.2l.28-.8s1.17.34,3.33-1.11c2.62-1.76,4.68-.39,4.76-.33l.04.03s3.24,2.85,5.34,1.27c1.84-1.39,3.43-1.99,4.73-1.8.82.12,1.5.55,2.04,1.28l-.68.5c-.4-.55-.89-.86-1.48-.95-1.05-.15-2.47.41-4.1,1.64-.63.48-1.32.66-2,.66"/>
      <path class="cls-1" d="M41.97,9.83c-2.08,0-4.11-1.71-4.38-1.95-.19-.12-1.77-1.02-3.8.34-2.51,1.69-3.92,1.26-4.07,1.2l.28-.8s1.17.34,3.33-1.11c2.62-1.76,4.68-.39,4.76-.33l.04.03s3.24,2.85,5.34,1.27c1.84-1.39,3.43-1.99,4.73-1.8.82.12,1.5.55,2.04,1.28l-.68.5c-.4-.55-.89-.86-1.48-.95-1.05-.15-2.47.41-4.1,1.64-.63.48-1.32.66-2,.66"/>
      <path class="cls-1" d="M41.97,12.67c-2.08,0-4.11-1.71-4.38-1.95-.19-.12-1.77-1.02-3.8.34-2.51,1.69-3.92,1.26-4.07,1.2l.28-.8s1.17.34,3.33-1.11c2.62-1.76,4.68-.39,4.76-.33l.04.03s3.24,2.85,5.34,1.27c1.84-1.39,3.43-1.99,4.73-1.8.82.12,1.5.55,2.04,1.28l-.68.5c-.4-.55-.89-.86-1.48-.95-1.05-.15-2.47.41-4.1,1.64-.63.48-1.32.66-2,.66"/>
      <path class="cls-1" d="M18.87,8.24l.02,2,.35,5.96c2.82-.25,5.23-1.95,6.48-4.35l-6.83-3.61h-.02Z"/>
      <path class="cls-1" d="M19.21,7.92c.06-.02,4.29-2.88,6.16-4.14-1.44-2.27-3.97-3.78-6.86-3.78-.05,0-.09,0-.13,0l.52,8.24s.25-.3.32-.32"/>
      <path class="cls-1" d="M11.31,4.36c-.59,1.12-.92,2.4-.92,3.76s.36,2.73.99,3.89l7.23-3.91-7.29-3.75Z"/>
      <path class="cls-3" d="M21.35,8.06c0,1.48-1.2,2.67-2.67,2.67s-2.67-1.2-2.67-2.67,1.2-2.67,2.67-2.67,2.67,1.2,2.67,2.67"/>
      <path class="cls-1" d="M19.97,8.06c0,.72-.58,1.3-1.3,1.3s-1.3-.58-1.3-1.3.58-1.3,1.3-1.3,1.3.58,1.3,1.3"/>
    </g>
  </g>
</svg>