<?xml version="1.0" encoding="UTF-8"?>
<svg id="Layer_2" data-name="Layer 2" xmlns="http://www.w3.org/2000/svg" viewBox="0 0 59.53 48.02">
  <defs>
    <style>
      .cls-1 {
        fill-rule: evenodd;
      }

      .cls-1, .cls-2 {
        fill: #f19220;
      }
    </style>
  </defs>
  <g id="Layer_9" data-name="Layer 9">
    <g>
      <g>
        <g>
          <path class="cls-2" d="M3.11,41.2l.91,6.12h-1.63l-.09-1.1h-.57l-.1,1.1H0l.81-6.12h2.3ZM2.27,45.13c-.08-.69-.16-1.55-.24-2.57-.16,1.17-.26,2.03-.31,2.57h.55Z"/>
          <path class="cls-2" d="M5.86,41.63v.79h.41v.79h-.41v2.68c0,.33.02.51.05.55.03.04.18.06.43.06v.81h-.62c-.35,0-.6-.01-.75-.04-.15-.03-.28-.1-.39-.2-.11-.1-.18-.22-.21-.36-.03-.14-.04-.45-.04-.95v-2.55h-.33v-.79h.33v-.79h1.53Z"/>
          <path class="cls-2" d="M9.96,42.3l-.44,3.63c-.07.57-.13.97-.17,1.18-.05.21-.12.38-.23.52-.11.14-.26.24-.45.3-.19.06-.5.1-.92.1h-.93v-.8c.24,0,.39-.01.46-.04.07-.02.1-.08.1-.16,0-.04-.03-.22-.09-.53l-.84-4.2h1.39l.5,3.39.24-3.39h1.38Z"/>
          <path class="cls-2" d="M11.6,44.24h-1.43v-.34c0-.39.04-.69.13-.9.09-.21.27-.4.54-.56.27-.16.62-.24,1.05-.24.52,0,.91.09,1.17.27.26.18.42.41.47.67.05.27.08.81.08,1.64v2.52h-1.49v-.45c-.09.18-.21.31-.36.4-.15.09-.32.13-.53.13-.27,0-.51-.07-.74-.23-.22-.15-.33-.48-.33-.98v-.41c0-.38.06-.63.18-.77.12-.14.41-.29.88-.48.5-.2.77-.33.81-.4.04-.07.05-.21.05-.42,0-.26-.02-.43-.06-.51-.04-.08-.1-.12-.19-.12-.1,0-.17.03-.19.1-.03.07-.04.24-.04.52v.53ZM12.08,44.93c-.24.18-.39.33-.43.45-.04.12-.06.29-.06.52,0,.26.02.43.05.5.03.08.1.11.2.11s.16-.03.19-.09c.03-.06.04-.22.04-.47v-1.03Z"/>
          <path class="cls-2" d="M15.66,41.2v1.45c.13-.15.27-.26.42-.33.15-.07.32-.11.5-.11.21,0,.39.03.54.1.15.07.27.16.35.28.08.12.13.23.15.35.02.11.02.36.02.73v2.26c0,.37-.02.64-.07.82-.05.18-.16.34-.35.47-.18.13-.4.2-.65.2-.18,0-.35-.04-.5-.12-.15-.08-.3-.2-.43-.35l-.1.38h-1.43v-6.12h1.53ZM16.13,43.72c0-.26-.02-.43-.05-.51-.03-.08-.1-.12-.19-.12s-.15.03-.18.1c-.03.07-.04.24-.04.52v2.16c0,.27.02.44.05.52.03.08.09.11.19.11s.16-.04.19-.12c.03-.08.04-.27.04-.56v-2.11Z"/>
          <path class="cls-2" d="M22.32,41.2l.91,6.12h-1.63l-.09-1.1h-.57l-.1,1.1h-1.65l.81-6.12h2.3ZM21.48,45.13c-.08-.69-.16-1.55-.24-2.57-.16,1.17-.26,2.03-.31,2.57h.55Z"/>
          <path class="cls-2" d="M25.03,41.2v6.12h-1.57v-6.12h1.57Z"/>
          <path class="cls-2" d="M32.81,41.2v6.12h-1.39v-4.13s-.56,4.13-.56,4.13h-.99l-.58-4.04v4.04h-1.39v-6.12h2.06c.06.37.12.8.19,1.3l.23,1.56.37-2.86h2.07Z"/>
          <path class="cls-2" d="M34.77,44.24h-1.43v-.34c0-.39.04-.69.13-.9.09-.21.27-.4.54-.56.27-.16.62-.24,1.05-.24.52,0,.91.09,1.17.27.26.18.42.41.47.67.05.27.08.81.08,1.64v2.52h-1.49v-.45c-.09.18-.21.31-.36.4-.15.09-.32.13-.53.13-.27,0-.51-.07-.74-.23-.22-.15-.33-.48-.33-.98v-.41c0-.38.06-.63.18-.77.12-.14.41-.29.88-.48.5-.2.77-.33.81-.4.04-.07.05-.21.05-.42,0-.26-.02-.43-.06-.51-.04-.08-.1-.12-.19-.12-.1,0-.17.03-.19.1-.03.07-.04.24-.04.52v.53ZM35.26,44.93c-.24.18-.39.33-.43.45-.04.12-.06.29-.06.52,0,.26.02.43.05.5.03.08.1.11.2.11s.16-.03.19-.09c.03-.06.04-.22.04-.47v-1.03Z"/>
          <path class="cls-2" d="M38.84,42.3l-.06.66c.22-.47.54-.72.96-.75v1.77c-.28,0-.49.04-.62.11-.13.08-.21.18-.24.32-.03.14-.05.45-.05.93v1.98h-1.53v-5.02h1.53Z"/>
          <path class="cls-2" d="M43.2,43.9h-1.35v-.27c0-.23-.01-.38-.04-.44-.03-.06-.09-.09-.2-.09-.09,0-.15.03-.19.08-.04.06-.06.14-.06.26,0,.15.01.27.03.34.02.07.09.15.19.24.11.09.33.21.66.37.44.22.73.42.87.61.14.19.21.47.21.84,0,.41-.05.72-.16.92-.11.21-.28.37-.53.48-.25.11-.55.17-.9.17-.39,0-.72-.06-1-.18-.28-.12-.47-.28-.57-.49-.1-.21-.15-.52-.15-.94v-.24h1.35v.32c0,.27.02.44.05.53.03.08.1.12.2.12.11,0,.18-.03.23-.08.04-.05.06-.17.06-.34,0-.24-.03-.39-.08-.45-.06-.06-.35-.24-.89-.54-.45-.25-.72-.48-.82-.69-.1-.21-.15-.45-.15-.73,0-.4.05-.7.16-.89.11-.19.29-.34.54-.44.25-.1.55-.15.88-.15s.62.04.85.13c.23.08.41.2.54.33.12.14.2.27.23.39.03.12.04.3.04.56v.29Z"/>
          <path class="cls-2" d="M45.25,41.2v1.38c.13-.12.27-.21.43-.27.15-.06.32-.09.49-.09.27,0,.49.07.68.2.19.14.3.29.34.47.04.18.06.5.06.97v3.46h-1.53v-3.53c0-.29-.01-.48-.04-.56-.03-.08-.09-.12-.19-.12-.09,0-.16.04-.19.13-.03.09-.05.26-.05.51v3.58h-1.53v-6.12h1.53Z"/>
          <path class="cls-2" d="M51.24,44.06v1.23c0,.45-.02.78-.07.99-.05.21-.14.41-.29.59-.15.18-.34.32-.57.4-.23.09-.5.13-.8.13-.34,0-.62-.04-.86-.11-.23-.07-.42-.19-.55-.34-.13-.15-.22-.33-.28-.54-.06-.21-.08-.53-.08-.96v-1.29c0-.47.05-.83.15-1.09.1-.26.28-.47.54-.63.26-.16.6-.24,1.01-.24.34,0,.64.05.88.15.25.1.44.23.57.4.13.16.23.33.27.51.05.17.07.44.07.79ZM49.71,43.68c0-.26-.01-.42-.04-.49-.03-.07-.09-.1-.18-.1s-.15.03-.18.1c-.03.07-.05.23-.05.49v2.26c0,.24.02.39.05.46.03.07.09.11.18.11s.15-.03.18-.1c.03-.07.04-.21.04-.42v-2.31Z"/>
          <path class="cls-2" d="M55.24,42.3v5.02h-1.55l.03-.42c-.11.17-.24.3-.39.38-.16.08-.33.13-.54.13-.23,0-.42-.04-.57-.12-.15-.08-.26-.19-.33-.32-.07-.13-.12-.27-.13-.42-.02-.14-.03-.43-.03-.86v-3.38h1.53v3.41c0,.39.01.62.04.7.02.07.09.11.19.11.11,0,.18-.04.2-.11.02-.08.03-.32.03-.73v-3.38h1.53Z"/>
          <path class="cls-2" d="M59.26,41.2v6.12h-1.53v-.36c-.15.15-.3.27-.46.34-.16.08-.33.11-.51.11-.24,0-.44-.06-.62-.19-.17-.13-.29-.27-.33-.43-.05-.16-.07-.43-.07-.8v-2.35c0-.39.02-.66.07-.82.05-.16.16-.3.34-.43.18-.12.39-.18.63-.18.19,0,.36.03.52.1.16.07.3.17.43.31v-1.42h1.53ZM57.74,43.56c0-.18-.02-.31-.05-.37-.03-.06-.09-.09-.19-.09s-.15.03-.18.08c-.03.06-.05.18-.05.38v2.46c0,.2.01.34.05.4.03.06.09.1.17.1.1,0,.16-.04.2-.11.03-.07.05-.25.05-.53v-2.32Z"/>
        </g>
        <path class="cls-2" d="M1.53,32h-.76v.84c.42,0,.63.07.63.21v2.83H.29v1h2.71v-4.08c0-.37-.2-.8-1.47-.8ZM17.52,35.88h-.69v-3.88h-1.66v3.88h-.68v-3.88h-1.6v3.9l-4.79-.02v-3.94h-2.36c-.34,0-.66.09-.97.26-.31.17-.46.37-.46.6v4.08h2.18v.14c0,.3-.56.46-1.68.49v.77h1.39c.56,0,1.02-.14,1.37-.41.35-.27.53-.6.53-.99h11.02v-4.88h-1.6v3.88ZM6.5,35.88h-.58v-2.7s.05-.1.15-.16c.1-.06.19-.09.25-.09h.17v2.95ZM28.85,35.88h-.75l-.17-.17s.02-.23.07-.61c.05-.38.07-.71.07-1,0-1.4-.49-2.1-1.48-2.1h-2.46v3.88h-.93v-3.95h-1.58v4.96c0,.34-.34.5-1.02.48h-.21v.81h1.26c.6,0,1.03-.2,1.3-.61.1-.22.21-.45.31-.68h7.21v-7.48h-1.6v6.48ZM26.37,35.88c-.44,0-.65-.09-.65-.28v-2.63h.18c.13,0,.28.04.42.13v2.58s.05.05.15.19h-.1ZM31.76,36.88h1.6v-7.48h-1.6v7.48ZM40.36,35.88h-1.02v-3.88c-.39,0-.76.12-1.1.37-.34.25-.51.51-.51.78v3.73h4.23v-4.88h-1.61v3.88ZM40.47,37.94c0,.24-.28.43-.63.43s-.63-.19-.63-.43.28-.43.63-.43.63.19.63.43ZM16.67,30.4c0,.24-.28.43-.63.43s-.63-.19-.63-.43.28-.43.63-.43.63.19.63.43ZM16.09,31.12c0,.24-.28.43-.63.43s-.63-.19-.63-.43.28-.43.63-.43.63.19.63.43ZM17.25,31.12c0,.24-.28.43-.63.43s-.63-.19-.63-.43.28-.43.63-.43.63.19.63.43ZM50.51,37.94c0,.24-.28.43-.63.43s-.63-.19-.63-.43.28-.43.63-.43.63.19.63.43ZM51.61,37.94c0,.24-.28.43-.63.43s-.63-.19-.63-.43.28-.43.63-.43.63.19.63.43ZM53.85,32.3v-2.9h-1.6v6.48h-1.02v-3.88h-1.61v3.88h-4.75v-6.51h-1.61v7.52h12.95v-4.88h-1.33c-.49,0-.83.1-1.03.3ZM54.62,35.88h-.76v-2.26c0-.12.08-.24.24-.35.16-.11.33-.17.52-.19v2.81ZM59.21,28.43c-.21-.07-.32-.13-.32-.19,0-.12.17-.24.5-.33-.44-.19-.67-.28-.69-.28-.17,0-.35.07-.55.2-.19.13-.29.26-.29.37,0,.13.1.23.3.33.2.09.3.16.3.21,0,.07-.07.13-.2.18-.14.05-.27.09-.4.13h1.27c.08,0,.16-.04.25-.13.09-.09.13-.16.13-.23,0-.1-.11-.18-.32-.25ZM57.66,36.88h1.6v-7.48h-1.6v7.48Z"/>
      </g>
      <g>
        <path class="cls-2" d="M36.5,22.6c.08.07.13.1.15.1.03,0,.09-.03.16-.1.07-.06.11-.11.12-.14-.16-.16-.26-.25-.29-.25-.02,0-.07.04-.15.12-.08.08-.12.13-.12.15,0,0,.04.05.12.11ZM38.51,22.72c.09.07.15.1.17.1,0,0,0,0,.05-.02.13-.09.22-.15.25-.19.03-.02.04-.04.04-.07,0-.02-.05-.07-.16-.17-.1-.1-.17-.15-.18-.15-.02,0-.04.01-.07.03-.06.05-.14.12-.23.22-.03.02-.04.05-.04.07,0,.04.06.09.17.18ZM41.43,23.71c-.09-.32-.17-.57-.22-.73,0-.01-.02-.03-.04-.04-.09,0-.27.06-.54.18-.12.05-.22.15-.32.29-.09.12-.16.25-.2.37-.03.08-.06.15-.08.2h-.74c-.15,0-.23-.07-.23-.2,0,0,0-.05.02-.12.01-.07.02-.12.02-.13v-.31c-.18.18-.29.31-.31.38-.02.03-.03.09-.02.18,0,.09,0,.16-.04.2h-.86c-.06,0-.11-.04-.13-.12-.13-.51-.23-.9-.3-1.18l-.25.49c.03.11.07.22.1.33.07.21.09.36.09.42,0,.02,0,.04-.02.06h-1.01s-.06-.02-.07-.07c-.02-.05-.02-.16,0-.34-.01-.02-.02-.03-.03-.03-.07.09-.11.19-.14.32-.04.2-.06.37-.06.48.02.07.05.11.08.11h1.08s.07-.1.11-.2c.03-.07.07-.12.11-.13.06.15.1.25.13.33h1.07l.15-.29c.06.15.13.24.19.27.04.02.06.02.07.02h.34s.58,0,.58,0c.04-.04.08-.11.12-.21.03-.09.08-.15.15-.17l.91.33c.15-.25.24-.39.26-.42.03-.05.04-.09.04-.13,0-.05,0-.09-.02-.14ZM40.47,23.56s.01-.02.05-.05c.03-.02.08-.04.15-.07.05-.02.09-.03.13-.03.07,0,.12.05.15.13,0,.02.03.09.06.22l-.54-.21Z"/>
        <path class="cls-1" d="M18.08,23.78l.46-.05c.03.16.08.27.17.34.09.07.2.11.35.11.15,0,.27-.03.35-.1.08-.07.12-.14.12-.23,0-.06-.02-.1-.05-.14-.03-.04-.09-.07-.17-.1-.06-.02-.18-.05-.38-.1-.26-.06-.44-.14-.54-.23-.15-.13-.22-.29-.22-.48,0-.12.03-.23.1-.34.07-.11.17-.19.29-.24.13-.05.28-.08.47-.08.3,0,.52.07.67.19.15.13.23.3.24.52l-.48.02c-.02-.12-.06-.21-.13-.26-.07-.05-.17-.08-.3-.08-.14,0-.25.03-.33.09-.05.04-.08.09-.08.15,0,.06.02.1.07.14.06.05.21.1.44.16.23.05.4.11.51.17.11.06.2.14.26.24.06.1.09.23.1.38,0,.14-.04.26-.11.38-.08.12-.18.21-.32.26-.14.06-.31.09-.51.09-.3,0-.53-.07-.69-.21-.16-.14-.26-.34-.29-.6Z"/>
        <path class="cls-1" d="M20.4,22.6v-.42h.45v.42h-.45ZM20.4,24.55v-1.71h.45v1.71h-.45Z"/>
        <path class="cls-1" d="M22.87,24.55h-.45v-.87c0-.18,0-.3-.03-.36-.02-.05-.05-.1-.09-.13-.04-.03-.1-.05-.16-.05-.08,0-.15.02-.21.06-.06.04-.11.1-.13.17-.02.07-.03.2-.03.39v.77h-.45v-1.71h.42v.25c.15-.19.34-.29.56-.29.1,0,.19.02.27.05.08.04.14.08.19.14.04.06.07.12.09.19.02.07.03.17.03.3v1.06Z"/>
        <path class="cls-1" d="M24.82,23.34l-.45.08c-.02-.09-.05-.16-.1-.2-.05-.05-.12-.07-.21-.07-.11,0-.2.04-.27.12-.07.08-.1.21-.1.39,0,.2.03.35.1.43.07.08.16.13.28.13.09,0,.16-.02.21-.07.05-.05.09-.13.12-.25l.44.08c-.05.2-.13.36-.27.46-.13.1-.31.16-.53.16-.25,0-.45-.08-.6-.24-.15-.16-.22-.38-.22-.66s.07-.5.22-.66c.15-.16.35-.24.61-.24.21,0,.37.05.5.14.12.09.21.23.27.41Z"/>
        <path class="cls-1" d="M26.16,24l.45.08c-.06.17-.15.29-.28.38-.12.09-.28.13-.47.13-.3,0-.52-.1-.66-.29-.11-.16-.17-.35-.17-.59,0-.28.07-.51.22-.67.15-.16.34-.24.56-.24.25,0,.46.08.6.25.15.17.22.42.21.77h-1.13c0,.13.04.24.11.31.07.07.16.11.26.11.07,0,.13-.02.18-.06.05-.04.08-.1.11-.19ZM26.18,23.54c0-.13-.04-.23-.1-.3-.06-.07-.14-.1-.24-.1-.1,0-.18.04-.24.11-.06.07-.1.17-.1.29h.68Z"/>
        <path class="cls-1" d="M28.73,24.55h-.45v-1.71c-.17.15-.36.27-.58.34v-.41c.12-.04.25-.11.39-.22.14-.11.23-.23.29-.38h.37v2.37Z"/>
        <path class="cls-1" d="M29.41,24l.44-.05c.01.09.04.16.08.2.05.04.1.06.18.06.09,0,.17-.04.24-.13.07-.09.11-.26.13-.53-.11.13-.26.2-.43.2-.19,0-.35-.07-.48-.21-.13-.14-.2-.33-.2-.56s.07-.43.21-.58c.14-.15.32-.22.54-.22.24,0,.44.09.59.28.15.18.23.49.23.91,0,.43-.08.74-.24.93-.16.19-.37.29-.63.29-.18,0-.33-.05-.45-.15-.11-.1-.19-.25-.22-.44ZM30.44,23.01c0-.15-.03-.26-.1-.34-.07-.08-.14-.12-.23-.12s-.15.03-.21.1c-.05.07-.08.17-.08.32s.03.26.09.34c.06.07.14.11.23.11s.16-.03.22-.1c.06-.07.09-.17.09-.3Z"/>
        <path class="cls-1" d="M32.77,24.13v.42h-1.59c.02-.16.07-.31.15-.45.09-.14.26-.33.51-.57.2-.19.33-.32.38-.39.06-.09.09-.19.09-.28,0-.1-.03-.18-.08-.23-.05-.05-.13-.08-.22-.08s-.17.03-.23.09c-.06.06-.09.15-.1.28l-.45-.05c.03-.25.11-.43.25-.54.14-.11.32-.16.53-.16.23,0,.42.06.55.19.13.13.2.28.2.47,0,.11-.02.21-.06.3-.04.1-.1.2-.18.3-.05.07-.15.17-.3.3-.14.13-.23.22-.27.26-.04.04-.07.08-.09.13h.9Z"/>
        <path class="cls-1" d="M33.08,23.94l.45-.05c.01.1.05.18.11.24.06.06.14.09.22.09.09,0,.17-.04.24-.11.07-.08.1-.19.1-.35,0-.14-.03-.25-.1-.33-.06-.07-.15-.11-.25-.11-.13,0-.25.06-.35.17l-.37-.05.23-1.23h1.2v.42h-.85l-.07.4c.1-.05.2-.08.31-.08.2,0,.37.07.51.22.14.15.21.34.21.57,0,.19-.06.37-.17.52-.15.21-.37.31-.64.31-.22,0-.4-.06-.53-.18-.14-.12-.22-.27-.25-.47Z"/>
        <g>
          <path class="cls-2" d="M36.39,18.56h-3.29c-.28,0-.51.23-.51.51h4.32c0-.28-.23-.51-.51-.51Z"/>
          <path class="cls-2" d="M25.15,18.56h-3.29c-.28,0-.51.23-.51.51h4.32c0-.28-.23-.51-.51-.51Z"/>
          <circle class="cls-2" cx="28.95" cy="3.76" r="1.38"/>
          <path class="cls-2" d="M36.07,3.04c-2.11,1.57-3.83,2.4-5.03,2.84-1.53.56-3.21.59-4.74.03-1.34-.49-1.99-1.2-1.99-1.2h-2.96v.41h0s2.39,0,2.39,0c.05.08.1.16.15.24h-2.29v.24c.27.11.51.29.69.52h1.97s.14.14.17.17h-2.17l-.55,12.09h3.59l-.49-11.59c2.57,2.67,4.73,13.45,4.72,13.41,0,0,.54-4.73,1.9-8.59.59-1.61,1.36-3.18,2.12-4.54l-.61,11.31h3.62l-.52-12.09h-2.06c.03-.06.07-.12.1-.17h2.06c.18-.23.42-.41.69-.52v-.24h-2.29c.05-.08.1-.16.15-.24h2.39v-.41h-2.12c.66-1.03,1.12-1.67,1.12-1.67Z"/>
          <path class="cls-2" d="M33.03.53l-.85-.18c-1.52-.49-3.27-.32-3.27-.32-3.11.37-3.6,2.4-3.6,2.4-.46,1.7,1.15,2.69,1.15,2.69.35.09.14-.24.14-.24-.24-.19-.41-.4-.53-.62-.49-.9-.16-2.02.69-2.59.27-.18.56-.32.85-.43.93-.35,1.95-.42,2.93-.23,1.26.24,2.56.69,2.56.69-.35.28-1.32,1.82-1.32,1.82-1.08,2.01-3.04,2.12-3.04,2.12l-.44.03c-.3.09-.05.18-.05.18,1.15.05,2.04-.22,2.04-.22,2.32-.74,3.38-2.19,3.76-2.98.17-.36.38-.69.72-.91,2.61-.23,3.27-1.48,3.27-1.48-1.82,1.27-5.02.28-5.02.28Z"/>
        </g>
      </g>
    </g>
  </g>
</svg>