<?xml version="1.0" encoding="UTF-8"?>
<svg id="Layer_2" data-name="Layer 2" xmlns="http://www.w3.org/2000/svg" viewBox="0 0 59.53 24.8">
  <defs>
    <style>
      .cls-1 {
        fill: #282828;
      }
    </style>
  </defs>
  <g id="Layer_10" data-name="Layer 10">
    <g>
      <path class="cls-1" d="M10.88,2.87l-.33-.3-.18,1.62.06.07c1.54,1.24,1.57,4.83,1.59,5.16.16-.24,1.56-4.13-1.14-6.55Z"/>
      <path class="cls-1" d="M45.75,3.8c.03-.43.07-1.08.78-1.29.78-.23,1.55-.46,2.33-.69.75-.22,1.49-.44,2.24-.67.27-.08.4-.2.57-.44l.51-.71-.1.87c0,.08-.01.16-.01.23,0,.23-.02.46-.18.66-.13.16-.32.27-.55.34-.36.1-.71.2-1.07.3-1.15.32-2.34.65-3.48,1.05-.28.1-.45.27-.62.51l-.47.65.05-.79Z"/>
      <path class="cls-1" d="M31.33,3.8c.03-.43.07-1.08.78-1.29.78-.23,1.55-.46,2.33-.69.75-.22,1.49-.44,2.24-.67.27-.08.4-.2.57-.44l.51-.71-.1.87c0,.08-.01.16-.01.23,0,.23-.02.46-.18.66-.13.16-.32.27-.55.34-.36.1-.71.2-1.07.3-1.15.32-2.34.65-3.48,1.05-.28.1-.45.27-.62.51l-.47.65.05-.79Z"/>
      <path class="cls-1" d="M5.84,18.68c-1.72,0-3.2-.56-4.28-1.63-2.09-1.91-2.07-5.96,0-7.9,1.07-1.07,2.55-1.63,4.28-1.63s2.94.27,3.58.83c.63.59.63,1.3.63,3,0,.09-.07.16-.16.16h-.47c-.09,0-.16-.07-.16-.15-.09-1.59-1.02-2.33-2.91-2.33-2.14,0-3.31,1.45-3.31,4.09-.01,2.32.92,4.36,3.31,4.38,0,0,13.92,0,13.92,0l-4.2-4.59c-1.81-1.9-2.09-4.6-.17-6.35,1-.99,2.79-1.34,4.15-.82,1.93.92,4.27,3.26,4.27,4.76.02,1.1-1.51,2.17-1.65,2.18-.05,0-.09-.02-.12-.06l-.25-.29c-.07-.09-.04-.19.05-.27.66-.74.82-1.43.47-2.06-.21-.37-2.34-2.75-2.93-2.87-2.18-.57-3.45,2.2-2.16,3.77.13.22.38.46.56.68.18.22.45.54.85.97,1.84,2,3.29,3.57,5.39,5.87.04.05.05.12.03.18-.03.06-.08.1-.15.1H5.84Z"/>
      <path class="cls-1" d="M57.46,24.8s-.05,0-.07-.01c-.2-.02-.22-.26-.16-.4.58-2.27-.42-3.85-1.82-5.37l-.41-.42c-.07,0-17-.07-17.02.02,0,0,0,.36,0,.36.06,3.44-2.54,5-5.21,5.57-.19.05-.46.05-.55-.08-.16-.14-.08-.34.12-.46.99-.55,1.66-1.36,2.06-2.48.28-.75.41-1.68.42-2.91,0-.02-.01-.03-.04-.03h-1.85c-10.43.06-11.08-12.29.51-12.22,0,0,6,0,6,0,.2,0,.36.16.36.36.02.21-.14.41-.36.41h-.2c-1,0-1.18.54-1.18,1.6.03.04-.07,8.54.03,8.53.02-.06,15.67.11,15.57-.06,0,0-7.76-7.8-7.76-7.8-.79-.78-1.23-1.01-1.94-.28l-.14.14c-.13.14-.38.14-.51,0-.14-.14-.14-.36,0-.5l3-3.08c.13-.14.38-.14.52,0l11.22,11.63c1.72,1.75,1.57,3.34,1.31,4.39-.23.71-.49,1.26-.78,1.67-.36.48-.58.83-.7,1.07-.15.25-.28.37-.42.37ZM33,7.85c-3.06,0-4.89,1.74-4.89,4.64,0,2.76,1.59,4.58,4.26,4.88h2.36c.1.01,0-9.23.03-9.26,0-.02-.01-.03-.02-.03-.54-.16-1.11-.23-1.75-.23Z"/>
      <circle class="cls-1" cx="48.1" cy="22.25" r="1.64"/>
    </g>
  </g>
</svg>