<?xml version="1.0" encoding="UTF-8"?>
<svg id="Layer_2" data-name="Layer 2" xmlns="http://www.w3.org/2000/svg" viewBox="0 0 59.53 41.72">
  <defs>
    <style>
      .cls-1 {
        fill: #acca56;
      }

      .cls-2 {
        fill: #054c59;
      }
    </style>
  </defs>
  <g id="Layer_10" data-name="Layer 10">
    <g>
      <g>
        <path class="cls-2" d="M7.81,20.93c.13.35.19.84.19,1.47,0,.42-.06.8-.17,1.14-.11.34-.27.61-.46.8-.19.2-.42.36-.67.47-.25.12-.52.18-.81.19-.28,0-.57-.02-.86-.09-.29-.07-.57-.18-.83-.33-.52-.3-.98-.72-1.38-1.26-.4-.55-.7-1.14-.9-1.77-.2-.64-.31-1.3-.32-1.98-.01-.68.07-1.32.26-1.9.18-.58.49-1.09.93-1.53.44-.44.98-.73,1.62-.87.59-.14,1.16-.12,1.72.03.56.16,1.02.43,1.39.81.37.38.58.83.63,1.35.29,0,.53-.07.71-.23.19-.16.27-.37.26-.64-.01-.26-.14-.51-.38-.76-.37-.36-.91-.64-1.61-.84-.7-.2-1.53-.24-2.48-.12-.74.09-1.41.29-2,.6-.59.31-1.07.68-1.44,1.12-.37.44-.66.93-.87,1.47-.21.55-.33,1.1-.34,1.66-.02.56.05,1.13.21,1.7.16.57.39,1.09.7,1.58.31.48.72.91,1.22,1.29.5.38,1.06.66,1.68.84.4.12.86.19,1.37.22.52.03,1.04,0,1.59-.06.54-.07,1.04-.24,1.48-.51.45-.27.76-.63.94-1.07.1-.25.17-.58.2-.99.03-.41.04-.77.04-1.08s.06-.61.17-.89c.12-.28.31-.46.57-.54h-3.07c.34.14.58.38.7.72Z"/>
        <path class="cls-2" d="M23.14,22.58c0,.1,0,.28-.02.53-.01.25-.03.44-.04.59-.02.14-.05.32-.09.52-.04.2-.09.37-.14.49-.05.13-.13.25-.21.36-.09.11-.19.19-.31.24h2.99c-.13-.07-.24-.18-.34-.31-.09-.14-.17-.3-.22-.49-.05-.19-.1-.38-.14-.55-.04-.17-.06-.38-.08-.64-.01-.25-.02-.45-.02-.58v-4.75c.17-.2.31-.36.43-.49.12-.13.28-.28.48-.44.2-.16.38-.27.54-.32.16-.05.34-.05.53,0,.2.05.38.17.54.37.33.41.39,1.02.16,1.84.32.02.58-.06.78-.24.2-.18.32-.4.34-.68.04-.54-.15-.98-.57-1.31-.36-.28-.75-.42-1.15-.43-.4,0-.78.09-1.12.29-.34.2-.68.48-1,.85-.35.38-.88,1.03-1.61,1.95-.72.92-1.41,1.76-2.07,2.53-.66.77-1.24,1.35-1.74,1.74-.39.3-.88.55-1.47.77-.6.22-1.2.36-1.81.42-.64.06-1.22-.01-1.75-.23-.73-.3-1.22-.78-1.48-1.46-.25-.67-.19-1.28.19-1.85.54-.82,1.55-1.25,3.01-1.28.42,0,.79-.02,1.1-.05.31-.02.62-.07.94-.13.32-.06.57-.15.76-.27.19-.12.31-.27.35-.45.12.42.17.96.15,1.61v2.5c.44-.33.9-.75,1.38-1.24v-.06s0-.04,0-.06c0-.02,0-.04,0-.06v-1.07c-.02-.63-.1-1.15-.24-1.57-.17-.52-.44-.98-.8-1.39-.36-.4-.85-.74-1.48-1.01-.62-.27-1.34-.42-2.16-.46-.95-.04-1.78.05-2.47.27-.7.22-1.22.49-1.57.82-.17.17-.28.34-.32.52-.04.18-.02.33.05.45.07.13.19.23.36.3.17.07.36.09.58.07.03-.43.22-.82.57-1.16.35-.34.8-.58,1.35-.74.55-.15,1.12-.19,1.73-.12.26.04.52.1.78.18.26.09.5.19.71.3.21.12.41.25.59.39.18.14.31.29.4.45.09.15.14.31.16.46.02.15-.03.3-.14.43-.11.14-.27.25-.48.35-.21.1-.51.18-.9.24-.39.06-.84.09-1.36.09-1.07,0-1.97.14-2.7.38-.73.24-1.28.58-1.66,1-.41.45-.6.97-.58,1.55.02.59.23,1.1.63,1.55.39.42.92.73,1.61.93.69.2,1.4.28,2.13.24.73-.04,1.44-.15,2.14-.34.69-.19,1.26-.44,1.69-.74v1.07h2.16c-.46-.22-.72-.82-.78-1.83,0-.14-.01-.31-.01-.51.61-.65,1.51-1.72,2.69-3.22v2.85Z"/>
        <path class="cls-2" d="M23.13,18.7c.6-.76,1.07-1.32,1.39-1.68v-.72h-2.18c.49.2.75,1,.78,2.39Z"/>
        <path class="cls-2" d="M30.31,23.68c.45.48,1.05.87,1.79,1.17.74.3,1.56.45,2.46.45.15,0,.29,0,.42-.01.13,0,.27-.02.41-.03.14-.01.27-.03.4-.05.13-.02.26-.04.39-.07.13-.03.26-.07.38-.1.17-.05.34-.11.49-.18v.45h2.19c-.13-.05-.25-.14-.34-.27-.1-.13-.17-.29-.23-.5-.05-.21-.1-.39-.14-.56-.04-.17-.06-.39-.07-.68-.01-.28-.02-.49-.02-.62,0-.13,0-.33,0-.6v-3.96c0-.27,0-.47,0-.6,0-.13.01-.34.02-.62.01-.28.03-.51.07-.68.04-.17.08-.35.14-.56.05-.21.13-.37.23-.5.1-.13.21-.22.34-.27h-2.19v2.92c-.39-.45-.86-.8-1.41-1.05-.56-.25-1.12-.39-1.69-.43-.57-.03-1.15.03-1.73.2-.58.16-1.1.41-1.56.73-.46.32-.84.75-1.14,1.26-.3.52-.47,1.09-.51,1.72-.04.63.05,1.24.28,1.84.23.6.57,1.14,1.02,1.62ZM30.71,18.91c.12-.47.3-.85.55-1.14.24-.29.53-.52.87-.7.33-.18.69-.29,1.06-.33.37-.04.76-.03,1.15.03.39.06.76.16,1.11.32.34.15.66.35.95.59.29.24.51.5.66.79v5.76c-.47.4-1.03.63-1.69.69-.55.05-1.07,0-1.56-.14-.49-.14-.92-.35-1.28-.63-.36-.28-.68-.61-.96-1-.28-.39-.49-.8-.65-1.25-.16-.45-.26-.91-.3-1.39-.05-.59-.02-1.13.1-1.6Z"/>
        <path class="cls-2" d="M53.29,25.03c-.09-.12-.16-.24-.21-.36s-.1-.28-.14-.47c-.04-.19-.07-.36-.09-.5-.02-.14-.03-.33-.04-.55-.01-.22-.02-.39-.02-.5v-3.67c.2-.31.35-.53.45-.68.11-.14.25-.33.44-.55s.37-.39.57-.51c.19-.12.4-.21.63-.28.4-.11.76-.09,1.1.04.33.14.6.36.81.67.21.31.37.68.47,1.12.11.43.16.89.16,1.38v2.46c0,.31,0,.55-.01.74,0,.19-.03.44-.06.74-.03.31-.09.56-.19.76-.09.2-.21.34-.35.43h2.65c-.1-.05-.19-.12-.26-.23-.07-.11-.13-.25-.17-.43-.04-.18-.08-.34-.1-.49-.03-.15-.04-.34-.05-.58-.01-.24-.02-.42-.02-.53v-2.7c0-.56-.07-1.07-.22-1.55-.15-.47-.34-.87-.59-1.18-.25-.32-.54-.58-.88-.79-.34-.21-.7-.33-1.08-.37-.38-.03-.78,0-1.18.1-.19.05-.37.12-.53.2s-.33.19-.49.34c-.16.14-.29.27-.4.36-.11.1-.24.26-.39.48-.16.22-.27.38-.33.48-.06.1-.18.29-.36.57-.18.28-.29.47-.34.55-.91,1.44-1.59,2.45-2.06,3.03-.96,1.21-2.05,1.94-3.26,2.19-1.22.25-2.47-.02-3.77-.81-.31-.2-.54-.46-.68-.77-.06-.13-.08-.25-.07-.37.09-.58,1.04-.87,2.82-.88,1.66,0,2.91-.37,3.75-1.08.65-.55.93-1.2.85-1.95-.08-.71-.47-1.31-1.18-1.8-1.05-.73-2.46-.96-4.22-.68-1.23.2-2.19.57-2.88,1.12-.6.49-1.03,1.07-1.28,1.75-.25.68-.31,1.37-.17,2.08.21,1.22.84,2.18,1.89,2.88.9.6,1.85.97,2.84,1.09.99.12,1.96-.02,2.92-.41.95-.4,1.79-1.04,2.52-1.92.4-.49.84-1.11,1.33-1.87v.92c0,.27,0,.47,0,.6,0,.13-.01.34-.02.62-.01.28-.03.51-.07.68-.04.17-.08.35-.14.56-.05.21-.13.37-.23.5-.1.13-.21.22-.34.27h2.99c-.11-.06-.21-.15-.29-.27ZM41.93,22.43c-.28-.59-.44-1.2-.48-1.83-.04-.64.04-1.23.24-1.79.21-.57.55-1.02,1.01-1.37.46-.34.99-.57,1.57-.68.68-.12,1.33-.06,1.93.18.76.3,1.31.8,1.65,1.5.32.68.32,1.3.01,1.87-.44.79-1.37,1.21-2.79,1.24-.43,0-.79.02-1.07.05-.29.02-.59.06-.89.12-.31.06-.56.15-.75.26-.19.12-.33.27-.42.45Z"/>
        <path class="cls-2" d="M51.05,16.8c.05.13.1.24.14.34.04.1.07.25.1.45.03.2.05.35.06.46s.03.28.03.52c0,.24.01.4.02.49,0,.09,0,.27,0,.53v.47c.15-.23.37-.57.64-1.01.33-.52.58-.9.74-1.14v-1.6h-2.19c.09.05.18.1.26.18.08.07.14.17.2.3Z"/>
        <path class="cls-2" d="M5.86,33.27c-.12-.13-.22-.31-.31-.52l-1.79-4.57c-.12-.3-.25-.52-.39-.65-.15-.13-.32-.2-.52-.22-.2-.01-.45-.01-.74,0,.15.06.23.14.23.24l-1.46,5.1c-.08.22-.19.41-.34.57-.15.16-.33.28-.54.35h1.3c-.12-.1-.21-.23-.25-.39-.04-.16-.04-.33,0-.5l.26-.89h2.87l.35.9c.06.17.08.33.05.5-.03.17-.1.29-.22.39h1.92c-.18-.07-.32-.17-.44-.3ZM1.38,31.57l1.12-3.91c.11.14.21.33.31.58l1.3,3.33H1.38Z"/>
        <path class="cls-2" d="M9.77,28.47c-.21-.2-.48-.29-.82-.28-.47.01-.86.17-1.16.47v-.49h-1.29c.3.12.45.65.47,1.57v2.2c0,.06,0,.17,0,.32,0,.15-.02.27-.03.35-.01.08-.03.19-.05.31-.02.12-.05.22-.08.3-.03.08-.07.15-.13.22-.05.07-.11.12-.18.14h1.77c-.07-.04-.14-.11-.2-.19-.06-.08-.1-.18-.14-.3-.03-.12-.06-.23-.08-.33-.02-.1-.04-.23-.05-.38,0-.15-.01-.27-.01-.35v-2.27c0-.42.1-.75.3-.99.2-.24.43-.36.71-.35.25,0,.44.12.57.35.13.23.13.56.02.99.19.01.34-.04.46-.14.12-.11.19-.24.2-.41.03-.3-.07-.54-.28-.74Z"/>
        <path class="cls-2" d="M17.62,29.83c.2-.31.34-.54.44-.68v-1.83h-1.3c.08.03.15.09.2.16.06.08.1.18.14.3.03.12.06.24.08.34.02.1.04.24.04.41,0,.17.01.29.01.37,0,.08,0,.2,0,.36v1.18c.09-.13.21-.33.38-.61Z"/>
        <path class="cls-2" d="M21.84,33.44c-.04-.07-.08-.15-.1-.26-.03-.11-.05-.2-.06-.29-.02-.09-.03-.2-.03-.35,0-.15,0-.25,0-.32v-1.63c0-.26-.02-.5-.07-.73-.05-.23-.12-.43-.21-.6-.09-.17-.19-.32-.31-.45-.12-.13-.25-.24-.39-.32-.14-.08-.29-.14-.44-.18-.15-.04-.31-.06-.46-.06-.16,0-.31.03-.46.07-.08.02-.15.05-.23.09-.08.04-.14.07-.21.11-.06.04-.12.09-.19.15-.06.06-.12.11-.17.16-.05.05-.1.11-.16.18-.06.07-.11.14-.15.19-.04.06-.09.13-.15.22-.06.09-.1.16-.14.22-.03.06-.08.14-.14.24-.06.1-.11.18-.15.24-.54.87-.95,1.47-1.22,1.82-.34.43-.71.77-1.12,1.02-.41.25-.82.37-1.24.37-.53,0-1.01-.19-1.42-.58-.44-.41-.73-.95-.86-1.6-.14-.68-.07-1.28.21-1.78.36-.64.98-.96,1.86-.95.45,0,.86.12,1.22.36.36.23.56.51.61.84.08-.01.15-.05.22-.11.06-.06.1-.13.13-.21s.01-.18-.03-.28c-.04-.11-.11-.21-.21-.29-.45-.4-1.08-.58-1.9-.54-.64.03-1.19.15-1.66.37-.47.22-.8.49-1.01.82-.21.33-.34.69-.41,1.08-.07.39-.02.78.13,1.16.15.38.36.72.63,1.03.26.31.62.55,1.06.72.44.18.93.25,1.44.22.91-.05,1.72-.51,2.42-1.38.24-.29.5-.67.79-1.12v.86c0,.07,0,.17,0,.32,0,.15-.02.26-.03.35-.01.09-.03.19-.05.31-.02.12-.05.22-.08.3-.03.08-.07.15-.13.22-.05.07-.11.12-.18.14h1.77c-.07-.04-.14-.1-.2-.18-.06-.08-.1-.18-.14-.3-.03-.12-.06-.23-.08-.33-.02-.1-.04-.23-.04-.38,0-.15-.01-.27-.01-.35,0-.08,0-.19,0-.33v-1.93c.12-.18.21-.32.27-.41.06-.09.15-.2.26-.33.11-.13.22-.24.34-.31.11-.07.24-.13.37-.17.15-.03.29-.03.43-.02.14.01.28.07.41.17.13.1.24.22.34.37.1.15.18.35.23.59.06.24.08.52.08.82v1.61c0,.83-.12,1.32-.36,1.47h1.57c-.06-.03-.11-.07-.15-.14Z"/>
        <path class="cls-2" d="M23.85,26.77c-.08-.05-.16-.08-.26-.08-.14,0-.26.06-.35.18-.1.12-.15.27-.15.45s.05.33.15.45c.1.12.22.18.35.18.09,0,.18-.03.26-.09s.14-.13.18-.23c.05-.1.07-.2.07-.32s-.02-.22-.07-.32c-.05-.1-.11-.17-.18-.23Z"/>
        <path class="cls-2" d="M24.26,33.38c-.06-.09-.11-.19-.14-.28-.03-.09-.05-.22-.07-.37-.02-.15-.02-.27-.03-.35,0-.08,0-.19,0-.33v-3.61h-1.3c.08.03.14.07.2.13.06.06.1.14.14.24.03.1.06.19.08.28.02.08.04.2.04.34,0,.14.01.24.01.31,0,.07,0,.16,0,.29v1.96c0,.13,0,.23,0,.29,0,.07,0,.17-.01.31,0,.14-.02.25-.04.34-.02.08-.05.18-.08.28-.03.1-.08.18-.14.24-.06.06-.13.11-.2.13h1.77c-.09-.04-.17-.11-.23-.21Z"/>
        <path class="cls-2" d="M25.98,27.32c-.1.25-.28.45-.53.59s-.52.24-.81.28c.23.1.37.22.44.36.06.14.09.38.09.71v3.51c0,.22.06.41.19.57.13.16.28.24.46.24h.64c-.07-.04-.13-.09-.18-.16-.05-.07-.09-.14-.13-.22-.03-.08-.06-.17-.08-.28-.02-.11-.04-.21-.05-.3-.01-.09-.02-.2-.02-.32,0-.13,0-.23,0-.3,0-.07,0-.16,0-.28v-3.41h1.55v-.23h-1.55v-.76Z"/>
        <path class="cls-2" d="M30.7,31.56c.98,0,1.72-.22,2.22-.65.38-.33.55-.72.5-1.17-.05-.43-.28-.79-.7-1.08-.62-.44-1.45-.57-2.49-.41-.73.12-1.29.34-1.7.67-.25.21-.46.45-.61.72-.15.28-.24.56-.27.85-.03.29-.02.58.05.88.06.3.18.58.36.84.18.26.4.49.66.7.26.21.58.37.96.49.38.12.79.18,1.24.18.21,0,.42-.01.62-.04.2-.03.38-.07.56-.11.27-.09.5-.19.68-.31.18-.12.29-.24.35-.37.06-.12.09-.24.09-.36s-.02-.22-.06-.3c-.04-.08-.09-.14-.14-.18-.11.45-.31.79-.59,1.03-.29.24-.63.37-1.02.4-.12.01-.26.01-.39,0-.54-.05-1.04-.24-1.48-.54-.37-.25-.53-.49-.5-.71.06-.35.62-.52,1.67-.53ZM28.86,31.86c-.16-.35-.26-.72-.28-1.1-.03-.38.02-.74.14-1.08.12-.34.32-.61.6-.82.27-.21.58-.34.93-.41.4-.07.78-.04,1.14.11.45.18.78.48.97.89.19.41.19.78,0,1.13-.26.48-.81.72-1.65.74-.53.02-.95.06-1.25.13-.31.07-.51.2-.6.41Z"/>
        <path class="cls-2" d="M39.39,31.91c-.11.45-.31.79-.6,1.03-.29.24-.63.37-1.02.41-.75.06-1.38-.15-1.91-.64-.46-.43-.75-.97-.86-1.62-.12-.66-.03-1.24.26-1.73.37-.63.99-.94,1.84-.93.29,0,.57.05.83.16.27.11.49.25.67.43.18.18.28.38.31.6.11-.01.2-.06.27-.15.07-.09.09-.21.07-.35-.02-.14-.1-.27-.24-.39-.45-.39-1.08-.57-1.9-.54-.61.02-1.14.14-1.6.35-.46.21-.8.48-1.02.8-.22.32-.38.67-.46,1.05-.09.38-.07.76.07,1.13.13.38.33.72.58,1.03.25.31.61.56,1.07.75.46.19.97.29,1.54.29.43,0,.83-.05,1.18-.15.28-.09.51-.19.68-.31.17-.12.29-.24.35-.37.06-.12.09-.24.09-.36s-.02-.22-.06-.3c-.04-.08-.09-.14-.14-.18Z"/>
        <path class="cls-2" d="M41.23,27.32c-.1.25-.28.45-.53.59s-.52.24-.81.28c.23.1.37.22.44.36.06.14.09.38.09.71v3.51c0,.22.06.41.19.57.13.16.28.24.46.24h.64c-.07-.04-.13-.09-.18-.16-.05-.07-.09-.14-.13-.22-.03-.08-.06-.17-.08-.28-.02-.11-.04-.21-.05-.3-.01-.09-.02-.2-.02-.32,0-.13,0-.23,0-.3,0-.07,0-.16,0-.28v-3.41h1.55v-.23h-1.55v-.76Z"/>
        <path class="cls-2" d="M50.59,28.44v-.26h-1.29c.27.12.43.56.46,1.32.33-.49.61-.84.83-1.06Z"/>
        <path class="cls-2" d="M47.36,30.13v2.26c.26-.2.53-.47.82-.8,0-.38,0-.95,0-1.7,0-.76,0-1.32,0-1.7h-1.3c.08.04.14.1.2.18.06.08.1.18.14.3.03.12.06.23.08.33.02.1.03.23.04.38,0,.15.01.27.01.35v.4Z"/>
        <path class="cls-2" d="M51.75,28.2c-.24,0-.44.05-.62.12-.18.08-.36.21-.55.39-.17.16-.34.37-.52.62-.18.25-.36.52-.56.81-.19.29-.36.53-.5.71-.02.02-.09.11-.21.26-.12.15-.2.25-.24.29-.03.04-.11.13-.21.26-.11.13-.19.22-.25.28-.06.06-.13.14-.22.24s-.18.18-.26.26c-.08.07-.16.14-.24.21-.13.1-.27.2-.41.28-.15.08-.31.16-.49.23-.18.07-.36.11-.52.11-.17,0-.33-.03-.49-.09-.25-.11-.45-.33-.6-.65-.15-.32-.23-.74-.23-1.25v-3.08h-1.21c.06.03.11.07.15.14.04.07.08.15.1.26.03.11.05.2.06.29.01.09.03.2.03.35,0,.15.01.25.01.32s0,.17,0,.31v1.32c0,.36.05.69.14.98.09.29.21.53.37.71.16.19.33.33.53.44.2.11.4.17.62.19.3.03.63,0,.98-.13.35-.12.66-.27.93-.46v.67h1.3c-.17-.07-.28-.24-.35-.5-.07-.26-.11-.57-.12-.94.14-.16.46-.54.94-1.15.15-.18.36-.47.64-.87v1.82c0,.06,0,.17,0,.32,0,.15-.02.27-.03.35-.01.09-.03.19-.05.31-.02.12-.05.22-.08.3-.03.08-.07.15-.13.22-.05.07-.11.12-.18.14h1.77c-.07-.04-.14-.11-.2-.19-.06-.08-.1-.18-.14-.3-.03-.12-.06-.23-.08-.33-.02-.1-.04-.23-.04-.38,0-.15-.01-.27-.01-.35,0-.08,0-.19,0-.32v-2.66c.33-.42.66-.63,1.01-.63.1,0,.19.02.27.06.08.04.16.1.22.18.06.08.11.18.14.29.05.22.03.49-.05.8.13,0,.24-.02.34-.07.1-.05.18-.11.23-.2.05-.08.08-.18.09-.29.02-.25-.04-.46-.19-.64-.21-.26-.51-.38-.9-.37Z"/>
        <path class="cls-2" d="M59.03,31.91c-.11.45-.31.79-.59,1.03-.29.24-.63.37-1.02.4-.12.01-.26.01-.39,0-.54-.05-1.04-.24-1.48-.54-.37-.25-.53-.49-.5-.71.06-.35.62-.52,1.67-.53.98,0,1.72-.22,2.22-.65.38-.33.55-.72.5-1.17-.05-.43-.28-.79-.7-1.08-.62-.44-1.45-.57-2.49-.41-.73.12-1.29.34-1.7.67-.25.21-.46.45-.61.72-.15.28-.24.56-.27.85-.03.29-.02.58.05.88.06.3.18.58.36.84.18.26.4.49.66.7.26.21.58.37.96.49.38.12.79.18,1.24.18.21,0,.42-.01.62-.04.2-.03.38-.07.56-.11.27-.09.5-.19.68-.31.18-.12.29-.24.35-.37.06-.12.09-.24.09-.36s-.02-.22-.06-.3c-.04-.08-.09-.14-.14-.18ZM54.88,31.86c-.16-.35-.26-.72-.28-1.1-.03-.38.02-.74.14-1.08.12-.34.32-.61.6-.82.27-.21.58-.34.93-.41.4-.07.78-.04,1.14.11.45.18.78.48.97.89.19.41.19.78,0,1.13-.26.48-.81.72-1.65.74-.53.02-.95.06-1.25.13-.31.07-.51.2-.6.41Z"/>
      </g>
      <g>
        <path class="cls-1" d="M3.92,36.31c.23,0,.4-.18.4-.4,0-.23-.17-.41-.4-.41s-.4.18-.4.41.17.4.4.4Z"/>
        <path class="cls-1" d="M4.92,36.31c.23,0,.41-.18.41-.4,0-.23-.18-.41-.41-.41s-.4.18-.4.41.18.4.4.4Z"/>
        <path class="cls-1" d="M10.58,38.72c-.03.4-.15.66-.32.84-.18.17-.42.24-.64.24h-3.51v-2.33c0-.29.05-.47.36-.47h.11v-.12h-1.68c-1.38,0-2.26.6-2.26,1.58,0,.47.21.87.59,1.16.38.29.9.45,1.53.45h.55v.7h-3.3c-.72,0-1.02-.59-1.02-1.35v-1.15c0-.29.05-.47.36-.47h.11v-.12H.17v1.92c.05.53.35.98.81,1.22.25.14.55.21.88.21h4.24v-.96h3.94c.31,0,.64-.16.9-.43.26-.26.44-.64.44-1.11v-1c0-.29.03-.48.36-.48h.11v-.11h-1.28v1.79ZM5.3,39.79h-.53c-.78,0-1.37-.47-1.37-1.34,0-.53.26-.88.63-1.08.38-.2.85-.24,1.26-.11v2.53Z"/>
        <path class="cls-1" d="M10.87,35.67c0-.27.14-.46.47-.46.23,0,.39.06.42.27h.06c0-.17,0-.24-.09-.31-.08-.05-.24-.09-.46-.09-.48,0-.77.26-.77.59,0,.23.11.4.33.5h-.47v.14h1.49v-.15h-.51c-.33,0-.47-.2-.47-.49Z"/>
        <path class="cls-1" d="M12.34,40.06h.8v-4.05c0-.29.04-.48.46-.48v-.1h-1.26s0,4.63,0,4.63Z"/>
        <path class="cls-1" d="M26.13,38.71c-.03.4-.15.66-.32.84-.17.17-.42.25-.64.25h-.69c-.1-.14-.14-.2-.27-.33l-.27-.27c-.12-.12-.28-.28-.48-.49-.43-.42-1.07-1.06-2.07-2.06l-.89.9.08.08.08-.08c.21-.23.39-.13.59.08l2.2,2.18h-5.75c-.63,0-1-.36-1.03-1.09v-.25c0-.44-.16-.85-.45-1.15-.29-.29-.71-.47-1.23-.47s-.85.06-1.02.24c-.18.16-.18.35-.18.86h.14c.04-.57.41-.74.91-.74.7,0,1.03.49,1.03,1.26,0,.38-.08.71-.25.95-.17.25-.43.39-.77.39h-1.14v.27h1.28c.59,0,1.04-.23,1.33-.58.08.14.16.24.28.32.23.18.38.25.66.26h6.44l.13.13c.14.16.31.34.43.59.12.25.16.55.08.89-.01.03-.01.05.01.05.02.01.05-.02.09-.08.08-.13.2-.35.27-.62.06-.27.06-.61-.08-.96h.98c.39,0,.71-.15.95-.41.25-.26.39-.62.39-1.08v-2.56c0-.29.05-.47.47-.47v-.12h-1.28v3.29Z"/>
        <path class="cls-1" d="M27.89,40.06h.8v-4.05c0-.29.04-.48.46-.48v-.1h-1.26s0,4.63,0,4.63Z"/>
        <path class="cls-1" d="M33.7,36.31c.23,0,.41-.18.41-.4,0-.23-.18-.41-.41-.41s-.4.18-.4.41.18.4.4.4Z"/>
        <path class="cls-1" d="M32.7,36.31c.23,0,.4-.18.4-.4,0-.23-.17-.41-.4-.41s-.4.18-.4.41.17.4.4.4Z"/>
        <path class="cls-1" d="M41.96,39.19c0,.33-.27.59-.6.59-.3,0-.55-.23-.58-.51v-1.79c0-.29.05-.36.36-.36h.11v-.11h-1.28v2.2c-.03.33-.26.6-.59.6s-.6-.27-.6-.6v-1.5c0-.29.05-.48.39-.48h.1v-.11h-1.26v1.6c-.03.4-.15.66-.32.84-.18.17-1.9.25-2.12.25h-.68v-2.29c0-.29.05-.48.36-.48h.11v-.11h-1.68c-1.38,0-2.26.61-2.26,1.56,0,.47.24.86.58,1.14.34.28.78.44,1.21.45h4.27c.43,0,.71-.21.96-.47.23.31.62.46,1.01.45.38-.01.74-.18.94-.53.05.2.24.33.43.42.19.09.41.13.58.13.4,0,.74-.15.99-.41.25-.25.39-.57.39-.94v-1.22c0-.29.03-.48.36-.48h.1v-.11h-1.26v2.29ZM34.08,39.79h-.88c-.3,0-.56-.15-.73-.39-.18-.24-.29-.55-.29-.92,0-.53.26-.89.63-1.09.38-.2.85-.23,1.26-.1v2.5Z"/>
        <path class="cls-1" d="M50.75,36.31c.23,0,.41-.18.41-.4,0-.23-.18-.41-.41-.41s-.4.18-.4.41.18.4.4.4Z"/>
        <path class="cls-1" d="M57.93,36.83c-.46,0-.83.06-1,.23v-.51h-1.21v.1h.1c.3,0,.34.19.34.46v.79h-.05c-.94-.01-1.54.42-1.54,1.07,0,.2.05.38.16.54.09.11.18.21.31.29h-3.88v-2.27c0-.29.05-.48.36-.48h.11v-.11h-1.28v2.86h-2.66c-.63,0-1-.36-1.03-1.09v-.25c0-.44-.16-.85-.45-1.15-.29-.29-.71-.47-1.23-.47s-.85.06-1.02.24c-.18.16-.18.35-.18.86h.14c.04-.57.41-.74.91-.74.7,0,1.03.49,1.03,1.26,0,.38-.08.71-.25.95-.17.25-.43.39-.77.39h-1.14v.27h1.28c.59,0,1.04-.23,1.33-.58.08.14.16.24.28.32.23.18.38.25.66.26h10.68c1.01,0,1.6-.84,1.6-1.68s-.59-1.54-1.6-1.54ZM56.16,39.79h-.35c-.46,0-.71-.38-.71-.81,0-.61.38-.88,1.06-.86v1.67ZM57.79,39.79h-.86v-2.03c.06-.45.42-.6.86-.6.59,0,.99.49.99,1.21s-.31,1.41-.99,1.41Z"/>
      </g>
      <path class="cls-1" d="M40.65,6.5c-.09-.12-.25-.13-.39-.14-2.72-.09-5.45.93-7.5,2.81-2.05,1.88-3.39,4.59-3.69,7.46-1.32-3.47-2.67-7-4.95-9.86C19.87,1.43,12.74-.81,6.26.26c-.05,0-.1.02-.15.03-.13.02-.26.05-.36.15-.18.2-.08.53.03.78,1.16,2.57,2.33,5.16,3.93,7.46s3.66,4.31,6.17,5.35c2.51,1.03,5.49.97,7.73-.58.1-.07.21-.16.25-.28.07-.22-.1-.44-.26-.6-2.42-2.47-5.16-4.59-8.11-6.28.1-.21.39-.16.6-.09,5.34,1.93,9.93,6.1,12.56,11.38-2.22,8.01,2.97,7.51,2.97,7.51-4.52-1.75-2.6-6.88-2.6-6.88l-.02-.03c.2-.54.43-1.06.69-1.58.48-.97,1.05-1.89,1.71-2.74,1.06-1.38,2.37-2.6,3.96-3.16-1.46,1.3-2.79,2.76-3.96,4.36-.13.18,2.8.51,3.09.45,1.14-.21,2.09-.79,2.9-1.64,1.71-1.81,2.81-4.42,3.29-6.91.03-.15.05-.32-.04-.44Z"/>
    </g>
  </g>
</svg>