<?xml version="1.0" encoding="UTF-8"?>
<svg id="Layer_2" data-name="Layer 2" xmlns="http://www.w3.org/2000/svg" viewBox="0 0 56.98 59.53">
  <defs>
    <style>
      .cls-1 {
        fill: #cea248;
      }
    </style>
  </defs>
  <g id="Layer_9" data-name="Layer 9">
    <g>
      <g>
        <path class="cls-1" d="M21.83,46.95v1.41c0,1.36-.36,1.81-1.21,1.81-.68,0-1.23-.12-1.23-1.72v-1.51c0-.78.04-1.29.24-1.55h-1.16c.19.25.24.76.24,1.55v1.61c0,1.4.78,2.14,1.7,2.14,1.49,0,1.92-.7,1.92-2.33v-1.41c0-.78.02-1.29.21-1.55h-1.05c.29.23.33.76.33,1.55Z"/>
        <path class="cls-1" d="M15.69,45.4c-1.39,0-2.51,1.15-2.51,2.62s1.14,2.67,2.58,2.67,2.51-1.15,2.51-2.63-1.14-2.66-2.58-2.66ZM16.06,50.14c-1.15,0-2.11-1.2-2.11-2.45,0-.96.55-1.74,1.44-1.74,1.14,0,2.11,1.19,2.11,2.45,0,.95-.55,1.74-1.44,1.74Z"/>
        <path class="cls-1" d="M40.81,45.4c-1.39,0-2.51,1.15-2.51,2.62s1.14,2.67,2.58,2.67,2.51-1.15,2.51-2.63-1.14-2.66-2.58-2.66ZM41.18,50.14c-1.15,0-2.11-1.2-2.11-2.45,0-.96.55-1.74,1.44-1.74,1.14,0,2.11,1.19,2.11,2.45,0,.95-.55,1.74-1.44,1.74Z"/>
        <path class="cls-1" d="M5.96,48.31v.6c.16,0,.57-.07,1.34-.07s1.18.07,1.34.07v-.6c-.16,0-.57.06-1.34.06s-1.18-.06-1.34-.06Z"/>
        <path class="cls-1" d="M12.91,45.4h-1.17c.2.26.35.77.35,1.56v.38h-2.4v-.38c0-.79.15-1.31.35-1.56h-1.17c.2.26.35.77.35,1.56v2.16c0,.79-.15,1.31-.35,1.56h1.17c-.2-.26-.35-.77-.35-1.56v-1.27h2.4v1.27c0,.79-.15,1.31-.35,1.56h1.17c-.2-.26-.35-.77-.35-1.56v-2.16c0-.79.15-1.31.35-1.56Z"/>
        <path class="cls-1" d="M23.83,47.14c-.52-.43-.1-1.31.67-1.27.75.01,1.38.63,1.56,1.36h.1l-.18-1.52c-.84-.5-3.08-.51-3.09,1.01-.03.82.84,1.28,1.51,1.59.68.32,1.24.52,1.24,1.16-.02,1.04-1.57.88-2.07.4-.34-.33-.61-.75-.75-1.42h-.08l.13,1.93c.4.16.85.32,1.65.32.92,0,1.78-.4,1.8-1.34-.01-1.36-1.66-1.53-2.5-2.21Z"/>
        <path class="cls-1" d="M50.49,47.14c-.52-.43-.1-1.31.67-1.27.75.01,1.38.63,1.56,1.36h.1l-.18-1.52c-.84-.5-3.08-.51-3.09,1.01-.03.82.84,1.28,1.51,1.59.68.32,1.24.52,1.24,1.16-.02,1.04-1.57.88-2.07.4-.34-.33-.61-.75-.75-1.42h-.08l.13,1.93c.4.16.85.32,1.65.32.92,0,1.78-.4,1.8-1.34-.01-1.36-1.66-1.53-2.5-2.21Z"/>
        <path class="cls-1" d="M27.64,50.18v-2.96c.53.13,1,.33,1.57.75h.08v-.88c-.69.03-1.68-.17-1.68-.86,0-.59,1.56-.36,1.91.15h.1l-.04-.98h-3.06c.56.66.44,2.67.44,3.68,0,.84-.11,1.22-.44,1.61h3.28l.04-1.18c-.39.69-1.44.67-2.22.67Z"/>
        <path class="cls-1" d="M1.29,45.57l.13-.17H.02l.13.17c.16.21.24.67.24,1.44v2.08c0,.77-.08,1.22-.24,1.44l-.13.17h1.41l-.13-.17c-.16-.21-.24-.67-.24-1.44v-2.08c0-.77.08-1.22.24-1.44Z"/>
        <path class="cls-1" d="M49.07,45.57l.13-.17h-1.41l.13.17c.16.21.24.67.24,1.44v2.08c0,.77-.08,1.22-.24,1.44l-.13.17h1.41l-.13-.17c-.16-.21-.24-.67-.24-1.44v-2.08c0-.77.08-1.22.24-1.44Z"/>
        <path class="cls-1" d="M4.64,45.58s.08.09.14.24v3.32l-2.32-3.73h-.83l.27.44v4.34c-.06.22-.12.31-.14.34l-.14.17h1.28l-.17-.18s-.08-.09-.14-.24v-3.28l2.22,3.7h.65v-4.78c.06-.22.12-.31.14-.34l.14-.17h-1.28l.17.18Z"/>
        <path class="cls-1" d="M31.47,45.4c.36.43.44,1.43.45,2.35v1.33c-.01.77-.09,1.22-.25,1.44l-.13.17h1.41l-.13-.17c-.16-.2-.23-.63-.24-1.33h0v-1.97c.53.13,1,.33,1.57.75h.08v-.88c-.69.03-1.68-.17-1.68-.86,0-.59,1.56-.36,1.91.15h.1l-.04-.98h-3.06Z"/>
        <path class="cls-1" d="M35.9,50.18c-.06-.25-.09-.61-.09-1.1v-2.08c0-.77.08-1.22.24-1.44l.13-.17h-1.41l.13.17c.16.21.24.67.24,1.44v2.08c0,.77-.08,1.22-.24,1.44l-.13.17h3.28l.04-1.18c-.39.69-1.42.67-2.2.67Z"/>
        <path class="cls-1" d="M47.23,46.35c0-.33-.17-.58-.49-.74-.58-.33-2.41-.18-3.14-.21.33.38.43.81.44,1.61v2.07c-.01.79-.11,1.22-.44,1.61h1.51c-.48-.76-.31-1.81.39-2.58,0,0,.41.88.41.88.27.6.48,1.32.46,1.7h1.22c-.61-.94-1.12-2.05-1.56-3.04.5-.34,1.2-.67,1.2-1.3ZM44.48,48.78c.09-.25.07-.75.08-1.05.02-.45.02-.86.07-1.49.05-.45.26-.53.71-.54.57.01,1.13.1,1.13.64,0,.86-1.47.9-1.99,2.44Z"/>
        <path class="cls-1" d="M56.84,45.4h-3.53l-.11,1.01h.18c.27-.36.57-.51.95-.51.27,0,.41.08.41.53,0,0,0,2.66,0,2.66-.01.79-.11,1.22-.44,1.61h1.55c-.33-.39-.43-.83-.44-1.61v-2.66c0-.44.14-.53.4-.53.35,0,.65.09.96.51h.18l-.11-1.01Z"/>
      </g>
      <path class="cls-1" d="M28.48,0C12.75,0,0,9.56,0,21.36s12.75,21.36,28.48,21.36,28.48-9.56,28.48-21.36S44.21,0,28.48,0ZM19.45,19.83l-.05-.73c-.15-2.08-.38-3.74-.7-4.95,6.47,1.31,8.14,7.11,8.5,8.88.05.24.07.48.07.73v9.35c-.27-.08-.53-.17-.78-.27l-.09-.03c-6.23-2.36-6.59-7.52-6.96-12.98ZM19.95,31.13c-2.96-1.98-4.15-5.5-5.42-9.21l-.24-.69c-.68-1.97-1.33-3.52-1.94-4.61.25-.02.49-.02.73-.02,1.3,0,2.54.22,3.69.66.07.62.14,1.3.19,2.02l.05.73c.18,2.58.36,5.24,1.16,7.66.44,1.32,1.02,2.47,1.78,3.47ZM37.59,19.11l-.05.73c-.38,5.46-.73,10.62-6.96,12.98l-.11.04c-.24.09-.5.18-.76.26v-9.34c0-.26.02-.51.07-.74.36-1.77,2.03-7.58,8.5-8.89-.32,1.21-.55,2.88-.7,4.96ZM38.81,27.66c.8-2.42.98-5.08,1.16-7.65l.05-.73c.05-.73.12-1.41.19-2.03,1.14-.43,2.37-.65,3.67-.65.24,0,.48,0,.73.02-.62,1.09-1.27,2.64-1.95,4.61l-.24.69c-1.26,3.69-2.45,7.2-5.37,9.18.75-.99,1.32-2.13,1.76-3.44ZM28.49,19.21c-.74-1.62-1.71-3.01-2.9-4.16.65-.48,1.59-.99,2.71-1.04.06,0,.12,0,.17,0,.96,0,1.94.36,2.89,1.07-1.18,1.14-2.14,2.53-2.88,4.14ZM29.71,40.81v-5.16c.51-.14,1-.29,1.46-.45,4.18-.09,7.31-1.44,9.55-4.13,1.97-2.36,3.01-5.41,4.01-8.36l.24-.69c1.49-4.35,2.82-5.38,2.83-5.38l.08-.05.27-1.85-.88-.19c-1.16-.25-2.3-.38-3.39-.38s-2.14.13-3.16.38c.25-.78.6-1.22.6-1.22l.05-.07-.14-1.78h-.19s-.11-.01-.29-.01c-1.11,0-4.88.15-7.43,2.04-1.54-1.29-3.16-1.94-4.84-1.94-.09,0-.19,0-.28,0-2.09.09-3.71,1.19-4.56,1.91-2.66-1.88-6.36-2.03-7.45-2.03-.15,0-.24,0-.24,0h-.19s-.18,1.76-.18,1.76l.06.07s.37.46.63,1.25c-1.01-.25-2.1-.38-3.23-.38-2,0-3.77.49-3.85.51l-.16.05.03,1.63.09.06c.08.07,1.32,1.16,2.84,5.61l.24.69c1.01,2.95,2.04,6.01,4.02,8.37,2.25,2.69,5.38,4.04,9.57,4.13.46.16.95.32,1.46.45v5.16c-13.78-.47-24.75-9-24.75-19.45S14.14,1.89,28.48,1.89s25.96,8.72,25.96,19.47-10.96,18.97-24.73,19.45Z"/>
      <g>
        <path class="cls-1" d="M37.9,54.7c-1.41.4-1.75,2.39-.54,3.13.4.28.94.33,1.41.33.17,0,.38,0,.59-.08-.06.77-.56,1.04-1.24,1.06,0,0,.31.38.53.38,1.64,0,1.51-1.67,1.51-3.28,0-1.24-1.09-1.87-2.26-1.54ZM39.39,57.68c-.23,0-.47,0-.7,0-.55.02-1.06-.1-1.21-.68-.22-.8-.07-1.87.9-1.88.95,0,1.03.94,1.01,1.69,0,.29,0,.58,0,.87Z"/>
        <rect class="cls-1" x="52.06" y="54.16" width=".72" height=".72" transform="translate(-23.2 53.04) rotate(-45)"/>
        <rect class="cls-1" x="3.13" y="54.16" width=".72" height=".72" transform="translate(-37.53 18.44) rotate(-45)"/>
        <rect class="cls-1" x="1.98" y="54.16" width=".72" height=".72" transform="translate(-37.87 17.62) rotate(-45)"/>
        <polygon class="cls-1" points="56.18 54.02 56.18 58.13 56.98 58.13 56.98 53.67 56.18 54.02"/>
        <path class="cls-1" d="M47.46,56.2c0-.31-.09-.61-.27-.87-.31-.46-.78-.73-1.4-.79-.11-.01-.22-.02-.33-.02-.3,0-.58.05-.82.15-.27.11-.5.28-.71.5-.11.12-.18.2-.18.31,0,.07.03.12.08.19-.54.07-.9.32-1.1.75-.12.28-.14.54-.06.8.05.16.14.31.27.46h-1.04c-.14,0-.25-.11-.25-.25v-3.75l-.8.34v3.55c0,.43.11.55.54.57h.23s.03,0,.03,0h4.72c.13,0,.24-.07.3-.18,0,.1.08.18.18.18h.62v-1.78h0c0-.05,0-.1,0-.15ZM44.64,57.14s0,.07,0,.11v.43h-.7s-.09-.01-.13-.02c-.2-.04-.33-.16-.39-.36-.09-.28-.09-.56,0-.83.09-.24.28-.37.56-.37.02,0,.04,0,.06,0,.28.02.48.18.55.43.05.2.05.4.05.61ZM46.66,57.68h-1.32s0-.02,0-.03c0-.22,0-.45,0-.74-.01-.56-.3-.96-.84-1.16-.04-.02-.09-.03-.12-.05,0-.03.03-.07.04-.12h0s0-.02.01-.02c0,0,0-.02.01-.03.14-.3.39-.47.81-.56.07-.01.15-.02.23-.02.35,0,.83.15,1.02.56.09.19.13.38.14.58,0,.18,0,.37,0,.55v1.03Z"/>
        <path class="cls-1" d="M54.55,57.68h-3.99c-.14,0-.25-.11-.25-.25v-2.5l-.8.34v2.29c0,.43.11.55.54.57h.23s.03,0,.03,0h3.94c.13,0,.24-.07.3-.18,0,.1.08.18.18.18h.62v-3.2l-.8.34v2.41Z"/>
        <path class="cls-1" d="M35.36,57.25c0,.23-.19.42-.42.42h-.73v-2.75l-.8.34v1.98c0,.23-.19.42-.42.42h-.73v-2.75l-.8.34v1.98c0,.23-.19.42-.42.42h-3.63c-.14,0-.25-.11-.25-.25v-2.5l-.8.34v2.29c0,.43.11.55.54.57h.23s.03,0,.03,0h4c.13,0,.25-.08.3-.19v.1s.04.09.09.09h1.57c.12,0,.23-.07.29-.16v.07s.04.09.09.09h1.97c.38,0,.69-.31.69-.69v-2.51l-.8.34v1.98Z"/>
        <rect class="cls-1" x="22.47" y="53.52" width=".72" height=".72" transform="translate(-31.41 31.93) rotate(-45)"/>
        <path class="cls-1" d="M13.69,54.93l-.8.34v2.77c0,.89-.58,1.09-1.24,1.11,0,0,.31.38.53.38,1.64,0,1.51-1.54,1.51-3.22v-1.38Z"/>
        <path class="cls-1" d="M24.02,55.08c-.5-.43-1.43-.53-2.03-.23-1.06.5-1.29,2.05-.4,2.83h-1.73v-4l-.8.34v3.66h-1.25c.03-.45.02-.94.02-1.43,0-1.24-1.09-1.87-2.26-1.54-1.41.4-1.75,2.39-.54,3.13.4.28.94.33,1.41.33.17,0,.38,0,.59-.08-.06.77-.56,1.04-1.24,1.06,0,0,.31.38.53.38.97,0,1.32-.58,1.45-1.39h.99c.14,0,.25-.08.31-.19v.19h4.6s.09,0,.13-.03c.06-.02.12-.06.16-.13v.08s.03.07.07.07h.14c.25,0,.45-.2.45-.45,0-.23,0-.48,0-.61,0-1.02.05-1.45-.59-2ZM17.05,57.68c-.23,0-.47,0-.7,0-.55.02-1.06-.1-1.21-.68-.22-.8-.07-1.87.9-1.88.95,0,1.03.94,1.01,1.69,0,.29,0,.58,0,.87ZM23.83,57.68h-1.08c-.09,0-.17-.02-.26-.05-.51-.17-.64-.74-.64-1.34,0-.69.32-1.16,1.01-1.16,1.28.07.91,1.69.98,2.55Z"/>
        <path class="cls-1" d="M11.79,54.93l-.8.34v1.98c0,.23-.19.42-.42.42h-.73v-2.75l-.8.34v1.98c0,.23-.19.42-.42.42h-.73v-2.75l-.8.34v1.98c0,.23-.19.42-.42.42h-.85v-2.75l-.8.34v1.98c0,.23-.19.42-.42.42H1.07c-.14,0-.25-.11-.25-.25v-2.5l-.8.34v2.29c0,.43.11.55.54.57h.21s.02,0,.02,0h3.95c.12,0,.22-.06.28-.15v.08s.03.07.07.07h1.7c.13,0,.25-.08.3-.19v.1s.04.09.09.09h1.57c.12,0,.23-.07.29-.16v.07s.04.09.09.09h1.97c.38,0,.69-.31.69-.69v-2.51Z"/>
      </g>
    </g>
  </g>
</svg>