<?xml version="1.0" encoding="UTF-8"?>
<svg id="Layer_2" data-name="Layer 2" xmlns="http://www.w3.org/2000/svg" xmlns:xlink="http://www.w3.org/1999/xlink" viewBox="0 0 59.53 12.52">
  <defs>
    <style>
      .cls-1 {
        fill: url(#linear-gradient-2);
      }

      .cls-2 {
        fill: url(#linear-gradient-4);
      }

      .cls-3 {
        fill: url(#linear-gradient-3);
      }

      .cls-4 {
        fill: url(#linear-gradient-5);
      }

      .cls-5 {
        fill: url(#linear-gradient-8);
      }

      .cls-6 {
        fill: url(#linear-gradient-7);
      }

      .cls-7 {
        fill: url(#linear-gradient-6);
      }

      .cls-8 {
        fill: url(#linear-gradient);
      }
    </style>
    <linearGradient id="linear-gradient" x1="9.66" y1="6.23" x2="24.82" y2="6.23" gradientUnits="userSpaceOnUse">
      <stop offset="0" stop-color="#010101"/>
      <stop offset="1" stop-color="#231f20"/>
    </linearGradient>
    <linearGradient id="linear-gradient-2" x1="20.49" y1=".49" y2=".49" xlink:href="#linear-gradient"/>
    <linearGradient id="linear-gradient-3" x1="19.29" y1="6.23" x2="33.43" y2="6.23" xlink:href="#linear-gradient"/>
    <linearGradient id="linear-gradient-4" x1="35.76" y1="6.23" x2="50.37" y2="6.23" xlink:href="#linear-gradient"/>
    <linearGradient id="linear-gradient-5" x1="48.12" y1="6.23" x2="59.53" y2="6.23" xlink:href="#linear-gradient"/>
    <linearGradient id="linear-gradient-6" x1="0" y1="10.12" x2="6.32" y2="10.12" xlink:href="#linear-gradient"/>
    <linearGradient id="linear-gradient-7" x1="1.37" y1="5.12" x2="6.38" y2="5.12" xlink:href="#linear-gradient"/>
    <linearGradient id="linear-gradient-8" x1="1.33" y1="1.05" x2="6.32" y2="1.05" xlink:href="#linear-gradient"/>
  </defs>
  <g id="Layer_9" data-name="Layer 9">
    <g>
      <polygon class="cls-8" points="24.82 .9 20.49 .9 20.49 6.02 15.2 6.02 15.2 .48 16.42 .48 16.42 .07 9.66 .07 9.66 .48 10.88 .48 10.88 11.98 9.66 11.98 9.66 12.39 16.42 12.39 16.42 11.98 15.2 11.98 15.2 6.44 20.49 6.44 20.49 11.98 19.29 11.98 19.29 12.39 21.58 12.39 21.82 11.98 24.82 6.77 24.82 .9"/>
      <polygon class="cls-1" points="24.82 .49 20.49 .49 24.82 .49 24.82 .49"/>
      <polygon class="cls-3" points="19.29 .07 19.29 .49 20.49 .49 24.82 .49 28.87 .49 24.82 7.52 22.02 12.39 33.43 12.39 33.43 11.98 26.58 11.98 33.43 .07 19.29 .07"/>
      <polygon class="cls-2" points="49.93 .07 45.01 8.63 40.08 .07 35.76 .07 37.52 3.14 37.53 11.98 35.76 11.98 35.76 12.39 39.57 12.39 39.57 11.98 37.96 11.98 37.96 3.89 42.85 12.39 43.28 12.39 50.37 .07 49.93 .07"/>
      <path class="cls-4" d="M56.77,6.13c1.24-.51,2.1-1.61,2.1-2.87,0-1.75-1.65-3.18-3.68-3.18h-4.37l-2.7,4.7v7.62h7.73c2.04,0,3.68-1.42,3.68-3.18,0-1.48-1.17-2.72-2.76-3.08ZM52.44.49h2.07c1.77,0,3.21,1.24,3.21,2.77s-1.44,2.77-3.21,2.77h-2.07V.49ZM55.18,11.98h-2.74v-5.54s2.36,0,2.78,0c1.75,0,3.17,1.25,3.17,2.77s-1.44,2.77-3.21,2.77Z"/>
      <path class="cls-7" d="M3.16,7.73c-1,0-1.78.27-2.33.81-.55.54-.83,1.33-.83,2.36v1.62h6.32v-1.62c0-1.03-.28-1.82-.83-2.36-.55-.54-1.33-.81-2.33-.81ZM.33,12.19v-1.29c0-.94.25-1.66.74-2.13.49-.48,1.2-.72,2.09-.72s1.59.24,2.09.72c.49.48.74,1.19.74,2.13v1.29H.33Z"/>
      <path class="cls-6" d="M5.17,3.17h1.14v-.32H1.43v.32h1.14c-.29.14-.55.34-.75.59-.3.37-.45.83-.45,1.36,0,.44.1.84.3,1.18.2.35.5.62.87.81.37.19.82.28,1.33.28s.95-.1,1.33-.28c.38-.19.67-.46.87-.81.2-.34.3-.74.3-1.18,0-.53-.15-.99-.45-1.36-.21-.25-.46-.45-.75-.59ZM5.05,6.82c-.33.16-.72.24-1.17.24s-.84-.08-1.17-.24c-.32-.16-.58-.38-.75-.67-.17-.29-.26-.63-.26-1.03,0-.37.09-.71.27-1,.18-.29.44-.53.76-.69.33-.17.71-.25,1.14-.25s.82.08,1.14.25c.33.17.58.4.76.69.18.29.27.63.27,1,0,.39-.09.74-.26,1.03-.17.29-.42.51-.75.67Z"/>
      <path class="cls-5" d="M2.18,1.77h-.75v.33h4.88v-.33h-2.89c-.61,0-1.06-.16-1.33-.47-.27-.31-.41-.7-.41-1.15v-.16h-.36v.08c0,.52.11.93.33,1.24.13.19.31.34.53.45Z"/>
    </g>
  </g>
</svg>