<?xml version="1.0" encoding="UTF-8"?>
<svg id="Layer_2" data-name="Layer 2" xmlns="http://www.w3.org/2000/svg" viewBox="0 0 59.53 21.93">
  <defs>
    <style>
      .cls-1 {
        fill: #231f20;
      }
    </style>
  </defs>
  <g id="Layer_10" data-name="Layer 10">
    <g>
      <path class="cls-1" d="M55.72,10l2.22-.34,1.59,3.14v3.14c-.13.45-.42,1.21-1.16,1.95-.3.3-.99.97-2.22,1.36-.51.16-1.47.46-2.54.17-.18-.05-.57-.16-.95-.42-.23-.16-.64-.5-1.16-2.2-.09-.3-.21-.71-.32-1.19-3.46.76-6.91,1.53-10.37,2.29-8.03,1.73-11.33,2.43-11.35,2.44,0,0-.08.05-.08.02,0,0-5.19.86-9.95,1.27-4.54.39-7.2.51-11.54-.17-4.44-.69-5.81-2.31-6.35-2.97-.84-1.01-1.05-2.01-1.16-2.63C-.51,11.01.44,1.84.61,0l2.74,1.1c-.12,1.92-.46,7.65-.02,12.46.08.9.25,2.38,1.59,3.48,1.11.91,2.56,1.18,4.34,1.36,3.44.34,6.43.15,11.96-.51,3.71-.44,5.87-.77,8.26-1.27,2.61-.55,4.58-1.1,6.56-2.29.84-.5,1.48-1,1.91-1.36l.11,1.86s14.18-2.97,14.18-3.05.21.76.21.76c-.74,1.73-.96,2.07-.74,2.46.55.96,3.1.87,3.7.85,1.48-.05,2.42-.49,2.65-.59.37-.18.65-.37.85-.51l-3.18-4.75Z"/>
      <polygon class="cls-1" points="55.07 5.88 54.11 8.18 56.87 9.13 57.86 6.8 55.07 5.88"/>
      <g>
        <polygon class="cls-1" points="44.2 18.46 42.67 20.55 45.13 21.93 46.7 19.82 44.2 18.46"/>
        <polygon class="cls-1" points="48.01 17.18 46.48 19.27 48.94 20.65 50.51 18.54 48.01 17.18"/>
      </g>
      <polygon class="cls-1" points="31.59 10.03 30.63 12.33 33.39 13.28 34.38 10.95 31.59 10.03"/>
    </g>
  </g>
</svg>