<?xml version="1.0" encoding="UTF-8"?>
<svg id="Layer_2" data-name="Layer 2" xmlns="http://www.w3.org/2000/svg" viewBox="0 0 59.53 11.18">
  <defs>
    <style>
      .cls-1 {
        fill: #eb2127;
      }

      .cls-2 {
        fill: #272361;
      }
    </style>
  </defs>
  <g id="Layer_9" data-name="Layer 9">
    <g>
      <g>
        <path class="cls-2" d="M16.18,10.43c-.85-.5-1.53-1.18-2.03-2.03-.5-.86-.75-1.79-.75-2.81s.25-1.94.75-2.79c.5-.86,1.17-1.54,2.03-2.04C17.03.25,17.96,0,18.98,0c.81,0,1.57.16,2.28.48.71.32,1.32.76,1.84,1.32.04.04.06.09.06.16,0,.07-.03.13-.08.17l-1.14.97c-.05.05-.11.08-.17.08s-.12-.03-.16-.08c-.34-.36-.73-.65-1.19-.85-.46-.2-.94-.3-1.44-.3-.65,0-1.25.16-1.81.49-.55.33-.99.77-1.32,1.33-.33.56-.49,1.17-.49,1.82s.16,1.26.49,1.82c.33.56.76,1,1.32,1.33.55.33,1.15.49,1.81.49.48,0,.94-.09,1.37-.27.43-.18.81-.44,1.15-.77.09-.08.19-.13.3-.13.1,0,.17.03.22.08l.3.25.63.56c.11.07.16.17.16.3,0,.07-.03.14-.08.19-.51.55-1.12.98-1.82,1.28-.7.31-1.44.46-2.23.46-1.01,0-1.94-.25-2.79-.75Z"/>
        <path class="cls-2" d="M31.95,9.22c-.05-.05-.12-.08-.21-.08h-5.43c-.07,0-.14-.03-.21-.09-.06-.06-.09-.13-.09-.2v-1.7c0-.22.12-.33.36-.33h4.02c.07,0,.14-.02.19-.07.05-.05.08-.11.08-.18v-1.34c0-.07-.03-.13-.08-.18-.05-.05-.12-.07-.19-.07h-3.98c-.27,0-.41-.1-.41-.3v-2.63h5.69c.09,0,.16-.03.21-.09.06-.06.09-.13.09-.2V.42c0-.07-.03-.14-.09-.2-.06-.06-.13-.09-.21-.09h-7.32c-.07,0-.14.03-.2.08-.06.05-.09.12-.09.2v1.22s0,.12,0,.12v9c0,.07.03.14.09.19.06.06.12.09.2.09h7.35c.08,0,.15-.03.21-.09.05-.06.08-.12.08-.19v-1.34c0-.08-.03-.15-.08-.2Z"/>
        <path class="cls-2" d="M43.26.26c.05.06.08.13.08.21v10.28c0,.08-.03.15-.08.2-.05.05-.12.08-.19.08h-1.56c-.07,0-.14-.03-.19-.08-.05-.05-.08-.12-.08-.2v-6.17c0-.09-.02-.14-.06-.14-.03,0-.08.04-.14.11-.17.25-.45.64-.83,1.17-.38.53-.67.91-.84,1.15-.11.14-.19.22-.26.26-.07.04-.18.06-.34.06h-.27c-.19,0-.32-.02-.39-.05-.07-.03-.15-.1-.23-.2l-1.72-2.38c-.04-.09-.09-.14-.14-.14-.04,0-.06.05-.06.14v6.25c0,.08-.03.15-.08.2-.05.05-.12.08-.19.08h-1.55c-.08,0-.14-.03-.2-.09-.06-.06-.09-.12-.09-.19V.47c0-.08.03-.15.09-.21s.12-.09.2-.09h1.58s.07.02.12.06c.05.04.08.08.1.12l2.4,3.91s.04.05.09.09c.05.04.11.06.18.06h.02c.07,0,.13-.03.17-.08.04-.05.07-.09.08-.11l2.38-3.86c.03-.05.06-.1.1-.13.03-.04.07-.06.13-.06h1.59c.07,0,.14.03.19.09Z"/>
        <path class="cls-2" d="M46.14,10.95c-.06-.06-.09-.12-.09-.19V.42c0-.08.03-.15.1-.21.06-.06.13-.09.2-.09h1.58c.07,0,.14.03.2.09.06.06.09.13.09.21v10.34c0,.07-.03.14-.08.19-.05.06-.12.09-.21.09h-1.58c-.08,0-.15-.03-.21-.09Z"/>
        <path class="cls-2" d="M50.69,10.85c0-.08.02-.15.06-.2l3.11-4.92-3.3-5.2c-.04-.07-.06-.15-.06-.23,0-.11.05-.17.16-.17l1.62.02h.1c.18,0,.29.04.35.13l2.29,3.64,2.3-3.64c.03-.05.08-.09.15-.1.07-.02.18-.02.32-.02l1.58-.02c.11,0,.16.06.16.17s-.02.16-.06.23l-6.53,10.34c-.08.11-.24.17-.46.17h-1.59c-.13,0-.19-.06-.19-.19ZM57.12,10.87l-1.07-1.7c-.06-.11-.1-.21-.1-.28s.04-.21.11-.31c.05-.08.17-.26.34-.54.17-.28.31-.47.41-.59.1-.11.19-.17.26-.17.06,0,.12.04.16.11l2.05,3.26c.04.05.06.12.06.2s-.06.19-.19.19h-1.59c-.22,0-.37-.06-.44-.17Z"/>
      </g>
      <g>
        <polygon class="cls-1" points="10.92 1.6 5.46 4.75 0 1.6 0 6.91 .85 7.4 .85 3.04 5.46 5.71 10.07 3.04 10.07 7.4 10.92 6.91 10.92 1.6"/>
        <g>
          <polygon class="cls-2" points="1.8 6.94 1.8 7.91 5.46 10.03 6.29 9.55 1.8 6.94"/>
          <polygon class="cls-2" points="1.8 4.65 1.8 5.61 7.43 8.89 8.26 8.4 1.8 4.65"/>
          <polygon class="cls-2" points="9.12 6.77 8.26 7.24 9.12 7.79 9.12 6.77"/>
          <polygon class="cls-2" points="9.12 4.65 6.42 6.23 7.26 6.71 9.12 5.62 9.12 4.65"/>
          <polygon class="cls-2" points="7.09 1.6 5.46 2.54 3.84 1.6 2.2 1.6 5.44 3.5 8.72 1.6 7.09 1.6"/>
        </g>
      </g>
    </g>
  </g>
</svg>