<?xml version="1.0" encoding="UTF-8"?>
<svg id="Layer_2" data-name="Layer 2" xmlns="http://www.w3.org/2000/svg" viewBox="0 0 59.53 25.51">
  <defs>
    <style>
      .cls-1 {
        fill: #00954c;
      }
    </style>
  </defs>
  <g id="Layer_10" data-name="Layer 10">
    <g>
      <polygon class="cls-1" points="44.65 19.66 46.77 25.51 48.9 19.66 46.77 13.82 44.65 19.66"/>
      <polygon class="cls-1" points="48.9 5.85 46.77 0 44.65 5.85 46.77 11.69 48.9 5.85"/>
      <polygon class="cls-1" points="47.83 12.76 53.68 14.88 59.53 12.76 53.68 10.63 47.83 12.76"/>
      <polygon class="cls-1" points="45.71 12.76 39.86 10.63 34.02 12.76 39.86 14.88 45.71 12.76"/>
      <polygon class="cls-1" points="47.52 13.51 50.15 19.14 55.79 21.78 53.16 16.14 47.52 13.51"/>
      <polygon class="cls-1" points="46.02 12 43.39 6.37 37.75 3.74 40.38 9.37 46.02 12"/>
      <polygon class="cls-1" points="53.16 9.37 55.79 3.74 50.15 6.37 47.52 12 53.16 9.37"/>
      <polygon class="cls-1" points="40.38 16.14 37.75 21.78 43.39 19.14 46.02 13.51 40.38 16.14"/>
      <path class="cls-1" d="M2.15,14.35l-2.15,5.83h1.54s.39-1.01.39-1.01h2.01s.36,1.01.36,1.01h1.55s-2.11-5.83-2.11-5.83h-1.59ZM2.33,18.01l.6-1.86h.02s.59,1.86.59,1.86h-1.21Z"/>
      <rect class="cls-1" x="6.29" y="13.82" width="1.35" height="6.38"/>
      <rect class="cls-1" x="8.48" y="17.01" width="2.12" height="1.16"/>
      <polygon class="cls-1" points="11.05 15.63 12.25 15.63 12.25 20.18 13.7 20.18 13.7 15.63 14.91 15.63 14.91 14.35 11.05 14.35 11.05 15.63"/>
      <rect class="cls-1" x="15.41" y="16.21" width="1.35" height="3.97"/>
      <rect class="cls-1" x="17.65" y="16.11" width="1.35" height="6.21"/>
      <path class="cls-1" d="M26.33,16.86h-.02v-.65s-1.35,0-1.35,0v3.97s1.35,0,1.35,0v-1.6c0-.68.19-1.2.94-1.2.21,0,.39.02.57.13v-1.35s-.26,0-.26,0c-.53,0-.97.22-1.23.7Z"/>
      <rect class="cls-1" x="28.37" y="16.21" width="1.27" height="3.97"/>
      <path class="cls-1" d="M16.08,13.82c-.42,0-.75.34-.75.75s.34.75.75.75.75-.34.75-.75-.34-.75-.75-.75Z"/>
      <path class="cls-1" d="M18.32,13.82c-.42,0-.75.34-.75.75s.33.75.75.75.75-.34.75-.75-.34-.75-.75-.75Z"/>
      <path class="cls-1" d="M29.01,13.82c-.42,0-.75.34-.75.75s.33.75.75.75.75-.34.75-.75-.34-.75-.75-.75Z"/>
      <path class="cls-1" d="M22.71,16.6c-.28-.35-.74-.52-1.18-.52-1.13,0-1.91.98-1.91,2.11s.79,2.12,1.92,2.12c.45,0,.91-.18,1.15-.57h.01v.44s1.35,0,1.35,0v-3.97s-1.35,0-1.35,0v.39ZM21.89,19.09c-.55,0-.87-.39-.87-.89s.32-.9.87-.9.87.41.87.9-.32.89-.87.89Z"/>
      <path class="cls-1" d="M9.53,7.59v-2.65s-1.38,0-1.38,0v2.1c0,1.81-1.88,1.3-1.88,1.3v1.35c3.16.35,3.26-2.1,3.26-2.1Z"/>
      <rect class="cls-1" x="28.37" y="3.19" width="1.4" height="6.36"/>
      <path class="cls-1" d="M6.93,6.84v-1.5s-.35-.55-1.51-.5c-1.15.05-1.51,1-1.51,1.66s.2,1.51-.45,1.71c-.65.2-1.86.25-1.91-.75v-1.15s-1.46,0-1.46,0c0,0-.22.95,0,1.71.25.85.85,1.81,2.81,1.7,1.96-.1,2.35-.71,2.46-1.7.05-.45-.18-1.46.3-1.71.6-.3,1.25.55,1.25.55Z"/>
      <path class="cls-1" d="M16.56,11.49c.62-.82-.3-1.74-1.12-1.13-.64.82.29,1.77,1.12,1.13Z"/>
      <path class="cls-1" d="M27.77,3.19h-1.4s0,4.97,0,4.97h-3.15v-1.75s-1.4,0-1.4,0v1.75h-3.46s0-.08,0-.13c0-1.73-1.41-3.14-3.14-3.14-.4,0-.78.08-1.13.22v1.43c.28-.19.62-.3.98-.3.98,0,1.77.8,1.77,1.79,0,.05,0,.09,0,.13h-4.92V3.19s-1.4,0-1.4,0v6.36s17.24,0,17.24,0V3.19Z"/>
      <path class="cls-1" d="M23.92,5.48c.61-.81-.3-1.73-1.12-1.13-.65.82.29,1.77,1.12,1.13Z"/>
      <path class="cls-1" d="M2.36,11.49c.62-.82-.3-1.74-1.12-1.13-.64.82.3,1.76,1.12,1.13Z"/>
      <path class="cls-1" d="M4.08,11.49c.62-.82-.29-1.74-1.12-1.13-.64.82.29,1.76,1.12,1.13Z"/>
      <path class="cls-1" d="M22.19,5.48c.61-.82-.31-1.73-1.12-1.12-.65.82.3,1.77,1.12,1.12Z"/>
    </g>
  </g>
</svg>