<?xml version="1.0" encoding="UTF-8"?>
<svg id="Layer_2" data-name="Layer 2" xmlns="http://www.w3.org/2000/svg" viewBox="0 0 59.53 42.81">
  <defs>
    <style>
      .cls-1 {
        fill: #ef8453;
      }
    </style>
  </defs>
  <g id="Layer_9" data-name="Layer 9">
    <g>
      <g>
        <path class="cls-1" d="M31.24,29.25h-1.41c-.55,0-1-.45-1-1v-1.25h-7.24v1.25c0,.55-.45,1-1,1h-1.41s-1.55,1.55-1.55,1.55v2.52s1.55,1.55,1.55,1.55h1.41c.55,0,1,.45,1,1v1.25h7.24v-1.25c0-.55.45-1,1-1h1.41s1.55-1.55,1.55-1.55v-2.52s-1.55-1.55-1.55-1.55ZM28.83,33.68c0,.66-.53,1.19-1.19,1.19h-4.86c-.66,0-1.19-.53-1.19-1.19v-3.23c0-.66.53-1.19,1.19-1.19h4.86c.66,0,1.19.53,1.19,1.19v3.23Z"/>
        <path class="cls-1" d="M45.19,36.41v.71s-6.24,0-6.24,0v-1.06c0-.66-.53-1.19-1.19-1.19h-2.76s0-6.31,0-6.31l1.57-1.57h2.39s0,6.98,0,6.98c.05.5.48.89.99.89h3.69s1.55,1.55,1.55,1.55Z"/>
        <path class="cls-1" d="M53.29,27v1.06c0,.66-.53,1.19-1.19,1.19h-1.55c-.66,0-1.19-.53-1.19-1.19v-1.06h-6.24v.71s1.55,1.55,1.55,1.55h3.69c.5,0,.91.36.99.84v5.47s0,0,0,0v1.56h1.56s.83,0,.83,0h1.56v-1.56s0,0,0,0v-5.47c.08-.47.49-.84.99-.84h3.69s1.55-1.55,1.55-1.55v-.71h-6.24Z"/>
        <path class="cls-1" d="M17.22,26.81v2.46s-1.56,1.56-1.56,1.56h-1.35c-.37,0-.69.27-.74.63,0,.04-.01.07-.01.12v2.88s-4.46,0-4.46,0l-1.92,3.16c-.06.09-1.05,1.85-1.05,1.85h-.12s0-1.37,0-1.37h-.74s0-1.32,0-1.32c0-.04,0-.07,0-.11-.02-.14-.07-.27-.16-.38-.14-.17-.36-.27-.58-.27h-.68s-1.56-1.56-1.56-1.56v-7.63H0s0-2.2,0-2.2h2.29s0,2.16,0,2.16h3.96s0,11.04,0,11.04c.18,0,.36-.07.5-.18l3.93-6.53c.07-.12.16-.24.25-.36h0c.2-.2.47-.31.77-.31h.4c.06,0,.12,0,.18-.02.52-.09.9-.53.9-1.06v-2.59s4.01,0,4.01,0Z"/>
        <path class="cls-1" d="M18.19,20.91h20.83s0-20.83,0-20.83h-20.83s0,20.83,0,20.83ZM37.22,7.9l-1.56,1.56h-1.35c-.37,0-.69.27-.74.63,0,.04-.01.07-.01.12v2.88s-4.46,0-4.46,0l-1.92,3.16c-.06.08-.12.16-.2.22l-.98,1.62v-1.37s-.74,0-.74,0v-1.31s0-.07,0-.11c-.02-.14-.08-.27-.16-.38-.14-.17-.36-.27-.58-.27h-.68s-1.56-1.56-1.56-1.56v-7.4h-2.26s0-2.43,0-2.43h2.43s0,2.16,0,2.16h3.83s0,11.04,0,11.04c.19,0,.36-.06.51-.18l3.93-6.53c.07-.12.16-.24.26-.36h.01c.2-.2.47-.31.77-.31h.4c.06,0,.12,0,.18-.02.52-.09.89-.53.89-1.06v-2.59s4.01,0,4.01,0v2.46Z"/>
        <path class="cls-1" d="M40.61,1.63c-.45,0-.82-.37-.82-.82,0-.45.37-.82.82-.82s.82.37.82.82-.37.82-.82.82M40.61.18c-.35,0-.64.29-.64.64s.29.64.64.64.64-.29.64-.64-.29-.64-.64-.64"/>
        <path class="cls-1" d="M40.93,1.19h0s-.12,0-.12,0l-.22-.29h-.11v.29s-.11,0-.11,0V.45s.24,0,.24,0c.06,0,.11,0,.15.03.04.02.07.04.09.08.02.03.03.07.03.12,0,.04,0,.07-.02.1-.01.03-.03.06-.06.08-.03.02-.06.04-.1.05l.22.3ZM40.48.82h.12c.06,0,.1-.01.13-.04.03-.03.04-.06.04-.11s-.01-.08-.04-.1c-.03-.02-.07-.03-.12-.03h-.14v.28Z"/>
      </g>
      <g>
        <polygon class="cls-1" points="20.2 40.77 21.86 40.77 21.86 41.2 20.82 41.2 20.82 41.52 21.78 41.52 21.78 41.93 20.82 41.93 20.82 42.32 21.89 42.32 21.89 42.78 20.2 42.78 20.2 40.77"/>
        <polygon class="cls-1" points="23.06 40.77 23.68 40.77 23.68 42.28 24.65 42.28 24.65 42.78 23.06 42.78 23.06 40.77"/>
        <polygon class="cls-1" points="25.77 40.77 27.43 40.77 27.43 41.2 26.39 41.2 26.39 41.52 27.35 41.52 27.35 41.93 26.39 41.93 26.39 42.32 27.46 42.32 27.46 42.78 25.77 42.78 25.77 40.77"/>
        <path class="cls-1" d="M29.96,41.96l.54.16c-.04.15-.09.28-.17.38-.08.1-.18.18-.29.23-.12.05-.26.08-.44.08-.22,0-.4-.03-.53-.09-.14-.06-.26-.17-.36-.33-.1-.16-.15-.36-.15-.61,0-.33.09-.59.26-.76.18-.18.43-.27.75-.27.25,0,.45.05.6.15.14.1.25.26.32.47l-.55.12c-.02-.06-.04-.11-.06-.13-.03-.05-.08-.08-.13-.11-.05-.03-.11-.04-.17-.04-.14,0-.25.06-.32.17-.06.08-.08.22-.08.39,0,.22.03.37.1.46.07.08.16.12.28.12s.21-.03.27-.1c.06-.07.1-.16.13-.29"/>
        <polygon class="cls-1" points="31.51 40.77 33.39 40.77 33.39 41.27 32.76 41.27 32.76 42.78 32.14 42.78 32.14 41.27 31.51 41.27 31.51 40.77"/>
        <path class="cls-1" d="M34.52,42.78v-2s1.03,0,1.03,0c.19,0,.34.02.44.05.1.03.18.09.24.18.06.09.09.2.09.32,0,.11-.02.21-.07.29-.05.08-.11.15-.2.2-.05.03-.13.06-.22.08.07.02.13.05.16.07.02.02.06.05.1.11s.07.1.09.12l.3.58h-.7s-.33-.61-.33-.61c-.04-.08-.08-.13-.11-.15-.04-.03-.1-.05-.15-.05h-.05v.81s-.62,0-.62,0ZM35.14,41.58h.26s.08,0,.16-.03c.04,0,.07-.03.1-.06.03-.03.04-.07.04-.12,0-.06-.02-.11-.06-.15-.04-.03-.12-.05-.23-.05h-.27v.41Z"/>
        <path class="cls-1" d="M37.4,41.77c0-.33.09-.58.27-.76s.44-.27.76-.27.59.09.77.27c.18.18.27.43.27.75,0,.23-.04.43-.12.58-.08.15-.19.27-.34.35-.15.08-.33.12-.56.12s-.41-.04-.56-.11c-.15-.07-.27-.19-.36-.34-.09-.16-.14-.35-.14-.59M38.02,41.78c0,.2.04.35.11.44.08.09.18.13.31.13s.24-.04.31-.13c.07-.09.11-.24.11-.47,0-.19-.04-.33-.11-.41-.08-.09-.18-.13-.31-.13s-.23.04-.3.13c-.08.09-.11.23-.11.44"/>
      </g>
    </g>
  </g>
</svg>