<?xml version="1.0" encoding="UTF-8"?>
<svg id="Layer_2" data-name="Layer 2" xmlns="http://www.w3.org/2000/svg" viewBox="0 0 57.13 26.04">
  <defs>
    <style>
      .cls-1 {
        opacity: .92;
      }

      .cls-2 {
        fill: #231f20;
      }
    </style>
  </defs>
  <g id="Layer_10" data-name="Layer 10">
    <g class="cls-1">
      <path class="cls-2" d="M28.66,18.92c9.14,0,18.28,0,27.42,0,.16,0,.47-.06.46.07,0,.13-.31.07-.47.07-18.31,0-36.62,0-54.92,0-.16,0-.46.06-.46-.07,0-.13.31-.07.47-.07,9.17,0,18.33,0,27.5,0"/>
      <path class="cls-2" d="M29.59,8.74q0,.68-.71.68t-.68-.64.83-.79c.09,0,.18,0,.27,0,.23-.03.32.06.3.28-.02.15,0,.31,0,.47"/>
      <path class="cls-2" d="M30.36,10.56q0-.68.71-.68t.68.67c0,.76,0,.76-.78.76-.71,0-.59.09-.61-.56,0-.06,0-.12,0-.18"/>
      <path class="cls-2" d="M29.59,10.57q0,.74-.8.74c-.09,0-.18,0-.27,0-.27.04-.35-.08-.34-.32.02-.26.02-.52,0-.78-.03-.28.1-.36.37-.32.1.01.2,0,.3,0q.73,0,.73.69"/>
      <path class="cls-2" d="M31.75,8.73q0,.7-.66.7t-.74-.73.73-.7q.66,0,.66.73"/>
      <path class="cls-2" d="M55,.07c-.57.01-1.15,0-1.72,0-.33,0-.58.15-.66.44-.14.5-.38.96-.56,1.44-1.31,3.43-2.61,6.87-3.92,10.3-.31.81-.64,1.61-1.04,2.38-.11.21-.2.22-.33.02-.06-.09-.13-.18-.19-.27-1.01-1.48-1.96-2.99-2.88-4.52-.18-.3-.42-.46-.79-.45-.54,0-1.07,0-1.61-.02-.33-.01-.49.12-.58.4-.2.6-.4,1.21-.62,1.8-.32.87-.65,1.73-1.01,2.68-.15-.22-.23-.33-.31-.46-.65-1.05-1.28-2.12-1.84-3.22-1.68-3.33-3.37-6.66-5.03-10-.15-.29-.28-.33-.59-.22-1.01.37-2.03.72-3.05,1.07-.46.16-.58.07-.59-.38,0-.23-.02-.45,0-.68.02-.22-.08-.29-.3-.3-.68-.03-1.35-.06-2.03-.11-.26-.02-.33.08-.33.3-.02.63-.06,1.26-.07,1.9,0,.33-.17.51-.51.62-3.99,1.39-7.98,2.8-11.98,4.2-.55.19-.98.48-1.35.9-2.84,3.19-5.7,6.38-8.54,9.57-.07.08-.18.14-.18.27.04.01.07.03.1.03,1.81,0,3.63-.02,5.44.03.76.02,1.39-.29,1.78-.94.2-.33.52-.48.92-.47,1.37.01,2.73.03,4.1.04.24,0,.49,0,.73.04.36.05.47.25.35.57-.06.16-.13.31-.22.45-.15.25-.05.29.21.29,1.03,0,2.07,0,3.1,0,1.55,0,1.56,0,2.34-1.24,2.77-4.39,5.53-8.78,8.29-13.17.1-.15.18-.31.33-.43.29-.22.48-.21.7.07.07.09.12.18.17.28,1.25,2.48,2.5,4.96,3.75,7.44,1.12,2.21,2.25,4.41,3.37,6.62.15.29.35.44.71.43.45-.02.89,0,1.34,0,.69,0,.76-.06.96-.68.44-1.38.84-2.77,1.37-4.13.08-.19.1-.48.36-.5.29-.02.35.28.46.47.84,1.43,1.68,2.86,2.51,4.3.2.35.49.53.92.53.52,0,1.05,0,1.57,0,.34,0,.55-.15.63-.46.03-.12.07-.23.11-.34,1.75-4.54,3.51-9.07,5.27-13.61.39-1,.76-2,1.14-3,.08-.2.08-.31-.2-.3M24.18,4.53c-.04.11-.11.21-.18.31-2.17,3.04-4.34,6.07-6.49,9.11-.3.42-.64.61-1.19.61-1.26-.01-2.53.03-3.79.05-.49,0-.61-.1-.61-.57,0-.66,0-1.31,0-1.97,0,0-.01,0-.02,0,0-.66,0-1.31,0-1.97,0-.44.14-.57.63-.57,1.05,0,2.09,0,3.14.01.67.01,1.24-.18,1.76-.58,1.95-1.48,3.91-2.95,5.88-4.42.19-.14.36-.3.63-.32.25-.02.33.08.26.29"/>
      <path class="cls-2" d="M3.76,25.81h-.82l-.33-1.24h-1.5l-.31,1.24h-.8l1.46-5.45h.8l1.5,5.45ZM2.36,23.65l-.51-2.02-.51,2.02h1.02Z"/>
      <path class="cls-2" d="M4.16,25.81v-5.45h1.59c.33,0,.57.03.73.08.26.09.45.29.58.59.11.25.16.54.16.86,0,.87-.33,1.38-.99,1.52.19.16.35.35.48.58.08.14.2.39.35.76l.46,1.06h-.9l-.55-1.19c-.16-.36-.25-.55-.27-.58-.13-.25-.25-.4-.36-.45-.08-.04-.21-.06-.38-.06h-.15v2.28h-.76ZM4.92,22.66h.56c.28,0,.44,0,.48-.01.2-.03.34-.13.41-.28.05-.11.08-.25.08-.41,0-.38-.13-.6-.38-.66-.05-.01-.24-.02-.55-.02h-.59v1.38Z"/>
      <polygon class="cls-2" points="8.77 25.81 8.77 21.29 7.67 21.29 7.67 20.36 10.64 20.36 10.64 21.29 9.53 21.29 9.53 25.81 8.77 25.81"/>
      <polygon class="cls-2" points="11.65 25.81 10.76 20.36 11.54 20.36 12.1 24.1 12.78 20.36 13.68 20.36 14.34 24.17 14.91 20.36 15.68 20.36 14.76 25.81 13.96 25.81 13.22 21.74 12.47 25.81 11.65 25.81"/>
      <path class="cls-2" d="M15.91,23.12c0-.91.17-1.62.52-2.14.31-.47.74-.71,1.29-.71.58,0,1.03.26,1.35.79.31.51.47,1.19.47,2.04s-.16,1.52-.47,2.02c-.32.53-.77.79-1.34.79s-1.02-.26-1.35-.77c-.31-.5-.47-1.17-.47-2.02M16.69,23.08c0,.54.08.97.24,1.31.18.39.45.58.8.58s.62-.2.8-.59c.15-.33.23-.77.23-1.31s-.08-.98-.23-1.3c-.18-.37-.44-.56-.8-.56s-.62.19-.8.57c-.15.33-.23.76-.23,1.31"/>
      <path class="cls-2" d="M19.97,23.12c0-.91.17-1.62.52-2.14.31-.47.74-.71,1.29-.71.58,0,1.03.26,1.35.79.31.51.47,1.19.47,2.04s-.16,1.52-.47,2.02c-.32.53-.77.79-1.34.79s-1.02-.26-1.35-.77c-.31-.5-.47-1.17-.47-2.02M20.76,23.08c0,.54.08.97.24,1.31.18.39.45.58.8.58s.62-.2.8-.59c.15-.33.23-.77.23-1.31s-.08-.98-.23-1.3c-.18-.37-.44-.56-.8-.56s-.62.19-.8.57c-.15.33-.23.76-.23,1.31"/>
      <path class="cls-2" d="M24.19,20.36h1.38c.31,0,.55.03.71.1.44.19.75.65.92,1.38.08.35.12.78.12,1.29,0,.93-.17,1.64-.52,2.12-.13.19-.31.33-.53.43-.16.08-.39.12-.67.12h-1.42v-5.45ZM24.95,21.29v3.6h.56c.21,0,.36-.02.46-.05.25-.09.42-.34.5-.75.05-.24.08-.58.08-1,0-.73-.1-1.23-.29-1.49-.09-.13-.21-.21-.35-.26-.11-.03-.31-.05-.62-.05h-.34Z"/>
      <polygon class="cls-2" points="27.97 25.81 27.97 20.36 30.74 20.36 30.74 21.29 28.73 21.29 28.73 22.48 30.6 22.48 30.6 23.41 28.73 23.41 28.73 24.89 30.82 24.89 30.82 25.81 27.97 25.81"/>
      <polygon class="cls-2" points="31.46 25.81 31.46 20.36 32.2 20.36 33.73 24 33.73 20.36 34.43 20.36 34.43 25.81 33.67 25.81 32.17 22.26 32.17 25.81 31.46 25.81"/>
      <path class="cls-2" d="M38.69,23.84v-.96h1.79v2.27c-.17.23-.43.44-.75.62-.33.18-.66.27-1,.27-.43,0-.8-.13-1.12-.38-.32-.25-.56-.61-.72-1.08-.16-.47-.24-.97-.24-1.52,0-.59.09-1.12.27-1.59.18-.46.44-.82.79-1.06.26-.19.59-.28.98-.28.51,0,.91.15,1.19.45.29.3.47.71.55,1.23l-.82.21c-.06-.28-.17-.5-.33-.66-.16-.16-.36-.24-.6-.24-.36,0-.65.16-.86.48-.21.32-.32.79-.32,1.42,0,.68.11,1.19.32,1.52.22.34.5.51.85.51.17,0,.35-.05.52-.14.17-.09.32-.21.45-.34v-.72h-.95Z"/>
      <path class="cls-2" d="M41.25,25.94v-5.71h1.74c.44,0,.76.05.96.15.2.1.36.29.48.55.12.26.18.56.18.9,0,.43-.09.78-.27,1.06-.18.28-.45.46-.81.53.18.15.33.31.44.48.12.17.27.48.47.93l.5,1.11h-.99l-.6-1.24c-.21-.44-.36-.72-.44-.84-.08-.12-.16-.19-.25-.24-.09-.04-.23-.06-.42-.06h-.17v2.38h-.83ZM42.07,22.65h.61c.4,0,.65-.02.74-.07.1-.05.18-.13.23-.24.06-.11.08-.26.08-.43,0-.19-.04-.35-.11-.47-.07-.12-.18-.19-.31-.22-.07-.01-.27-.02-.6-.02h-.65v1.45Z"/>
      <path class="cls-2" d="M45.22,23.12c0-.58.06-1.07.19-1.46.09-.29.22-.55.38-.78.16-.23.34-.4.53-.51.26-.15.55-.23.88-.23.6,0,1.09.26,1.45.78.36.52.54,1.25.54,2.18s-.18,1.64-.54,2.16c-.36.52-.84.78-1.44.78s-1.1-.26-1.46-.78c-.36-.52-.54-1.23-.54-2.14M46.07,23.08c0,.65.11,1.14.32,1.47.21.33.49.5.82.5s.6-.17.81-.5c.21-.33.32-.83.32-1.49s-.1-1.14-.31-1.46c-.21-.32-.48-.48-.82-.48s-.62.16-.83.49c-.21.33-.31.82-.31,1.47"/>
      <path class="cls-2" d="M49.84,20.23h.83v3.09c0,.49.01.81.03.95.04.23.12.42.25.56.13.14.32.21.55.21s.41-.07.53-.2c.12-.13.19-.3.22-.49.02-.19.04-.52.04-.97v-3.16h.83v3c0,.69-.02,1.17-.07,1.45-.04.28-.13.52-.25.72-.12.19-.28.35-.48.47-.2.12-.46.17-.79.17-.39,0-.69-.06-.89-.19-.2-.13-.36-.29-.48-.49-.12-.2-.2-.41-.23-.63-.05-.33-.08-.81-.08-1.45v-3.05Z"/>
      <path class="cls-2" d="M53.99,25.94v-5.71h1.33c.5,0,.83.03.99.09.24.09.43.27.59.56.16.29.24.66.24,1.11,0,.35-.05.65-.14.88-.09.24-.21.43-.35.56-.14.14-.28.23-.43.27-.2.05-.48.08-.86.08h-.54v2.15h-.83ZM54.81,21.2v1.62h.45c.33,0,.55-.03.66-.09.11-.06.2-.15.26-.28.06-.13.09-.28.09-.44,0-.21-.04-.38-.13-.51-.09-.13-.2-.22-.33-.25-.1-.03-.3-.04-.6-.04h-.4Z"/>
    </g>
  </g>
</svg>