<?xml version="1.0" encoding="UTF-8"?>
<svg id="Layer_2" data-name="Layer 2" xmlns="http://www.w3.org/2000/svg" viewBox="0 0 59.53 25.76">
  <defs>
    <style>
      .cls-1 {
        fill: #eaf3e4;
      }

      .cls-2 {
        fill: #2e4728;
      }
    </style>
  </defs>
  <g id="Layer_10" data-name="Layer 10">
    <g>
      <rect class="cls-2" x="0" width="59.53" height="25.76" rx="4.69" ry="4.69"/>
      <g>
        <path class="cls-1" d="M18.27,4.9c0-.05-.21-.08-.55-.08-.49,0-1.22.05-1.98.03-.23.03-.23.1-.26.42,0,.03.08.88.1.88h.75c0,.36.05.94.05,1.27.03.21-.03.49,0,.7,0,.34.03.68.03,1.01.03,1.43.05,2.31.05,3.82,0,1.22-.08,2.47-1.22,2.47-1.33,0-1.17-1.85-1.17-4.44v-3.22h.68c-.05,0,.1,0,.13-.1.03-.16.03-.42.03-.65s0-.44-.03-.49c-.03-.05-.21-.08-.55-.08-.47,0-1.22.03-1.95.03-.23,0-.29.1-.29.42l.1.88h.57l-.03.36v4.03c0,1.46-.05,3.33.83,4.13.31.29.83.44,1.25.49,2.31.29,2.96-1.82,2.96-3.51,0-.57.05-1.12.03-1.66-.05-.83-.05-1.22-.08-2.05-.03-1.04-.03-2.29-.03-3.4h.31c.1,0,.18.05.23-.1.03-.13.03-.34.03-.55,0-.26,0-.55-.03-.6h0ZM8.24,15.48h-.44l-.1-3.66c-.03-.05.18-.08.52-.08.18,0,.42,0,.68.03.23,0,.57.13.78.31,1.01.86.78,2.65-.1,3.12-.49.26-.94.29-1.33.29ZM7.82,10.6c-.08,0-.13-.03-.16-.05-.08-.08-.08-2.03-.1-2.7-.03-.91-.1-1.09.05-1.09h.34c.83,0,1.48.1,1.82.78.6,1.22-.16,2.91-1.53,3.02-.05,0-.26.05-.42.05ZM8.34,5.5h-.29c-1.56.05-2.73.13-3.33.13-.16.03-.08.18-.03,1.07,0,.13-.05.16.29.16.21,0,.57,0,1.2-.03l.31,8.68c-.55.03-.75,0-.75.13,0,.18.05,1.09.05,1.12.21,0,.47-.03.75-.03l.03,1.07c.03.23.13.21.39.23.03,0,.86-.1.86-.13v-1.2c.73-.03,1.51-.1,2.05-.23.31-.08.62-.34.86-.57.1-.1.18-.23.29-.36.39-.44.73-1.25.62-2.31-.13-1.25-.96-1.9-1.79-2.21.57-.44,1.09-.88,1.35-2.03.21-1.17-.18-2.16-.83-2.73-.57-.55-1.17-.75-2.03-.75Z"/>
        <path class="cls-1" d="M23.71,16.89h.16-.16ZM31.32,15.85h.05-.05ZM24.56,5.42l-4.08.03c-1.27,0-1.27-.03-1.27.18,0,1.01-.05,3.56-.05,4.39.03.13,1.09.16,1.27.08.1-.05-.03-3.22.1-3.28.34.03.75-.05,1.14-.03q.1,0,.1.36c0,.23,0,4.39.03,5.56.03.83.08,3.82-.03,4.16-.03.08-1.17-.05-1.22.1-.08.21-.1,1.22.08,1.22h3.17c.05-.03.29,0,.49,0,.16,0,.18-1.3,0-1.3-.26,0-.47-.03-.6-.03-.23.03-.49.03-.49-.05v-3.53c0-.21.05-2.63.05-4.73,0-.03-.05-.13-.05-.18,0-.08.05-.13.05-.21,0-.49.03-1.12.03-1.4,0-.1.81,0,1.22-.03.13.05,0,3.28.1,3.33.18.08,1.25.05,1.27-.08,0-.83-.05-3.38-.05-4.39,0-.21,0-.18-1.27-.18ZM32.13,9.04c.18.08,1.25.05,1.27-.08,0-.83-.05-3.38-.05-4.39,0-.21,0-.18-1.27-.18l-4.08.03c-1.27,0-1.27-.03-1.27.18,0,1.01-.05,3.56-.05,4.39.03.13,1.09.16,1.27.08.1-.05-.03-3.22.1-3.28.34.03.75-.05,1.14-.03q.1,0,.1.36c0,.23,0,4.39.03,5.56.03.83.08,3.82-.03,4.16-.03.08-1.95-.05-2,.1-.08.21-.1,1.22.08,1.22h3.95c.05-.03,1.07,0,1.27,0,.16,0,.18-1.3,0-1.3-.36-.03-1.07-.03-1.27-.03-.26,0-.6.05-.6-.05v-3.53c0-.21.05-2.63.05-4.73,0-.03-.05-.13-.05-.18,0-.08.05-.13.05-.21,0-.49.03-1.12.03-1.4,0-.1.81,0,1.22-.03.13.05,0,3.28.1,3.33Z"/>
        <path class="cls-1" d="M44.71,11.87c1.17,0,1.85-.83,1.92-1.9.03-.29.03-.42.03-.6,0-1.92-.65-2.89-2.57-2.89-.18,0-.34-.08-.34.13v.7c0,.13-.05.23-.05.34s.05.16.05.29v2.91c0,.57-.05.99-.03,1.04.18-.03.81-.03.99-.03ZM45.85,12.81c.13.16.23.31.34.49.1.18.18.36.23.55.08.26.18.55.23.81.31,1.46.21,2.94.81,2.94.39,0,.62-.44.73-1.38.08-.13.1-.26.03-.42.03-.39.03-.83.03-1.33.39.1.88.1,1.27,0,0,.78-.03,2-.36,2.94-.13.13-.21.29-.23.47-.1.13-.21.29-.31.39-.29.29-.65.47-1.14.47-.99,0-1.43-.57-1.66-1.38-.21-.62-.29-1.4-.39-2.11-.08-.55-.1-1.09-.39-1.46-.26-.44-.65-.75-1.3-.75-.03,0,0,.55,0,1.14,0,.83,0,1.82.03,2.08.03.21.73.03.86.16.03.03.03,1.01.03,1.09,0,.13-.08.13-.21.18l-2.99.03c-.1,0-.13-.08-.13-.26v-.62q0-.44.52-.44c.16,0,.62,0,.62-.18,0-.88-.05-7.2-.05-8.97,0-.23.03-.42.03-.55,0-.16-.03-.23-.18-.23-1.64,0-1.69,0-1.69-.26,0-.23,0-1.07.1-1.12.23-.03,1.66-.03,2.16-.03,2.29,0,2.73.05,3.66.6,1.22.73,1.56,2.13,1.56,3.22,0,.31-.03.57-.03.81-.05,1.17-.68,2.7-1.92,3.07-.08.03-.18.05-.23.05ZM36.83,15.85h.21-.21ZM40.55,15.72v-1.43c0-.05-.03-.6-.03-.65v-.1c0-.05-.03-.05-.1-.05h-.05c-.18,0-.86-.05-1.01-.03-.21.03-.1.08-.1,1.61v.78c0,.05-.13,0-.21.03-.05.03-1.9,0-2.21-.03-.21.03-.39.03-.39-.05v-1.48c0-.05-.05-.08-.05-.13,0-.08.05-.18.05-.26v-.75c0-.08-.03-.39.08-.49.08-.08,1.27,0,1.35-.08.1-.1.03-.88.03-1.2,0-.26.16-.16-.55-.16-.91,0-.91.05-.91-.29,0-.21.05-.55.05-1.35,0-.03-.05-.13-.05-.18,0-.08.05-.13.05-.21,0-.49.03-1.09.03-1.38,0-.1,1.59-.03,2-.05.13.05,0,1.98.1,2.03.18.08,1.25.05,1.27-.08,0-.83-.05-2.08-.05-3.09,0-.21,0-.13-1.27-.16-1.14-.03-2.13.03-3.82.03-.34,0-.78-.05-.83.29.03.88-.05,1.09.18,1.09.16-.03.65-.03.81-.03q.1,0,.1.36c0,.23,0,3.07.03,4.24.03.83.08,3.04-.03,3.38-.03.08-.65-.05-.7.1-.08.21-.1,1.22.08,1.22h2.6c.08-.03.62,0,.78,0h1.48l.73-.03c.49,0,.6.13.6-.29l-.03-1.14Z"/>
        <path class="cls-1" d="M51.67,14.72s-.05-.07-.1-.08c-.08-.01-.12.03-.12.06,0,.05.01.1.09.11h.03s.09-.04.1-.09ZM53.77,8.68c-.1.53-.31,1.55-.46,2.33,0,.03-.03.06-.03.09-.01.08,0,.14-.02.2-.17.84-.3,1.66-.46,2.5-.13.7-.19,1.06-.25,1.19-.08.18-.81-.04-1.01-.07-.26-.05-.2-.15-.14-.67l.17-1.22c.26-1.86.39-2.32.52-3.53.02-.2.21-1.04.14-1.1-.13-.09-.94-.04-.91-.23.03-.14.02-.3.22-1.37.03-.19.12-.2.27-.18.06.01.12.05.18.07.06.01.13,0,.19,0,.73.13,1.64.27,1.34.21-.12-.02,1.19.18,1.3.28.1.08.06.22.04.33l-.2,1.12c0,.14-.03.19-.17.16-.54-.11-.71-.16-.72-.11ZM49.79,13.59c.06-.04.03-.07.05-.1-.06-.03-.16.08-.2.14.03.02.08.01.15-.04ZM48.31,12.81l-.08-.08c.04-.06.07-.05.13-.02-.02.03-.03.06-.05.1ZM50.7,7.38s-.01-.1-.11-.12c-.06.08.04.15.11.12h0ZM49.16,13.68c-.71-.13-.87-.09-.78-.46.49-2.14.85-4.13,1.02-5,.07-.29.18-1.01.32-1.16.08-.08.28-.03.37-.01.22.04.46.12.66.15.19.03.06.2-.23,2.3-.23,1.71-.29,2.39-.48,3.49-.13.8-.17.82-.9.69Z"/>
        <path class="cls-1" d="M44.49,21.13s.01-.05,0-.06v.06ZM45.05,20.45s.01-.06.01-.09c-.03,0-.03.09-.01.09ZM45.17,20.74s.03.05.03.11v.02s0,.03,0,.03c0,.09,0,.2-.01.26,0,.09-.1.07-.52.07-.06,0-.21.02-.22-.06-.01-.14,0-.3,0-.59v-.04s0-.04,0-.04c0-.2,0-.4,0-.6v-.04s0-.03,0-.03v-.03s0-.04,0-.04c0-.09.05-.12.14-.12.1,0,.2,0,.3.01.2.01.24,0,.25.04.01.04,0,.1,0,.15,0,.13-.1.11-.35.11-.03,0-.02.1-.02.2,0,.06.22,0,.28.04.03.03.02.05.02.21,0,.1-.06.1-.23.1-.07,0-.07.01-.07.1v.1s.05.03.08.03c.16,0,.27,0,.32,0ZM42.83,20.52s0-.04.01-.06c-.02-.01-.03.03-.03.05,0,.02,0,.03,0,.03v-.02ZM42.01,19.78v-.04s-.03,0-.04.01l.04.03ZM41.94,19.75c-.01-.06.04-.05.24-.05.12,0,.1.05.11.16.07.54.1.75.12.75s.07-.3.13-.63v-.02s0-.03,0-.03c.04-.22.03-.24.13-.24.16,0,.2,0,.21,0,.01,0,0,.03-.04.28l-.09.46c-.14.7-.15.78-.23.78h-.14s-.03,0-.03,0c-.12,0-.16-.02-.18-.11-.01-.08-.03-.16-.04-.24-.01-.07-.03-.13-.04-.2-.02-.13-.04-.23-.06-.31,0-.04,0-.08-.01-.12-.02-.12-.06-.25-.1-.49ZM40.08,20.81s-.06-.14-.06-.18c-.01-.07,0-.14,0-.22,0-.07,0-.14.01-.21.01-.1.03-.16.06-.16.02,0,.04.06.04.18,0,.07,0,.15,0,.23,0,.04,0,.37-.06.36ZM40.42,19.92c-.03-.12-.1-.23-.24-.26-.12-.02-.26.01-.34.1-.09.1-.11.23-.13.36-.03.15-.06.36-.02.65,0,.07.03.15.06.22.03.06.07.13.11.17.05.04.11.08.18.09.06.01.13,0,.18-.03.05-.02.08-.07.11-.11.07-.11.1-.25.11-.38.03-.27.04-.55-.02-.82ZM37.51,20.22s0-.04-.01-.04c-.01.02,0,.05.01.04ZM37.79,20.8c0,.05.37,0,.37.06,0,.04,0,.11,0,.2,0,.05,0,.09,0,.14,0,.03-.01.04-.04.05-.3,0-.44,0-.67,0-.03,0-.04-.02-.04-.06.01-.38.03-.96.04-1.11.01-.33,0-.4.07-.4h.18c.11,0,.13.01.13.1,0,.06,0,.13,0,.19,0,.03-.01.07-.01.1,0,.04,0,.09,0,.13,0,.08-.01.16-.01.23,0,.04,0,.09,0,.14,0,.03,0,.07,0,.1v.13ZM33.67,19.68h-.02c-.06-.01,0,.03.01.02v-.02ZM33.56,20.23s.01-.04.01-.34c0-.19,0-.24.09-.24h.17c.06,0,.06.08.06.13,0,.59.02,1.25.02,1.32,0,.14-.02.13-.16.13-.07,0-.11,0-.13,0-.04,0-.04-.02-.04-.06v-.02s0-.03,0-.03c0-.2,0-.4,0-.53,0-.03-.02-.03-.05-.03h-.11s-.06-.01-.07.02c0,.02,0,.25,0,.27,0,.06,0,.13,0,.2,0,.11,0,.16-.03.17-.05.02-.12,0-.17.01-.05,0-.11,0-.16,0-.06,0-.04-.03-.03-.3.02-.57.03-.71.04-1.17,0-.07.01-.12.08-.12.06,0,.14,0,.2,0,.03,0,.03.04.04.16v.03s0,.03,0,.03c.01.31,0,.34.03.35.02,0,.17.01.2,0ZM30.7,19.7h.03s.03,0,.03,0c0-.01,0-.02-.03-.02h0l-.02.03ZM30.86,20.02c-.09,0-.12,0-.17,0-.04,0-.04-.01-.03-.3,0-.06,0-.07.07-.07.24,0,.59.01.65,0,.03,0,.04.01.04.04,0,.04,0,.07,0,.1,0,.14.01.22-.02.22-.1.01-.2-.01-.21.03v.17c0,.07,0,.14,0,.21,0,.07,0,.3,0,.33,0,.16.01.3.01.45,0,.04-.13.04-.36.04-.04,0-.03-.06-.03-.16.01-.26.03-.54.03-.62,0-.08,0-.15,0-.23,0-.09.02-.23,0-.23ZM29.1,21.17v-.03s-.03.04-.03.04h.03ZM28.73,21.05h-.02s.03-.03.03-.03v.03ZM29.05,19.7s0-.02-.03-.02c-.01.02.01.03.03.02ZM28.96,21.22c-.17,0-.2.01-.2-.07.02-.52.02-.99.03-1.2,0-.07,0-.24.03-.28.01-.02.06-.02.09-.02.05,0,.11,0,.16,0,.04,0,.02.04.04.54.02.4.03.56.04.83,0,.19,0,.2-.18.2ZM27.03,21.15s-.02.03-.03.05c.02-.01.03-.03.03-.05ZM26.5,19.76s-.03-.01-.03.03h0s.03.01.03-.03ZM26.17,20.6s.09-.27.12-.39c.13-.44.14-.52.19-.52.05,0,.05.04.12.27.03.12.11.44.15.56.03.11.06-.33.12-.68,0-.04,0-.12.04-.15.02-.01.07-.01.17-.01.03,0,.09,0,.11.03.01.03-.01.11-.03.32-.03.29-.04.41-.08.67-.01.11-.02.29-.03.41,0,.04,0,.1-.06.11-.06.02-.14.01-.2.01-.05,0-.14.01-.16-.04-.13-.54-.15-.65-.17-.65-.01,0-.02.07-.07.22-.13.45-.11.49-.18.49-.24-.01-.3.03-.32-.1-.03-.19-.04-.27-.06-.42-.02-.13-.05-.25-.07-.37-.08-.48-.12-.63-.1-.66.01-.02.06-.02.26-.02.07,0,.07.02.08.09.08.55.13.85.15.85ZM22.12,20.62v-.03s0,.03,0,.03ZM22.13,20.57v-.05s.02.05,0,.05ZM21.76,20.86c0-.11,0-.27,0-.41v-.02s0-.04,0-.04v-.23s0-.1,0-.11c.09-.03.16.17.16.37,0,.46-.17.47-.17.44ZM21.46,19.81v-.06s.02.08,0,.06ZM22.26,20.37c-.01-.26-.08-.51-.22-.6-.11-.07-.28-.1-.42-.1-.05,0-.14,0-.17.04-.03.03-.03.14-.03.2,0,.16,0,.33,0,.5,0,.03,0,.05,0,.07v.05c-.01.34-.02.63-.01.66.01.06.1.06.14.06.15.01.28-.03.4-.1.21-.1.3-.45.29-.78ZM19.14,21.13s.01-.05,0-.06v.06ZM19.7,20.45s.01-.06.01-.09c-.03,0-.03.09-.01.09ZM19.82,20.74s.03.05.03.11v.02s0,.03,0,.03c0,.09,0,.2-.01.26,0,.09-.1.07-.52.07-.06,0-.21.02-.22-.06-.01-.14,0-.3,0-.59v-.04s0-.04,0-.04c0-.2,0-.4,0-.6v-.04s0-.03,0-.03v-.03s0-.04,0-.04c0-.09.05-.12.14-.12.1,0,.2,0,.3.01.2.01.24,0,.25.04.01.04,0,.1,0,.15,0,.13-.1.11-.35.11-.03,0-.02.1-.02.2,0,.06.22,0,.28.04.03.03.02.05.02.21,0,.1-.06.1-.23.1-.07,0-.07.01-.07.1v.1s.05.03.08.03c.16,0,.27,0,.32,0ZM17.21,20.26h-.02c-.06-.01,0,.03.01.02v-.02ZM16.61,19.78s.01-.02,0-.04c-.02,0-.03.03,0,.04ZM17.14,21.1c-.17-.43-.2-.52-.22-.52-.01.03,0,.26,0,.37,0,.22.02.27-.06.27-.05,0-.09,0-.13,0-.11,0-.14,0-.15-.03-.01-.14-.01-.76-.01-.99,0-.11,0-.22,0-.34,0-.16,0-.17.17-.17.12,0,.16,0,.16.04v.36c0,.05-.01.22.01.18.09-.17.16-.34.28-.56.02-.04.21-.02.27-.02.05,0,.08,0,.05.06-.13.25-.27.49-.3.54-.01.02-.03.06-.03.07,0,.03.03.09.18.43.07.16.12.28.16.36.04.11.04.14,0,.15-.09,0-.23,0-.27,0-.03,0-.07-.13-.1-.2ZM14.02,21.17v.02s-.05.03-.02-.03h.02ZM14.51,20.45s.02-.2.03-.2c0,.07,0,.1.01.2h-.04ZM15.02,21.14c-.05-.19-.07-.37-.1-.56-.03-.19-.06-.38-.1-.56-.02-.09-.02-.14-.05-.26-.02-.07-.02-.09-.08-.1-.08,0-.1,0-.23,0-.09,0-.09.07-.13.2-.06.18-.1.35-.15.53-.04.18-.1.36-.14.55-.01.03-.07.24-.07.27,0,.07.14.04.19.04.17-.01.19-.01.22-.04.05-.06.05-.16.06-.22l.03-.15s.05,0,.07,0c.03,0,.04,0,.04.03.01.09.02.19.04.29,0,.04,0,.07.06.08s.1,0,.16,0c.04,0,.2,0,.21-.01,0-.01,0-.03,0-.06ZM11.54,21.32s-.02-.01-.04,0c0,.02.03.02.04,0ZM11.82,20.6v.4s0,.03.03.04c.17,0,.24-.15.21-.27-.02-.1-.11-.17-.24-.17ZM12.09,20.37s.07-.03.06-.05l-.06.05ZM11.82,20.23c.1-.02.14-.12.14-.2,0-.07-.04-.14-.1-.14-.03,0-.04-.01-.04.03,0,.04,0,.13,0,.31ZM11.51,19.67s.02-.1,0-.09c-.03.02,0,.11,0,.09ZM12.09,20.39s.04.01.09.04c.09.05.16.14.2.24v.05s.03.03.03.04c0,.04.01.08.01.12,0,.29-.22.54-.88.48-.1-.01-.09-.04-.09-.11,0-.19,0-.38,0-.57,0-.16,0-.33,0-.5v-.09c-.01-.21,0-.39,0-.51,0-.08.24-.1.48-.08.2.02.3.21.34.39.03.25-.04.36-.1.42-.04.04-.09.06-.09.06Z"/>
      </g>
    </g>
  </g>
</svg>