<?xml version="1.0" encoding="UTF-8"?>
<svg id="Layer_2" data-name="Layer 2" xmlns="http://www.w3.org/2000/svg" viewBox="0 0 59.53 25.29">
  <defs>
    <style>
      .cls-1 {
        fill: #da2037;
      }

      .cls-2 {
        fill: #231f20;
      }
    </style>
  </defs>
  <g id="Layer_9" data-name="Layer 9">
    <g>
      <g>
        <polygon class="cls-1" points="7.96 8.43 7.96 8.45 7.95 8.45 7.96 8.43"/>
        <polygon class="cls-1" points="24.32 0 24.32 8.45 16.37 16.84 16.35 16.84 16.35 8.45 7.96 8.45 7.96 8.43 7.95 8.45 0 8.45 0 0 24.32 0"/>
        <polygon class="cls-1" points="16.37 16.84 16.35 16.86 16.35 16.84 16.37 16.84"/>
        <polygon class="cls-1" points="16.37 16.84 16.35 16.86 16.35 16.84 16.37 16.84"/>
        <polygon class="cls-1" points="24.32 16.84 24.32 25.29 0 25.29 0 16.84 7.95 8.45 7.96 8.45 7.96 16.84 16.35 16.84 16.35 16.86 16.37 16.84 24.32 16.84"/>
        <polygon class="cls-1" points="7.96 8.43 7.96 8.45 7.95 8.45 7.96 8.43"/>
      </g>
      <g>
        <g>
          <polygon class="cls-2" points="36.53 7.67 34.35 7.67 34.35 7.68 29.39 7.68 29.39 10 32.91 10 29.39 15.71 29.39 16.61 31.58 16.61 31.62 16.54 31.59 16.61 36.53 16.61 36.53 14.28 33.01 14.28 36.53 8.58 36.53 7.67"/>
          <g>
            <polygon class="cls-2" points="43.7 7.68 41.1 16.6 38.75 16.6 41.36 7.68 43.7 7.68"/>
            <polygon class="cls-2" points="43.34 7.68 45.94 16.6 48.29 16.6 45.68 7.68 43.34 7.68"/>
          </g>
          <path class="cls-2" d="M55.06,7.68h-4.55v8.93h4.55c1.23,0,2.35-.5,3.16-1.31.81-.81,1.31-1.92,1.31-3.16,0-2.47-2-4.47-4.47-4.47ZM55.06,14.48h-2.43v-4.68h2.43c1.29,0,2.34,1.05,2.34,2.34s-1.05,2.34-2.34,2.34Z"/>
        </g>
        <g>
          <path class="cls-2" d="M33.97,22.52v-4.18h1.04v4.24c0,1.76-.97,2.7-2.76,2.7s-2.86-.92-2.86-2.7v-4.24h1.04v4.12c0,1.11.42,1.9,1.82,1.9s1.71-.73,1.71-1.84Z"/>
          <path class="cls-2" d="M37.45,25.15h-.99v-5.3h.97v1.37h.1c.3-.94,1-1.51,1.92-1.51,1.18,0,1.71.77,1.71,1.93v3.51h-.99v-3.27c0-.73-.3-1.27-1.15-1.27-.94,0-1.58.6-1.58,1.51v3.03Z"/>
          <path class="cls-2" d="M42.54,18.83v-.9h1.14v.9h-1.14ZM42.61,25.15v-5.3h.99v5.3h-.99Z"/>
          <path class="cls-2" d="M45.43,20.67h-.81v-.82h.81v-1.49h.99v1.49h1.69v.82h-1.69v2.79c0,.6.23.91.82.91.28,0,.52-.06.81-.14l.12.87c-.36.11-.65.18-1.14.18-1.11,0-1.6-.73-1.6-1.71v-2.91Z"/>
          <path class="cls-2" d="M48.76,22.54c0-1.77,1.03-2.83,2.63-2.83s2.38.98,2.38,2.44c0,.16-.01.4-.03.64h-4c.08,1.08.65,1.67,1.67,1.67.95,0,1.28-.48,1.45-1.07l.86.24c-.26,1.01-.94,1.65-2.32,1.65-1.65,0-2.66-.98-2.66-2.74ZM49.76,22.07h3.1c-.05-1.01-.51-1.58-1.49-1.58s-1.5.52-1.61,1.58Z"/>
          <path class="cls-2" d="M58.54,23.73h-.07c-.26.91-.92,1.56-1.92,1.56-1.29,0-2.03-.98-2.03-2.77s.76-2.8,2.05-2.8c1.04,0,1.64.64,1.9,1.54h.07v-3.39h.99v7.29h-.99v-1.42ZM58.54,22.72v-.41c0-1.01-.6-1.7-1.56-1.7s-1.49.61-1.49,1.91.48,1.88,1.49,1.88c.94,0,1.56-.65,1.56-1.68Z"/>
        </g>
      </g>
    </g>
  </g>
</svg>