<?xml version="1.0" encoding="UTF-8"?>
<svg id="Layer_2" data-name="Layer 2" xmlns="http://www.w3.org/2000/svg" viewBox="0 0 59.53 39.76">
  <defs>
    <style>
      .cls-1 {
        fill: #121241;
      }

      .cls-2 {
        fill: #71429a;
      }

      .cls-3 {
        fill: #fff;
      }
    </style>
  </defs>
  <g id="Layer_10" data-name="Layer 10">
    <g>
      <path class="cls-2" d="M29.76,39.75c-.31,0-.63.01-.94.01C12.91,39.76,0,30.86,0,19.88S12.91,0,28.82,0c.31,0,.63,0,.94.01C14.28.35,1.88,9.12,1.88,19.88s12.4,19.53,27.89,19.87"/>
      <path class="cls-1" d="M57.65,19.88c0,10.76-12.4,19.53-27.89,19.87-15.49-.34-27.89-9.11-27.89-19.87S14.28.35,29.76.01c15.49.34,27.89,9.11,27.89,19.87"/>
      <path class="cls-2" d="M59.53,19.88c0,10.98-12.91,19.88-28.83,19.88-.31,0-.63,0-.94-.01,15.49-.34,27.89-9.11,27.89-19.87S45.25.35,29.76.01c.31,0,.62-.01.94-.01C46.62,0,59.53,8.9,59.53,19.88"/>
      <path class="cls-3" d="M52.75,23.75v.37h-1.1v-.52c0-.15.03-.27.12-.35.08-.08.2-.12.36-.12.14,0,.25.03.33.1.08.07.13.17.15.31l-.25.03c-.01-.07-.04-.13-.07-.16-.03-.03-.08-.05-.15-.05-.07,0-.12.02-.16.07-.04.04-.06.1.04.18v.15h.73Z"/>
      <rect class="cls-3" x="52.02" y="24.48" width=".37" height="3.29"/>
      <rect class="cls-3" x="49.83" y="23.75" width=".37" height=".73"/>
      <rect class="cls-3" x="49.1" y="23.75" width=".37" height=".73"/>
      <path class="cls-3" d="M50.55,25.15c-.22-.24-.55-.36-.97-.37-.42,0-.75.13-1,.38-.25.25-.38.58-.38.99,0,.24.05.46.16.66.1.2.25.35.43.59h-4.07v.37h6.21v-1.56c-.04-.46-.15-.81-.37-1.06M50.19,27.41h-.44c-.36,0-.65-.1-.84-.29-.2-.19-.3-.46-.3-.8,0-.3.07-.52.21-.68.14-.16.34-.24.6-.24.26,0,.46.08.59.24.13.16.19.4.19.72v1.06Z"/>
      <path class="cls-3" d="M43.98,27.41v-1.2s-.13-.81-.35-1.05c-.22-.24-.54-.36-.97-.36-.42,0-.76.13-1.01.38-.25.25-.37.59-.37,1.02,0,.5.16.89.48,1.17.32.28.76.41,1.34.41h.51v.07c-.2.29-.25.5-.37.62-.11.12-.31.18-.58.18-.46,0-.73-.19-.81-.5h-.52c.04.27.17.53.39.71.23.18.54.27.93.27.45,0,.78-.11.99-.32.21-.21.31-1.02.31-1.02h.75v-.37h-.73ZM43.25,27.41h-.42c-.38,0-.67-.09-.87-.28-.2-.19-.3-.46-.3-.81,0-.3.07-.53.21-.69.14-.16.34-.24.6-.24.27,0,.47.08.59.24.12.16.19.43.19.79v.99Z"/>
      <rect class="cls-3" x="39.97" y="23.02" width=".37" height="4.75"/>
      <rect class="cls-3" x="35.59" y="23.75" width=".37" height=".73"/>
      <rect class="cls-3" x="34.85" y="23.75" width=".37" height=".73"/>
      <path class="cls-3" d="M32.45,27.77c-.52,0-.91-.12-1.2-.38-.28-.25-.42-.61-.42-1.08,0-.42.12-.75.35-1.01.23-.25.55-.4.96-.43l.07.49c-.29.03-.5.12-.63.27-.14.15-.2.37-.2.66,0,.31.09.55.28.71.19.17.8.39.8.39h6.05v-2.56h.37v2.92h-6.42Z"/>
      <path class="cls-3" d="M27.89,23.52c.21-.06.42-.14.64-.23.22-.09.44-.2.67-.32l.23-.5c-.27.13-.54.19-.79.19-.22,0-.41-.05-.58-.13-.17-.08-.32-.18-.45-.29-.13-.12-.23-.24-.31-.38-.08-.14-.14-.27-.17-.4-.07-.28-.08-.57-.04-.86.05-.3.14-.59.28-.88.14-.29.31-.56.52-.82.21-.26.44-.48.68-.67.25-.19.51-.34.79-.45.28-.11.55-.16.81-.16.54,0,.96.16,1.26.46.09-.15.21-.24.35-.28.15-.03.31-.04.5-.04.2,0,.38.04.53.08.15.05.25.14.29.29.02.11,0,.25-.06.42h0s-1.19,2.69-1.19,2.69c.4-.34.77-.68,1.12-1.03.34-.35.64-.72.9-1.09.04-.04.09-.07.14-.08.06-.02.12-.02.18-.02.09,0,.17.02.25.07.08.04.14.1.18.17.04.07.07.15.07.23,0,.09-.02.18-.07.26-.19.28-.42.57-.68.87-.26.3-.55.6-.86.89-.31.29-.65.58-1,.86-.36.28-.72.55-1.09.8l-2.49,5.57c-.09.18-.2.29-.33.32-.13.03-.31.04-.55.04-.22-.02-.39-.05-.53-.1-.14-.05-.23-.15-.27-.28-.02-.1,0-.24.07-.41.04-.11,1.41-3.25,1.47-3.38.06-.13.12-.27.19-.43l-.24.1c-.14.06-.29.08-.44.08-.14,0-.24-.03-.32-.08-.08-.06-.13-.13-.16-.22-.02-.07-.03-.15,0-.24.02-.09.05-.17.1-.26.05-.08.11-.16.18-.22.07-.06.16-.11.25-.14M29.61,21.05c.15,0,.31-.08.49-.25.17-.16.35-.43.53-.79.02-.03.03-.06.05-.1.02-.03.03-.07.05-.11.06-.14.12-.28.17-.41.05-.13.08-.25.1-.35.02-.1.03-.19.02-.26,0-.07-.03-.11-.07-.11-.18-.04-.35-.03-.51.03-.16.06-.31.15-.45.27-.14.12-.26.26-.37.43-.11.17-.2.34-.27.5-.07.17-.12.33-.14.49-.02.16-.02.29.01.39.02.08.07.15.14.2.07.05.15.07.24.07"/>
      <path class="cls-3" d="M40.35,20.86c-.32.38-.62.7-.89.94-.27.24-.52.42-.74.55-.22.13-.43.21-.61.26-.18.04-.35.06-.5.04-.18-.02-.33-.07-.46-.16-.13-.09-.24-.19-.33-.31-.09-.12-.16-.23-.21-.35-.05-.12-.08-.22-.1-.3-.24.24-.46.43-.67.58-.2.15-.39.26-.56.35-.17.08-.33.14-.48.16-.15.02-.28.03-.4.02-.18-.02-.33-.07-.46-.16-.13-.09-.24-.2-.34-.32-.09-.12-.16-.25-.22-.37-.05-.12-.08-.22-.09-.29-.04-.43.02-.85.17-1.27.16-.41.35-.85.58-1.33l.35-.72c.08-.17.19-.27.33-.31.14-.04.31-.05.52-.04.21,0,.39.04.53.08.15.05.24.14.28.29.02.05.02.11.02.19,0,.08-.03.16-.07.25l-.92,2.15h-.01c-.02.05,0,.11.04.16.04.05.1.08.16.1.1-.05.22-.11.35-.19.13-.08.25-.17.37-.26.12-.1.23-.19.32-.29.1-.1.17-.19.22-.26l.58-.9.02-.02.12-.24.17-.34.17-.35c.09-.16.2-.26.35-.3.14-.04.32-.06.52-.05.21,0,.39.03.54.08.15.04.25.14.29.29.03.1.01.25-.06.43-.07.15-.15.33-.23.52-.08.2-.17.39-.25.59-.08.2-.16.39-.24.57-.08.18-.14.34-.2.47h-.01c-.02.05,0,.11.04.16s.1.08.16.1c.1-.05.22-.11.35-.19.13-.08.25-.17.37-.26.12-.1.23-.19.32-.29.1-.1.17-.19.22-.26l.13-.2c-.06-.1-.12-.2-.17-.31-.05-.11-.09-.23-.12-.35-.04-.12-.07-.24-.09-.35-.02-.12-.03-.22-.02-.32,0-.13.04-.25.09-.37.05-.12.12-.23.2-.32.08-.1.17-.17.28-.23.1-.06.21-.08.32-.08.29,0,.5.07.63.22.13.15.23.35.29.59.06.21.07.43.02.67-.05.24-.12.48-.2.73l-.02.05s0,.03,0,.03c0,0,0,.01,0,.02.02,0,.03,0,.04,0,.01,0,.03,0,.04,0,.13,0,.26-.06.41-.17.14-.12.28-.26.4-.44.05-.08.12-.11.23-.09.1.02.2.07.3.14.1.07.17.16.23.25.06.1.06.18.02.25-.23.37-.47.61-.7.74-.24.12-.47.18-.7.16-.14,0-.26-.03-.38-.06-.12-.03-.23-.07-.34-.12-.05.06-.1.13-.14.2-.05.07-.1.13-.14.2M40.54,18.36s-.06.04-.08.13c-.02.08-.04.18-.05.28,0,0,0-.01,0-.02,0,0,0,0,0-.02,0-.05.03-.12.06-.22.03-.1.05-.15.06-.15"/>
      <path class="cls-3" d="M29.57,11.08c-.05-.15-.14-.25-.29-.31-.15-.06-.35-.1-.61-.12-.14,0-.27,0-.38.01-.11.02-.21.05-.3.08l-.18-.09c-.53.38-1.03.82-1.52,1.31-.48.49-.96,1.03-1.43,1.59-.47.57-.93,1.16-1.39,1.79-.45.62-.91,1.25-1.36,1.89,0,0-.01.02-.01.03-.33-.29-.69-.55-1.08-.78-.01,0-.03-.02-.04-.02-.4-.23-.81-.43-1.24-.6-.43-.16-.86-.29-1.3-.37-.44-.09-.88-.13-1.31-.13-.09,0-.18,0-.27,0,0,0,0,0-.01,0-.1,0-.19.01-.27.02-.17.02-.28.08-.33.19-.01.03-.02.05-.03.08-.02.08-.02.17,0,.27.05.15.14.29.3.41.15.12.34.15.56-.25h-.01c.05.33.17.37.17.37h.11c.32,0,.65.04,1,.11.35.07.69.19,1.04.33.35.15.68.32,1.01.53.33.2.63.44.92.7-.01.01-.02.03-.03.04-.65.89-1.3,1.75-1.96,2.59-.67.85-1.36,1.6-2.08,2.26-.72.66-1.47,1.18-2.25,1.58-.78.39-1.6.59-2.47.59-.37,0-.73-.06-1.08-.17-.35-.12-.68-.28-.98-.5-.3-.22-.57-.49-.8-.8-.23-.32-.42-.69-.55-1.1-.12-.58-.12-1.19-.01-1.84.11-.65.31-1.25.62-1.8.31-.55.71-1.01,1.22-1.38.5-.37,1.1-.56,1.8-.58.26,0,.49.02.7.1.21.08.4.18.57.31.16.13.3.28.41.47.08.13.15.26.2.4.17.44.18.93.08,1.38-.05.22-.12.44-.22.64-.13.29-.3.55-.51.79-.21.24-.43.43-.66.57h.01c-.12.03-.19.1-.23.19-.04.09-.04.19-.01.29.04.13.13.24.26.33.13.09.29.1.47.04.55-.25,1-.55,1.36-.9.36-.35.64-.73.83-1.13.19-.4.31-.82.34-1.24.03-.43,0-.83-.11-1.22-.2-.67-.55-1.22-1.08-1.65-.52-.44-1.2-.68-2.02-.71-.68-.03-1.32.06-1.93.25-.6.2-1.15.47-1.64.83-.49.36-.92.79-1.28,1.28-.36.49-.64,1.02-.85,1.59-.21.57-.33,1.16-.36,1.76-.03.61.04,1.21.21,1.79.18.63.46,1.16.84,1.6.39.44.82.8,1.32,1.09.49.28,1.01.49,1.57.62.55.13,1.09.19,1.6.19h.21s.14.18.22,0h-.01c.82.14,1.65-.1,2.46-.55.82-.44,1.62-1.01,2.4-1.71.78-.7,1.55-1.49,2.31-2.39.74-.88,1.47-1.78,2.18-2.71.02-.02.03-.04.05-.06.21.35.37.71.48,1.06.06.23.1.5.12.8.02.3,0,.62-.04.97,0,0,0,0,0,.01-.26.62-.51,1.23-.75,1.81-.24.58-.45,1.14-.65,1.66h-.01c-.1.21-.12.42-.07.61.06.22.19.35.39.41.2.05.45.09.75.12.36.02.65,0,.86-.05.21-.05.38-.23.5-.53.15-.41.31-.82.46-1.24.13-.36.27-.72.41-1.08.01-.03.02-.06.03-.08.31-.82.61-1.63.89-2.4.31-.83.62-1.67.95-2.52.32-.85.64-1.68.94-2.49.31-.82.61-1.6.9-2.36.29-.76.8-2.11.8-2.11h0s.24-.59.19-.76M24.73,17.98h-.01s-.16.39-.16.39l-.65,1.52c-.09-.29-.2-.56-.33-.82-.13-.26-.28-.51-.46-.74l.45-.61c.44-.6.91-1.22,1.39-1.86.48-.64.97-1.27,1.48-1.88l-1.7,4Z"/>
      <path class="cls-3" d="M48.21,20.86c-.32.38-.61.7-.88.94-.27.24-.51.42-.74.55-.22.13-.43.21-.62.26-.19.04-.36.06-.51.04-.14,0-.26-.04-.37-.1-.11-.06-.2-.13-.29-.22-.08-.08-.16-.18-.22-.28-.06-.1-.11-.19-.14-.28-.26.26-.53.47-.83.64-.3.17-.6.25-.91.25-.22,0-.41-.05-.58-.13-.17-.08-.32-.18-.45-.29-.13-.12-.23-.24-.31-.38-.08-.14-.14-.27-.17-.4-.07-.28-.08-.57-.04-.86.05-.3.14-.59.28-.88.14-.29.31-.56.52-.82.21-.26.44-.48.68-.67.25-.19.51-.34.79-.45.28-.11.55-.16.81-.16.29,0,.54.05.75.13.21.08.39.2.55.35.09-.14.2-.22.34-.25.14-.03.3-.04.49-.03.21,0,.39.04.53.08.15.05.24.14.28.29.02.11,0,.26-.07.43-.03.07-.06.15-.09.23-.03.08-.06.16-.1.22h0c-.13.28-.26.59-.39.92-.13.32-.24.59-.32.79-.02.06-.01.12.03.16.04.04.09.07.15.08.1-.05.22-.11.35-.19.13-.08.25-.17.37-.26.12-.1.23-.19.32-.29.1-.1.17-.19.22-.26l.56-.89c.1-.09.21-.13.32-.13.09,0,.17.02.25.07.08.04.14.1.19.17.05.07.08.15.08.23,0,.09-.01.18-.06.26l-.22.35-.07.1c-.06.09-.12.19-.2.3-.08.11-.17.24-.28.37M43.68,21.05c.34,0,.7-.4,1.1-1.19,0,0,0-.02,0-.02,0,0,0-.02,0-.02.06-.14.12-.28.17-.41.05-.13.08-.25.1-.35.02-.1.03-.19.02-.26,0-.07-.03-.11-.07-.11-.18-.04-.35-.03-.51.03-.16.06-.31.15-.45.27-.14.12-.26.26-.37.43-.11.17-.2.34-.27.5-.07.17-.12.33-.14.49-.02.16-.02.29.01.39.02.08.07.15.14.2.07.05.15.07.24.07"/>
      <path class="cls-3" d="M49.3,16.72c-.2,0-.35-.04-.46-.12-.1-.08-.17-.18-.2-.29-.04-.14-.02-.26.07-.38.09-.12.24-.17.44-.21h.59l.08.02h0s.16-.47.16-.47l.23-.47c.09-.17.2-.27.34-.31.14-.04.31-.06.53-.05.22.02.41.05.55.1.14.05.23.15.27.28.04.1.02.23-.05.41l-.24.49h.36c.18.07.33.1.43.18.1.08.18.17.22.29.02.06.02.13,0,.2-.01.07-.04.13-.08.19-.04.06-.1.1-.18.13-.08.03-.27.11-.27.11h-.88s-.33.72-.52,1.16c-.18.44-.36.85-.52,1.24-.16.39-.3.73-.42,1.02-.12.29-.2.48-.23.57-.02.06-.02.11.01.16.03.05.07.08.11.08.1-.04.22-.1.34-.18.12-.08.25-.17.37-.26.12-.1.23-.19.33-.29.1-.1.17-.19.22-.27l.58-.9c.07-.07.15-.11.23-.13.08-.01.15,0,.22.03.07.03.13.08.19.16.06.07.1.15.12.23.04.15.04.26,0,.34l-.16.22c-.09.14-.18.29-.28.45-.1.16-.21.3-.32.44-.32.38-.62.7-.89.94-.27.24-.52.42-.74.55-.22.13-.43.21-.61.26-.18.04-.35.06-.49.04-.18,0-.33-.05-.47-.13-.14-.08-.25-.17-.35-.28-.1-.11-.17-.22-.22-.33-.05-.11-.08-.21-.09-.29-.03-.2,0-.48.1-.85.1-.36.23-.77.4-1.22.17-.45.36-.92.56-1.41.21-.49.42-.97.62-1.42"/>
      <path class="cls-3" d="M31.62,22.79s-1.15.83-2.55,1.49c-1.27.6-2.35.91-3.25.91-.51,0-.96-.1-1.34-.29,0,0,0,0,0,0-.9-.46-1.4-1.4-1.48-2.81,0-.1,0-.2-.01-.31-.01-.94-.21-1.76-.6-2.45-.21-.39-.48-.74-.81-1.05-.04-.04-.08-.07-.12-.11.01-.02.02-.03.03-.05-.29-.27-.6-.51-.94-.72-.34-.21-.68-.39-1.03-.54-.35-.15-.71-.26-1.06-.34-.35-.08-.69-.12-1.02-.44h-.18c-.06.32-.12.33-.17.37h.01c-.22.03-.4,0-.56-.12-.15-.12-.25-.26-.3-.41v-.27s0-.06.02-.08c.05-.11.16-.17.33-.19.08,0,.17-.02.27-.02,0,0,0,0,.01,0,.91.05,2.63.27,4.16,1.12.38.21.75.46,1.09.75.08.07.16.14.24.21,1.14,1.09,1.73,2.54,1.75,4.31.01,1.04.27,1.73.76,2.05.04.02.08.05.11.07.71.36,1.98.14,3.58-.62,1.31-.62,2.38-1.39,2.39-1.4l.67.93Z"/>
    </g>
  </g>
</svg>