<?xml version="1.0" encoding="UTF-8"?>
<svg id="Layer_2" data-name="Layer 2" xmlns="http://www.w3.org/2000/svg" viewBox="0 0 59.53 18.14">
  <defs>
    <style>
      .cls-1 {
        fill: #ac3349;
      }
    </style>
  </defs>
  <g id="Layer_9" data-name="Layer 9">
    <g>
      <path class="cls-1" d="M58.62,7.42c0,.1-.06.22-.27.22h-.09v-.4h.15c.16,0,.22.05.22.18M58.89,8.34l-.28-.4c-.05-.08-.1-.14-.12-.18.2-.02.34-.15.34-.37,0-.19-.12-.31-.41-.31h-.36v1.26h.2v-.57h.01l.37.57h.25ZM58.41,6.82c.49,0,.88.42.88.91s-.39.89-.88.89-.89-.42-.89-.91.39-.89.89-.89M58.41,6.6c-.61,0-1.12.5-1.12,1.12s.48,1.12,1.12,1.12c.6,0,1.12-.51,1.12-1.12s-.49-1.12-1.12-1.12"/>
      <path class="cls-1" d="M58.62,7.42c0,.1-.06.22-.27.22h-.09v-.4h.15c.16,0,.22.05.22.18M58.89,8.34l-.28-.4c-.05-.08-.1-.14-.12-.18.2-.02.34-.15.34-.37,0-.19-.12-.31-.41-.31h-.36v1.26h.2v-.57h.01l.37.57h.25ZM58.41,6.82c.49,0,.88.42.88.91s-.39.89-.88.89-.89-.42-.89-.91.39-.89.89-.89M58.41,6.6c-.61,0-1.12.5-1.12,1.12s.48,1.12,1.12,1.12c.6,0,1.12-.51,1.12-1.12s-.49-1.12-1.12-1.12"/>
      <rect class="cls-1" y="10.87" width="56.33" height="2.82"/>
      <path class="cls-1" d="M28.88,1.37c2.26,0,3.09,1.46,3.09,3.04,0,1.86-1.09,3.04-3.09,3.04h-1.05V1.37h1.05ZM26.37.1v8.63h2.49c3.26,0,4.65-2.16,4.65-4.32,0-2.01-1.26-4.31-4.65-4.31h-2.49Z"/>
      <path class="cls-1" d="M28.88,1.37c2.26,0,3.09,1.46,3.09,3.04,0,1.86-1.09,3.04-3.09,3.04h-1.05V1.37h1.05ZM26.37.1v8.63h2.49c3.26,0,4.65-2.16,4.65-4.32,0-2.01-1.26-4.31-4.65-4.31h-2.49Z"/>
      <polygon class="cls-1" points="37.19 7.46 37.19 4.97 40.17 4.97 40.17 3.7 37.19 3.7 37.19 1.37 40.59 1.37 40.59 .1 35.73 .1 35.73 3.7 34.81 3.7 34.81 4.97 35.73 4.97 35.73 8.73 40.61 8.73 40.61 7.46 37.19 7.46"/>
      <polygon class="cls-1" points="37.19 7.46 37.19 4.97 40.17 4.97 40.17 3.7 37.19 3.7 37.19 1.37 40.59 1.37 40.59 .1 35.73 .1 35.73 3.7 34.81 3.7 34.81 4.97 35.73 4.97 35.73 8.73 40.61 8.73 40.61 7.46 37.19 7.46"/>
      <path class="cls-1" d="M3.56,1.38c.85,0,1.25.59,1.25,1.16,0,.63-.46,1.16-1.25,1.16h-1.18V1.38h1.18ZM3.76,4.97c1.07,0,1.57.59,1.57,1.25,0,.61-.44,1.25-1.57,1.25h-1.38v-2.49h1.38ZM5.28,4.12c.16-.1,1.02-.6,1.02-1.8C6.3,1.2,5.56.1,3.87.1H.92v3.6H0v1.27h.91v3.76h2.87c2.27,0,3.05-1.31,3.05-2.5,0-1.56-1.39-2.05-1.56-2.11"/>
      <path class="cls-1" d="M3.56,1.38c.85,0,1.25.59,1.25,1.16,0,.63-.46,1.16-1.25,1.16h-1.18V1.38h1.18ZM3.76,4.97c1.07,0,1.57.59,1.57,1.25,0,.61-.44,1.25-1.57,1.25h-1.38v-2.49h1.38ZM5.28,4.12c.16-.1,1.02-.6,1.02-1.8C6.3,1.2,5.56.1,3.87.1H.92v3.6H0v1.27h.91v3.76h2.87c2.27,0,3.05-1.31,3.05-2.5,0-1.56-1.39-2.05-1.56-2.11"/>
      <path class="cls-1" d="M9.66,4.42c0-1.9.96-3.13,2.68-3.13s2.68,1.22,2.68,3.13-.95,3.14-2.68,3.14-2.68-1.25-2.68-3.14M8.11,4.42c0,2.88,1.95,4.42,4.24,4.42,2.11,0,4.24-1.39,4.24-4.42S14.47,0,12.35,0s-4.24,1.4-4.24,4.42"/>
      <path class="cls-1" d="M9.66,4.42c0-1.9.96-3.13,2.68-3.13s2.68,1.22,2.68,3.13-.95,3.14-2.68,3.14-2.68-1.25-2.68-3.14M8.11,4.42c0,2.88,1.95,4.42,4.24,4.42,2.11,0,4.24-1.39,4.24-4.42S14.47,0,12.35,0s-4.24,1.4-4.24,4.42"/>
      <path class="cls-1" d="M21.15,1.38c1.01,0,1.52.63,1.52,1.36s-.49,1.36-1.52,1.36h-1.29V1.38h1.29ZM18.4.1v8.63h1.46v-3.36h1.35l1.98,3.36h1.73s-2.08-3.48-2.26-3.79c.23-.11,1.5-.59,1.5-2.31,0-.93-.67-2.53-3.24-2.53h-2.52Z"/>
      <path class="cls-1" d="M21.15,1.38c1.01,0,1.52.63,1.52,1.36s-.49,1.36-1.52,1.36h-1.29V1.38h1.29ZM18.4.1v8.63h1.46v-3.36h1.35l1.98,3.36h1.73s-2.08-3.48-2.26-3.79c.23-.11,1.5-.59,1.5-2.31,0-.93-.67-2.53-3.24-2.53h-2.52Z"/>
      <path class="cls-1" d="M45.41,1.38c1.01,0,1.52.63,1.52,1.36s-.49,1.36-1.52,1.36h-1.29V1.38h1.29ZM42.66.1v8.63h1.46v-3.36h1.35l1.98,3.36h1.73s-2.08-3.48-2.26-3.79c.24-.11,1.5-.59,1.5-2.31,0-.93-.67-2.53-3.24-2.53h-2.52Z"/>
      <path class="cls-1" d="M45.41,1.38c1.01,0,1.52.63,1.52,1.36s-.49,1.36-1.52,1.36h-1.29V1.38h1.29ZM42.66.1v8.63h1.46v-3.36h1.35l1.98,3.36h1.73s-2.08-3.48-2.26-3.79c.24-.11,1.5-.59,1.5-2.31,0-.93-.67-2.53-3.24-2.53h-2.52Z"/>
      <path class="cls-1" d="M49.87,8.06c.18.11,1.07.77,2.59.77,1.74,0,2.96-.99,2.96-2.42s-1.17-2.12-2.2-2.69c-.82-.45-1.53-.84-1.53-1.55,0-.43.32-.93,1.29-.93s1.86.55,1.99.63V.48c-.11-.06-.89-.48-2.06-.48-1.89,0-2.73,1.17-2.73,2.33,0,.61.2,1.12.6,1.56.42.46.99.78,1.55,1.09.82.45,1.53.84,1.53,1.59,0,.57-.48,1.03-1.46,1.03-1.05,0-1.78-.57-1.92-.66l-.62,1.11Z"/>
      <path class="cls-1" d="M49.87,8.06c.18.11,1.07.77,2.59.77,1.74,0,2.96-.99,2.96-2.42s-1.17-2.12-2.2-2.69c-.82-.45-1.53-.84-1.53-1.55,0-.43.32-.93,1.29-.93s1.86.55,1.99.63V.48c-.11-.06-.89-.48-2.06-.48-1.89,0-2.73,1.17-2.73,2.33,0,.61.2,1.12.6,1.56.42.46.99.78,1.55,1.09.82.45,1.53.84,1.53,1.59,0,.57-.48,1.03-1.46,1.03-1.05,0-1.78-.57-1.92-.66l-.62,1.11Z"/>
      <g>
        <path class="cls-1" d="M8.02,15.44h.37l.64,1.11.64-1.11h.37l-.85,1.46v1.13h-.32v-1.13l-.85-1.46Z"/>
        <path class="cls-1" d="M11.96,15.49c.17.07.31.17.43.29.12.12.22.27.29.43.07.17.11.34.11.52s-.03.37-.1.53c-.07.17-.17.31-.29.43-.12.12-.27.22-.43.29s-.34.1-.53.1-.36-.03-.53-.1c-.17-.07-.31-.16-.44-.29s-.22-.27-.29-.43c-.07-.17-.1-.34-.1-.53s.04-.35.11-.52c.07-.17.17-.31.29-.43.12-.12.27-.22.44-.29s.34-.1.52-.1.36.03.52.1ZM11.84,17.71c.12-.05.24-.13.33-.22.1-.1.17-.21.23-.34.05-.13.08-.26.08-.41s-.03-.28-.08-.4-.12-.24-.21-.34c-.09-.1-.2-.17-.33-.23-.13-.05-.27-.08-.41-.08s-.29.03-.41.08c-.13.05-.24.13-.33.23-.09.1-.16.21-.21.34-.05.13-.08.26-.08.4s.03.28.08.41c.05.13.13.24.23.34s.21.17.33.22c.12.05.26.08.4.08s.27-.03.4-.08Z"/>
        <path class="cls-1" d="M13.39,15.44v1.53c0,.11,0,.22.03.31.02.1.05.18.1.26.05.08.11.14.19.18.08.04.18.07.3.07s.22-.02.3-.07c.08-.04.15-.1.19-.18.05-.08.08-.16.1-.26.02-.1.03-.2.03-.31v-1.53h.32v1.64c0,.14-.02.28-.07.4-.04.12-.11.23-.19.32-.08.09-.18.16-.3.21-.12.05-.25.08-.4.08s-.28-.03-.4-.08-.22-.12-.3-.21c-.08-.09-.15-.2-.19-.32-.04-.12-.07-.25-.07-.4v-1.64h.32Z"/>
        <path class="cls-1" d="M17.02,18.03h-.39l-.76-1.1h-.13v1.1h-.32v-2.59h.39c.15,0,.28,0,.39.02.11.01.21.05.3.1.11.06.19.15.25.26.06.11.09.23.09.36,0,.19-.06.35-.17.49s-.26.22-.45.24l.82,1.13ZM15.73,16.67h.1c.1,0,.18,0,.26-.02.08-.01.15-.04.21-.07.07-.03.12-.08.15-.14.04-.06.06-.14.06-.24s-.02-.18-.06-.24-.1-.11-.16-.14c-.07-.03-.14-.05-.22-.07s-.17-.02-.26-.02h-.09v.94Z"/>
        <path class="cls-1" d="M18.59,18.03h-.32v-2.59h.37c.2,0,.36.02.5.05.13.03.24.08.32.14.08.06.14.14.17.23.04.09.05.2.05.32,0,.13-.02.25-.07.34-.05.1-.11.17-.19.24-.08.06-.18.11-.29.13-.11.03-.23.04-.36.04h-.19v1.09ZM18.59,16.66h.1c.1,0,.18,0,.26-.02.08-.01.15-.04.21-.07.07-.03.12-.08.15-.14.04-.06.06-.14.06-.24s-.02-.18-.06-.24-.1-.11-.16-.14c-.07-.03-.14-.05-.22-.06-.08-.01-.17-.02-.26-.02h-.09v.93Z"/>
        <path class="cls-1" d="M20.3,17.74h.79v.3h-1.11v-2.59h.32v2.3Z"/>
        <path class="cls-1" d="M21.66,17.38l-.3.65h-.35l1.24-2.7,1.24,2.7h-.35l-.3-.65h-1.19ZM22.26,16.04l-.46,1.05h.92l-.46-1.05Z"/>
        <path class="cls-1" d="M25.6,15.94c-.09-.08-.2-.15-.32-.19-.12-.04-.24-.07-.37-.07-.14,0-.28.03-.4.08-.12.06-.23.13-.33.23-.09.1-.17.21-.22.34-.05.13-.08.26-.08.41s.03.27.08.4.12.24.22.34c.09.1.2.18.32.23.12.06.26.08.4.08.13,0,.25-.02.37-.07.12-.05.23-.11.32-.2v.38c-.1.06-.21.1-.33.13-.12.03-.24.05-.35.05-.18,0-.35-.03-.52-.1s-.31-.16-.43-.29c-.12-.12-.22-.27-.29-.43-.07-.16-.1-.34-.1-.52s.04-.36.11-.53c.07-.17.17-.31.3-.44.13-.13.27-.22.44-.29.17-.07.34-.1.53-.1.12,0,.23.01.34.04.11.03.22.07.31.13v.37Z"/>
        <path class="cls-1" d="M25.99,15.44h1.39v.3h-1.07v.73h1.04v.3h-1.04v.98h1.07v.3h-1.39v-2.59Z"/>
        <path class="cls-1" d="M29.47,18.03h-.32v-2.3h-.62v-.3h1.55v.3h-.62v2.3Z"/>
        <path class="cls-1" d="M32.04,15.49c.17.07.31.17.43.29.12.12.22.27.29.43.07.17.11.34.11.52s-.03.37-.1.53c-.07.17-.17.31-.29.43-.12.12-.27.22-.43.29s-.34.1-.53.1-.36-.03-.53-.1c-.17-.07-.31-.16-.44-.29s-.22-.27-.29-.43c-.07-.17-.1-.34-.1-.53s.04-.35.11-.52c.07-.17.17-.31.29-.43.12-.12.27-.22.44-.29s.34-.1.52-.1.36.03.52.1ZM31.91,17.71c.12-.05.24-.13.33-.22.1-.1.17-.21.23-.34.05-.13.08-.26.08-.41s-.03-.28-.08-.4-.12-.24-.21-.34c-.09-.1-.2-.17-.33-.23-.13-.05-.27-.08-.41-.08s-.29.03-.41.08c-.13.05-.24.13-.33.23-.09.1-.16.21-.21.34-.05.13-.08.26-.08.4s.03.28.08.41c.05.13.13.24.23.34s.21.17.33.22c.12.05.26.08.4.08s.27-.03.4-.08Z"/>
        <path class="cls-1" d="M34.15,15.44h.32c.13,0,.25.01.37.03s.21.06.3.11c.09.05.16.13.21.22.05.09.08.21.08.35,0,.1-.03.2-.08.29-.05.1-.12.16-.2.2h0c.08.02.14.05.21.09.06.04.12.09.17.15s.08.13.11.2c.03.07.04.15.04.22,0,.13-.02.24-.07.33-.05.09-.12.17-.2.23s-.18.1-.29.13c-.11.03-.22.04-.34.04h-.61v-2.59ZM34.47,16.59h.08c.08,0,.16,0,.23-.02s.12-.03.17-.06.09-.08.12-.13.04-.13.04-.22-.01-.16-.04-.22c-.03-.06-.07-.1-.12-.13-.05-.03-.11-.05-.17-.06-.06-.01-.14-.02-.22-.02h-.09v.86ZM34.47,17.75h.25c.08,0,.16,0,.23-.02.07-.01.14-.04.19-.07s.1-.08.14-.14c.03-.06.05-.13.05-.22s-.02-.16-.06-.22c-.04-.06-.09-.1-.16-.14-.07-.03-.14-.05-.21-.07s-.15-.02-.24-.02h-.2v.9Z"/>
        <path class="cls-1" d="M36.02,15.44h1.39v.3h-1.07v.73h1.04v.3h-1.04v.98h1.07v.3h-1.39v-2.59Z"/>
        <path class="cls-1" d="M39.12,18.03h-.32v-2.59h.32v2.59Z"/>
        <path class="cls-1" d="M39.57,15.32l1.95,2.04v-1.92h.32v2.7l-1.95-2.04v1.93h-.32v-2.72Z"/>
        <path class="cls-1" d="M43.45,15.93c-.05-.08-.11-.14-.17-.18-.07-.04-.15-.06-.24-.06-.11,0-.21.03-.3.1-.09.07-.13.16-.13.26,0,.09.03.17.1.23s.15.11.26.15l.19.07c.1.04.19.08.26.13.08.05.14.1.2.16.06.06.1.13.13.21.03.08.05.17.05.28,0,.11-.02.22-.06.32s-.1.19-.18.26c-.08.07-.16.13-.26.17-.1.04-.21.06-.32.06-.1,0-.2-.02-.29-.05-.09-.04-.17-.09-.24-.15-.07-.07-.13-.14-.18-.23-.05-.09-.08-.18-.09-.29l.33-.07c0,.14.05.26.15.35.1.09.22.14.36.14s.25-.05.34-.15c.09-.1.14-.22.14-.36,0-.13-.05-.23-.14-.32-.04-.03-.08-.07-.13-.09-.05-.03-.11-.05-.17-.08l-.18-.08c-.08-.04-.16-.07-.22-.11-.06-.04-.12-.08-.17-.13-.05-.05-.09-.11-.12-.18-.03-.07-.04-.14-.04-.23,0-.1.02-.19.06-.28.04-.08.1-.15.17-.21s.15-.1.25-.13c.09-.03.19-.05.29-.05.14,0,.27.03.39.1.11.07.21.16.28.29l-.26.15Z"/>
        <path class="cls-1" d="M44.47,18.03h-.32v-2.59h.37c.2,0,.36.02.5.05.13.03.24.08.32.14.08.06.14.14.17.23.04.09.05.2.05.32,0,.13-.02.25-.07.34-.05.1-.11.17-.19.24-.08.06-.18.11-.29.13-.11.03-.23.04-.36.04h-.19v1.09ZM44.47,16.66h.1c.1,0,.18,0,.26-.02.08-.01.15-.04.21-.07.07-.03.12-.08.15-.14.04-.06.06-.14.06-.24s-.02-.18-.06-.24-.1-.11-.16-.14c-.07-.03-.14-.05-.22-.06-.08-.01-.17-.02-.26-.02h-.09v.93Z"/>
        <path class="cls-1" d="M46.16,18.03h-.32v-2.59h.32v2.59Z"/>
        <path class="cls-1" d="M48.26,18.03h-.39l-.76-1.1h-.13v1.1h-.32v-2.59h.39c.15,0,.28,0,.39.02.11.01.21.05.3.1.11.06.19.15.25.26.06.11.09.23.09.36,0,.19-.06.35-.17.49s-.26.22-.45.24l.82,1.13ZM46.97,16.67h.1c.1,0,.18,0,.26-.02.08-.01.15-.04.21-.07.07-.03.12-.08.15-.14.04-.06.06-.14.06-.24s-.02-.18-.06-.24-.1-.11-.16-.14c-.07-.03-.14-.05-.22-.07s-.17-.02-.26-.02h-.09v.94Z"/>
        <path class="cls-1" d="M48.51,15.44h1.39v.3h-1.07v.73h1.04v.3h-1.04v.98h1.07v.3h-1.39v-2.59Z"/>
        <path class="cls-1" d="M50.28,15.44h.54c.2,0,.39.03.57.08.18.05.33.13.46.24s.24.24.31.4c.07.16.11.35.11.56s-.04.41-.11.57c-.07.17-.18.3-.31.41-.13.11-.29.19-.47.25-.18.05-.37.08-.58.08h-.53v-2.59ZM50.6,17.74h.11c.17,0,.33-.02.48-.05.15-.04.28-.09.39-.17.11-.08.2-.18.26-.31.06-.13.1-.28.1-.47s-.03-.34-.1-.47c-.06-.13-.15-.23-.26-.31-.11-.08-.24-.13-.39-.17-.15-.03-.31-.05-.48-.05h-.11v2Z"/>
      </g>
    </g>
  </g>
</svg>