<?xml version="1.0" encoding="UTF-8"?>
<svg id="Layer_2" data-name="Layer 2" xmlns="http://www.w3.org/2000/svg" viewBox="0 0 59.53 17.08">
  <defs>
    <style>
      .cls-1 {
        fill: #a41e24;
      }
    </style>
  </defs>
  <g id="Layer_10" data-name="Layer 10">
    <g>
      <path class="cls-1" d="M51.89,7.36c.23.4.54.74.92,1.03.38.29.8.53,1.25.74.45.21.91.38,1.36.53.46.15.87.29,1.25.42.38.13.69.26.92.39.23.13.35.28.35.46,0,.11-.04.21-.12.29-.08.08-.22.11-.42.11-.28,0-.6-.06-.96-.18-.36-.12-.74-.28-1.12-.48-.39-.21-.76-.44-1.12-.69-.36-.25-.69-.52-.97-.79-.29-.27-.52-.53-.68-.79-.19,0-.36.08-.5.22-.14.14-.26.31-.34.51-.08.2-.12.41-.12.63,0,.51.17.94.52,1.29.35.35.82.62,1.4.8.58.18,1.22.27,1.91.27,1.27,0,2.27-.26,3.01-.79.74-.52,1.11-1.29,1.11-2.3,0-.55-.13-1.02-.38-1.41-.25-.4-.59-.73-1-1-.41-.27-.87-.5-1.37-.68-.5-.18-1-.33-1.49-.46-.5-.12-.95-.23-1.37-.32-.41-.09-.75-.19-1-.28-.25-.09-.38-.2-.38-.33s.07-.21.22-.23c.15-.02.29-.03.42-.03.26,0,.59.05.98.14.4.09.82.21,1.27.36.45.15.89.32,1.31.51.42.19.78.38,1.09.58.31.2.52.38.64.56.28-.04.51-.18.68-.42.17-.24.26-.51.26-.79,0-.39-.12-.71-.35-.97-.24-.26-.55-.47-.93-.63-.38-.16-.8-.27-1.25-.34-.45-.07-.89-.1-1.32-.1-.79,0-1.49.1-2.09.3-.6.2-1.07.51-1.41.92-.34.41-.51.93-.51,1.57,0,.55.12,1.02.35,1.42ZM46.75,7.8c-.02-.21-.03-.44-.03-.67,0-.42.02-.83.06-1.23.04-.4.1-.77.18-1.09.08-.32.18-.58.31-.77.13-.19.27-.29.43-.29.11,0,.22.09.32.26.1.17.15.48.15.9,0,.46-.06.94-.17,1.42-.11.48-.27.91-.47,1.28-.2.37-.43.64-.68.8-.04-.2-.07-.4-.09-.62ZM49.57,11.81c.48-.19.84-.44,1.11-.73.26-.29.43-.59.51-.9.08-.31.09-.58.02-.81-.06-.23-.19-.38-.37-.44-.02.14-.09.29-.21.45-.13.16-.28.3-.46.43-.18.13-.37.24-.58.32-.2.08-.39.13-.58.13-.52,0-.95-.12-1.29-.36-.33-.24-.59-.58-.75-1.02.21.08.42.14.64.19.22.05.45.07.67.07.36,0,.7-.06,1.04-.19.33-.13.64-.32.91-.56.27-.25.49-.54.65-.89.16-.35.24-.74.24-1.17,0-.58-.1-1.07-.31-1.47-.21-.4-.49-.73-.84-.99-.35-.25-.75-.44-1.19-.56-.44-.12-.9-.18-1.37-.18-.9,0-1.68.19-2.35.56-.67.37-1.2.9-1.57,1.57-.37.67-.56,1.46-.56,2.35,0,.67.12,1.28.36,1.83.24.55.58,1.02,1.01,1.42.44.4.95.7,1.54.91.59.21,1.24.32,1.94.32s1.31-.1,1.78-.29ZM38.21,2.21c.11.19.26.33.46.42.2.08.43.13.7.15.27.02.56.02.88.02s.6,0,.86-.02c.26-.02.49-.06.69-.15.2-.08.35-.22.46-.42.11-.19.17-.47.17-.82,0-.43-.09-.75-.27-.95-.18-.2-.44-.32-.76-.37-.33-.05-.71-.07-1.14-.07s-.82.02-1.15.07c-.33.05-.59.17-.77.37-.18.2-.27.51-.27.95,0,.35.05.62.16.82ZM38.17,11.87h4.1s0-8.49,0-8.49h-4.1s0,8.49,0,8.49ZM32.44,8.16c.11.38.23.78.36,1.21.13.43.26.83.38,1.21.12.38.26.8.42,1.28h4.1c-.03-.08-.08-.21-.14-.4-.06-.19-.13-.41-.2-.65-.07-.24-.14-.47-.21-.69-.07-.22-.12-.4-.16-.54-.15-.51-.3-.94-.45-1.28-.15-.35-.32-.61-.52-.8-.2-.19-.46-.3-.78-.33-.56-.05-1.05-.09-1.45-.11-.4-.02-.71-.06-.92-.1s-.32-.13-.32-.26c0-.22.15-.38.46-.49.31-.11.67-.16,1.09-.16.35,0,.71.05,1.07.16.36.11.7.25,1.02.44.32.19.57.4.78.64.2.24.31.49.34.76h.11s0-4.47,0-4.47c-.14-.12-.33-.22-.59-.31-.26-.08-.57-.13-.95-.13-.61,0-1.14.12-1.6.37-.46.25-.84.56-1.15.93-.3.37-.54.76-.71,1.15V.47s-4.1,0-4.1,0v11.4s4.1,0,4.1,0v-3.71ZM23.79,3.73c.09.15.13.43.13.85v.36c0,.2,0,.44,0,.72v.85c0,.29,0,.53,0,.74v.36s0,.16,0,.36v.74c0,.29,0,.57,0,.85v.72c0,.2,0,.32,0,.36,0,.42-.04.7-.13.85-.09.15-.2.22-.32.22-.12,0-.23-.07-.32-.22-.09-.15-.14-.43-.14-.85v-.36c0-.2,0-.44,0-.72v-.85c0-.29,0-.53,0-.74v-.36s0-.16,0-.36v-.74c0-.29,0-.57,0-.85v-.72c0-.2,0-.32,0-.36,0-.42.05-.7.14-.85.09-.15.2-.22.32-.22.13,0,.24.07.32.22ZM19.64,9.97c.36.67.87,1.2,1.53,1.57.65.37,1.41.56,2.28.56.87,0,1.64-.19,2.29-.56.65-.37,1.16-.9,1.53-1.57.36-.67.55-1.46.55-2.35s-.18-1.68-.55-2.35c-.36-.67-.87-1.19-1.53-1.56-.65-.37-1.42-.56-2.29-.56s-1.63.19-2.28.56c-.65.37-1.16.89-1.53,1.56-.36.67-.55,1.45-.55,2.35s.18,1.68.55,2.35ZM14.73,3.73c.09.15.13.43.13.85v.36c0,.2,0,.44,0,.72v.85c0,.29,0,.53,0,.74v.36s0,.16,0,.36v.74c0,.29,0,.57,0,.85v.72c0,.2,0,.32,0,.36,0,.42-.04.7-.13.85-.09.15-.2.22-.32.22-.12,0-.23-.07-.32-.22-.09-.15-.14-.43-.14-.85v-.36c0-.2,0-.44,0-.72v-.85c0-.29,0-.53,0-.74v-.36s0-.16,0-.36v-.74c0-.29,0-.57,0-.85v-.72c0-.2,0-.32,0-.36,0-.42.05-.7.14-.85.09-.15.2-.22.32-.22.13,0,.24.07.32.22ZM10.58,9.97c.36.67.87,1.2,1.53,1.57.65.37,1.41.56,2.28.56s1.64-.19,2.29-.56c.65-.37,1.16-.9,1.53-1.57.36-.67.55-1.46.55-2.35s-.18-1.68-.55-2.35c-.36-.67-.87-1.19-1.53-1.56-.65-.37-1.42-.56-2.29-.56s-1.63.19-2.28.56c-.65.37-1.16.89-1.53,1.56-.36.67-.55,1.45-.55,2.35s.18,1.68.55,2.35ZM7.21,11.82c.57-.18,1.05-.44,1.46-.77.41-.33.7-.71.9-1.15.19-.44.23-.91.13-1.41-.05.18-.18.34-.37.46-.19.13-.42.22-.69.27-.27.06-.54.09-.83.09-.57,0-1.15-.15-1.73-.44-.58-.29-1.12-.7-1.6-1.24-.49-.54-.88-1.21-1.17-2-.3-.79-.44-1.69-.44-2.7,0-.61.11-1.09.34-1.45.22-.36.53-.54.92-.54.36,0,.68.12.98.37.3.25.56.57.8.98.24.41.44.85.62,1.34.18.49.33.97.46,1.47.13.49.22.94.29,1.36.07.41.11.75.14,1h.11s2.1-6,2.1-6c-.33-.24-.67-.45-1.02-.61-.35-.16-.79-.31-1.32-.43-.53-.12-1.16-.18-1.89-.18-.81,0-1.54.15-2.19.44-.66.3-1.22.71-1.7,1.24-.48.53-.84,1.16-1.09,1.88C.13,4.53,0,5.32,0,6.17s.13,1.64.38,2.36c.25.72.62,1.35,1.09,1.88.47.53,1.04.95,1.7,1.24.66.3,1.39.44,2.19.44.66,0,1.28-.09,1.84-.27Z"/>
      <path class="cls-1" d="M42.35,13.86c0-.29.01-.5.04-.62.03-.13.11-.19.23-.19l.14.07v3.2c0,.08,0,.17,0,.26,0,.09-.02.17-.05.23-.03.06-.08.09-.15.09-.08,0-.14-.05-.17-.15-.03-.1-.05-.22-.05-.37,0-.15,0-.3,0-.45v-2.06ZM40.57,15.91c.1.27.25.5.43.67.18.17.39.3.62.38.23.08.48.12.75.12.02,0,.07,0,.16-.01.09,0,.19-.04.3-.08.11-.05.2-.12.28-.23.13.12.26.2.41.25.15.05.34.07.56.07.18,0,.34-.03.48-.1.14-.07.26-.15.34-.23-.09-.09-.15-.21-.19-.36-.04-.15-.06-.3-.06-.46v-3.07s-2.28,0-2.28,0c-.25,0-.49.04-.73.11-.23.07-.44.19-.63.35-.18.16-.33.37-.44.63-.11.26-.16.59-.16.98s.05.72.15,1ZM37.86,13.86c0-.29.01-.5.04-.62.03-.13.11-.19.23-.19l.14.07v3.2c0,.08,0,.17,0,.26,0,.09-.02.17-.05.23-.03.06-.08.09-.15.09-.08,0-.14-.05-.17-.15-.03-.1-.05-.22-.05-.37,0-.15,0-.3,0-.45v-2.06ZM36.08,15.91c.1.27.25.5.43.67.18.17.39.3.62.38.23.08.48.12.75.12.02,0,.07,0,.16-.01.09,0,.19-.04.3-.08.11-.05.2-.12.28-.23.13.12.26.2.41.25.15.05.34.07.56.07.18,0,.34-.03.48-.1.14-.07.26-.15.34-.23-.09-.09-.15-.21-.19-.36-.04-.15-.06-.3-.06-.46v-3.07s-2.28,0-2.28,0c-.25,0-.49.04-.73.11s-.44.19-.63.35c-.18.16-.33.37-.44.63-.11.26-.16.59-.16.98s.05.72.15,1ZM28.96,16.97h1.99s0-3.36,0-3.36c0-.08.01-.16.04-.23.03-.07.08-.1.16-.1.06,0,.1.02.12.07.02.04.04.1.04.16,0,.06,0,.12,0,.18v3.28s2,0,2,0v-3.07s0-.1,0-.17c0-.07,0-.14.01-.2,0-.07.03-.13.06-.17.03-.05.07-.07.13-.07s.1.02.12.07c.02.04.04.1.04.16,0,.06,0,.12,0,.18v3.28s2,0,2,0v-2.92c0-.15-.02-.31-.07-.46-.05-.15-.12-.3-.22-.42-.1-.13-.24-.23-.4-.3-.17-.08-.37-.11-.62-.11-.31,0-.57.05-.77.15-.2.1-.35.22-.45.35-.09-.15-.23-.27-.41-.36-.18-.09-.43-.14-.73-.14-.25,0-.46.03-.63.1-.17.06-.32.14-.43.23v-.22s-1.99,0-1.99,0v4.12ZM26.56,14.99c-.01-.1-.02-.21-.02-.33,0-.2.01-.4.03-.6.02-.2.05-.37.09-.53.04-.16.09-.28.15-.37.06-.09.13-.14.21-.14.06,0,.11.04.15.13.05.08.07.23.07.44,0,.22-.03.45-.08.69-.06.23-.13.44-.23.62-.1.18-.21.31-.33.39-.02-.1-.03-.2-.04-.3ZM27.92,16.94c.23-.09.41-.21.54-.35.13-.14.21-.29.25-.44.04-.15.04-.28.01-.39-.03-.11-.09-.18-.18-.21,0,.07-.04.14-.1.22-.06.08-.14.15-.22.21-.09.06-.18.12-.28.16-.1.04-.19.06-.28.06-.25,0-.46-.06-.62-.17s-.28-.28-.36-.49c.1.04.2.07.31.09.11.02.22.04.32.04.17,0,.34-.03.5-.09.16-.06.31-.15.44-.27.13-.12.24-.26.32-.43.08-.17.12-.36.12-.57,0-.28-.05-.52-.15-.71-.1-.2-.24-.35-.41-.48-.17-.12-.36-.21-.58-.27-.21-.06-.43-.09-.66-.09-.43,0-.82.09-1.14.27-.33.18-.58.43-.76.76-.18.33-.27.71-.27,1.14,0,.32.06.62.17.89.12.27.28.5.49.69.21.19.46.34.75.44.29.1.6.15.94.15s.63-.05.87-.14ZM17.74,16.97h1.99s0-3.36,0-3.36c0-.08.01-.16.04-.23.03-.07.08-.1.16-.1.06,0,.1.02.12.07.02.04.04.1.04.16,0,.06,0,.12,0,.18v3.28s2,0,2,0v-3.07s0-.1,0-.17c0-.07,0-.14.01-.2,0-.07.03-.13.06-.17.03-.05.07-.07.13-.07s.1.02.12.07c.02.04.04.1.04.16,0,.06,0,.12,0,.18v3.28s2,0,2,0v-2.92c0-.15-.02-.31-.07-.46-.05-.15-.12-.3-.22-.42-.1-.13-.24-.23-.4-.3-.17-.08-.37-.11-.62-.11-.31,0-.57.05-.77.15-.2.1-.35.22-.45.35-.09-.15-.23-.27-.41-.36-.18-.09-.43-.14-.73-.14-.25,0-.46.03-.63.1-.17.06-.32.14-.43.23v-.22s-1.99,0-1.99,0v4.12Z"/>
    </g>
  </g>
</svg>