<?xml version="1.0" encoding="UTF-8"?>
<svg id="Layer_2" data-name="Layer 2" xmlns="http://www.w3.org/2000/svg" viewBox="0 0 59.53 32.95">
  <defs>
    <style>
      .cls-1 {
        fill: #356b8b;
      }

      .cls-2 {
        fill: #595a5c;
      }
    </style>
  </defs>
  <g id="Layer_9" data-name="Layer 9">
    <g>
      <path class="cls-1" d="M34.05,27.61h-2.63v-13.81c0-7.61,6.19-13.81,13.81-13.81s13.81,6.19,13.81,13.81v11.74h-1.65v-11.74c0-6.7-5.45-12.15-12.15-12.15s-12.15,5.45-12.15,12.15v12.15h.98v1.65Z"/>
      <path class="cls-1" d="M36.7,25.15h-1.65v-10.69c0-5.61,4.56-10.17,10.17-10.17s10.17,4.56,10.17,10.17v8.83h-1.65v-8.83c0-4.69-3.82-8.51-8.51-8.51s-8.51,3.82-8.51,8.51v10.69Z"/>
      <path class="cls-1" d="M51.95,27.4h-1.65v-12.69c0-2.8-2.28-5.08-5.07-5.08s-5.07,2.28-5.07,5.08v12.69h-1.65v-12.69c0-3.71,3.02-6.73,6.73-6.73s6.73,3.02,6.73,6.73v12.69Z"/>
      <path class="cls-1" d="M47.38,16.63c0-1.3-1.05-2.35-2.35-2.35s-2.35,1.05-2.35,2.35c0,.96.57,1.78,1.39,2.14l-.51,3.86h2.94l-.51-3.86c.82-.37,1.39-1.19,1.39-2.14Z"/>
      <rect class="cls-2" x="34.95" y="25.85" width="1.71" height="1.85"/>
      <rect class="cls-2" x="53.74" y="25.86" width="1.6" height="1.85"/>
      <rect class="cls-2" x="57.38" y="25.85" width="1.66" height="1.85"/>
      <rect class="cls-2" x="53.76" y="23.7" width="1.6" height="1.85"/>
      <g>
        <path class="cls-1" d="M18.3,6.15c-.24.16-.52.24-.82.24-.33,0-.61-.1-.81-.31-.19-.19-.28-.44-.28-.74,0-.21.05-.39.16-.54s.28-.3.52-.44c-.16-.1-.36-.29-.6-.57-.03-.04-.06-.07-.07-.09v-.24c.13-.19.29-.34.49-.46.2-.11.4-.17.6-.17s.41.06.6.17.36.27.49.46v.23c-.18.21-.39.4-.65.56.1.01.18.02.26.02h.92v.51s-1.22,0-1.22,0c-.16,0-.3-.04-.43-.11-.2.09-.35.19-.44.29-.09.1-.13.22-.13.37,0,.16.06.29.17.39.11.1.26.14.45.14.28,0,.54-.08.78-.23v.51ZM17.48,4.08c.21-.17.37-.34.47-.51-.17-.16-.33-.24-.48-.24s-.3.08-.46.24c.11.2.27.36.46.51Z"/>
        <path class="cls-1" d="M20.38,4.28h.38v.51h-.43c-.21,0-.38-.06-.51-.17-.14.11-.31.17-.51.17h-.43v-.51h.38c.11,0,.18-.02.23-.07.05-.05.07-.13.07-.24v-.79l.54-.28v1.07c0,.11.02.19.07.24.05.05.12.07.23.07ZM19.7,2.48c-.09,0-.15-.03-.2-.08-.05-.05-.08-.12-.08-.21,0-.08.03-.15.08-.2.05-.05.12-.08.2-.08s.15.02.2.07c.05.05.07.12.07.2,0,.19-.09.28-.28.28Z"/>
        <path class="cls-1" d="M24.89,4.28h.38v.51h-.43c-.21,0-.38-.06-.51-.17-.14.11-.31.17-.51.17h-1.84c-.21,0-.38-.06-.51-.17-.14.11-.31.17-.51.17h-.43v-.51h.38c.11,0,.18-.02.23-.07.05-.05.07-.13.07-.24v-.56l.54-.28v.84c0,.18.07.28.22.3.14-.41.33-.75.6-1.01.29-.29.62-.43,1-.43.33,0,.6.12.8.35.17.2.26.44.26.73v.09c0,.19.1.28.3.28ZM23.79,4.28c.1,0,.17-.02.21-.07.04-.04.06-.13.06-.24v-.06c0-.17-.05-.31-.14-.42s-.22-.16-.37-.16c-.22,0-.43.09-.62.26-.19.17-.34.4-.45.69h1.32Z"/>
        <path class="cls-1" d="M25.7,3.62c0-.26.08-.46.24-.6.14-.12.32-.19.54-.19.28,0,.5.1.65.31.13.17.2.4.2.67,0,.31-.08.56-.25.74-.15.16-.34.24-.57.24s-.41-.05-.56-.15c-.14.1-.3.15-.49.15h-.43v-.51h.38c.11,0,.18-.02.23-.07.05-.05.07-.13.07-.24v-.35ZM26.23,4.04c0,.16.08.24.25.24.21,0,.31-.16.31-.48s-.11-.46-.33-.46c-.16,0-.24.09-.24.28v.43Z"/>
      </g>
      <g>
        <path class="cls-2" d="M2.06,24.78c-.04-.16-.06-.25-.12-.33-.07-.11-.16-.15-.47-.15h-.3c-.13,0-.14.01-.14.13v.95h.41c.38,0,.4-.04.45-.3h.12v.8h-.12c-.05-.28-.07-.33-.45-.33h-.41v.71c0,.36.04.38.41.41v.12H.27v-.12c.33-.03.37-.05.37-.41v-1.58c0-.36-.04-.38-.35-.4v-.12h1.85c0,.15.03.41.04.61l-.12.02Z"/>
        <path class="cls-2" d="M3.69,26.83c-.08,0-.17-.04-.21-.08-.06-.05-.08-.11-.1-.17-.17.11-.36.25-.48.25-.31,0-.51-.24-.51-.5,0-.2.11-.32.33-.4.26-.08.55-.19.64-.26v-.07c0-.29-.13-.45-.33-.45-.07,0-.13.03-.17.07-.05.05-.09.14-.12.27-.03.07-.07.1-.13.1-.08,0-.19-.08-.19-.18,0-.06.05-.11.13-.17.12-.09.4-.24.63-.28.13,0,.25.03.34.1.15.13.2.3.2.51v.73c0,.18.07.24.15.24.05,0,.1-.02.15-.04l.04.11-.36.21ZM3.37,25.81c-.08.04-.25.12-.33.16-.16.07-.25.15-.25.3,0,.21.16.31.28.31.1,0,.23-.06.3-.13v-.63Z"/>
        <path class="cls-2" d="M5.77,26.41c-.19.24-.46.42-.71.42-.54,0-.85-.41-.85-.84,0-.31.14-.58.42-.79.23-.17.48-.23.63-.23h0c.17,0,.3.05.37.11.06.04.07.08.07.12,0,.09-.09.19-.14.19-.02,0-.04-.01-.08-.05-.13-.12-.27-.17-.42-.17-.25,0-.49.2-.49.63,0,.56.4.74.62.74.17,0,.31-.05.49-.22l.07.09Z"/>
        <path class="cls-2" d="M6.82,26.77c-.07.04-.14.06-.17.06-.27,0-.43-.15-.43-.48v-1.16h-.28l-.02-.05.11-.12h.19v-.29l.3-.28h.06v.58h.46s.03.13-.03.17h-.43v1.02c0,.33.14.38.24.38.1,0,.19-.04.25-.07l.04.11-.28.14Z"/>
        <path class="cls-2" d="M8.18,24.97c.53,0,.91.41.91.9,0,.65-.5.96-.92.96-.59,0-.93-.44-.93-.89,0-.66.54-.97.93-.97h0ZM8.13,25.11c-.24,0-.46.24-.46.7,0,.51.22.88.55.88.24,0,.45-.16.45-.73,0-.48-.19-.85-.54-.85h0Z"/>
        <path class="cls-2" d="M9.98,25.41c.14-.22.3-.44.49-.44.15,0,.25.11.25.21,0,.09-.06.18-.14.22-.05.02-.09.01-.11-.01-.06-.06-.11-.08-.18-.08-.11,0-.23.12-.32.33v.72c0,.27.02.29.34.32v.11h-.98v-.11c.25-.03.28-.05.28-.32v-.84c0-.26-.02-.27-.25-.31v-.09c.2-.03.4-.08.61-.17v.45h0Z"/>
        <path class="cls-2" d="M12.86,25.13c-.22.03-.25.07-.36.3-.1.2-.24.54-.52,1.2-.28.64-.37.87-.44,1.1-.02.08-.07.1-.13.1-.12,0-.25-.1-.25-.21,0-.07.04-.1.11-.15.14-.08.22-.17.32-.36.07-.13.1-.21.12-.26.03-.06.02-.12,0-.18-.17-.48-.37-.98-.48-1.25-.09-.21-.13-.26-.35-.3v-.11h.87v.11c-.19.03-.21.07-.16.22l.37.99c.11-.25.29-.73.37-.98.05-.15.02-.2-.21-.23v-.11h.75v.11Z"/>
      </g>
      <g>
        <path class="cls-1" d="M5.84,11.74c0,.85-.28,1.57-.85,2.18-.56.6-1.25.91-2.04.91s-1.48-.31-2.04-.91c-.57-.6-.85-1.32-.85-2.19l-.04-2.23h1.17c0,.84,0,1.6.01,2.25,0,.51.17.96.51,1.32.34.37.75.56,1.25.56s.9-.19,1.24-.56c.35-.37.52-.82.52-1.34l-.05-2.24h1.17l.02,2.25ZM3.42,8.46h-1.06v-1.1h1.06v1.1Z"/>
        <path class="cls-1" d="M9.79,12.44h-1.34c-.31,0-.57-.11-.78-.32-.24-.23-.37-.56-.37-.97l-.03-5.78h1.16l.04,5.32c0,.39.2.69.5.69h.82v1.06Z"/>
        <path class="cls-1" d="M12.11,11.38v1.06h-2.53v-1.06h2.53Z"/>
        <path class="cls-1" d="M14.42,11.38v1.06h-2.53v-1.06h2.53Z"/>
        <path class="cls-1" d="M19.49,12.44h-1.07c-.33,0-.61-.14-.84-.42-.12-.15-.22-.31-.27-.47-.19.54-.75.87-1.36.89h-1.73v-1.06h1.29c.21,0,.39-.05.57-.17.23-.14.34-.34.34-.59l-.02-2.16h1.15c0,.4.01.97.03,1.71,0,.38.11.69.34.92.19.21.38.31.6.31h.97v1.06ZM17.64,14.1h-1.06v-1.1h1.06v1.1Z"/>
        <path class="cls-1" d="M24.47,12.44h-.97c-.33,0-.61-.14-.84-.42-.12-.15-.22-.31-.27-.47-.19.54-.75.87-1.36.89h-1.73v-1.06h1.29c.21,0,.39-.05.57-.17.23-.14.34-.34.34-.59l-.02-2.16h1.15c0,.4.01.97.03,1.71,0,.38.11.69.34.92.19.21.38.31.6.31h.87v1.06ZM21.55,14.1h-1.06v-1.1h1.06v1.1ZM23.13,14.1h-1.05v-1.1h1.05v1.1Z"/>
        <path class="cls-1" d="M27.45,11.02c0,.87-.51,1.42-1.47,1.42h-1.72v-1.06h1.29c.43,0,.74-.26.74-.75,0-.43,0-.79-.01-1.08-.01-.45-.01-.82-.02-1.09h1.16c.01,1.73.02,2.58.02,2.57ZM26.39,14.1h-1.05v-1.1h1.05v1.1Z"/>
      </g>
      <g>
        <path class="cls-2" d="M.46,15.71c.42-.1,1.08-.16,1.74-.16.95,0,1.56.16,2.01.54.38.28.62.72.62,1.3,0,.72-.48,1.34-1.25,1.62v.03c.7.16,1.52.74,1.52,1.84,0,.63-.25,1.13-.63,1.48-.5.47-1.33.69-2.54.69-.66,0-1.16-.04-1.48-.09v-7.24ZM1.41,18.73h.86c.99,0,1.59-.54,1.59-1.25,0-.85-.65-1.2-1.61-1.2-.44,0-.69.03-.84.07v2.38ZM1.41,22.25c.2.03.46.04.8.04.98,0,1.89-.36,1.89-1.43,0-.99-.86-1.42-1.9-1.42h-.79v2.81Z"/>
        <path class="cls-2" d="M7.34,15.6v7.37h-.96v-7.37h.96Z"/>
        <path class="cls-2" d="M9,15.71c.42-.1,1.08-.16,1.74-.16.95,0,1.56.16,2.01.54.38.28.62.72.62,1.3,0,.72-.48,1.34-1.25,1.62v.03c.7.16,1.52.74,1.52,1.84,0,.63-.25,1.13-.63,1.48-.5.47-1.33.69-2.54.69-.66,0-1.16-.04-1.48-.09v-7.24ZM9.95,18.73h.86c.99,0,1.59-.54,1.59-1.25,0-.85-.65-1.2-1.61-1.2-.44,0-.69.03-.84.07v2.38ZM9.95,22.25c.2.03.46.04.8.04.98,0,1.89-.36,1.89-1.43,0-.99-.86-1.42-1.9-1.42h-.79v2.81Z"/>
        <path class="cls-2" d="M16.12,20.66l-.77,2.32h-.98l2.51-7.37h1.14l2.51,7.37h-1.02l-.79-2.32h-2.61ZM18.55,19.91l-.73-2.12c-.16-.48-.27-.92-.38-1.34h-.02c-.11.43-.22.89-.37,1.33l-.72,2.13h2.23Z"/>
        <path class="cls-2" d="M21.62,22.97v-7.37h1.05l2.35,3.73c.54.86.97,1.64,1.31,2.39h.03c-.09-.99-.11-1.89-.11-3.04v-3.08h.9v7.37h-.96l-2.34-3.74c-.51-.82-1.01-1.66-1.37-2.46h-.03c.05.94.07,1.83.07,3.05v3.15h-.9Z"/>
      </g>
      <g>
        <path class="cls-1" d="M33.22,31.49h.38v.51h-.43c-.26,0-.47-.09-.61-.26-.12.09-.27.14-.45.14-.26,0-.47-.1-.63-.29-.13-.16-.19-.36-.19-.58,0-.28.09-.51.27-.68.15-.15.33-.22.53-.22.1,0,.2.02.29.06v-.11l.53-.28v1.42c0,.11.02.19.07.24.05.05.12.07.23.07ZM31.85,29.6c-.09,0-.15-.03-.2-.08-.05-.05-.08-.12-.08-.21,0-.18.09-.28.28-.28.09,0,.15.02.2.07.05.05.07.12.07.2,0,.19-.09.29-.28.29ZM32.39,30.7c-.07-.06-.16-.09-.25-.09s-.17.04-.23.11c-.06.08-.09.18-.09.3s.03.22.09.3.13.11.23.11c.11,0,.19-.04.25-.11,0-.02,0-.06,0-.11v-.51ZM32.51,29.6c-.09,0-.15-.03-.2-.08-.05-.05-.08-.12-.08-.21,0-.18.09-.28.28-.28.09,0,.15.02.2.07s.07.12.07.2c0,.19-.09.29-.28.29Z"/>
        <path class="cls-1" d="M34.87,31.49h.38v.51h-.43c-.21,0-.38-.06-.51-.17-.14.11-.31.17-.51.17h-.43v-.51h.38c.11,0,.18-.02.23-.07.05-.05.07-.13.07-.24v-.79l.54-.28v1.07c0,.11.02.19.07.24.05.05.12.07.23.07ZM33.76,32.39c.09,0,.15.02.2.07.05.05.07.12.07.2,0,.19-.09.28-.28.28-.09,0-.15-.03-.2-.08-.05-.05-.08-.12-.08-.21,0-.18.09-.28.28-.28ZM34.42,32.39c.09,0,.15.02.2.07s.07.12.07.2c0,.19-.09.28-.28.28-.09,0-.15-.03-.2-.08-.05-.05-.08-.12-.08-.21,0-.18.09-.28.28-.28Z"/>
        <path class="cls-1" d="M36.46,31.49h.38v.51h-.43c-.22,0-.4-.06-.54-.19-.16.12-.35.19-.57.19h-.3v-.51h.27c.13,0,.22-.03.28-.09.06-.06.08-.15.08-.29v-1.57l.53-.29v.86h0s0,1.06,0,1.06c0,.11.02.19.07.24.05.05.12.07.23.07Z"/>
        <path class="cls-1" d="M36.58,32.01v-.51h.63c.5,0,.9-.15,1.19-.45-.19-.34-.43-.51-.7-.51-.23,0-.47.12-.74.37v-.47c.24-.26.51-.39.81-.39.22,0,.44.08.65.24.21.16.4.39.56.69v.21c-.2.26-.46.46-.76.6-.3.14-.64.21-1,.21h-.63ZM37.9,29.69c-.09,0-.15-.03-.2-.08-.05-.05-.08-.12-.08-.21,0-.08.03-.15.08-.2.05-.05.12-.08.2-.08s.15.02.2.07c.05.05.07.12.07.2,0,.19-.09.28-.28.28Z"/>
        <path class="cls-1" d="M39.57,32.01v-2.46l.54-.29v2.74h-.54Z"/>
        <path class="cls-1" d="M40.53,32.01l.27-.51h.67c.14,0,.22-.08.22-.25,0-.31-.15-.55-.45-.72l.26-.46c.44.26.68.61.71,1.05.01.14.04.24.1.29s.14.08.27.08h.32v.51h-.35c-.21,0-.39-.06-.53-.17-.1.12-.26.17-.45.17h-1.04Z"/>
        <path class="cls-1" d="M42.65,32.01v-.51h.27c.13,0,.22-.03.28-.09.06-.06.08-.15.08-.29v-1.57l.53-.29v1.86c0,.28-.08.49-.25.66-.15.15-.36.23-.61.23h-.3Z"/>
        <path class="cls-1" d="M44.58,32.01v-2.46l.54-.29v2.74h-.54Z"/>
        <path class="cls-1" d="M47.65,32.01c-.24,0-.43-.08-.57-.24-.12-.14-.18-.32-.18-.55v-.43l.53-.28v.68c0,.11.02.19.07.24.05.05.12.07.23.07h1.39c.11,0,.18-.02.23-.07s.07-.13.07-.24v-.78l.54-.28v1.1c0,.26-.08.46-.24.6-.14.12-.32.19-.54.19h-1.52ZM48.38,32.95c-.09,0-.15-.03-.2-.08-.05-.05-.08-.12-.08-.21,0-.08.03-.15.08-.2.05-.05.12-.08.2-.08s.15.02.2.07c.05.05.07.12.07.2,0,.19-.09.28-.28.28Z"/>
        <path class="cls-1" d="M50.72,32.01v-2.46l.54-.29v2.74h-.54Z"/>
        <path class="cls-1" d="M54.04,31.49v.51h-.52c-.02.26-.13.46-.34.61-.17.12-.37.19-.6.19-.18,0-.35-.05-.52-.14v-.46c.15.09.31.13.46.13.12,0,.22-.03.32-.1.09-.07.14-.14.15-.23-.02,0-.06,0-.11,0-.05,0-.09,0-.11-.01-.29-.03-.52-.15-.68-.34-.13-.17-.2-.37-.2-.61,0-.31.09-.56.26-.74.15-.16.35-.24.6-.24s.45.08.59.24c.12.14.18.32.18.54v.66h.52ZM52.99,30.82c0-.19-.08-.28-.24-.28-.22,0-.32.15-.32.46,0,.28.12.43.37.46.04,0,.1.02.19.02v-.66Z"/>
        <path class="cls-1" d="M53.79,32.01v-.51h.38c.11,0,.18-.02.23-.07.05-.05.07-.13.07-.24v-.79l.54-.28v1.09c0,.26-.08.46-.24.6-.14.13-.32.19-.54.19h-.43ZM54.69,32.95c-.09,0-.15-.03-.2-.08-.05-.05-.08-.12-.08-.21,0-.08.03-.15.08-.2.05-.05.12-.08.2-.08s.15.02.2.07c.05.05.07.12.07.2,0,.19-.09.28-.28.28Z"/>
        <path class="cls-1" d="M58.24,31.49h.38v.51h-.43c-.22,0-.4-.06-.54-.19-.16.12-.35.19-.57.19h-1.6l.27-.51h.56v-1.39l.54-.28v1.68h.21c.13,0,.22-.03.28-.09.06-.06.08-.15.08-.29v-1.57l.54-.29v1.92c0,.11.02.19.07.24.05.05.12.07.23.07ZM57.04,29.3l-.14.25h-.79l.14-.25h.13c-.03-.06-.05-.11-.05-.17,0-.09.03-.17.1-.23.07-.07.15-.1.24-.1.09,0,.16.03.24.09v.25c-.07-.06-.14-.09-.2-.09-.09,0-.14.04-.14.13,0,.04.02.09.06.13h.42Z"/>
        <path class="cls-1" d="M58.37,32.01v-.51h.27c.13,0,.22-.03.28-.09.06-.06.08-.15.08-.29v-1.57l.53-.29v1.86c0,.28-.08.49-.25.66-.15.15-.36.23-.61.23h-.3Z"/>
      </g>
      <g>
        <path class="cls-1" d="M1.46,29.31v2.69h-.55v-2.69h.55Z"/>
        <path class="cls-1" d="M2.69,30.2v1.8h-.55v-2.69h.46c.45.59.9,1.21,1.35,1.86v-1.86h.56v2.69h-.48c-.27-.31-.72-.92-1.35-1.8Z"/>
        <path class="cls-1" d="M5.7,29.76h-.78v-.45h2.18v.45h-.84v2.25h-.56v-2.25Z"/>
        <path class="cls-1" d="M7.43,29.31h1.76v.45h-1.2v.63h1v.45h-1v.72h1.26v.45h-1.82v-2.69Z"/>
        <path class="cls-1" d="M9.65,32.01v-2.69s.15-.02.34-.03c.18-.01.32-.02.42-.02.69,0,1.03.28,1.03.84,0,.3-.12.56-.37.77.1.24.28.61.52,1.13h-.56c-.14-.3-.29-.63-.45-.98-.03,0-.07,0-.13,0-.12,0-.21-.01-.24-.03v1h-.56ZM10.21,29.74v.81c.09.03.18.04.28.04.24,0,.37-.16.37-.48,0-.26-.13-.4-.38-.4-.14,0-.23,0-.26.03Z"/>
        <path class="cls-1" d="M12.43,29.31v2.69h-.55v-2.69h.55Z"/>
        <path class="cls-1" d="M14.16,29.26c.41,0,.73.16.96.49.18.26.26.57.26.94,0,.42-.11.76-.34,1.01-.22.24-.51.36-.88.36-.42,0-.74-.15-.96-.46-.18-.24-.26-.54-.26-.91,0-.43.11-.77.34-1.04.22-.26.51-.39.88-.39ZM14.16,31.59c.2,0,.36-.08.47-.23.11-.15.17-.38.17-.67,0-.31-.06-.55-.18-.72-.11-.15-.27-.23-.46-.23-.2,0-.36.08-.47.25-.11.17-.17.4-.17.7,0,.6.21.9.64.9Z"/>
        <path class="cls-1" d="M15.9,32.01v-2.69s.15-.02.34-.03c.18-.01.32-.02.42-.02.69,0,1.03.28,1.03.84,0,.3-.12.56-.37.77.1.24.28.61.52,1.13h-.56c-.14-.3-.29-.63-.45-.98-.03,0-.07,0-.13,0-.12,0-.21-.01-.24-.03v1h-.56ZM16.45,29.74v.81c.09.03.18.04.28.04.24,0,.37-.16.37-.48,0-.26-.13-.4-.38-.4-.14,0-.23,0-.26.03Z"/>
        <path class="cls-1" d="M19.15,29.32c.14-.04.38-.06.74-.06.49,0,.86.14,1.11.43.22.24.33.56.33.94,0,.48-.14.85-.42,1.09-.25.22-.6.33-1.05.33-.28,0-.52-.02-.7-.06v-2.68ZM19.71,31.6c.06.01.13.02.21.02.55,0,.82-.32.82-.97,0-.32-.09-.57-.27-.74-.15-.14-.33-.2-.56-.2-.07,0-.13,0-.2.02v1.87Z"/>
        <path class="cls-1" d="M22.88,29.26c.41,0,.73.16.96.49.18.26.26.57.26.94,0,.42-.11.76-.34,1.01-.22.24-.51.36-.88.36-.42,0-.74-.15-.96-.46-.18-.24-.26-.54-.26-.91,0-.43.11-.77.34-1.04.22-.26.51-.39.88-.39ZM22.88,31.59c.2,0,.36-.08.47-.23.11-.15.17-.38.17-.67,0-.31-.06-.55-.18-.72-.11-.15-.27-.23-.46-.23-.2,0-.36.08-.47.25-.11.17-.17.4-.17.7,0,.6.21.9.64.9Z"/>
        <path class="cls-1" d="M25.67,29.26c.41,0,.73.16.96.49.18.26.26.57.26.94,0,.42-.11.76-.34,1.01-.22.24-.51.36-.88.36-.42,0-.74-.15-.96-.46-.18-.24-.26-.54-.26-.91,0-.43.11-.77.34-1.04.22-.26.51-.39.88-.39ZM25.67,31.59c.2,0,.36-.08.47-.23.11-.15.17-.38.17-.67,0-.31-.06-.55-.18-.72-.11-.15-.27-.23-.46-.23-.2,0-.36.08-.47.25-.11.17-.17.4-.17.7,0,.6.21.9.64.9Z"/>
        <path class="cls-1" d="M27.4,32.01v-2.69s.15-.02.34-.03c.18-.01.32-.02.42-.02.69,0,1.03.28,1.03.84,0,.3-.12.56-.37.77.1.24.28.61.52,1.13h-.56c-.14-.3-.29-.63-.45-.98-.03,0-.07,0-.13,0-.12,0-.21-.01-.24-.03v1h-.56ZM27.95,29.74v.81c.09.03.18.04.28.04.24,0,.37-.16.37-.48,0-.26-.13-.4-.38-.4-.14,0-.23,0-.26.03Z"/>
      </g>
    </g>
  </g>
</svg>