<?xml version="1.0" encoding="UTF-8"?>
<svg id="Layer_2" data-name="Layer 2" xmlns="http://www.w3.org/2000/svg" viewBox="0 0 59.53 44.46">
  <defs>
    <style>
      .cls-1, .cls-2 {
        fill: #2d368f;
      }

      .cls-2, .cls-3 {
        fill-rule: evenodd;
      }

      .cls-4, .cls-3 {
        fill: #14a1cb;
      }
    </style>
  </defs>
  <g id="Layer_9" data-name="Layer 9">
    <g>
      <path class="cls-2" d="M23.35,5.54l-.55-.15s-.08-.06-.08-.11v-.48s.02-.07.04-.09c.03-.02.06-.03.1-.02l.55.15s.08.06.08.11v.48s-.02.07-.04.09c-.03.02-.06.03-.1.02M24.75,17.75V4.55l-.45-.13v-.05l-3.9-1.1-3.05,1.63v14.64s2.43-2.59,2.43-2.59c1.66.27,3.28.53,4.98.8ZM22.85,16.15l.55.15s.08.06.08.11v.44s-.02.07-.04.09c-.03.02-.06.03-.1.02l-.55-.15s-.08-.06-.08-.11v-.44s.02-.07.04-.09c.03-.02.06-.03.1-.02ZM21.35,15.73l.55.15s.08.06.08.11v.44s-.02.07-.04.09c-.03.02-.06.03-.1.02l-.55-.15s-.08-.06-.08-.11v-.44s.02-.07.04-.09c.03-.02.06-.03.1-.02ZM22.85,14.72l.55.15s.08.06.08.11v.46s-.02.07-.04.09c-.03.02-.06.03-.1.02l-.55-.15s-.08-.06-.08-.11v-.46s.02-.07.04-.09c.03-.02.06-.03.1-.02ZM21.35,14.3l.55.15s.08.06.08.11v.46s-.02.07-.04.09c-.03.02-.06.03-.1.02l-.55-.15s-.08-.06-.08-.11v-.46s.02-.07.04-.09c.03-.02.06-.03.1-.02ZM22.85,13.28l.55.15s.08.06.08.11v.48s-.02.07-.04.09c-.03.02-.06.03-.1.02l-.55-.15s-.08-.06-.08-.11v-.48s.02-.07.04-.09c.03-.02.06-.03.1-.02ZM21.35,12.86l.55.15s.08.06.08.11v.48s-.02.07-.04.09c-.03.02-.06.03-.1.02l-.55-.15s-.08-.06-.08-.11v-.48s.02-.07.04-.09c.03-.02.06-.03.1-.02ZM22.85,11.84l.55.15s.08.06.08.11v.48s-.02.07-.04.09c-.03.02-.06.03-.1.02l-.55-.15s-.08-.06-.08-.11v-.48s.02-.07.04-.09c.03-.02.06-.03.1-.02ZM21.35,11.42l.55.15s.08.06.08.11v.47s-.02.07-.04.09c-.03.02-.06.03-.1.02l-.55-.15s-.08-.06-.08-.11v-.47s.02-.07.04-.09c.03-.02.06-.03.1-.02ZM22.85,10.41l.55.15s.08.06.08.11v.46s-.02.07-.04.09c-.03.02-.06.03-.1.02l-.55-.15s-.08-.06-.08-.11v-.46s.02-.07.04-.09c.03-.02.06-.03.1-.02ZM21.35,9.99l.55.15s.08.06.08.11v.46s-.02.07-.04.09c-.03.02-.06.03-.1.02l-.55-.15s-.08-.06-.08-.11v-.46s.02-.07.04-.09c.03-.02.06-.03.1-.02ZM22.85,8.97l.55.15s.08.06.08.11v.48s-.02.07-.04.09c-.03.02-.06.03-.1.02l-.55-.15s-.08-.06-.08-.11v-.48s.02-.07.04-.09c.03-.02.06-.03.1-.02ZM21.35,8.55l.55.15s.08.06.08.11v.48s-.02.07-.04.09c-.03.02-.06.03-.1.02l-.55-.15s-.08-.06-.08-.11v-.48s.02-.07.04-.09c.03-.02.06-.03.1-.02ZM21.84,6.55l-.55-.15s-.08-.06-.08-.11v-.46s.02-.07.04-.09c.03-.02.06-.03.1-.02l.55.15s.08.06.08.11v.46s-.02.07-.04.09c-.03.02-.06.03-.1.02ZM23.35,6.97l-.55-.15s-.08-.06-.08-.11v-.46s.02-.07.04-.09c.03-.02.06-.03.1-.02l.55.15s.08.06.08.11v.46s-.02.07-.04.09c-.03.02-.06.03-.1.02ZM22.85,7.56l.55.15s.08.06.08.11v.44s-.02.07-.04.09c-.03.02-.06.03-.1.02l-.55-.15s-.08-.06-.08-.11v-.44s.02-.07.04-.09c.03-.02.06-.03.1-.02ZM21.35,7.15l.55.15s.08.06.08.11v.44s-.02.07-.04.09c-.03.02-.06.03-.1.02l-.55-.15s-.08-.06-.08-.11v-.44s.02-.07.04-.09c.03-.02.06-.03.1-.02ZM21.21,4.38v.48c0,.05.03.09.08.11l.55.15s.07,0,.1-.02c.03-.02.04-.05.04-.09v-.48c0-.05-.03-.09-.08-.11l-.55-.15s-.07,0-.1.02c-.03.02-.04.05-.04.09Z"/>
      <path class="cls-3" d="M29.89,14.02c0-4.3,0-8.61,0-12.92l-.7-.37v13.11s.7.18.7.18ZM30.6,14.19V1.48s.71.37.71.37c0,4.17,0,8.35,0,12.53l-.71-.18ZM19.8,22.91h.92v.92h-.92v-.92ZM18.73,22.91h.92v.92h-.92v-.92ZM19.8,21.82h.92v.92h-.92v-.92ZM18.73,21.82h.92v.92h-.92v-.92ZM29.08,19.32h.77v.77h-.77v-.77ZM28.19,19.32h.77v.77h-.77v-.77ZM29.08,18.41h.77v.77h-.77v-.77ZM28.19,18.41h.77v.77h-.77v-.77ZM30.27,23.37h.56v.56h-.56v-.56ZM29.61,23.37h.56v.56h-.56v-.56ZM30.27,22.71h.56v.56h-.56v-.56ZM29.61,22.71h.56v.56h-.56v-.56ZM27.99,23.87l2.28-2.48,2.31,2.48h.93l.03-.03-3.27-3.52-2.84.38-1.53-1.6,2.79-3.55,7.87,8.32c1.48,0,3.05,0,4.53-.02l-8.04-8.27-4.36-1.09-3.32,4.12-5.33-.86-5.74,6.11h1.03s4.69-5.07,4.69-5.07l4.69,5.06h3.27ZM24.16,1.84l3.63-1.84.68.36v13.31l-.06-.02-3.35,4.15-.9-.14V1.84Z"/>
      <polygon class="cls-2" points="31.31 7.99 35.57 6.75 38.05 8 38.05 5.72 35.57 4.47 31.31 5.71 31.31 7.99"/>
      <polygon class="cls-2" points="31.31 12.04 35.57 10.79 38.05 12.04 38.05 9.76 35.57 8.52 31.31 9.76 31.31 12.04"/>
      <polygon class="cls-2" points="33.97 15.44 35.57 14.97 38.05 16.22 38.05 13.95 35.57 12.7 31.31 13.94 31.31 14.37 33.45 14.9 33.97 15.44"/>
      <polygon class="cls-2" points="38.05 19.64 38.05 17.96 35.57 16.71 35.28 16.79 38.05 19.64"/>
      <path class="cls-2" d="M39.95,24.98c-6.93,5.3-15.41,6.33-18.94,2.31-.64-.73-1.07-1.58-1.31-2.5.13,1.45.65,2.76,1.59,3.84,3.75,4.29,12.78,3.19,20.16-2.46,7.38-5.64,10.33-13.69,6.58-17.98-1.78-2.04-4.76-2.86-8.19-2.55,2.62.03,4.85.83,6.28,2.45,3.52,4.03.76,11.59-6.18,16.89"/>
      <g>
        <path class="cls-1" d="M1.34,37.98c-.43,0-.76-.12-.99-.32-.23-.21-.35-.51-.35-.89,0-.23.05-.45.14-.66s.24-.38.42-.52c.43-.32,1.06-.42,1.9-.29v1.81h.55v.87h-1.42v-.32l-.25.32ZM1.39,37.11h.21v-.98c-.22.01-.39.07-.51.17-.12.1-.18.23-.18.4,0,.15.04.26.12.32.08.06.2.09.36.09Z"/>
        <path class="cls-1" d="M3.48,39.22l-.56-.5.56-.5.36.33.36-.33.56.5-.56.5-.36-.33-.36.33ZM2.94,37.98v-.87h.64c.06,0,.1,0,.13-.03.02-.02.03-.06.03-.11v-1.37l.87-.32v1.75c0,.63-.33.95-.99.95h-.69Z"/>
        <path class="cls-1" d="M5.35,39.23l-.71-.53c.11-.08.2-.16.28-.25.07-.09.13-.17.17-.25.04-.08.07-.18.09-.31s.03-.23.03-.32c0-.09,0-.22,0-.4v-1.56l.87-.33v1.83c0,.65-.05,1.11-.14,1.36s-.29.51-.61.76Z"/>
        <path class="cls-1" d="M7.53,37.98c-.66,0-.99-.32-.99-.95v-2.73l.87-.31v2.97c0,.06.01.1.04.12.02.02.07.03.13.03h.32v.87h-.37Z"/>
        <path class="cls-1" d="M7.82,37.98v-.87h.42c-.03-.1-.05-.21-.05-.34,0-.23.05-.45.14-.66s.23-.38.41-.52c.3-.23.71-.34,1.24-.34.19,0,.43.02.72.06v1.8h.48v.87h-3.37ZM9.29,35.01l-.56-.5.56-.51.36.33.36-.33.56.51-.56.5-.36-.33-.36.33ZM9.54,37.11h.29v-.98c-.22,0-.4.04-.54.15-.14.1-.2.25-.2.43,0,.15.04.26.12.32.08.06.19.09.33.09Z"/>
        <path class="cls-1" d="M11.11,37.98v-.87h.62c.07,0,.16,0,.28-.02-.06-.05-.16-.15-.31-.3-.15-.15-.28-.27-.37-.36v-1.1c.65-.16,1.16-.24,1.52-.24.57,0,.95.19,1.15.6.07.15.1.31.1.48s-.04.34-.1.49c-.06.16-.14.31-.24.45h.57v.87h-.39c-.38,0-.73-.08-1.04-.24-.41.16-.89.24-1.43.24h-.34ZM12.92,36.72c.1-.09.17-.19.21-.29.04-.1.06-.19.04-.25-.05-.21-.39-.26-1.04-.15.32.3.59.53.79.7Z"/>
        <path class="cls-1" d="M14.24,37.98v-.87h.32c.06,0,.11,0,.13-.03.02-.02.04-.06.04-.12v-2.66l.87-.31v3.04c0,.63-.33.95-1,.95h-.36Z"/>
        <path class="cls-1" d="M15.91,38.09v-3.78l.88-.31v3.78l-.88.32Z"/>
        <path class="cls-1" d="M18.14,37.98l-.27-.87h.78v-2.81l.87-.31v1.66c.42-.24.78-.35,1.08-.35.08,0,.17,0,.25.02s.18.04.29.1c.11.05.21.12.3.21.08.08.16.21.22.37.06.16.1.35.1.57,0,.22,0,.4-.02.55h.36v.87h-.54v-.34c-.16.23-.44.34-.84.34h-2.59ZM19.54,37.11h1.1c.19,0,.28-.12.28-.37,0-.13-.02-.25-.06-.34-.08-.2-.24-.26-.48-.18-.25.08-.53.24-.85.46v.44Z"/>
        <path class="cls-1" d="M22.04,37.98v-.87h.49c.07,0,.11,0,.13-.03.02-.02.03-.06.03-.11v-1.18l.87-.32v1.56s0,.06,0,.08h.18c.07,0,.11,0,.13-.03.02-.02.03-.06.03-.11v-1.18l.87-.32v1.64h.17c.06,0,.1,0,.12-.03.02-.02.03-.06.03-.11v-1.37l.88-.32v1.75c0,.63-.33.95-.99.95h-.38v-.33c-.16.22-.44.33-.82.33h-.38v-.33c-.16.22-.44.33-.82.33h-.54Z"/>
        <path class="cls-1" d="M27.68,39.2l-.78-.45c.15-.08.28-.14.37-.2s.19-.14.3-.24c.11-.1.19-.21.25-.33h-.17c-.44,0-.78-.1-1.02-.31s-.36-.51-.36-.91c0-.23.05-.45.14-.66.1-.21.24-.38.42-.52.43-.32,1.06-.42,1.9-.29v1.86c0,.52-.07.94-.22,1.24-.15.3-.42.57-.83.81ZM27.65,37.11h.21v-.98c-.22.01-.39.07-.51.17-.12.1-.18.23-.18.4,0,.15.04.26.12.32.08.06.2.09.36.09Z"/>
        <path class="cls-1" d="M29.09,37.98v-.87h.3s.06,0,.1-.01c.03,0,.07-.02.12-.04.05-.02.08-.06.11-.11.03-.05.04-.12.04-.2,0-.12-.03-.24-.08-.36l-.58-1.44.81-.29.49,1.22c.13.33.2.59.22.78.02.19,0,.35-.08.47.09,0,.16-.03.23-.08.06-.05.1-.13.1-.24v-2.49l.87-.31v3.04c0,.34-.1.59-.29.73-.19.15-.5.22-.94.22h-1.42Z"/>
        <path class="cls-1" d="M32.06,38.09v-3.78l.88-.31v3.78l-.88.32Z"/>
        <path class="cls-1" d="M36.05,39.4c-.27,0-.52-.03-.74-.08-.22-.05-.42-.14-.6-.26-.18-.12-.32-.27-.42-.47-.1-.19-.17-.42-.2-.69-.03-.27-.02-.58.05-.94l.85-.32c-.04.24-.06.51-.06.81,0,.37.08.63.25.8s.45.24.86.24c.54,0,.89-.17,1.04-.51h-.12c-.44,0-.78-.1-1.02-.31-.24-.21-.36-.51-.36-.9,0-.23.05-.45.14-.66s.24-.38.42-.52c.43-.32,1.06-.42,1.9-.29v2.27c0,.51-.18.95-.53,1.3-.35.36-.84.53-1.48.53ZM36.64,35.01l-.56-.5.56-.51.36.33.36-.33.56.51-.56.5-.36-.33-.36.33ZM36.97,37.11h.21v-.98c-.22.02-.39.08-.51.18s-.18.23-.18.39c0,.15.04.26.12.32.08.06.2.09.36.09Z"/>
        <path class="cls-1" d="M38.77,39.23l-.71-.53c.11-.08.2-.16.28-.25s.13-.17.17-.25c.04-.08.07-.18.09-.31s.03-.23.03-.32c0-.09,0-.22,0-.4v-1.56l.87-.33v1.83h.48v.87h-.51c-.03.28-.1.51-.21.71-.11.2-.27.38-.51.54Z"/>
        <path class="cls-1" d="M39.91,37.98v-.87h.49c.07,0,.11,0,.13-.03.02-.02.03-.06.03-.11v-1.18l.87-.32v1.56s0,.06,0,.08h.18c.07,0,.11,0,.13-.03.02-.02.03-.06.03-.11v-1.18l.87-.32v1.64h.17c.06,0,.1,0,.12-.03.02-.02.03-.06.03-.11v-1.37l.88-.32v1.75s0,.02,0,.04c0,.02,0,.03,0,.04h.58v.87h-.74v-.33c-.16.22-.44.33-.82.33h-.38v-.33c-.16.22-.44.33-.82.33h-.38v-.33c-.16.22-.44.33-.82.33h-.54ZM41.9,35.18l-.56-.5.56-.5.36.33.36-.33.56.5-.56.5-.36-.32-.36.32ZM42.25,34.35l-.47-.43.47-.42.48.42-.48.43Z"/>
        <path class="cls-1" d="M44.34,37.98v-.87h.32c.06,0,.11,0,.13-.03.02-.02.04-.06.04-.12v-2.66l.87-.31v3.04c0,.63-.33.95-1,.95h-.36Z"/>
        <path class="cls-1" d="M46.01,38.09v-3.78l.88-.31v3.78l-.88.32Z"/>
        <path class="cls-1" d="M49.37,37.98c-.43,0-.76-.12-.99-.32-.23-.21-.35-.51-.35-.89,0-.23.05-.45.14-.66s.24-.38.42-.52c.43-.32,1.06-.42,1.9-.29v1.81h.55v.87h-1.42v-.32l-.25.32ZM49.15,35.1l-.56-.5.56-.51.36.33.36-.33.56.51-.56.5-.36-.33-.36.33ZM49.42,37.11h.21v-.98c-.22.01-.39.07-.51.17-.12.1-.18.23-.18.4,0,.15.04.26.12.32.08.06.2.09.36.09Z"/>
        <path class="cls-1" d="M50.98,37.98v-.87h1.46c-.05-.3-.17-.56-.36-.77-.19-.21-.48-.38-.86-.51v-.74l2.11-1.49v1.1l-1.03.68c.17.12.31.24.43.37.12.13.24.29.35.49.11.2.19.45.24.74.05.29.06.63.03,1.01h-2.36Z"/>
        <path class="cls-1" d="M54.06,39.23l-.71-.53c.11-.08.2-.16.28-.25s.13-.17.17-.25c.04-.08.07-.18.09-.31s.03-.23.03-.32c0-.09,0-.22,0-.4v-1.56l.87-.33v1.83h.48v.87h-.51c-.03.28-.1.51-.21.71-.11.2-.27.38-.51.54Z"/>
        <path class="cls-1" d="M55.09,37.98v-.87h1c.07,0,.11,0,.13-.03.02-.02.03-.06.03-.11v-1.18l.87-.32v1.56s0,.06,0,.08h.18c.07,0,.11,0,.13-.03.02-.02.03-.06.03-.11v-1.18l.87-.32v1.64h.17c.06,0,.1,0,.12-.03.02-.02.03-.06.03-.11v-1.37l.88-.32v1.75c0,.63-.33.95-.99.95h-.38v-.33c-.16.22-.44.33-.82.33h-.38v-.33c-.16.22-.44.33-.82.33h-1.04ZM57.2,34.7l-.56-.5.56-.5.36.33.36-.33.56.5-.56.5-.36-.32-.36.32ZM57.55,33.87l-.47-.43.47-.42.48.42-.48.43Z"/>
      </g>
      <g>
        <path class="cls-4" d="M.26,43.58v-2.72h1l.21.66c.02.07.05.16.07.25.02.09.04.17.05.22l.02.09h.03c.04-.21.09-.39.14-.56l.21-.66h1v2.72h-.77v-.91l.02-.63h-.04c-.05.22-.09.39-.13.5l-.3.95h-.29l-.3-.95-.12-.51h-.04s.02.63.02.63v.91H.26Z"/>
        <path class="cls-4" d="M4.07,41.18c-.08.06-.19.09-.32.09s-.24-.03-.32-.09c-.08-.06-.12-.14-.12-.25s.04-.2.12-.25c.08-.06.19-.09.32-.09s.24.03.32.09c.08.06.12.14.12.25s-.04.2-.12.25ZM3.37,43.58v-2.14h.77v2.14h-.77Z"/>
        <path class="cls-4" d="M5.18,43.63c-.24,0-.44-.09-.58-.26-.14-.17-.21-.43-.21-.78v-.12c0-.39.07-.66.22-.83.15-.17.37-.25.66-.25.13,0,.25.02.38.06v-.75h.77v2.2c0,.09.04.14.13.15h.1s.03.08.03.08l-.09.37s-.02.02-.04.04c-.02.02-.06.04-.13.06-.07.03-.15.04-.23.04-.2,0-.35-.07-.45-.21h-.03c-.15.14-.32.21-.52.21ZM5.47,43.09c.06,0,.13,0,.19-.02v-1.09c-.09-.01-.16-.02-.21-.02-.11,0-.18.04-.23.11s-.07.21-.07.4v.05c0,.21.03.36.08.45.05.08.13.13.23.13Z"/>
        <path class="cls-4" d="M7.61,43.63c-.24,0-.44-.09-.58-.26-.14-.17-.21-.43-.21-.78v-.12c0-.39.07-.66.22-.83.15-.17.37-.25.66-.25.13,0,.25.02.38.06v-.75h.77v2.2c0,.09.04.14.13.15h.1s.03.08.03.08l-.09.37s-.02.02-.04.04c-.02.02-.06.04-.13.06-.07.03-.15.04-.23.04-.2,0-.35-.07-.45-.21h-.03c-.15.14-.32.21-.52.21ZM7.9,43.09c.06,0,.13,0,.19-.02v-1.09c-.09-.01-.16-.02-.21-.02-.11,0-.18.04-.23.11s-.07.21-.07.4v.05c0,.21.03.36.08.45.05.08.13.13.23.13Z"/>
        <path class="cls-4" d="M9.98,43.63c-.24,0-.41-.06-.51-.17-.1-.11-.15-.29-.15-.52v-2.25h.77v2.17c0,.12.06.19.18.19h.13s.08.05.08.05v.44c-.15.06-.31.09-.49.09Z"/>
        <path class="cls-4" d="M11.62,43.63c-.34,0-.59-.09-.76-.26-.17-.17-.25-.44-.25-.8v-.15c0-.32.09-.58.26-.76.17-.18.4-.27.69-.27h.08c.27,0,.48.07.63.22.14.15.22.36.22.65v.07s0,.1-.01.16c0,.06-.01.11-.02.15v.06h-1.06v.1c0,.09.03.16.08.2.06.04.16.06.33.06.06,0,.12,0,.21-.02.08-.01.15-.03.2-.04l.08-.02.06.03c.03.17.05.33.06.48,0,0-.03.02-.09.04-.06.02-.16.05-.29.07-.13.03-.26.04-.4.04ZM11.38,42.33h.36v-.3c0-.12-.05-.18-.15-.18-.05,0-.1.02-.14.06s-.06.11-.06.2v.22Z"/>
        <path class="cls-4" d="M13.42,43.58v-2.72h1.5v.58h-.73v.49h.59v.49h-.59v.57h.77v.58h-1.54Z"/>
        <path class="cls-4" d="M15.73,43.63c-.19,0-.34-.06-.45-.17-.11-.11-.17-.26-.17-.43v-.11c0-.37.2-.58.59-.62l.54-.06v-.02c0-.09-.03-.16-.1-.2s-.19-.06-.37-.06c-.06,0-.13,0-.2,0-.07,0-.13.01-.18.02h-.06s-.07-.03-.07-.03c0-.03.01-.11.04-.25.03-.14.05-.23.07-.29h.07s.12-.02.21-.02c.09,0,.18,0,.26,0,.4,0,.69.07.86.2.17.13.26.34.26.62v.68s0,.08.03.1.05.04.1.05h.1s.03.08.03.08l-.09.37s-.03.02-.05.04c-.02.02-.06.04-.13.06-.07.03-.15.04-.23.04-.22,0-.37-.08-.47-.24h-.03c-.15.16-.33.24-.55.24ZM16.06,43.09c.07,0,.13-.02.18-.07v-.45l-.18.06c-.12.04-.18.11-.18.2v.08c0,.05.02.09.05.12.03.03.08.05.13.05Z"/>
        <path class="cls-4" d="M18.2,43.63c-.12,0-.24,0-.35-.02-.11-.01-.19-.02-.24-.03h-.08c-.01-.07-.03-.15-.04-.24,0-.09-.02-.16-.02-.22v-.09s.06-.03.06-.03c.23.04.42.05.59.05.14,0,.23-.01.28-.03s.07-.06.07-.1c0-.06-.05-.1-.14-.11l-.39-.06c-.16-.03-.3-.08-.4-.17s-.15-.21-.15-.37c-.01-.27.06-.48.22-.61.16-.13.43-.2.81-.2.08,0,.16,0,.25.01s.17.02.22.02c.06,0,.08.01.08.02,0,.07,0,.15-.01.24,0,.09-.02.16-.03.22v.08s-.08.03-.08.03c-.17-.03-.31-.04-.43-.04s-.21.01-.25.04c-.04.02-.06.06-.06.1,0,.05.04.09.11.1l.31.05c.23.04.4.11.5.21.1.1.15.24.15.42,0,.26-.08.45-.23.57-.15.12-.41.18-.79.18Z"/>
        <path class="cls-4" d="M20.47,43.63c-.32,0-.54-.07-.66-.2-.12-.13-.17-.34-.17-.63v-.79h-.26v-.57h.26l.23-.49h.54v.49h.5v.57h-.5v.78c0,.09.02.16.05.2.03.04.09.06.17.06l.23-.02.05.02v.5c-.11.05-.26.07-.44.07Z"/>
        <path class="cls-4" d="M21.84,43.58v-2.72h1.01c.34,0,.59.07.75.22.16.14.24.35.24.61v.07c0,.33-.14.56-.42.68v.02c.09.04.16.13.21.26l.33.86h-.81l-.34-.91c-.03-.08-.08-.13-.16-.13h-.03v1.03h-.77ZM22.61,42.06h.14c.11,0,.2-.02.25-.06.05-.04.07-.11.07-.21v-.04c0-.12-.03-.2-.08-.24-.05-.04-.15-.07-.29-.07h-.09v.62Z"/>
        <path class="cls-4" d="M25.09,43.63c-.34,0-.59-.09-.76-.26-.17-.17-.25-.44-.25-.8v-.15c0-.32.09-.58.26-.76.17-.18.4-.27.69-.27h.08c.27,0,.48.07.63.22.14.15.22.36.22.65v.07s0,.1-.01.16c0,.06-.01.11-.02.15v.06h-1.06v.1c0,.09.03.16.08.2.06.04.16.06.33.06.06,0,.12,0,.21-.02.08-.01.15-.03.2-.04l.08-.02.06.03c.03.17.05.33.06.48,0,0-.03.02-.09.04-.06.02-.16.05-.29.07-.13.03-.26.04-.4.04ZM24.86,42.33h.36v-.3c0-.12-.05-.18-.15-.18-.05,0-.1.02-.14.06s-.06.11-.06.2v.22Z"/>
        <path class="cls-4" d="M26.75,43.63c-.19,0-.34-.06-.45-.17-.11-.11-.17-.26-.17-.43v-.11c0-.37.2-.58.59-.62l.54-.06v-.02c0-.09-.03-.16-.1-.2s-.19-.06-.37-.06c-.06,0-.13,0-.2,0-.07,0-.13.01-.18.02h-.06s-.07-.03-.07-.03c0-.03.01-.11.04-.25.03-.14.05-.23.07-.29h.07s.12-.02.21-.02c.09,0,.18,0,.26,0,.4,0,.69.07.86.2.17.13.26.34.26.62v.68s0,.08.03.1.05.04.1.05h.1s.03.08.03.08l-.09.37s-.03.02-.05.04c-.02.02-.06.04-.13.06-.07.03-.15.04-.23.04-.22,0-.37-.08-.47-.24h-.03c-.15.16-.33.24-.55.24ZM27.08,43.09c.07,0,.13-.02.18-.07v-.45l-.18.06c-.12.04-.18.11-.18.2v.08c0,.05.02.09.05.12.03.03.08.05.13.05Z"/>
        <path class="cls-4" d="M29.16,43.63c-.24,0-.41-.06-.51-.17-.1-.11-.15-.29-.15-.52v-2.25h.77v2.17c0,.12.06.19.18.19h.13s.08.05.08.05v.44c-.15.06-.31.09-.49.09Z"/>
        <path class="cls-4" d="M30.55,43.58v-2.72h1.5v.58h-.73v.49h.59v.49h-.59v.57h.77v.58h-1.54Z"/>
        <path class="cls-4" d="M33.06,43.63c-.12,0-.24,0-.35-.02-.11-.01-.19-.02-.24-.03h-.08c-.01-.07-.03-.15-.04-.24,0-.09-.02-.16-.02-.22v-.09s.06-.03.06-.03c.23.04.42.05.59.05.14,0,.23-.01.28-.03.05-.02.07-.06.07-.1,0-.06-.05-.1-.14-.11l-.39-.06c-.16-.03-.3-.08-.4-.17s-.15-.21-.15-.37c-.01-.27.06-.48.22-.61.16-.13.43-.2.81-.2.08,0,.16,0,.25.01.09,0,.17.02.22.02s.08.01.08.02c0,.07,0,.15-.01.24,0,.09-.02.16-.03.22v.08s-.08.03-.08.03c-.17-.03-.31-.04-.43-.04s-.21.01-.25.04c-.04.02-.06.06-.06.1,0,.05.04.09.11.1l.31.05c.23.04.4.11.5.21.1.1.15.24.15.42,0,.26-.08.45-.23.57s-.41.18-.79.18Z"/>
        <path class="cls-4" d="M35.32,43.63c-.32,0-.54-.07-.66-.2-.12-.13-.17-.34-.17-.63v-.79h-.26v-.57h.26l.23-.49h.54v.49h.5v.57h-.5v.78c0,.09.02.16.05.2.03.04.09.06.17.06l.23-.02.05.02v.5c-.11.05-.26.07-.44.07Z"/>
        <path class="cls-4" d="M36.57,43.63c-.19,0-.34-.06-.45-.17s-.17-.26-.17-.43v-.11c0-.37.2-.58.59-.62l.54-.06v-.02c0-.09-.03-.16-.1-.2s-.19-.06-.37-.06c-.06,0-.13,0-.2,0s-.13.01-.18.02h-.06s-.07-.03-.07-.03c0-.03.01-.11.04-.25.03-.14.05-.23.07-.29h.07s.12-.02.21-.02c.09,0,.18,0,.26,0,.4,0,.69.07.86.2.17.13.26.34.26.62v.68s0,.08.03.1.05.04.1.05h.1s.03.08.03.08l-.09.37s-.03.02-.05.04c-.02.02-.06.04-.13.06-.07.03-.15.04-.23.04-.22,0-.37-.08-.46-.24h-.03c-.15.16-.33.24-.55.24ZM36.9,43.09c.07,0,.13-.02.18-.07v-.45l-.18.06c-.12.04-.18.11-.18.2v.08c0,.05.02.09.05.12s.08.05.13.05Z"/>
        <path class="cls-4" d="M39.31,43.63c-.32,0-.54-.07-.66-.2-.12-.13-.17-.34-.17-.63v-.79h-.26v-.57h.26l.23-.49h.54v.49h.5v.57h-.5v.78c0,.09.02.16.05.2.03.04.09.06.17.06l.23-.02.05.02v.5c-.11.05-.26.07-.44.07Z"/>
        <path class="cls-4" d="M40.92,43.63c-.34,0-.59-.09-.76-.26-.17-.17-.25-.44-.25-.8v-.15c0-.32.09-.58.26-.76.17-.18.4-.27.68-.27h.08c.27,0,.48.07.63.22.14.15.22.36.22.65v.07s0,.1-.01.16c0,.06-.01.11-.02.15v.06h-1.06v.1c0,.09.03.16.08.2.06.04.16.06.33.06.06,0,.12,0,.21-.02.08-.01.15-.03.2-.04l.08-.02.06.03c.03.17.05.33.06.48,0,0-.03.02-.09.04s-.16.05-.29.07c-.13.03-.26.04-.4.04ZM40.68,42.33h.36v-.3c0-.12-.05-.18-.15-.18-.05,0-.1.02-.14.06-.04.04-.06.11-.06.2v.22Z"/>
        <path class="cls-4" d="M43.79,43.63c-.36,0-.64-.1-.83-.29-.2-.19-.29-.53-.29-1v-.14c0-.93.41-1.39,1.23-1.39.07,0,.14,0,.22.01.07,0,.12.02.16.02l.05.02-.06.53-.05.02c-.09-.02-.17-.02-.25-.02-.17,0-.29.06-.37.19s-.12.34-.12.63v.09c0,.27.04.47.12.58.08.12.2.17.37.17.04,0,.08,0,.13-.01s.09-.02.12-.02h.05s.05.02.05.02c.04.19.06.36.07.51-.19.06-.38.09-.58.09Z"/>
        <path class="cls-4" d="M45.48,43.63c-.28,0-.51-.09-.68-.28-.17-.18-.26-.44-.26-.76v-.17c0-.32.09-.58.26-.76.17-.18.4-.27.68-.27h.07c.28,0,.51.09.68.27.17.18.26.44.26.76v.17c0,.32-.09.58-.26.76-.17.18-.4.28-.68.28h-.07ZM45.52,43.09c.13,0,.2-.08.2-.25v-.66c0-.17-.07-.25-.2-.25s-.21.08-.21.25v.66c0,.17.07.25.21.25Z"/>
        <path class="cls-4" d="M46.74,43.58v-2.14h.45l.22.24c.06-.06.11-.11.16-.14.05-.04.12-.07.21-.1s.18-.05.29-.05c.25,0,.43.09.54.27.19-.18.4-.27.64-.27.19,0,.34.06.45.17.11.11.17.26.17.44v1.59h-.77v-1.47c0-.1-.06-.14-.18-.14-.06,0-.14.02-.23.06v1.56h-.77v-1.47c0-.1-.06-.14-.18-.14-.06,0-.14.02-.23.06v1.56h-.77Z"/>
        <path class="cls-4" d="M50.19,44.41v-2.97h.45l.2.22c.17-.18.38-.27.62-.27s.44.08.57.25c.13.17.19.45.19.83v.12c0,.35-.07.61-.2.78-.13.17-.32.25-.55.25-.2,0-.37-.05-.52-.16h0v.93h-.77ZM51.17,43.09c.09,0,.17-.04.22-.12.05-.08.08-.23.08-.45v-.05c0-.2-.02-.33-.06-.4-.04-.07-.11-.11-.21-.11-.06,0-.13.01-.23.03v1.07c.07.02.14.02.21.02Z"/>
        <path class="cls-4" d="M53.04,43.63c-.19,0-.34-.06-.45-.17s-.17-.26-.17-.43v-.11c0-.37.2-.58.59-.62l.54-.06v-.02c0-.09-.03-.16-.1-.2s-.19-.06-.37-.06c-.06,0-.13,0-.2,0s-.13.01-.18.02h-.06s-.07-.03-.07-.03c0-.03.01-.11.04-.25.03-.14.05-.23.07-.29h.07s.12-.02.21-.02c.09,0,.18,0,.26,0,.4,0,.69.07.86.2.17.13.26.34.26.62v.68s0,.08.03.1.05.04.1.05h.1s.03.08.03.08l-.09.37s-.03.02-.05.04c-.02.02-.06.04-.13.06-.07.03-.15.04-.23.04-.22,0-.37-.08-.46-.24h-.03c-.15.16-.33.24-.55.24ZM53.37,43.09c.07,0,.13-.02.18-.07v-.45l-.18.06c-.12.04-.18.11-.18.2v.08c0,.05.02.09.05.12s.08.05.13.05Z"/>
        <path class="cls-4" d="M54.78,43.58v-2.14h.45l.22.24c.21-.2.44-.29.7-.29.19,0,.34.06.45.17.11.11.17.26.17.44v1.59h-.77v-1.47c0-.1-.06-.14-.18-.14-.08,0-.17.02-.27.07v1.54h-.77Z"/>
        <path class="cls-4" d="M57.79,44.46c-.09,0-.18,0-.27-.02-.09-.02-.16-.03-.2-.05l-.07-.02.07-.45.08-.07c.07.02.12.03.16.03.09,0,.16-.06.2-.19l.04-.11-.81-2.14h.74l.31.85.07.4h.04l.07-.4.28-.85h.75l-.81,2.46c-.07.2-.15.35-.24.43-.09.09-.23.13-.41.13Z"/>
      </g>
    </g>
  </g>
</svg>