<?xml version="1.0" encoding="UTF-8"?>
<svg id="Layer_2" data-name="Layer 2" xmlns="http://www.w3.org/2000/svg" viewBox="0 0 59.53 32.56">
  <defs>
    <style>
      .cls-1 {
        fill: #27848f;
      }

      .cls-2 {
        fill: #fff;
      }

      .cls-3 {
        fill: #f89821;
      }
    </style>
  </defs>
  <g id="Layer_9" data-name="Layer 9">
    <g>
      <path class="cls-2" d="M58.97,16.29l-10.78,11.17c-2.9,3-6.9,4.7-11.07,4.7h-14.73c-4.19,0-8.19-1.71-11.1-4.72L.56,16.27,11.27,5.13C14.18,2.11,18.18.4,22.37.4h14.73c4.18,0,8.17,1.7,11.07,4.7l10.79,11.18Z"/>
      <path class="cls-3" d="M37.11,32.56h-14.73c-2.14,0-4.22-.42-6.19-1.26-1.97-.84-3.72-2.04-5.2-3.59L0,16.27,10.98,4.85c1.48-1.54,3.23-2.75,5.2-3.59s4.05-1.26,6.19-1.26h14.73c2.13,0,4.21.42,6.17,1.26s3.71,2.03,5.19,3.57l11.07,11.46-11.05,11.45c-1.48,1.53-3.23,2.74-5.19,3.57-1.96.83-4.04,1.26-6.17,1.26ZM1.12,16.27l10.46,10.88c2.81,2.92,6.75,4.6,10.81,4.6h14.73c4.04,0,7.97-1.67,10.78-4.58l10.51-10.89-10.52-10.9c-2.81-2.91-6.74-4.58-10.78-4.58h-14.73c-4.06,0-7.99,1.68-10.8,4.6L1.12,16.27Z"/>
      <path class="cls-3" d="M41.12,15.88s2.01,1.28,3.62-.59c.2-.23.46-.39.76-.45.02,0,.04,0,.06-.01v-.21s-.26.1-.7.05c-.45-.05-2.32-.94-3.74,1.22"/>
      <path class="cls-3" d="M43.63,13.36s2.01,1.28,3.62-.59c.2-.23.46-.39.76-.45.02,0,.04,0,.06-.01v-.21s-.26.1-.7.05c-.45-.05-2.32-.94-3.74,1.22"/>
      <path class="cls-3" d="M40.39,15.09s-1.27-2.01.61-3.61c.23-.2.39-.46.46-.76,0-.02,0-.04.01-.06h.21s-.1.26-.05.7c.05.45.93,2.33-1.24,3.73"/>
      <path class="cls-3" d="M42.89,12.61s-1.27-2.01.61-3.61c.23-.2.39-.46.46-.76,0-.02,0-.04.01-.06h.21s-.1.26-.05.7c.05.45.93,2.33-1.24,3.73"/>
      <path class="cls-3" d="M45.15,11.02s-.06-2.38,2.38-2.79c.3-.05.58-.2.78-.42.01-.02.03-.03.04-.05l.18.11s-.22.17-.41.58c-.19.41-.39,2.48-2.98,2.57"/>
      <polygon class="cls-3" points="40.45 16.07 39.57 17.01 39.24 16.7 40.15 15.79 40.45 16.07"/>
      <rect class="cls-3" x=".54" y="15.87" width=".02" height=".81" transform="translate(-11.74 5.59) rotate(-47.05)"/>
      <path class="cls-1" d="M23.12,11.14c0,.47.01.92,0,1.36-.01.36.06.69.4.87.36.19.73.11,1.06-.08.45-.27.65-.68.66-1.19,0-.36,0-.71,0-1.07,0-.14.06-.21.19-.22.34-.04.69-.07,1.04-.1.16-.02.17.08.17.2,0,.55,0,1.1,0,1.65,0,.18.03.38.12.53.23.43.82.53,1.3.24.45-.27.69-.66.69-1.2,0-.51,0-1.02,0-1.53,0-.13.03-.22.18-.23.34-.03.67-.06,1.01-.1.18-.02.24.04.24.23,0,.68,0,1.36,0,2.04,0,.37.08.69.43.86.33.16.67.11.98-.06.48-.26.71-.69.72-1.23,0-.35,0-.7,0-1.04,0-.15.05-.23.2-.24.35-.04.69-.07,1.04-.11.16-.02.16.09.16.2,0,.58,0,1.17,0,1.75,0,.42.25.73.6.81.71.15,1.49-.47,1.5-1.19,0-.4,0-.81,0-1.21,0-.07.07-.2.12-.21.42-.06.84-.1,1.29-.15-.03,1.06.17,2.12-.5,3.05-.77,1.06-2.26,1.47-3.33.85-.13-.07-.25-.16-.35-.26-.14-.15-.24-.15-.42-.02-.85.62-1.76.79-2.72.29-.2-.11-.38-.27-.59-.42-1.15.85-2.33,1.05-3.51-.01-1.16.87-2.33,1.05-3.53-.01-.08.06-.17.13-.26.2-.91.68-2.13.71-2.96.07-.53-.41-.82-.97-.83-1.65,0-.35,0-.7,0-1.04,0-.27-.15-.39-.42-.36-.84.08-1.34.81-1.2,1.66.12.68.2,1.37.22,2.06.03,1.41-1.11,2.54-2.51,2.57-.79.01-1.57.02-2.31-.31-1.57-.7-2.46-1.9-2.67-3.61-.08-.65.07-1.27.21-1.89.01-.05.11-.13.16-.12.4.08.8.18,1.23.28-.06.31-.13.61-.18.91-.28,1.51.92,3.15,2.46,3.3.44.05.91.06,1.35-.01.53-.09.88-.57.85-1.11-.04-.65-.1-1.3-.2-1.95-.24-1.47.72-2.86,2.18-3.15,1.2-.24,1.99.45,2.18,1.24.06.24.04.5.05.75,0,.2,0,.4,0,.61,0,.65.42.98,1.05.86.61-.12,1.05-.65,1.06-1.27,0-.21.01-.42,0-.63-.01-.19.03-.28.24-.3.38-.03.77-.07,1.19-.11"/>
      <path class="cls-1" d="M24.91,24.22v2.43c-.44,0-.86,0-1.28,0-.05,0-.11-.09-.13-.15-.02-.07,0-.16,0-.24,0-1.67.04-3.33-.01-5-.05-1.65,1.6-2.96,3.41-2.05,1,.5,1.52,1.34,1.52,2.48,0,1.57,0,3.14,0,4.71,0,.2-.05.27-.26.26-.28-.02-.57-.02-.85,0-.22.01-.3-.05-.29-.28.01-.63,0-1.26,0-1.89,0-.2-.06-.27-.26-.26-.61.01-1.21,0-1.86,0M24.92,22.79c.68,0,1.31,0,1.95,0,.05,0,.15-.12.15-.18.01-.32.02-.65,0-.97-.05-.67-.43-1.12-1.03-1.28-.51-.13-1.04.14-1.06.59-.03.6,0,1.21,0,1.85"/>
      <path class="cls-1" d="M31.43,25.22c.32,0,.65,0,.97,0,.53,0,.94-.41.93-.89-.01-.51-.38-.84-.92-.85-.43-.01-.87,0-1.27-.1-.95-.25-1.44-1.15-1.3-2.11.17-1.15,1.08-2.19,2.4-2.34.66-.07,1.34-.02,2.01-.01.05,0,.13.1.13.15.01.37,0,.74,0,1.12,0,.17-.11.15-.22.15-.56,0-1.12,0-1.67,0-.69,0-1.26.58-1.27,1.27,0,.31.14.46.45.47.4.02.81,0,1.21.05.98.14,1.92,1.11,1.84,2.41-.06,1.03-.92,1.99-2,2.07-.79.06-1.58.04-2.37.05-.14,0-.18-.07-.18-.19,0-.35,0-.7,0-1.04,0-.15.07-.19.21-.19.35,0,.7,0,1.04,0h0Z"/>
      <path class="cls-1" d="M38.37,18.91v1.07c0,.32.01.65,0,.97-.01.24.08.3.31.3.56-.01,1.12,0,1.67,0,.19,0,.26.06.25.25-.01.32-.01.65,0,.97,0,.16-.06.21-.21.21-.59,0-1.18,0-1.77,0-.16,0-.25.03-.24.21.01.47,0,.94.04,1.4.05.57.5.95,1.07.95.31,0,.62,0,.92,0,.15,0,.2.05.2.2,0,.35,0,.7,0,1.04,0,.06-.09.17-.13.17-.66,0-1.32.06-1.96-.2-.89-.36-1.51-1.27-1.51-2.24,0-.42-.01-.84,0-1.26.01-.23-.08-.3-.29-.28-.19.01-.37,0-.56,0-.13,0-.19-.04-.19-.18,0-.36,0-.71,0-1.07,0-.14.06-.18.19-.18.27,0,.55,0,.84,0,0-.63,0-1.24,0-1.84,0-.37,0-.37.37-.39.32-.02.64-.06,1.01-.09"/>
      <path class="cls-1" d="M18.2,19.06c.43-.05.83-.1,1.24-.13.04,0,.13.12.13.19.01.61.02,1.21,0,1.82,0,.23.04.33.3.32.57-.02,1.13,0,1.7-.01.18,0,.25.05.24.23-.01.31-.01.63,0,.95,0,.19-.05.25-.25.25-.58-.01-1.16,0-1.75,0-.13,0-.25,0-.24.19.01.49,0,.99.04,1.48.05.53.49.89,1.03.9.31,0,.61,0,.92,0,.16,0,.23.04.23.22-.01.34,0,.68,0,1.02,0,.06-.08.18-.12.18-.66,0-1.32.06-1.96-.19-.87-.35-1.5-1.25-1.52-2.18,0-.43,0-.86,0-1.29,0-.31,0-.31-.33-.31-.17,0-.34,0-.51,0-.12,0-.18-.03-.18-.16,0-.36,0-.73,0-1.09,0-.06.1-.16.17-.16.2-.02.4-.02.61,0,.19.01.24-.06.24-.23,0-.59,0-1.18,0-1.77,0-.05,0-.09.01-.18"/>
      <path class="cls-1" d="M44.6,26.61c-.44-.21-.84-.4-1.27-.61.38-.8.75-1.57,1.12-2.36-.23-.08-.43-.13-.6-.22-1.02-.52-1.66-1.32-1.76-2.49-.03-.36-.02-.73-.04-1.09,0-.14.04-.21.18-.22.4-.04.8-.08,1.24-.13,0,.38,0,.74,0,1.1,0,.47.16.88.5,1.22.26.26.58.4.94.45.15.02.22-.02.28-.15.37-.79.75-1.57,1.13-2.36.04-.08.08-.16.13-.26.42.2.83.4,1.26.61-1.04,2.17-2.07,4.33-3.11,6.51"/>
      <path class="cls-1" d="M19.23,8.05c0,.49-.39.87-.88.87-.51,0-.89-.39-.88-.89,0-.5.4-.88.91-.87.48,0,.86.4.86.89"/>
      <path class="cls-1" d="M34.98,16.82c0,.49-.38.88-.87.89-.48,0-.91-.42-.9-.89,0-.48.4-.87.88-.87.52,0,.88.36.89.88"/>
      <path class="cls-1" d="M14.35,20.34c-.49,0-.87-.36-.87-.84,0-.54.35-.9.88-.9.49,0,.88.38.88.86,0,.5-.38.87-.89.87"/>
      <path class="cls-1" d="M31.86,15.94c.49,0,.87.39.87.88,0,.48-.4.88-.87.89-.49,0-.89-.39-.89-.89,0-.5.39-.88.89-.88"/>
      <path class="cls-1" d="M36.24,8.76c0,.5-.36.88-.86.88-.49,0-.91-.39-.91-.88,0-.48.41-.88.9-.88.48,0,.86.38.86.88"/>
      <path class="cls-1" d="M36.74,8.75c0-.47.39-.86.86-.86.5,0,.9.39.9.88,0,.49-.4.88-.89.88-.5,0-.87-.39-.87-.9"/>
      <path class="cls-1" d="M16.11,8.92c-.51,0-.89-.38-.89-.88,0-.5.38-.88.87-.88.49,0,.9.4.91.88,0,.45-.42.88-.89.88"/>
      <path class="cls-1" d="M12.1,18.61c.49,0,.86.35.87.84.01.51-.34.88-.84.9-.53.02-.9-.36-.92-.86-.02-.44.33-.91.89-.88"/>
    </g>
  </g>
</svg>