<?xml version="1.0" encoding="UTF-8"?>
<svg id="Layer_2" data-name="Layer 2" xmlns="http://www.w3.org/2000/svg" viewBox="0 0 61.51 17.5">
  <defs>
    <style>
      .cls-1 {
        fill: #454545;
      }

      .cls-2 {
        fill: #c9b089;
      }
    </style>
  </defs>
  <g id="Layer_9" data-name="Layer 9">
    <g>
      <path class="cls-1" d="M20.41,0c1.32,1.69-1.85,1.48-.36,0h.36Z"/>
      <path class="cls-1" d="M21.99,0c1.35,1.63-1.71,1.63-.36,0h.36Z"/>
      <path class="cls-1" d="M24.79,0c.1.57-.33.29-.43.36-1.03.8.74.46.43.91-.27.38-2.21-.05-.36-1.28h.36Z"/>
      <path class="cls-1" d="M27.58,0h.12v5.77c-.3.02-.61.04-.91.06-.06-1.56-.12-3.12-.18-4.68.06-.54.55-.9.97-1.15Z"/>
      <path class="cls-1" d="M30.25,0h.12c-.13,1.47.22,5.66-.12,6.62-.47,1.32-2.87,1.73-3.4.73-.6-1.15,1.81-.07,2.31-.85.65-1.01-.82-5.94,1.09-6.5Z"/>
      <path class="cls-1" d="M33.17,0v7.84c-.34.02-.69.04-1.03.06-.29-.19-.14-6.65-.06-6.99.28-.3.57-.61.85-.91h.24Z"/>
      <path class="cls-1" d="M9.42.12c.1.02.2.04.3.06.02,2.21.04,4.41.06,6.62,3.64.32,2.42-1.62,3.22-3.1,1.13-2.09,5.71-2.19,5.16,3.1.83-.02,1.66-.04,2.49-.06.23-1.35-.69-4.09,1.03-4.31-.02,1.44-.04,2.88-.06,4.31,4.05.92.5-3.55,3.1-4.31-.11,1.24.69,5.15-.85,5.47h-8.99c-.61-.32-1.22-.65-1.82-.97-.22.05-.43,1.27-4.25.97-.02-2.37-.04-4.74-.06-7.11.22-.22.45-.45.67-.67ZM14.88,3.52c-1.64.33-1.96,3.92,2.07,3.28.29-1.61.07-3.71-2.07-3.28Z"/>
      <path class="cls-1" d="M46.23.12c3.01-.19,8.22.41,10.57,2.43,1.03.88,1.39,1.98,1.15,3.34-.77,4.43-16.51,4.77-19.56,0-2.48-3.87,5.36-5.61,7.84-5.77ZM45.87.49c-1.78.15-7.92,1.6-5.77,4.43,2.5,3.3,16.66,2.78,16.04-1.46-.37-2.53-7.18-3.24-10.27-2.98Z"/>
      <path class="cls-1" d="M0,6.2v-.73C.6,2.58,3.86,1.39,4.5,3.34c-5.16-.26-3.85,6.21.18,4.8,2.12-.74.96-5.15,1.28-5.65.34-.02.69-.04,1.03-.06.02,1.32.04,2.63.06,3.95-.51,3.82-6.26,4.21-7.05-.18Z"/>
      <path class="cls-1" d="M3.46,4.98c1.54-.28,1.19,2.22-.12,1.58-.76-.37-.54-1.46.12-1.58Z"/>
      <path class="cls-2" d="M60.08,6.2c.54-.11,3.7,3.81-1.58,5.83-4.13,1.58-11.6,1.53-15.31-1.09-2.26-1.6.39-.24,2.43.12,3.52.62,9.79.45,12.88-1.46,2.53-1.56,1.38-3.36,1.58-3.4Z"/>
      <path class="cls-1" d="M23.09,17.5h-.36c-5.41-.83-4.41-8.63,1.15-7.78.87.13,2.31.98,1.76,2-.57,1.08-1.05-.49-2-.67-4.26-.81-3.94,6.19.24,4.86,1.19-.38.62-1.54,2.55-.85-.3,1.46-1.94,2.16-3.34,2.43Z"/>
      <path class="cls-1" d="M12.82,9.84c2.2-.28,1.12.48,1.46,3.28,1.59-1.11,2.34-3.89,4.68-3.22-.49.62-2.67,2.54-2.55,3.16.91,1.4,1.82,2.79,2.73,4.19-2.8.52-2.49-3.26-4.37-2.79-.98.24-.35,2.42-.55,2.73h-1.46c.02-2.45.04-4.9.06-7.35Z"/>
      <path class="cls-1" d="M28.01,9.84c1-.24,3.84-.11,4.43.91.91,1.55-.64,2.41-.61,2.55.03.14,1.56.55,1.34,2.19-.32,2.32-4.05,1.75-5.71,1.7v-6.8l.55-.55ZM29.1,11.06c-.3.12-.2,1.65-.12,1.7,3.05.52,3.05-2.08.12-1.7ZM28.98,13.97v2.07c3.59.52,3.58-2.59,0-2.07Z"/>
      <path class="cls-1" d="M39.43,9.96c.06.02.12.04.18.06-1.23,1.42.1,2.95,1.4,3.71,3.78,2.21,12.48,2.3,16.4,0,.02.06.04.12.06.18-1.29,1.67-4.73,2.93-6.74,3.22-3.28.47-14.81.2-12.94-5.53.18-.54,1.51-1.61,1.64-1.64Z"/>
    </g>
  </g>
</svg>