<?xml version="1.0" encoding="UTF-8"?>
<svg id="Layer_2" data-name="Layer 2" xmlns="http://www.w3.org/2000/svg" viewBox="0 0 59.53 27.96">
  <defs>
    <style>
      .cls-1 {
        fill: #e0252a;
      }

      .cls-2 {
        fill: #01925d;
      }
    </style>
  </defs>
  <g id="Layer_9" data-name="Layer 9">
    <g>
      <path class="cls-2" d="M31.48,24.86c-.12-.17-.29-.3-.49-.4-.2-.1-.45-.15-.74-.15-.16,0-.31.02-.46.05-.15.03-.27.07-.35.09v.64c.13-.04.26-.06.39-.08.13-.02.22-.03.28-.03.18,0,.33.03.45.08.12.05.22.12.3.21.08.09.13.2.17.32.04.12.06.26.07.41h-2.15c-.08,0-.13-.02-.16-.05-.02-.03-.03-.09-.03-.18v-1.66h-.96c-.13,0-.27.02-.41.06-.14.04-.27.1-.38.19-.11.09-.21.2-.28.34-.07.14-.11.31-.11.52s.04.38.12.51c.08.13.17.23.28.31.11.07.23.12.35.15.12.03.23.04.33.04.07,0,.14,0,.2-.01.07,0,.13-.02.2-.04.03.09.07.17.13.22.06.06.12.1.19.14.07.03.15.06.23.07.08.01.17.02.26.02h2.92v-.52c0-.24-.03-.47-.08-.69s-.14-.41-.27-.58M28.03,25.56c-.05.02-.11.03-.16.03-.05,0-.1,0-.15,0-.08,0-.14-.01-.19-.04s-.09-.06-.12-.1c-.03-.04-.05-.08-.06-.13-.01-.05-.02-.1-.02-.14,0-.12.03-.21.1-.28.07-.07.17-.11.31-.11h.28v.76ZM55.21,23.86c.11,0,.2-.04.28-.12.08-.08.12-.17.12-.28s-.04-.2-.12-.28c-.08-.08-.17-.12-.28-.12s-.2.04-.28.12c-.08.08-.12.17-.12.28s.04.2.12.28c.08.08.17.12.28.12M30.37,27.17c-.11,0-.2.04-.28.12-.08.08-.12.17-.12.28s.04.2.12.28c.08.08.17.12.28.12s.2-.04.28-.12c.08-.08.12-.17.12-.28s-.04-.2-.12-.28c-.08-.08-.17-.12-.28-.12M32.84,26.33c0,.14,0,.25-.02.35-.01.1-.04.18-.09.24-.04.07-.11.11-.2.14-.09.03-.21.05-.36.05v.68c.28,0,.51-.03.7-.08.18-.05.32-.14.43-.25.1-.12.18-.27.22-.45.04-.18.06-.41.06-.68v-1.66h-.73v1.66ZM27.4,23.58c.11,0,.2-.04.28-.12.08-.08.12-.17.12-.28s-.04-.2-.12-.28c-.08-.08-.17-.12-.28-.12s-.2.04-.28.12c-.08.08-.12.17-.12.28s.04.2.12.28c.08.08.17.12.28.12M28.31,23.58c.11,0,.2-.04.28-.12.08-.08.12-.17.12-.28s-.04-.2-.12-.28c-.08-.08-.17-.12-.28-.12s-.2.04-.28.12c-.08.08-.12.17-.12.28s.04.2.12.28c.08.08.17.12.28.12M57.38,26h-1.08v-.44c0-.13-.02-.27-.05-.41-.03-.14-.09-.27-.17-.39-.08-.12-.19-.21-.33-.29-.14-.08-.32-.11-.53-.11-.18,0-.35.03-.49.1-.14.07-.26.16-.35.26-.1.11-.17.23-.22.38-.05.14-.08.28-.08.43,0,.08,0,.16.02.25.01.09.03.17.07.23h-.5s0,0,0,0h-.41v-.16c0-.21-.02-.4-.06-.58-.04-.18-.1-.33-.18-.46-.09-.13-.2-.23-.34-.3-.14-.07-.31-.11-.52-.11-.18,0-.35.03-.49.1-.14.07-.26.16-.36.28-.1.11-.17.24-.22.39-.05.14-.08.29-.08.44,0,.19.03.34.08.48s.14.24.24.32c.1.08.22.14.36.18.14.04.29.06.46.06h.35c-.01.07-.04.14-.08.2-.04.06-.1.11-.19.15s-.19.08-.32.1c-.13.02-.29.03-.49.03h-.13v.68h.17c.57,0,.99-.09,1.28-.28s.45-.48.5-.88h4.86v-3.97h-.73v3.33ZM52.53,26h-.37c-.13,0-.23-.03-.31-.1-.08-.07-.12-.19-.12-.36,0-.14.03-.26.09-.35.06-.09.16-.14.3-.14.15,0,.26.06.32.18.06.12.08.26.08.44v.33ZM55.58,26h-.32c-.13,0-.24-.04-.33-.11-.09-.07-.14-.21-.14-.4,0-.06,0-.12.02-.18.01-.06.04-.11.07-.15.03-.04.07-.08.12-.11.05-.03.12-.04.19-.04s.14.02.19.05c.05.03.09.07.12.12.03.05.05.11.06.18,0,.07.01.14.01.21v.42ZM58.8,26.64h.73v-3.97h-.73v3.97ZM49.81,26.64h.73v-3.97h-.73v3.97ZM41.66,26.64h.73v-3.97h-.73v3.97ZM40.25,26h-1.08v-.36c0-.4-.1-.71-.3-.94-.2-.23-.5-.34-.89-.34-.24,0-.47.06-.69.18-.22.12-.4.27-.54.45v-2.32h-.73v3.33h-.77c-.09,0-.15-.02-.2-.05-.05-.03-.07-.12-.07-.25v-3.03h-.73v3.13c0,.16.02.29.07.4.04.11.1.19.18.26.08.06.17.11.28.14.11.03.22.04.35.04h5.87v-3.97h-.73v3.33ZM38.44,26h-1.65c.05-.13.12-.25.2-.37.08-.12.17-.22.26-.31.09-.09.2-.16.31-.21.11-.05.22-.08.33-.08.2,0,.35.06.43.19.08.13.12.28.12.46v.32ZM47.25,23.83s-.07.06-.11.11c-.04.05-.07.11-.11.19-.04.08-.07.18-.09.3.18.09.36.2.54.32.18.12.33.25.47.38.14.13.25.25.34.36.08.11.13.2.13.27,0,.1-.04.16-.11.19s-.15.05-.23.05h-1.45c-.08,0-.13-.02-.16-.05-.02-.03-.03-.09-.03-.18v-1.66h-.96c-.14,0-.27.02-.41.06-.14.04-.27.1-.38.19-.12.09-.21.2-.28.34-.07.14-.11.31-.11.52s.04.38.12.51c.08.13.17.23.28.31.11.07.23.12.35.15.12.03.23.04.33.04.07,0,.13,0,.2-.01s.13-.02.2-.04c.03.09.07.17.13.22s.12.1.19.14c.07.03.15.06.23.07.08.01.17.02.26.02h1.55c.21,0,.38-.03.51-.08.13-.06.23-.13.3-.21.07-.09.12-.18.14-.28.02-.1.04-.19.04-.28,0-.1-.02-.22-.05-.34-.03-.12-.09-.25-.18-.38-.09-.13-.2-.27-.35-.41-.15-.14-.33-.28-.56-.43v-.02l1.33-.54v-.74l-1.97.86s-.05.03-.09.05M45.71,25.56c-.05.02-.1.03-.16.03-.05,0-.1,0-.15,0-.08,0-.14-.01-.19-.04-.05-.03-.09-.06-.12-.1-.03-.04-.05-.08-.06-.13-.01-.05-.02-.1-.02-.14,0-.12.03-.21.1-.28.07-.07.17-.11.31-.11h.28v.76ZM33.18,23.07c-.11,0-.2.04-.28.12-.08.08-.12.17-.12.28s.04.2.12.28c.08.08.17.12.28.12s.2-.04.28-.12c.08-.08.12-.17.12-.28s-.04-.2-.12-.28c-.08-.08-.17-.12-.28-.12"/>
      <path id="_15" data-name="15" class="cls-1" d="M19.92,15s.17.16.44.32c0-.25-.01-.49-.03-.73-.26.21-.41.41-.41.41Z"/>
      <path id="_09" data-name="09" class="cls-1" d="M19.87,13.75c.1-.13.2-.25.31-.38-.1-.55-.24-1.05-.41-1.48-.35.33-.68.69-.96,1.05-.16.21-.31.42-.44.63-.46-.57-.99-1.37-1.37-2.05-.48-.86-.74-1.54-.86-2.02-.36.31-.74.59-1.14.85.19.54.47,1.16.83,1.81.59,1.06,1.32,2.09,1.89,2.68-.08.21-.15.41-.2.6-.11-.02-.22-.03-.34-.04-1.76-.19-3.52,0-5.24.57-.5.17-1.01.37-1.51.61.07-1.01.42-2.14,1.04-3.38.26-.52.57-1.06.93-1.61-.22.07-.45.14-.68.21-.38.1-.77.19-1.16.26-.1.19-.2.37-.29.55-.86,1.72-1.26,3.29-1.18,4.68-.69.41-1.37.88-2.04,1.42.35.28.73.55,1.13.8,2.86-2.19,5.84-3.13,8.86-2.8.11.01.22.03.33.04h0c.07,1.17.52,2.71,1.28,4.23.11.22.23.46.37.71.26-.54.48-1.1.66-1.66-.54-1.17-.83-2.22-.93-3,.5.13,1,.3,1.49.5.06-.46.1-.92.12-1.37-.5-.19-1.01-.34-1.52-.47.17-.54.48-1.22,1.04-1.94ZM18.71,16.14h0s0,.01,0,.01c0,0,0,0,0-.01Z"/>
      <path id="_14" data-name="14" class="cls-1" d="M5.02,9.44c.13-.33.13-.68.08-.98-.28.03-.43.08-.43.08-.43.07-.82.19-1.17.34-.31.83.17,1.77.17,1.77,0,0,1.02-.38,1.35-1.22Z"/>
      <path id="_08" data-name="08" class="cls-1" d="M6.53,19.78s-.02-.02-.03-.02c-.13-.1-.26-.21-.39-.31-.04-.03-.07-.06-.11-.09-.09-.08-.18-.16-.26-.23-1.19-1.09-2.08-2.37-2.68-3.82.99-.64,2.12-1.8,3.08-3.21.21-.31.44-.66.67-1.05.45.06.92.09,1.41.09.18,0,.36,0,.54-.01.9-.04,1.79-.18,2.65-.41,1.55-.42,2.92-1.14,4.01-2.09-1.1-.06-2.14.23-2.88.63-1.36.75-2.01.98-3.25.51-.62.06-1.23.07-1.81.03.11-.24.22-.48.33-.74-.45-.23-.88-.38-1.26-.47-.49,1.14-1.04,2.08-1.52,2.78-.84,1.22-1.71,2.11-2.41,2.64v-.04c-.3-1.08-.44-2.25-.43-3.48,0-.25.01-.5.02-.75-.58.52-1.01,1.17-1.33,1.88.06.93.21,1.83.43,2.68.03.1.05.19.08.29-.36.08-.79.14-1.3.14-.2,1.86,0,3.41,0,3.41.02.06.04.12.06.17.48-.85.86-1.71,1.05-2.34.23-.03.44-.08.63-.12.65,1.59,1.63,2.99,2.9,4.18h0s.04.03.06.05c.11.1.23.21.34.31.03.03.07.06.1.08.14.12.29.24.44.35.01,0,.03.02.04.03.1.07.19.15.29.22h0c.12.09.24.17.37.26-.92.44-2.09.71-3.49.8-.4.03-.83.03-1.26.03.22.45.46.89.75,1.32.2,0,.4-.01.6-.03,1.94-.12,3.52-.57,4.7-1.33.69.38,1.43.72,2.22,1.02.07-.44.12-.9.14-1.37-.94-.38-1.81-.83-2.59-1.32-.32-.2-.62-.42-.91-.64ZM1.7,14.48c.06-.02.11-.03.16-.05h0s-.11.03-.16.05Z"/>
      <path id="_05" data-name="05" class="cls-1" d="M15.32,20.65s-.03,1.08.62,1.7c.65.62,1.74.54,1.74.54,0,0,.03-1.08-.62-1.7-.65-.62-1.74-.54-1.74-.54Z"/>
      <path id="_03" data-name="03" class="cls-1" d="M4.72,24.24c-.49.14-.86.51-1.09.81.3.32.59.57.88.78.21.02.44.01.66-.05.87-.25,1.35-1.22,1.35-1.22,0,0-.93-.57-1.8-.32Z"/>
      <path id="_01" data-name="01" class="cls-1" d="M12.92,26.54s0,.06,0,.08c.68,0,1.16-.21,1.16-.21.15-.06.29-.11.44-.17-.13-.69-.64-1.24-.64-1.24,0,0-.87.65-.95,1.54Z"/>
      <path id="_13" data-name="13" class="cls-1" d="M5.11,14.61s-.47.98-.12,1.8c.35.82,1.38,1.19,1.38,1.19,0,0,.47-.98.12-1.8-.35-.82-1.38-1.19-1.38-1.19Z"/>
      <path id="_10" data-name="10" class="cls-1" d="M18.39,12.18s.68-.69.7-1.52c-.38-.54-.8-.95-1.26-1.26-.19.31-.39.75-.36,1.22.06.89.92,1.56.92,1.56Z"/>
      <path id="_04" data-name="04" class="cls-1" d="M12.58,20.9c0-.24-.01-.48-.03-.73h0c-.04-.57-.1-1.14-.19-1.73-.42.16-.85.35-1.27.57.06.44.11.88.13,1.3h0c.01.21.02.41.02.62,0,0,0,.02,0,.03,0,.19,0,.38,0,.57,0,.03,0,.05,0,.08,0,.19-.01.37-.03.55,0,.02,0,.03,0,.04-.01.17-.03.33-.05.5,0,.03,0,.06-.01.09-.02.17-.04.33-.07.5l-.02.11c-.03.17-.06.33-.1.5,0,.01,0,.02,0,.04-.04.16-.08.32-.12.48,0,.02-.01.05-.02.07-.05.16-.09.33-.15.49l-.02.06c-.1.29-.21.58-.33.86.32,0,.67.09,1.06.31.07.04.14.07.21.11.01-.02.02-.05.03-.07.01-.03.03-.07.04-.1.03-.07.06-.14.08-.22.02-.04.03-.08.04-.12.02-.07.05-.13.07-.2.02-.07.05-.14.07-.21.01-.04.03-.07.04-.11.04-.12.07-.23.11-.35,0-.01,0-.02,0-.03.03-.11.06-.22.09-.33,0-.01,0-.02,0-.04.03-.11.05-.22.08-.34,0-.01,0-.02,0-.03.01-.06.03-.12.04-.17,0-.03.01-.06.02-.09.03-.17.06-.33.09-.5,0-.05.01-.1.02-.15.02-.16.04-.32.06-.48,0-.03,0-.07.01-.1,0-.09.02-.17.02-.26.85.56,1.67,1.43,2.45,2.58.16.24.32.49.48.76.3-.18.58-.38.85-.59.04-.13.08-.25.13-.38-.11-.18-.23-.36-.34-.53-1.08-1.6-2.26-2.72-3.52-3.35Z"/>
      <path id="_06" data-name="06" class="cls-1" d="M16.92,18.85s-.62-.89-1.52-1c-.9-.12-1.73.59-1.73.59,0,0,.62.89,1.52,1,.9.12,1.73-.59,1.73-.59Z"/>
      <path id="_07" data-name="07" class="cls-1" d="M3.43,21.14s-.13-1.07-.87-1.58c-.74-.51-1.81-.27-1.81-.27,0,0,.13,1.07.87,1.58.74.51,1.81.27,1.81.27Z"/>
      <path id="_02" data-name="02" class="cls-1" d="M7.65,25.05c-.42.54-.4,1.29-.37,1.61.39-.03.72-.11.97-.16.05,0,.1-.02.15-.03.2-.11.39-.26.53-.45.55-.71.35-1.77.35-1.77,0,0-1.09.09-1.64.8Z"/>
      <path id="_11" data-name="11" class="cls-1" d="M12.03,14.14s1.01.42,1.83.05c.82-.38,1.14-1.41,1.14-1.41,0,0-1.01-.42-1.83-.05-.82.38-1.15,1.41-1.15,1.41Z"/>
      <path id="_12" data-name="12" class="cls-1" d="M7.1,13.31c-.22.87.39,1.76.39,1.76,0,0,.96-.51,1.18-1.38.22-.87-.39-1.76-.39-1.76,0,0-.96.51-1.18,1.38Z"/>
      <path id="_16" data-name="16" class="cls-2" d="M15.38,5.76c1.59-2.09.64-5.76.64-5.76-5.84,2.2-5.31,9.11-5.31,9.11,0,0,2.91-1.04,4.67-3.35Z"/>
      <path id="_17" data-name="17" class="cls-2" d="M10.07,8.9s.64-3.56-2.87-5.34c0,0-1.49,2.93,2.87,5.34Z"/>
      <path class="cls-2" d="M34.71,8.55h-6.18s-.03,0-.04,0h-.65c-.67,0-1.22.54-1.22,1.21v10.97h1.87c.67,0,1.22-.54,1.22-1.21v-2.51h4.83v-1.85c0-.66-.55-1.21-1.22-1.21h-3.6v-2.34h6.22v-1.85c0-.66-.55-1.21-1.22-1.21"/>
      <path class="cls-2" d="M45.46,8.55h-6.18s-.02,0-.04,0h-.65c-.67,0-1.22.54-1.22,1.21v10.97h1.87c.67,0,1.22-.54,1.22-1.21v-2.51h4.82v-1.85c0-.66-.55-1.21-1.22-1.21h-3.6v-2.34h6.22v-1.85c0-.66-.55-1.21-1.22-1.21"/>
      <path class="cls-2" d="M56.13,16.39s0,0,0,0c-.04.05-.08.1-.13.15-.51.59-1.25.98-2.09,1.04-1.68.12-3.14-1.13-3.26-2.79-.12-1.66,1.14-3.1,2.82-3.22,1.06-.07,2.03.39,2.63,1.16,0,0,0,0,0,0,.26.58,1.06.81,1.67.53l1.75-.77c-.92-2.51-3.44-4.22-6.27-4.02-3.41.24-5.98,3.17-5.74,6.54.24,3.37,3.21,5.91,6.62,5.67,1.64-.12,3.08-.85,4.11-1.96.47-.48.86-1.05,1.15-1.67l-1.63-.99c-.58-.35-1.3-.21-1.64.34"/>
    </g>
  </g>
</svg>