<?xml version="1.0" encoding="UTF-8"?>
<svg id="Layer_2" data-name="Layer 2" xmlns="http://www.w3.org/2000/svg" viewBox="0 0 59.53 18.76">
  <defs>
    <style>
      .cls-1 {
        fill: #ced6d6;
      }
    </style>
  </defs>
  <g id="Layer_10" data-name="Layer 10">
    <g>
      <path class="cls-1" d="M27.45,0c.07.04.1.11.09.2,0,.04-.03.07-.06.08l-3.51,1.05-.7.18h-.07s-.04-.02-.05-.05c-.05-.09,0-.16.08-.19.28-.1.58-.2.9-.3l3.32-.98Z"/>
      <path class="cls-1" d="M35.22,2.14c.37.02.73.02,1.09.12.29.08.59.18.87.28.49.24,1.05.36,1.35-.22.05-.09.11-.15.2-.14.03,0,.06.03.06.07v4.39c0,.05-.03.09-.08.09-.01,0-.03,0-.04-.01-.05-.03-.09-.09-.11-.17-.05-.22-.12-.45-.19-.66-.21-.87-.53-1.68-.98-2.41-.44-.73-1.23-1.12-2.01-.93-1.37.34-1.55,2.59-1.61,3.8-.06,1.11-.06,2.23,0,3.34.07,1.35.34,3.77,2.06,3.77,1.38,0,2.48-1.29,2.81-2.68.09-.3.13-.61.13-.94,0-.08.04-.12.12-.11h.06c.06.01.11.07.11.13,0,.09-.01.27-.05.55-.2,1.46-1.06,2.75-2.35,3.23-.29.11-.65.15-.97.21-.1,0-.19,0-.29,0-.52-.05-1.07-.09-1.54-.23-.44-.13-.83-.31-1.2-.53-2.11-1.32-2.53-4.57-1.98-6.89.07-.3.2-.61.3-.91.35-.85.89-1.65,1.6-2.17.8-.58,1.68-.91,2.64-.97Z"/>
      <path class="cls-1" d="M6.22,3.43l.44,1.3,2.65,8.37c.03.09.11.15.19.15h.39c.05-.01.1.03.1.09v.03c.01.08-.02.13-.1.13l-.63.04c-.19.01-.38-.04-.56-.04-.85,0-1.69,0-2.56,0-.29,0-.59,0-.91-.03-.04,0-.06-.04-.06-.07,0,0,0-.02,0-.02l.02-.05c.03-.08.08-.12.16-.12.25-.02.5,0,.74.06.03,0,.07-.02.08-.05,0-.01,0-.03,0-.04l-1.05-3.35c-.02-.08-.09-.13-.17-.12-.29.03-.59.03-.91.02-.23,0-.41.08-.65.01-.2-.05-.39,0-.58-.06-.05-.01-.09,0-.12.05-.13.26-.14.56-.24.82-.06.16-.11.33-.16.49-.02.08-.07.25-.15.49-.11.35-.15.71-.11,1.09.06.54.68.54,1.05.6.26.04.45,0,.72-.04.1-.01.13.03.07.12l-.06.09c-.05.08-.14.13-.23.14-.32.02-.62-.05-.94-.05-.85,0-1.69,0-2.54,0-.04,0-.08-.04-.12-.13.1-.06.28-.1.53-.12.59-.05.94-.72,1.11-1.28.09-.28.17-.55.25-.82l1.57-4.76.17-.59c.25-.77.51-1.55.76-2.32.1-.3.19-.51.27-.62.27-.37.7-.52,1.12-.56.02,0,.04,0,.06.02.05.05.09.11.11.19.09.31.18.63.27.94ZM2.8,9.4s0,.04.02.04c0,0,0,0,.01,0h2.14s.03,0,.03-.03c0,0,0,0,0-.01l-1.06-3.38s-.02-.03-.04-.02c0,0-.02.01-.02.02l-1.08,3.37Z"/>
      <path class="cls-1" d="M40.8,13.49h-1.67s-.08-.03-.08-.08c0,0,0,0,0-.01v-.04c.02-.09.06-.13.14-.13.48,0,.88-.12,1.15-.61.43-.81.65-1.77.95-2.65.16-.48.31-.96.45-1.44l.34-1.02c.11-.32.22-.65.32-.98.33-1.1.7-2.19,1.06-3.28.09-.26.21-.47.42-.63.19-.15.93-.53,1.04-.17,1.12,3.57,2.26,7.14,3.4,10.71.02.06.08.11.14.1h.4c.06,0,.09.03.08.09v.06c0,.06-.03.09-.09.09h-4.52c-.08,0-.11-.05-.09-.14v-.03s.05-.07.09-.07h.79s.06-.03.06-.07c0,0,0-.01,0-.02l-1.07-3.37c-.02-.06-.08-.1-.14-.1-.73.05-1.46.05-2.19,0-.02,0-.04,0-.06.02-.04.04-.07.09-.1.16-.19.57-.38,1.14-.55,1.72-.26.88-.1,1.56.86,1.63.25.02.51.03.78.04.04,0,.07.04.07.08,0,0,0,0,0,0v.03c0,.07-.04.1-.1.1l-1.89.02ZM41.78,9.4s0,.04.02.05c0,0,0,0,.01,0h2.16s.04-.02.04-.04c0,0,0,0,0-.01l-1.08-3.36s-.03-.03-.05-.02c-.01,0-.02.01-.02.02l-1.08,3.36Z"/>
      <path class="cls-1" d="M11.59,2.4l.35.05,6.78.02s.05.03.05.06c0,0,0,.02,0,.03l-3.13,6.16-.82,1.65c-.04.13-.1.24-.16.32-.34.59-.64,1.17-.88,1.76-.1.25-.28.45-.4.72-.01.03,0,.07.03.08,0,0,.02,0,.03,0l.91-.04c.07.01.11,0,.13-.05,0-.01.02-.02.03-.01,0,0,0,0,0,0,.07.06.13.09.18.09l.52-.06.42-.09c.52-.13,1.13-.37,1.53-.78.42-.36.73-.77.92-1.24.19-.47.31-.88.35-1.22.06-.54.14-1.06.12-1.61,0-.07.05-.12.11-.12,0,0,0,0,0,0h.03s.08.05.08.1v2.13s0,2.09,0,2.09l.03.97c.01.05.01.09,0,.12-.01.02-.04.04-.08.03-.18-.01-.36-.03-.55-.05l-2.37-.02c-.09.03-.18.04-.27.03-.32-.04-.77-.09-1.1,0-.07.01-.15,0-.23-.02-.4-.04-.8-.04-1.2,0h-.35c-.45-.02-.91,0-1.38.03-.21.02-.45-.02-.68,0-.17.02-.31-.02-.47-.05-.05,0-.08-.06-.07-.11,0-.02,0-.03.02-.04.04-.05.06-.12.08-.21.06-.15.17-.46.28-.56.05-.04.05-.13.08-.17.33-.66.7-1.32,1.02-1.96.17-.33.34-.66.52-.98.18-.33.34-.78.57-1.15l.61-1.24.48-.93,1.64-3.25c.04-.08.02-.13-.07-.13-.49,0-.99.03-1.52.09-.42.05-.8.09-1.06.29-.41.31-.8.54-1.07,1.03-.23.41-.48.88-.53,1.36l-.25,1.25-.09.58c0,.05-.05.09-.1.1h-.02c-.07,0-.1-.03-.1-.1v-2.09c-.03-.15-.03-.35.01-.58v-2.14s.01-.04.04-.05l.43-.05.57-.04Z"/>
      <path class="cls-1" d="M24.5,2.45s.07.06.07.13c0,.05-.03.11-.08.11,0,0,0,0-.01,0l-.75.02c-.06,0-.11.05-.11.12-.02.53,0,1.13,0,1.6,0,.83.01,1.67,0,2.48-.02,1.45.01,2.5.14,3.75.05.55.21,1.1.48,1.65.5,1.04,1.48,1.16,2.42.85.91-.3,1.34-1.4,1.46-2.33.16-1.28.11-2.65.12-4.05,0-1.27.18-3.09-1.06-3.75-.33-.18-.63-.27-.9-.29-.28-.02-.47-.04-.57-.06-.02-.29.26-.24.42-.24,1.4.01,2.8.01,4.2,0,.06,0,.08.03.08.09v.08c0,.06-.04.09-.09.09-2.28.18-1.71,3.38-1.76,4.94-.03.8-.05,1.61-.07,2.41,0,.2-.02.39-.05.59-.11.59-.28,1.15-.53,1.68-.35.77-1.07,1.21-1.82,1.35-1.6.3-4.02.19-4.85-1.71-.08-.18-.15-.34-.21-.48-.28-1.06-.42-2.13-.41-3.2,0-.3,0-.6,0-.89V2.84c-.01-.06-.06-.11-.11-.11,0,0,0,0,0,0h-.69c-.07,0-.1-.03-.1-.1v-.04c0-.07.03-.1.09-.1l4.69-.02Z"/>
      <path class="cls-1" d="M55,2.51c.98.09,2.32.28,2.96,1.18.41.57.52,1.46.42,2.17-.15,1.09-.89,1.77-1.83,2.04-.31.09-.59.19-.91.23-.04,0-.07.02-.08.05,0,.01,0,.03,0,.04,0,0,0,0,.01,0,.34-.02.68.01,1.01.1.26.07.56.22.84.32.14.05.31.21.53.48.2.34.3.47.38.96l.04.32c-.02.14-.01.27.02.4.03.62-.03,1.27.06,1.89.02.13.06.23.14.3.06.06.15.07.22.02.21-.15.33-.81.4-1.07.03-.1.02-.22.03-.32,0-.09.05-.13.13-.11.11.02.16.09.14.2-.05.33-.12.65-.2.97-.22.68-.64,1.04-1.28,1.09-.92.17-1.94-.05-2.44-.98-.21-.38-.27-.84-.28-1.29-.03-.78.02-1.48-.16-2.16-.27-1-1.21-.92-1.97-.92-.08,0-.14.07-.14.15,0,0,0,0,0,0l.02,1.68v2.93c0,.06.05.1.1.1,0,0,0,0,0,0l.76-.03c.07,0,.09.03.07.1v.03c-.03.07-.08.11-.15.11l-3.71.04h-.89c-.07,0-.1-.04-.1-.12v-.06c0-.06.03-.1.09-.1h.75s.06-.03.06-.07h0s.01-10.29.01-10.29c0-.1-.07-.18-.16-.18h-.63c-.07,0-.11-.04-.12-.12v-.03s.03-.09.07-.09c0,0,0,0,0,0,1.58-.07,3.17-.02,4.75-.03.34,0,.68.03,1.02.05ZM55.29,4.65c-.07-1.37-.91-2.04-2.13-1.93-.05,0-.09.05-.09.11,0,.38,0,.76,0,1.14,0,.67-.02,1.41,0,2.11.01.6-.02,1.34.03,2.02,0,.03.03.06.06.06.54,0,1.18.06,1.65-.34.2-.17.33-.42.38-.68.15-.8.14-1.66.1-2.47Z"/>
      <path class="cls-1" d="M4.73,14.17c.18-.09.35-.22.54-.28.06-.02.12-.04.18-.06.02,0,.03,0,.03.02,0,.03-.01.04-.02.05-.25.08-.47.22-.66.41-.1.1-.2.11-.32.14-.09.02-.1,0-.05-.08.07-.11.24-.15.31-.19Z"/>
      <path class="cls-1" d="M41.6,15c.55.02,1.09.09,1.63.04.02,0,.05.02.05.04,0,0,0,0,0,0-.04.37-.04.75,0,1.12,0,.04,0,.06,0,.07-.02.03-.06.03-.08,0,0,0,0-.01-.01-.02-.3-.71-.75-1.31-1.56-1.18-.6.1-.35.69.05.85.76.31,1.89.51,1.76,1.71-.03.22-.09.4-.19.54-.37.53-.86.58-1.43.5-.35-.05-.69-.05-1.04-.02-.03,0-.06-.02-.06-.05,0,0,0,0,0,0v-1.54s0,0,0-.01c.03-.07.05-.07.06-.02.14.69.61,1.41,1.27,1.6.65.18,1.15-.6.4-.98-.56-.28-1.58-.5-1.73-1.29-.13-.7.23-1.28.88-1.37Z"/>
      <path class="cls-1" d="M55.24,16.11c.01.1.01.19,0,.28-.05.56-.01,1.11-.04,1.67-.01.23.07.4.25.51.06.04.06.06-.01.07-.65.06-1.2.12-1.21-.81,0-.48,0-.97,0-1.46,0-.07-.05-.12-.11-.12,0,0-.02,0-.02,0l-.2.05s-.05,0-.07-.03l-.02-.02s0-.04,0-.05c0,0,0,0,0,0,.44-.16.77-.24,1.1-.68.04-.05.11-.18.22-.38M55.17,15.1s.02-.01.02-.02c.02,0,.04,0,.05.03,0,0,0,.02,0,.02-.05.32-.05.65-.01.97l-.07-1.01Z"/>
      <path class="cls-1" d="M49.75,16.12c.49.05,1.01.33.97.94-.21.55-.68.59-1.16.61-.08,0-.09-.02-.02-.08.19-.15.17-.73.16-.96-.01-.2-.01-.36-.17-.43-.09-.04-.2,0-.24.11-.11.29-.1.8-.08,1.11.03.46-.1,1.09.52,1.16.33.03.6-.07.82-.31.1-.11.11-.28.16-.42,0-.01.02-.02.03-.02,0,0,.01,0,.02.02.03.09-.01.18-.03.25-.18.69-1.07.67-1.56.58-1.28-.26-1.4-2.17-.13-2.51.22-.06.49-.04.74-.05Z"/>
      <path class="cls-1" d="M52.94,16.19c.47.12.89.71.47,1.16-.28.29-.79.31-1.16.35,0,0,0,0,0,0v-.02s0-.03.02-.03c.16-.04.25-.16.27-.37.02-.22.03-.47.01-.76-.02-.32-.38-.47-.43-.12-.03.24-.05.53-.05.85,0,.18.05.39.03.58-.04.44.18.78.59.75.13,0,.27,0,.38-.05.23-.11.39-.31.46-.61,0,0,0-.01.02-.01h.04s.02.01.02.02c0,0,0,0,0,0-.16.84-.81.79-1.52.84l-.57-.26c-.12-.13-.26-.21-.35-.37-.16-.31-.22-.65-.16-1.02.19-.65.63-.97,1.25-.98.24,0,.41-.03.7.06Z"/>
      <ellipse class="cls-1" cx="47.29" cy="16.58" rx=".47" ry=".44" transform="translate(12.4 52.56) rotate(-65.2)"/>
      <path class="cls-1" d="M46.6,16.25c-.05,0-.09.06-.09.12,0,0,0,.02,0,.03.2.58.42,1.13.66,1.66.02.05.05.09.07.13.01.02.01.04,0,.07-.1.25-.09.4-.39.41-.16,0-.32,0-.48,0-.04,0-.08-.03-.09-.07-.28-.72-.54-1.46-.79-2.2,0-.02-.02-.04-.03-.06-.02-.03-.04-.05-.04-.05-.03-.06,0-.09.07-.09l1.23.02s.01,0,.01,0v.02s0,.01-.01.02l-.14.02Z"/>
      <path class="cls-1" d="M43.66,16.18h1.45c.07.01.07.02,0,.05-.1.03-.13.11-.08.23.19.46.37.92.54,1.39.04.1.1.18.15.27.01.02.02.05.01.07-.03.17-.07.42-.25.44-.18.02-.38.03-.61.02-.05,0-.1-.04-.12-.09-.18-.54-.38-1.09-.61-1.65-.1-.24-.11-.69-.5-.67,0,0-.02,0-.02-.01v-.03s0-.02.01-.02Z"/>
    </g>
  </g>
</svg>