<?xml version="1.0" encoding="UTF-8"?>
<svg id="Layer_2" data-name="Layer 2" xmlns="http://www.w3.org/2000/svg" viewBox="0 0 59.53 19.81">
  <defs>
    <style>
      .cls-1 {
        fill: #251f4d;
      }
    </style>
  </defs>
  <g id="Layer_10" data-name="Layer 10">
    <g>
      <polygon class="cls-1" points="59.53 7.4 55.8 0 53.81 0 58.51 9.42 59.53 7.4"/>
      <polygon class="cls-1" points="56.84 8.57 56.84 8.57 54.66 4.2 52.67 4.2 55.86 10.54 52.65 16.97 54.67 16.97 57.86 10.59 56.84 8.57"/>
      <polygon class="cls-1" points="49.96 19.81 54.58 10.58 52.53 10.58 47.97 19.81 49.96 19.81"/>
      <g>
        <g>
          <g>
            <path class="cls-1" d="M29.8,6.06v-.5h.47v-.06c.02-.73.36-1.08,1.04-1.08.27,0,.52.09.78.27-.03.08-.07.22-.16.41h0c-.14-.12-.28-.18-.42-.18-.01,0-.02,0-.03,0-.35,0-.53.2-.55.58v.06s.63,0,.63,0l.48-.06.44.55h-2.68Z"/>
            <path class="cls-1" d="M41.87,3.92c-.29,0-.51-.22-.51-.5s.23-.5.51-.5.51.23.51.5-.22.5-.51.5Z"/>
            <path class="cls-1" d="M44.75,10.55c-.28,0-.5-.22-.5-.5s.22-.49.5-.49c.29,0,.51.22.51.51,0,.27-.23.49-.51.49Z"/>
            <path class="cls-1" d="M42.82,8.79c-.32,0-.6-.08-.81-.24-.22.16-.48.24-.79.24h-6.08c-.32,0-.59-.07-.83-.23-.22.15-.49.23-.8.23h-4.2c-.49,0-.89-.17-1.18-.51-.29-.35-.44-.8-.44-1.34,0-.43.11-.82.33-1.2l.02-.03h.88l-.07.1c-.25.36-.38.69-.38.98,0,.77.3,1.15.92,1.15h3.89c.38,0,.55-.19.55-.59v-2.65l-.17-1.1,1.1-.25v4.08c.02.35.2.52.55.52h5.67c.38,0,.54-.18.54-.59v-.8l-.17-1.12,1.11-.25v2.17c0,.4.17.59.55.59h1.25c.37,0,.54-.19.54-.59v-.82l-.15-1.1,1.09-.25v2.37c0,.76-.5,1.26-1.28,1.26h-1.66Z"/>
          </g>
          <g>
            <path class="cls-1" d="M22.49,10.17l.07-.02c.63-.17.99-.59,1.08-1.31-.28.08-.55.12-.81.12-.43,0-.79-.18-1.07-.54-.26-.32-.39-.72-.39-1.19,0-.59.16-1.08.49-1.46.35-.42.81-.62,1.4-.62h1.34v3.22c0,1.17-.61,1.92-1.82,2.23h-.05s-.23-.44-.23-.44ZM23.28,5.78c-.62,0-.99.5-.99,1.33s.23,1.17.71,1.17c.22,0,.44-.04.66-.12v-2.38h-.38ZM18.59,10.19l.07-.02c.74-.23,1.1-.73,1.1-1.53v-2.08s-.18-1.16-.18-1.16l1.11-.25v3.23c0,1.14-.61,1.89-1.83,2.22h-.05s-.23-.41-.23-.41ZM3.61,8.79c-.44,0-.79-.13-1.06-.41-.28.14-.63.22-1.05.23C.58,8.6.02,7.96.02,6.92c0-.55.18-1,.55-1.33.37-.34.85-.51,1.44-.51h.2l-.04-.36h.05c.39-.11.71-.18.99-.24h.07s0,2.83,0,2.83c0,.42.17.61.54.61h13.19c.37,0,.54-.19.54-.59v-.82l-.15-1.1,1.09-.25v2.37c0,.76-.5,1.26-1.28,1.26H3.61ZM2.24,5.74c-.1,0-.19.01-.28.01-.27,0-.5.1-.69.3-.19.19-.29.43-.29.72,0,.68.24,1.02.7,1.02.23,0,.45-.03.66-.08v-1.97s-.07,0-.1,0Z"/>
            <path class="cls-1" d="M2.62,3.92c-.28,0-.49-.22-.49-.5,0-.27.22-.49.49-.49.29,0,.51.22.51.51,0,.27-.23.49-.51.49Z"/>
            <path class="cls-1" d="M1.2,3.92c-.28,0-.5-.22-.5-.5,0-.27.22-.49.5-.49.29,0,.51.22.51.51,0,.27-.23.49-.51.49Z"/>
            <path class="cls-1" d="M17.48,10.55c-.28,0-.49-.22-.49-.5s.22-.49.49-.49c.29,0,.51.22.51.51,0,.27-.23.49-.51.49Z"/>
          </g>
        </g>
        <g>
          <g>
            <path class="cls-1" d="M29.55,16.14h-1.03v-1.29h1.05c.34,0,.57.11.69.31.05.09.07.2.07.31,0,.38-.26.67-.79.67M28.52,12.87h.79c.47,0,.71.29.71.63,0,.06,0,.12-.02.18-.08.26-.32.41-.67.41h-.8v-1.22ZM30.59,14.33c.22-.22.33-.52.33-.88,0-.82-.64-1.41-1.51-1.41h-1.79v4.95h1.93c.99,0,1.69-.61,1.69-1.48,0-.51-.23-.93-.65-1.18"/>
            <polygon class="cls-1" points="45.85 12.02 44.71 12.02 42.76 14.25 42.76 12.02 41.82 12.02 41.82 16.99 42.76 16.99 42.76 14.62 44.78 16.99 45.95 16.99 43.68 14.41 45.85 12.02"/>
            <path class="cls-1" d="M39.87,12.02v2.96s-2.85-3.02-2.85-3.02c0,0-.02-.01-.03-.01-.02,0-.04.02-.04.04,0,0,0,0,0,0v4.97h.86v-2.91s2.85,2.98,2.85,2.98h0s.02.01.03.01c.02,0,.04-.02.04-.04v-4.99h-.86Z"/>
            <path class="cls-1" d="M33.29,15.2l.62-1.35.61,1.35h-1.23ZM33.94,12h0s-.02-.02-.04-.02-.03.01-.04.03h0l-2.32,4.99h.91s.47-.99.47-.99h1.97l.46.99h.91s-2.32-4.99-2.32-4.99Z"/>
          </g>
          <g>
            <path class="cls-1" d="M17.98,16.13h-1.03v-1.29h1.05c.34,0,.57.11.69.31.05.09.07.2.07.31,0,.38-.26.67-.79.67M16.95,12.86h.79c.47,0,.71.29.71.63,0,.06,0,.12-.02.18-.08.26-.32.41-.67.41h-.8v-1.22ZM19.02,14.32c.22-.22.33-.52.33-.88,0-.82-.64-1.41-1.51-1.41h-1.79v4.95h1.93c.99,0,1.69-.61,1.69-1.48,0-.51-.23-.93-.65-1.18"/>
            <path class="cls-1" d="M13.82,14.89h0c.67-.26,1.02-.79,1.02-1.39,0-.86-.68-1.48-1.62-1.48h-1.65v.07s0,0,0,0v4.89h.9v-2h.44l1.41,2h.97l-1.46-2.08ZM13.14,14.18h-.68v-1.32h.68c.53,0,.79.26.79.67s-.26.65-.79.65Z"/>
            <path class="cls-1" d="M21.78,15.19l.62-1.35.61,1.35h-1.23ZM22.43,11.98h0s-.02-.02-.04-.02-.03.01-.04.03h0l-2.32,4.99h.91l.47-.99h1.97l.46.99h.91l-2.32-4.99Z"/>
            <path class="cls-1" d="M7.95,15.19l.62-1.35.61,1.35h-1.23ZM8.61,11.99s0,0,0,0c0-.01-.02-.02-.04-.02s-.03.01-.04.03h0l-2.32,4.99h.91s.47-.99.47-.99h1.97l.46.99h.91s-2.32-4.99-2.32-4.99Z"/>
            <path class="cls-1" d="M4.73,16.99s.02,0,.02-.01l2.32-4.95h-.91l-1.37,2.93-1.23-2.99s0,0,0,0c0,0-.01-.01-.02-.01s-.02,0-.02.01c0,0,0,0,0,0l-1.23,2.99-1.37-2.94h-.91l2.31,4.95s0,0,0,0c0,0,.01.01.02.01s.02,0,.02-.01c0,0,0,0,0,0l1.17-2.9,1.18,2.9s.01.01.02.01"/>
          </g>
        </g>
      </g>
    </g>
  </g>
</svg>