<?xml version="1.0" encoding="UTF-8"?>
<svg id="Layer_2" data-name="Layer 2" xmlns="http://www.w3.org/2000/svg" viewBox="0 0 59.53 23.91">
  <defs>
    <style>
      .cls-1 {
        fill: #ed1c24;
      }
    </style>
  </defs>
  <g id="Layer_10" data-name="Layer 10">
    <g>
      <path class="cls-1" d="M58.35,1.25c-.04.11-.43.22-.49.36-1.06.31-2.1.77-3.21.97-.74.13-.66-.18-1.11-.53-1.41-1.1-4.62-1.37-5.76.18-.24.32-.25.77-.73.9-1.51.04-3.03-.07-4.53.06-.86-.08-1.75.04-2.62.06-1.18.03-3.3-.24-4.25.4-.62.42-.78.93-.35,1.56.38.56,1.04.67,1.68.7,2.43.12,4.95-.1,7.38,0,.55.07,1.11.62,1.23,1.15.16.76-.22,1.61-.41,2.33-.82,3.15-1.19,5.81-4.63,7.05-1.22.44-2.35.52-3.63.56-10.53.05-21.06-.07-31.59,0-1.17,0-4.06.3-5.01-.16-.41-.2-.42-.33-.15-.69.21-.29.54-.35.82-.53,1.29-.82,2.61-1.87,4.18-2.04.96-.11,1.95-.05,2.91-.06,8.38-.02,16.77.09,25.13.12,2.2,0,4.64.12,6.81,0,.55-.03,1.94-.21,2.38-.47.91-.52,2.07-2.22,1.22-3.19-.08-.09-.44-.3-.55-.32-1.33-.25-3.22-.05-4.63-.08-.78-.02-2.33.01-3.01-.31-.47-.23-.7-.75-.88-1.21-.72-1.76-1.27-3.57-2.06-5.32.05-2.83,3.05-2.23,5.02-2.28,3.54-.08,7.11-.13,10.64-.17,2.62-.03,6.02-.33,8.55.05.33.05,1.54.16,1.64.51.03.11.03.3,0,.41"/>
      <path d="M9.72,12.57s-.14.08-.21.1c-.3.08-2.24.09-2.6.04-.14-.02-.35-.12-.38-.26,0-1.06.2-2.09.29-3.14.08-.83.15-1.66.23-2.5.11-1.1.09-2.4.3-3.48.23-1.2,1.83-2.26,2.99-2.36,3.03-.26,4.29,1.8,5.02,4.34.49,1.71.86,3.46,1.34,5.17.03.1.09.53.6.51.12,0,.23-.07.28-.18.16-2.55.24-5.09.38-7.64.7-1.11,1.69-2.04,2.53-3.05.9-.51.9.54.88,1.16-.13,3.21-.16,6.43-.35,9.64-.01.22-.11,1.49-.17,1.57-.08.1-.37.13-.5.14-1.42.12-3.09-.02-4.54,0-.52,0-1.09.11-1.63.06-.29-.03-.42-.13-.53-.4-.31-.71-.57-2-.8-2.8-.42-1.44-.78-3.2-1.3-4.56-.32-.82-.9-1.1-1.1-.05-.16.82-.17,1.86-.24,2.72-.11,1.37-.13,2.82-.29,4.18-.02.21-.05.63-.19.77"/>
      <path d="M48.4,2.47c1.11-1.12,2.73-.96,4.1-.42,1.12.44,1.49.83,2.02,1.88,1.73,3.43,3.16,7.03,4.88,10.46l.13.33c0,.12-.19.27-.32.26-1.08-.09-2.32.1-3.38,0-.1,0-.19,0-.26-.09l-4.51-10.02c-.28-.04-.4.82-.46.98-.74,2.26-1.41,4.55-2.13,6.82-.24.74-.46,1.49-.75,2.21-.05.08-.12.08-.2.09-.93.12-2.13-.1-3.09,0-.15,0-.34-.15-.31-.31.04-.18.24-.58.31-.8,1.07-3.49,2.21-6.95,3.27-10.44.16-.37.41-.68.69-.96"/>
      <path d="M30.99,2.17c.38.44.61.93.84,1.46,1.13,2.69,1.94,5.62,3.06,8.32.08.26.22.6-.17.64h-3.16s-3.24-8.42-3.24-8.42l-.19.16-3.27,8.22c-.09.09-.31.09-.44.1-.66.04-1.93.07-2.56,0-.26-.03-.4-.15-.37-.42.26-.53.74-1.83.77-1.91.92-2.45,1.84-5.24,2.92-7.6.26-.58.55-.86,1.09-1.17,1.57-.9,3.5-.79,4.72.62"/>
      <rect x="5.43" y="18.31" width="1.07" height="5.49" rx=".28" ry=".28"/>
      <path d="M7.38,18.59c0-.19.09-.28.28-.28h.56c.15,0,.26.07.33.2l1.77,3.27-.02-3.18c-.01-.19.08-.28.28-.28h.49c.19,0,.28.09.28.28v4.93c0,.19-.09.28-.28.28h-.58c-.15,0-.26-.07-.33-.2l-1.76-3.23.02,3.15c0,.19-.09.28-.28.28h-.49c-.19,0-.28-.09-.28-.28v-4.93Z"/>
      <path d="M13.25,19.25h-1.09c-.19,0-.28-.09-.28-.28v-.38c0-.19.09-.28.28-.28h3.26c.19,0,.28.09.28.28v.38c0,.19-.09.28-.28.28h-1.09v4.27c0,.19-.09.28-.28.28h-.51c-.19,0-.28-.09-.28-.28v-4.27Z"/>
      <path d="M16.22,18.59c0-.19.09-.28.28-.28h2.72c.19,0,.28.09.28.28v.38c0,.19-.09.28-.28.28h-1.93v1.29h1.56c.19,0,.28.09.28.28v.37c0,.19-.09.28-.28.28h-1.56v1.38h1.99c.19,0,.28.09.28.28v.38c0,.19-.09.28-.28.28h-2.77c-.19,0-.28-.09-.28-.28v-4.93Z"/>
      <path d="M21.99,21.81h-.67v1.71c0,.19-.09.28-.28.28h-.5c-.19,0-.28-.09-.28-.28v-4.93c0-.19.09-.28.28-.28h1.74c.28,0,.53.04.75.12.22.08.42.19.57.34.16.14.28.32.36.51.09.2.13.41.13.64v.27c0,.34-.09.64-.27.9-.18.26-.43.45-.75.57l.96,1.77c.05.09.05.17.02.24-.03.06-.1.1-.21.12l-.57.06c-.16.02-.28-.04-.35-.19l-.95-1.85ZM21.32,20.88h.96c.24,0,.43-.07.55-.22.13-.15.19-.33.19-.55v-.08c0-.22-.06-.41-.19-.55-.13-.14-.31-.21-.55-.21h-.96v1.62Z"/>
      <path d="M24.87,18.59c0-.19.09-.28.28-.28h.56c.15,0,.26.07.33.2l1.77,3.27-.02-3.18c-.01-.19.08-.28.28-.28h.49c.19,0,.28.09.28.28v4.93c0,.19-.09.28-.28.28h-.58c-.15,0-.26-.07-.33-.2l-1.76-3.23.02,3.15c0,.19-.09.28-.28.28h-.49c-.19,0-.28-.09-.28-.28v-4.93Z"/>
      <path d="M32.49,22.53h-1.67l-.29,1.04c-.05.16-.15.24-.32.24h-.59c-.1,0-.18-.03-.22-.09-.04-.06-.04-.14,0-.24l1.7-4.94c.05-.15.16-.23.32-.23h.49c.16,0,.27.08.32.23l1.7,4.91c.07.2,0,.31-.21.34l-.56.07c-.17.02-.28-.06-.33-.22l-.33-1.1ZM31.07,21.64h1.16l-.58-2.03-.58,2.03Z"/>
      <path d="M34.73,19.25h-1.09c-.19,0-.28-.09-.28-.28v-.38c0-.19.09-.28.28-.28h3.26c.19,0,.28.09.28.28v.38c0,.19-.09.28-.28.28h-1.09v4.27c0,.19-.09.28-.28.28h-.51c-.19,0-.28-.09-.28-.28v-4.27Z"/>
      <rect x="37.7" y="18.31" width="1.07" height="5.49" rx=".28" ry=".28"/>
      <path d="M39.61,19.99c0-.28.05-.53.16-.75.1-.22.25-.41.43-.56.18-.15.39-.27.64-.36.24-.08.5-.13.78-.13s.53.04.77.13c.24.08.46.2.64.36.18.15.33.34.43.56.1.22.16.47.16.75v2.13c0,.28-.05.53-.16.75-.1.22-.25.41-.43.57-.18.15-.4.27-.64.36-.24.08-.5.13-.77.13s-.54-.04-.78-.13c-.24-.08-.46-.2-.64-.36-.18-.15-.32-.34-.43-.57-.1-.22-.16-.47-.16-.75v-2.13ZM40.68,22.02c0,.31.09.55.27.71.18.16.4.24.66.24s.47-.08.65-.24c.18-.16.27-.4.27-.71v-1.92c0-.31-.09-.55-.27-.71-.18-.16-.4-.24-.65-.24s-.47.08-.66.24c-.18.16-.27.4-.27.71v1.92Z"/>
      <path d="M44.45,18.59c0-.19.09-.28.28-.28h.56c.15,0,.26.07.33.2l1.77,3.27-.02-3.18c-.01-.19.08-.28.28-.28h.49c.19,0,.28.09.28.28v4.93c0,.19-.09.28-.28.28h-.58c-.15,0-.26-.07-.33-.2l-1.76-3.23.02,3.15c0,.19-.09.28-.28.28h-.49c-.19,0-.28-.09-.28-.28v-4.93Z"/>
      <path d="M52.07,22.53h-1.67l-.29,1.04c-.05.16-.15.24-.32.24h-.59c-.1,0-.18-.03-.22-.09-.04-.06-.04-.14,0-.24l1.7-4.94c.05-.15.16-.23.32-.23h.49c.16,0,.27.08.32.23l1.7,4.91c.07.2,0,.31-.21.34l-.56.07c-.17.02-.28-.06-.33-.22l-.33-1.1ZM50.65,21.64h1.16l-.58-2.03-.58,2.03Z"/>
      <path d="M54.07,18.59c0-.19.09-.28.28-.28h.5c.19,0,.28.09.28.28v4.27h1.91c.19,0,.28.09.28.28v.38c0,.19-.09.28-.28.28h-2.69c-.19,0-.28-.09-.28-.28v-4.93Z"/>
    </g>
  </g>
</svg>