<?xml version="1.0" encoding="UTF-8"?>
<svg id="Layer_2" data-name="Layer 2" xmlns="http://www.w3.org/2000/svg" xmlns:xlink="http://www.w3.org/1999/xlink" viewBox="0 0 59.53 32.83">
  <defs>
    <style>
      .cls-1 {
        fill: #fce1e7;
      }

      .cls-2 {
        fill: none;
      }

      .cls-3 {
        fill: #f48ba4;
      }

      .cls-4 {
        clip-path: url(#clippath-1);
      }

      .cls-5 {
        fill: #bc254a;
      }

      .cls-6 {
        fill: #f7b1c3;
      }

      .cls-7 {
        fill: #db5a79;
      }

      .cls-8 {
        clip-path: url(#clippath);
      }
    </style>
    <clipPath id="clippath">
      <rect class="cls-2" x="16.99" y="12.66" width="9.41" height="9.26"/>
    </clipPath>
    <clipPath id="clippath-1">
      <rect class="cls-2" x="21.67" y="12.66" width="9.34" height="9.26"/>
    </clipPath>
  </defs>
  <g id="Layer_10" data-name="Layer 10">
    <g>
      <g>
        <path class="cls-6" d="M26.75.93s.01.05.02.08h.04s-.03-.06-.06-.08ZM45.31,5.02s-.02-.04-.03-.06l-.04.04s.04.02.07.02M53.57,24.92s.05.05.07.08l.02-.02s-.05-.05-.09-.06M41.23,3.63s-.04-.03-.06-.05l-.03.04s.05.01.09,0M46.22,5.2s.03.04.05.06l.03-.03s-.04-.03-.08-.03M51.56,26.17s.04.02.06.03c0-.02.01-.05.02-.07-.02,0-.04.02-.08.04M8.6,8.22s.07.03.11.04v-.04s-.06-.01-.11,0M53.27,7.46s-.04-.05-.07-.08l-.02.04s.05.03.09.04M44.64,4.74s-.05.03-.07.05l.05.03s.04-.05.02-.08M47.29,5.48s-.03.05-.04.08c.04-.01.07-.02.11-.03-.01-.02-.03-.03-.07-.05M41.6,3.72s.06.02.09.03c0,0,.02-.04.03-.06-.03,0-.07.01-.12.03M13.5,5.27s.06.04.1.06l.03-.05s-.08-.02-.13,0M35.67,31.63l.04.05s.01-.1.01-.15l-.05-.02s0,.06,0,.12M58.81,13.66s0,.06,0,.09c.04-.01.09-.02.13-.03-.03-.02-.07-.04-.13-.05M54.61,8.93s.08.03.11.04c-.01-.05-.02-.1-.04-.14-.01-.02-.05-.03-.07-.05,0,.04,0,.08,0,.16M46.24,4.91s-.08.07-.12.11l.04.05s.09-.02.1-.04c.02-.04,0-.09-.02-.13M48.7,5.6s-.07.06-.11.09c.04.01.07.04.11.03.06-.01.11-.04.17-.06l-.04-.04s-.07,0-.13-.01M51.43,26.48s-.02.04-.03.06c.02,0,.05,0,.07-.02.16-.09.32-.18.48-.28.03-.02.06-.03.09-.05l-.02-.04s-.08,0-.11.03c-.05.03-.1.06-.14.09-.11.06-.21.12-.33.2M45.19,4.74s-.08.02-.12.03v.03s.09-.04.15-.06c.03,0,.05-.01.08-.02v-.04s-.06.04-.11.06M35.12.64c-.27.02-.52-.01-.78.05-.27.06-.57-.01-.86-.01-.14,0-.29.02-.43.03-.1,0-.21.03-.31.03-.36.01-.73.02-1.09.03-.14,0-.28.04-.42.06-.04,0-.09-.01-.13-.02.02-.03.04-.06.05-.1l-.02-.06s-.1,0-.12.03c-.11.16-.29.15-.45.18-.28.04-.57.06-.85.1-.19.02-.37.06-.56.08-.24.03-.48.04-.71.07-.3.04-.6.11-.9.16-.18.03-.37.03-.55.05-.21.03-.42.08-.64.13-.12.02-.23.07-.35.08-.09.01-.18,0-.22.11,0,.01-.04.02-.07.02-.2.01-.39.02-.59.03h-.01c-.19.22-.44.11-.66.16-.14.03-.28.08-.42.12-.15.04-.3.05-.45.1-.27.08-.53.18-.8.26-.16.04-.29.2-.48.11-.02,0-.04,0-.06,0-.23.08-.45.18-.68.25-.19.06-.39.09-.58.14-.11.03-.22.07-.34.11-.22.07-.42.19-.66.17-.05,0-.12.03-.14.06-.06.13-.16.13-.27.12-.12,0-.22.05-.33.1-.2.09-.42.14-.63.21-.04.01-.09.01-.12.03-.13.07-.25.15-.39.2s-.29.05-.43.11c-.12.05-.22.13-.33.2-.03.02-.06.03-.09.04-.29.09-.59.18-.88.28h-.04c-.16.23-.46.21-.67.35-.08.06-.19.14-.28.12-.29-.04-.44.19-.65.29-.16.07-.34.12-.5.19-.11.05-.21.13-.32.18-.25.13-.49.26-.74.38-.06.03-.13.04-.19.07-.15.08-.29.18-.44.26-.26.14-.53.28-.79.42-.27.14-.54.28-.8.44-.3.18-.58.4-.89.57-.13.07-.26.14-.39.21-.11.06-.2.14-.29.22-.06.05-.14.08-.21.12-.09.05-.17.11-.25.16-.17.11-.34.22-.5.33-.1.07-.19.14-.28.21-.18.13-.37.26-.55.4-.14.1-.27.21-.4.31-.24.18-.49.36-.73.55-.13.11-.25.24-.37.35-.36.31-.73.6-1.07.92-.4.38-.82.74-1.14,1.19-.05.07-.14.11-.2.18-.16.2-.31.4-.47.6-.02.02-.02.04-.04.06-.27.25-.46.56-.66.86-.24.35-.42.73-.65,1.07-.21.31-.3.66-.45.98-.12.25-.2.51-.26.78-.1.41-.18.82-.25,1.23-.09.52-.16,1.04-.16,1.57,0,.42-.02.84,0,1.25.03.37.11.73.18,1.09.05.27.13.54.21.8.11.42.32.81.54,1.18.2.35.42.69.65,1.02.14.2.31.39.47.57.23.24.45.48.7.7.31.27.64.51.97.76.02.02.05.04.07.04.25.03.41.23.62.35.27.15.53.3.79.45.05.03.11.05.14.09.1.12.24.16.37.21.22.09.43.21.65.31.44.19.89.37,1.33.55.19.08.37.19.56.27.2.08.41.13.61.19.2.06.4.12.6.18.24.07.47.14.71.21.42.12.84.26,1.27.37.16.04.33.05.5.08.35.07.7.15,1.04.23.26.06.51.12.77.18.22.04.44.07.66.1.26.04.52.09.79.13.14.02.29.05.44.05.26.01.51.03.77.1.12.04.26,0,.38.02.35.09.72,0,1.05.15.02,0,.04,0,.06,0,.14,0,.29,0,.43,0,.17,0,.35.02.52.03.47.03.94.06,1.41.09.13,0,.26.03.38.03.61.01,1.23.02,1.84.03.2,0,.39.03.59.03.78,0,1.55-.02,2.33-.03.29,0,.57-.02.86-.03.41-.02.82-.04,1.23-.06.33-.02.66-.04.98-.06.34-.02.69-.04,1.03-.06.39-.03.78-.06,1.17-.09.42-.04.84-.08,1.26-.12.34-.03.68-.05,1.02-.09.35-.04.71-.08,1.05-.16.23-.06.47-.05.7-.08.27-.04.55-.08.82-.12.29-.04.59-.08.88-.12.24-.04.49-.08.73-.12.26-.05.52-.1.78-.15.21-.04.41-.08.62-.12.26-.05.52-.1.78-.15.3-.07.6-.14.9-.21.42-.1.83-.2,1.25-.31.38-.1.75-.19,1.13-.31.37-.11.73-.24,1.09-.36.23-.08.46-.16.7-.24.24-.08.48-.14.72-.23.29-.11.58-.25.87-.38.08-.04.17-.06.25-.1.36-.16.73-.31,1.09-.47.05-.02.1-.02.15-.04.29-.14.59-.28.88-.42.42-.2.84-.4,1.26-.61.3-.16.6-.33.89-.5.32-.19.63-.4.94-.6.25-.16.51-.31.75-.48.45-.32.88-.66,1.32-.98.65-.48,1.21-1.06,1.78-1.64.16-.16.35-.32.47-.51.28-.45.7-.78.95-1.26.25-.49.5-.98.7-1.5.17-.45.26-.91.38-1.37.06-.2.05-.42.07-.63.01-.18.03-.37.03-.55,0-.55,0-1.1-.15-1.64-.08-.27-.14-.55-.2-.82-.12-.51-.33-.98-.57-1.43-.14-.27-.26-.54-.43-.78-.21-.31-.46-.6-.7-.89-.16-.19-.33-.37-.51-.54-.35-.32-.7-.64-1.06-.94-.3-.24-.62-.46-.94-.67-.3-.2-.61-.39-.93-.56-.37-.21-.73-.42-1.11-.59-.67-.31-1.35-.59-2.02-.87-.31-.13-.62-.25-.93-.38-.34-.13-.68-.26-1.02-.38-.28-.1-.56-.17-.84-.26-.13-.04-.26-.11-.4-.15-.35-.1-.71-.16-1.04-.28-.38-.14-.77-.19-1.15-.32-.45-.16-.92-.26-1.39-.37-.33-.08-.67-.14-1.01-.22-.18-.04-.36-.09-.55-.12-.25-.05-.5-.08-.74-.12-.21-.03-.42-.07-.63-.1-.18-.03-.36-.05-.55-.09-.09-.02-.18-.05-.27-.06-.11-.02-.23-.02-.34-.03-.02,0-.04-.03-.06-.03-.08-.02-.15-.03-.23-.04-.12-.01-.23-.01-.35-.02-.03,0-.05-.03-.08-.03-.28.05-.55-.07-.82-.06-.04,0-.1-.01-.12-.04-.06-.12-.15-.07-.24-.05-.06.01-.13.02-.17,0-.2-.12-.42-.07-.62-.12-.29-.06-.59-.11-.88-.16-.06-.01-.13-.01-.19-.02.04-.05.09-.1.13-.16.02-.03.01-.08,0-.1-.02-.02-.08-.02-.1,0-.14.12-.24.02-.37-.04-.13-.06-.28-.06-.42-.08-.08-.01-.15-.02-.23-.03-.02,0-.04-.02-.07-.03.02-.03.02-.08.05-.09.1-.04.2-.09.3-.09.43,0,.86.01,1.29.06.46.06.91.11,1.38.12.33,0,.66.1.99.14.05,0,.1,0,.15,0,.35-.05.69.06,1.04.09.27.02.54.05.8.09.32.04.64.1.96.15.11.02.23.02.34.03.38.06.76.12,1.14.2.34.07.67.15,1,.23.41.09.82.18,1.23.28.33.08.67.16,1,.25.34.09.68.19,1.02.3.44.14.87.27,1.31.42.49.17.98.33,1.47.52.53.2,1.04.43,1.57.65.2.08.4.17.6.26.16.07.31.15.47.23.38.19.76.38,1.13.59.25.14.49.29.74.44.23.14.47.27.69.43.23.17.44.37.66.54.07.05.16.08.22.13.19.17.36.35.55.52.08.08.19.13.26.21.4.44.84.85,1.16,1.37.13.22.31.41.44.63.15.26.26.54.39.82.1.21.2.42.3.63.11.23.19.48.22.74,0,.07.07.14.09.21.1.35.21.69.22,1.06,0,.19.07.38.08.56.01.11-.02.22-.03.32,0,.19,0,.38,0,.57,0,.25,0,.5-.14.72-.02.03-.02.07-.01.1.08.22,0,.43-.06.64-.14.48-.27.96-.44,1.42-.11.29-.27.56-.43.83-.25.43-.51.86-.84,1.23-.19.21-.38.42-.52.67-.09.15-.21.29-.33.41-.24.24-.49.45-.73.68-.05.05-.08.14-.13.19-.33.32-.67.64-1.01.95-.26.23-.52.46-.81.64-.11.07-.18.15-.27.21-.47.35-.98.66-1.46,1-.36.26-.75.48-1.13.7-.2.11-.39.24-.59.35-.14.07-.34.02-.41.23-.4.13-.73.4-1.11.57-.51.22-1.01.49-1.52.72-.26.12-.54.19-.82.28-.04.01-.1,0-.12.03-.39.35-.92.37-1.37.58-.19.09-.39.18-.59.24-.21.07-.43.1-.64.16-.12.03-.23.08-.35.12-.12.04-.25.09-.37.09-.16,0-.27.09-.41.13-.19.06-.39.1-.58.16-.11.03-.22.06-.33.09-.19.05-.37.11-.56.17h-.01c-.2.04-.39.08-.59.11-.03,0-.07-.01-.09,0-.35.19-.74.17-1.11.27-.48.13-.98.22-1.48.31-.37.07-.73.12-1.1.19-.29.05-.57.11-.85.15-.26.04-.53.06-.79.1-.32.05-.63.1-.95.15-.19.03-.39.04-.59.06-.31.04-.63.08-.94.12-.15.02-.3.02-.45.03-.46.04-.91.08-1.37.12-.24.02-.47.05-.71.06-.41.02-.83.04-1.24.06-.24.01-.48.04-.72.06-.03,0-.09,0-.1-.01-.06-.18-.11-.02-.16,0-.09.03-.19.04-.29.04-.18.01-.36.03-.54.03-.43.01-.86.02-1.29.03-.29,0-.58.02-.87.03-.2,0-.41.03-.61.03-.28,0-.55,0-.83,0-.18,0-.35.07-.53-.02-.05-.03-.14.02-.21.02-.59,0-1.17-.01-1.76-.03-.41-.01-.82-.03-1.23-.06-.5-.03-1-.08-1.49-.12-.42-.04-.84-.08-1.26-.12-.22-.02-.45,0-.66-.07-.38-.11-.78-.08-1.15-.2-.3-.1-.63-.09-.94-.13-.18-.03-.35-.07-.52-.1-.21-.04-.42-.07-.63-.11-.23-.05-.46-.1-.68-.15-.3-.07-.61-.13-.9-.22-.34-.11-.7-.15-1.04-.28-.21-.08-.43-.13-.64-.23-.1-.04-.23,0-.33-.04-.46-.15-.91-.3-1.37-.46-.14-.05-.26-.14-.39-.19-.43-.18-.87-.34-1.29-.54-.3-.14-.59-.33-.88-.49-.29-.16-.59-.32-.88-.49-.3-.19-.59-.39-.89-.59-.15-.1-.3-.22-.45-.32-.13-.09-.27-.17-.39-.28-.25-.23-.48-.48-.72-.72-.1-.1-.2-.21-.31-.31-.26-.24-.43-.54-.64-.82-.31-.41-.54-.88-.77-1.34-.16-.31-.31-.63-.41-.96-.12-.42-.18-.85-.25-1.27-.12-.68-.11-1.36-.08-2.05.02-.49.12-.97.17-1.46.08-.69.27-1.35.5-2,.14-.42.36-.82.54-1.23.08-.18.14-.37.22-.55.05-.11.13-.21.2-.31.21-.29.41-.59.62-.88.22-.3.44-.59.66-.87.15-.19.3-.37.45-.55.09-.11.2-.2.3-.3.25-.25.48-.52.74-.76.32-.3.65-.58.98-.87.29-.26.57-.53.87-.77.25-.21.53-.4.79-.6.26-.2.52-.4.78-.58.23-.16.47-.31.71-.47.31-.21.62-.42.93-.63.12-.08.23-.15.35-.22.28-.17.56-.35.84-.52.24-.14.49-.27.73-.4.36-.21.72-.42,1.09-.62.11-.06.23-.11.34-.17.07-.04.22-.11.33-.17.21-.1.42-.22.63-.32.16-.08.32-.14.48-.21.14-.06.27-.13.41-.18.09-.03.2-.11.28-.15.38-.16.76-.34,1.14-.49.46-.19.93-.37,1.39-.56.2-.08.38-.19.57-.27.06-.03.12-.02.18-.04.51-.17,1.02-.36,1.54-.53.3-.1.61-.17.91-.27.26-.08.52-.17.79-.24.4-.11.8-.2,1.2-.31.31-.08.61-.18.92-.26.31-.08.62-.14.92-.2.1-.02.2-.04.29-.07.31-.08.62-.16.93-.23.12-.03.25-.02.37-.04.23-.04.46-.09.69-.13.2-.03.39-.05.59-.08.14-.02.29-.02.43-.07.08-.03.14-.12.2-.18.03-.03.07-.06.11-.09,0,.04,0,.08.02.1.02.03.06.08.08.08.32-.05.63-.1.95-.15.15-.02.31-.02.46-.03.19-.02.38-.04.58-.06.37-.04.74-.09,1.11-.12.18-.02.37,0,.55,0,.5-.02,1-.04,1.5-.06.13,0,.26.02.38.03.4.01.81.02,1.22.03.46.01.92.09,1.38.14.21.03.42.04.64.07.27.05.54.12.81.14.25.01.38.27.63.27l.04.06s-.05.06-.07.05c-.11,0-.22-.02-.32-.03-.26-.03-.51-.07-.77-.09-.36-.04-.73-.09-1.09-.08-.21,0-.43-.08-.65.03-.12.06-.29.01-.46.01"/>
        <path class="cls-6" d="M13.01,30.58c-.03.05-.04.1-.06.14-.01-.05-.03-.1-.04-.15v-.02s.07-.08.11-.12c0,.05,0,.1,0,.16Z"/>
        <path class="cls-6" d="M49.27,5.18l.04-.04s-.03.09-.05.13c0,0-.04,0-.06,0,.02-.03.04-.06.07-.1Z"/>
        <path class="cls-6" d="M10.34,13.87s.06.05.09.08c-.04,0-.09-.01-.13-.02.01-.02.02-.04.05-.06Z"/>
        <path class="cls-6" d="M38.3.54s.06-.04.1-.05v.04s-.06.01-.1.01Z"/>
        <path class="cls-6" d="M10.59,21.6s-.04-.02-.06-.04c.03,0,.07-.02.1-.02-.01.02-.03.03-.05.06Z"/>
        <path class="cls-6" d="M25.43,24.93s0,.05,0,.08l-.05-.03s.03-.03.06-.05Z"/>
        <path class="cls-6" d="M48.86,28.95s-.04.04-.06.05l-.03-.04s.05-.01.08-.01Z"/>
        <path class="cls-6" d="M35.26,3.39s-.05-.03-.08-.05l.03-.03s.04.05.05.08Z"/>
        <path class="cls-6" d="M54.25,7.08s-.05,0-.07,0v-.04s.06,0,.08,0h0s-.02.03-.02.03Z"/>
      </g>
      <path class="cls-7" d="M18.53,11.03c.19-.02.37-.09.53-.2.16-.11.28-.26.36-.44.19-.49.24-1.34.15-2.57h.33c.07.01.14,0,.19-.06.05-.05.08-.11.08-.18,0-.07-.02-.13-.07-.19-.05-.05-.11-.08-.18-.08-.22,0-.43-.01-.62-.01h-.03c-.25,0-.49.01-.72.03-.07,0-.13.04-.18.09-.05.05-.07.12-.06.19,0,.07.03.13.09.18.05.05.12.07.19.07.15-.01.3-.02.45-.02.02.36.04.65.04.89,0,.24,0,.5-.02.79-.02.29-.07.52-.14.7-.03.08-.08.14-.17.2-.09.06-.18.1-.29.11-.11.01-.2,0-.28-.04-.08-.04-.14-.1-.18-.17-.01-.03-.02-.05-.02-.08,0-.02-.01-.06-.02-.1,0-.05-.02-.09-.03-.15-.02-.07-.06-.13-.12-.16-.06-.04-.13-.05-.2-.03-.07.02-.13.05-.16.11-.04.06-.05.13-.03.2,0,0,0,.03.02.09,0,.06.02.12.04.18.02.06.03.11.05.15.09.2.23.34.41.42.18.08.38.11.58.09Z"/>
      <path class="cls-7" d="M23.08,10.52c-.23-.05-.42-.13-.57-.26-.16-.13-.26-.31-.32-.52-.05-.22-.07-.45-.04-.69.04-.36.16-.64.37-.86.21-.22.41-.34.61-.37.11-.01.2-.02.26-.02.06,0,.12,0,.17,0,.07,0,.12,0,.17.02.05.01.11.03.19.06.17.07.31.18.43.34.12.16.19.34.22.55.03.21.02.43-.04.67-.09.39-.27.68-.55.88-.28.2-.58.26-.9.2ZM23,11.06c.25.03.49.02.72-.04.24-.06.44-.16.62-.3.18-.14.33-.31.44-.51.11-.2.19-.41.25-.62.05-.22.08-.44.08-.66,0-.22-.04-.44-.11-.64-.07-.2-.18-.38-.34-.55-.16-.17-.36-.29-.6-.37-.1-.03-.24-.06-.41-.08-.09-.01-.18-.01-.26-.01-.18,0-.37.03-.55.08-.18.05-.35.13-.48.23-.14.11-.26.24-.36.39-.1.15-.19.31-.25.48-.06.17-.1.35-.12.53-.02.14-.02.29,0,.44.01.15.03.3.07.45.03.14.09.28.17.42.08.13.17.25.27.36.1.1.23.19.38.26.15.07.32.12.5.14Z"/>
      <path class="cls-7" d="M28.26,11.05c.46-.01.78-.01.97-.01.07,0,.14-.02.19-.07.05-.05.08-.11.08-.18s-.02-.14-.07-.19c-.05-.05-.11-.08-.18-.08-.2,0-.48,0-.85,0-.37,0-.65,0-.83,0,0-.22,0-.52-.01-.91,0-.39-.02-.74-.02-1.07s0-.66,0-1.01c0-.07-.03-.13-.08-.19-.05-.05-.11-.08-.19-.08s-.14.03-.19.08-.08.11-.08.19c0,.47,0,1.07.02,1.81.01.74.02,1.21.03,1.41v.05c0,.07.03.13.08.18.05.05.11.07.17.08.19.01.51.01.97,0Z"/>
      <path class="cls-7" d="M31.16,11.05c.21,0,.45-.01.72-.01.07,0,.13-.03.19-.08.05-.05.08-.11.08-.19s-.03-.13-.08-.19c-.05-.05-.11-.08-.19-.08h-.1c0-1.08,0-1.97-.01-2.69h.04c.07,0,.14-.03.19-.08.05-.05.08-.11.08-.18s-.03-.13-.08-.19c-.05-.05-.11-.08-.18-.08-.25,0-.47,0-.65-.01-.07,0-.14.02-.19.07-.05.05-.08.11-.08.18s.02.14.07.19c.05.05.11.08.18.08h.08c0,.72.01,1.62.01,2.7h-.11c-.07,0-.13.04-.18.09-.05.05-.07.11-.07.19,0,.07.03.13.08.18.05.05.11.07.19.07Z"/>
      <path class="cls-7" d="M36.48,11.02c.07,0,.13-.03.18-.08.05-.05.07-.11.07-.19s-.03-.13-.08-.18c-.05-.05-.11-.07-.19-.07-.46,0-1.12,0-1.97-.01,0-.21,0-.57,0-1.06.17-.01.36-.02.55-.02s.41,0,.66,0c.25,0,.43,0,.55,0,.07,0,.13-.03.19-.08.05-.05.08-.11.08-.19s-.03-.13-.08-.19c-.05-.05-.11-.08-.19-.08-.12,0-.3,0-.55,0-.25,0-.46,0-.66,0s-.38,0-.55.02v-.21c0-.08,0-.23,0-.45,0-.22,0-.35,0-.4.24,0,.57,0,1.01-.01.44,0,.75,0,.93,0,.07,0,.13-.03.19-.08.05-.05.08-.11.08-.19s-.03-.13-.08-.19c-.05-.05-.11-.08-.19-.08-.17,0-.5,0-.98,0-.48,0-.85,0-1.1.02-.07,0-.12.03-.17.07-.05.01-.09.04-.13.08-.03.04-.06.08-.06.13-.02.11-.03.23-.03.36,0,.13,0,.26,0,.41,0,.15,0,.25,0,.31,0,.16,0,.46,0,.91s0,.79-.01,1.02c0,.05.01.09.03.13,0,.07.03.13.08.18.05.05.11.08.18.08,1.01.02,1.75.02,2.22.02Z"/>
      <g class="cls-8">
        <path class="cls-5" d="M26.03,17.86c-.07,0-.14.02-.21.02-.65,0-1.21-.42-1.4-1-.03-.1-.11-.18-.22-.2-1.08-.2-1.9-1.14-1.9-2.27,0-.47.15-.91.39-1.28.06-.09,0-.2-.09-.22-.29-.06-.58-.09-.89-.09-2.51,0-4.55,2.01-4.55,4.48,0,2.47,2.04,4.48,4.55,4.48,2.26,0,4.13-1.62,4.49-3.76.02-.1-.07-.18-.17-.16Z"/>
        <path class="cls-3" d="M20.25,15.86c0,.08-.01.15-.04.22-.03.07-.07.13-.13.19s-.12.1-.19.13c-.07.03-.15.04-.22.04-.08,0-.15-.01-.22-.04-.07-.03-.14-.07-.19-.13s-.1-.12-.13-.19c-.03-.07-.04-.14-.04-.22s.01-.15.04-.22c.03-.07.07-.13.13-.19s.12-.1.19-.13c.07-.03.15-.04.22-.04s.15.01.22.04c.07.03.14.07.19.13.05.05.1.12.13.19.03.07.04.14.04.22Z"/>
        <path class="cls-3" d="M20.4,18.75c0,.06-.01.11-.03.17s-.05.1-.1.14c-.04.04-.09.07-.14.09-.05.02-.11.03-.17.03s-.11-.01-.17-.03c-.05-.02-.1-.05-.14-.09-.04-.04-.07-.09-.1-.14s-.03-.11-.03-.17.01-.11.03-.17.05-.1.1-.14c.04-.04.09-.07.14-.09.05-.02.11-.03.17-.03s.11.01.17.03c.05.02.1.05.14.09.04.04.07.09.1.14s.03.11.03.17Z"/>
        <path class="cls-5" d="M23.6,13.99l-.04.25c-.03.2.08.4.28.48l.37.14c.25.09.52-.05.58-.3l.13-.52c.08-.33-.23-.62-.55-.52l-.46.14c-.16.05-.28.18-.31.34Z"/>
        <path class="cls-5" d="M25.09,15.57l-.18.09c-.14.07-.2.23-.14.37l.14.33c.09.2.35.24.49.07l.23-.27c.11-.13.08-.32-.05-.42l-.19-.14c-.09-.07-.21-.08-.31-.03Z"/>
        <path class="cls-5" d="M26.26,14.7s0,.08-.02.11-.04.07-.06.09c-.03.03-.06.05-.1.06-.04.01-.07.02-.11.02s-.08,0-.11-.02c-.04-.01-.07-.04-.1-.06-.03-.03-.05-.06-.06-.09-.01-.04-.02-.07-.02-.11s0-.08.02-.11c.01-.04.04-.07.06-.09.03-.03.06-.05.1-.06.04-.01.07-.02.11-.02s.08,0,.11.02c.04.01.07.04.1.06.03.03.05.06.06.09.01.04.02.07.02.11Z"/>
        <path class="cls-7" d="M22.27,21.24c-2.51,0-4.55-2.01-4.55-4.48,0-1.1.4-2.11,1.07-2.89-.99.82-1.62,2.05-1.62,3.43,0,2.47,2.04,4.48,4.55,4.48,1.4,0,2.64-.62,3.48-1.59-.79.66-1.81,1.05-2.93,1.05Z"/>
        <path class="cls-7" d="M24.28,14.52c-.25-.09-.39-.34-.35-.6l.05-.3-.07.02c-.16.05-.28.18-.31.34l-.04.25c-.03.2.08.4.28.48l.37.14c.2.07.41,0,.52-.17l-.45-.17Z"/>
        <path class="cls-7" d="M25.23,16.17l-.16-.37c-.03-.07-.03-.14-.01-.21l-.14.07c-.14.07-.2.23-.14.37l.14.33c.09.2.35.24.49.07l.06-.07c-.1-.02-.19-.08-.24-.19Z"/>
        <path class="cls-7" d="M19.97,16.13c-.32,0-.59-.26-.59-.58,0-.08.02-.16.05-.23-.21.09-.36.29-.36.53,0,.32.26.58.59.58.24,0,.45-.15.54-.35-.07.03-.15.05-.23.05Z"/>
        <path class="cls-7" d="M20.19,18.95c-.24,0-.44-.19-.44-.43,0-.06.01-.12.04-.17-.16.07-.27.22-.27.4,0,.24.2.43.44.43.18,0,.34-.11.4-.26-.05.02-.11.04-.17.04Z"/>
        <path class="cls-3" d="M23.33,19.18c0,.08-.01.15-.04.22-.03.07-.07.13-.13.19-.05.05-.12.1-.19.13-.07.03-.15.04-.22.04s-.15-.01-.22-.04c-.07-.03-.14-.07-.19-.13s-.1-.12-.13-.19c-.03-.07-.04-.14-.04-.22s.01-.15.04-.22c.03-.07.07-.13.13-.19.05-.05.12-.1.19-.13.07-.03.15-.04.22-.04s.15.01.22.04c.07.03.14.07.19.13s.1.12.13.19c.03.07.04.14.04.22Z"/>
        <path class="cls-7" d="M23.05,19.45c-.32,0-.59-.26-.59-.58,0-.08.02-.16.05-.23-.21.09-.36.29-.36.53,0,.32.26.58.59.58.24,0,.45-.15.54-.35-.07.03-.15.05-.23.05Z"/>
        <path class="cls-3" d="M21.86,16.58s0,.08-.02.11-.04.07-.06.09c-.03.03-.06.05-.1.06-.04.01-.07.02-.11.02s-.08,0-.11-.02c-.04-.01-.07-.04-.1-.06-.03-.03-.05-.06-.06-.09s-.02-.07-.02-.11,0-.08.02-.11.04-.07.06-.09c.03-.03.06-.05.1-.06.04-.01.07-.02.11-.02s.08,0,.11.02c.04.01.07.04.1.06.03.03.05.06.06.09s.02.07.02.11Z"/>
        <path class="cls-1" d="M19.66,16.3c-.25,0-.45-.2-.45-.44s.2-.44.45-.44.45.2.45.44-.2.44-.45.44ZM19.66,15.14c-.4,0-.72.32-.72.71s.32.71.72.71.72-.32.72-.71-.32-.71-.72-.71Z"/>
        <path class="cls-1" d="M22.74,18.74c.25,0,.45.2.45.44s-.2.44-.45.44-.45-.2-.45-.44.2-.44.45-.44ZM22.02,19.18c0,.39.32.71.72.71s.72-.32.72-.71-.32-.71-.72-.71-.72.32-.72.71Z"/>
        <path class="cls-1" d="M19.96,19.04c-.17,0-.3-.13-.3-.3s.14-.3.3-.3.3.13.3.3-.14.3-.3.3ZM19.96,18.18c-.32,0-.58.26-.58.57s.26.57.58.57.58-.26.58-.57-.26-.57-.58-.57Z"/>
        <path class="cls-1" d="M21.57,16.42c.09,0,.16.07.16.15s-.07.15-.16.15-.16-.07-.16-.15.07-.15.16-.15ZM21.14,16.58c0,.23.19.42.43.42s.43-.19.43-.42-.19-.42-.43-.42-.43.19-.43.42Z"/>
        <path class="cls-1" d="M24.36,18.74s.04,0,.06-.01c.07-.03.1-.11.06-.18l-.15-.29c-.03-.07-.12-.09-.18-.06-.07.03-.1.11-.06.18l.15.29s.07.07.12.07Z"/>
        <path class="cls-1" d="M22.74,17.87s.04,0,.06-.01l.29-.14c.07-.03.1-.11.06-.18-.03-.07-.12-.09-.18-.06l-.29.14c-.07.03-.1.11-.06.18.02.05.07.07.12.07Z"/>
        <path class="cls-1" d="M18.66,17.51s.07.07.12.07c.02,0,.04,0,.06-.01.07-.03.1-.11.06-.18l-.15-.29c-.03-.07-.12-.09-.18-.06-.07.03-.1.11-.06.18l.15.29Z"/>
        <path class="cls-1" d="M20.92,19.78l-.29.14c-.07.03-.1.11-.06.18.02.05.07.07.12.07.02,0,.04,0,.06-.01l.29-.14c.07-.03.1-.11.06-.18-.03-.07-.12-.09-.18-.06Z"/>
        <path class="cls-1" d="M21.08,14.31l-.15-.14c-.05-.05-.14-.05-.19,0-.05.05-.05.14,0,.19l.15.14s.06.04.1.04.07-.01.1-.04c.05-.05.05-.14,0-.19Z"/>
        <path class="cls-1" d="M20.45,17.49c-.05.05-.05.14,0,.19l.15.14s.06.04.1.04.07-.01.1-.04c.05-.05.05-.14,0-.19l-.15-.14c-.05-.05-.14-.05-.19,0Z"/>
        <path class="cls-1" d="M22.16,20.63v.14c0,.07.06.14.14.14s.14-.06.14-.14v-.14c0-.07-.06-.14-.14-.14s-.14.06-.14.14Z"/>
        <path class="cls-1" d="M21.52,15.37l.15-.14c.05-.05.05-.14,0-.19-.05-.05-.14-.05-.19,0l-.15.14c-.05.05-.05.14,0,.19.03.03.06.04.1.04s.07-.01.1-.04Z"/>
        <path class="cls-1" d="M23.7,14.26l.04-.25c.02-.11.1-.2.21-.24l.46-.14s.06-.01.09-.01c.08,0,.15.03.21.08.08.08.11.18.08.29l-.13.52c-.02.08-.08.15-.15.19-.08.04-.17.05-.25.02l-.37-.14c-.14-.05-.22-.19-.19-.33ZM23.79,14.84l.37.14c.07.02.13.04.2.04.09,0,.18-.02.27-.07.15-.08.25-.21.29-.37l.13-.52c.05-.2,0-.41-.16-.55-.15-.14-.36-.19-.56-.13l-.46.14c-.21.06-.37.24-.4.45l-.04.25c-.05.27.11.53.37.63Z"/>
        <path class="cls-1" d="M25.15,15.69s.05-.02.07-.02c.03,0,.07.01.09.03l.19.14s.06.06.06.11c0,.04,0,.08-.04.12l-.23.27s-.09.06-.14.05c-.05,0-.1-.04-.12-.09l-.14-.33c-.03-.07,0-.16.07-.2l.18-.09ZM24.85,15.53c-.2.1-.29.34-.2.55l.14.33c.06.14.18.23.33.25.02,0,.04,0,.06,0,.13,0,.25-.05.33-.15l.23-.27c.08-.09.11-.2.1-.32-.01-.12-.07-.22-.17-.29l-.19-.14c-.13-.1-.3-.11-.45-.04l-.18.09Z"/>
        <path class="cls-1" d="M25.97,14.55c.09,0,.16.07.16.15s-.07.15-.16.15-.16-.07-.16-.15.07-.15.16-.15ZM25.97,15.12c.24,0,.43-.19.43-.42s-.19-.42-.43-.42-.43.19-.43.42.19.42.43.42Z"/>
        <path class="cls-1" d="M26.01,17.73c-.06,0-.13.01-.19.01-.58,0-1.09-.37-1.26-.91-.05-.15-.17-.26-.32-.29-1.04-.2-1.79-1.09-1.79-2.14,0-.43.13-.85.37-1.21.05-.08.06-.18.03-.26-.04-.09-.11-.15-.21-.17-.47-.09-.95-.11-1.42-.06-.96.1-1.85.49-2.58,1.12-.06.05-.06.13-.01.19s.14.06.19.01c.69-.6,1.53-.96,2.42-1.06.45-.05.9-.03,1.34.06h0s0,.02,0,.02c-.27.4-.42.87-.42,1.36,0,1.17.85,2.18,2.02,2.4.05,0,.1.05.11.1.21.66.83,1.1,1.53,1.1.08,0,.15,0,.23-.02h.02c-.13.81-.49,1.56-1.04,2.17-.05.06-.04.14.01.19.03.02.06.03.09.03.04,0,.08-.02.1-.05.58-.65.96-1.45,1.1-2.3.01-.09-.01-.17-.08-.24-.06-.06-.16-.1-.25-.08Z"/>
        <path class="cls-1" d="M24.62,20.57c-.8.7-1.84,1.08-2.91,1.08-.62,0-1.21-.12-1.77-.37-.54-.24-1.02-.57-1.43-1-.41-.43-.72-.92-.93-1.46-.21-.57-.31-1.16-.27-1.78.06-.95.44-1.88,1.09-2.61.05-.06.04-.14-.01-.19-.06-.05-.14-.04-.19.01-.69.77-1.1,1.76-1.16,2.77-.04.65.06,1.29.29,1.89.22.58.55,1.1.98,1.55.43.45.94.81,1.52,1.06.6.26,1.23.39,1.89.39,1.14,0,2.24-.41,3.09-1.15.06-.05.06-.13.01-.19-.05-.06-.14-.06-.19-.01Z"/>
      </g>
      <path class="cls-5" d="M15.05,22.06c.17-.02.33-.05.49-.1.16-.03.33-.09.5-.18.12-.05.23-.11.34-.17.11-.06.21-.14.3-.22.08-.08.16-.17.24-.26.08-.09.15-.18.21-.28.09-.14.08-.27-.05-.38-.06-.04-.11-.09-.17-.13-.05-.05-.11-.09-.18-.13-.13-.11-.27-.2-.4-.29-.08-.06-.17-.07-.28-.03-.08.03-.16.08-.23.13-.07.05-.13.1-.2.14-.05.03-.1.06-.14.09-.05.03-.1.05-.16.07-.03,0-.07.02-.11.04-.04.02-.08.03-.12.05-.03,0-.06.01-.09.01s-.05,0-.09.01c-.08,0-.15,0-.22-.02-.07-.02-.14-.04-.22-.06-.12-.03-.21-.07-.29-.13-.06-.04-.11-.09-.17-.13-.05-.05-.11-.09-.17-.12-.14-.08-.24-.19-.3-.33-.03-.05-.05-.1-.09-.14-.03-.05-.06-.09-.09-.14-.03-.09-.07-.19-.11-.28-.04-.1-.07-.19-.11-.29-.03-.06-.05-.12-.07-.18-.02-.06-.04-.12-.04-.18-.03-.19-.04-.38-.04-.56,0-.24,0-.48.01-.71,0-.23.04-.46.09-.7.02-.07.03-.13.04-.2.01-.07.03-.13.04-.19.03-.08.05-.15.08-.23.03-.08.06-.15.09-.23.06-.18.14-.33.24-.43.16-.2.36-.34.61-.43.03-.02.06-.03.09-.04.03,0,.06-.02.09-.03.12-.03.23-.05.35-.04.12,0,.23.04.34.09.08.04.15.1.21.16.06.07.12.13.18.2.03.03.05.06.08.09.03.03.05.06.08.08.07.05.12.08.16.08s.1-.03.18-.09c.02-.02.04-.03.06-.05.02-.02.04-.03.06-.04.07-.04.13-.09.19-.13.06-.05.12-.09.18-.12.07-.04.13-.09.18-.14.05-.05.1-.11.14-.17.04-.05.08-.1.1-.16.03-.05.03-.11.01-.17-.05-.17-.14-.31-.26-.44-.04-.04-.09-.08-.14-.13-.05-.04-.11-.08-.17-.13-.08-.07-.16-.13-.24-.2-.09-.07-.18-.13-.27-.18-.16-.09-.32-.17-.49-.23-.17-.06-.35-.09-.54-.09h-.19c-.06,0-.13,0-.19.03-.06,0-.11.02-.16.04-.05.02-.1.03-.15.05-.18.07-.37.14-.54.23-.18.08-.35.19-.51.31-.14.12-.28.24-.41.37-.13.13-.25.27-.36.42-.09.13-.17.27-.24.41-.07.14-.13.28-.19.43-.04.11-.08.22-.11.32-.03.1-.07.21-.1.31-.03.12-.06.24-.09.36-.03.12-.05.24-.06.36,0,.05-.02.1-.03.14,0,.05-.02.09-.03.14,0,.03-.02.05-.03.08,0,.03-.02.05-.03.09,0,.1-.02.2-.04.29-.02.1-.03.19-.04.29,0,.13-.01.27,0,.4,0,.13.01.27.03.41.02.09.03.19.05.29.02.1.03.2.05.29.02.07.03.14.05.21.02.08.03.15.05.21.02.05.04.1.06.16.02.05.04.11.04.16.02.07.04.13.07.2.03.07.06.13.09.2.02.03.04.07.06.1.03.03.05.07.06.11.07.13.14.25.21.38.08.13.15.25.24.36.19.25.43.46.73.64.04.02.08.03.11.05.03.02.07.03.1.05.07.03.14.05.21.07.07.02.14.04.22.07.12.03.23.06.35.08.12.02.24.03.36.02h.13c.17,0,.33,0,.5-.01Z"/>
      <g class="cls-4">
        <path class="cls-5" d="M21.98,17.86c.07,0,.14.02.21.02.65,0,1.21-.42,1.4-1,.03-.1.11-.18.22-.2,1.08-.2,1.9-1.14,1.9-2.27,0-.47-.15-.91-.39-1.28-.06-.09,0-.2.09-.22.29-.06.58-.09.89-.09,2.51,0,4.55,2.01,4.55,4.48s-2.04,4.48-4.55,4.48c-2.26,0-4.13-1.62-4.49-3.76-.02-.1.07-.18.17-.16Z"/>
        <path class="cls-7" d="M27.76,15.86c0,.08.01.15.04.22.03.07.07.13.13.19.05.05.12.1.19.13.07.03.15.04.22.04s.15-.01.22-.04c.07-.03.14-.07.19-.13.05-.05.1-.12.13-.19.03-.07.04-.14.04-.22s-.01-.15-.04-.22c-.03-.07-.07-.13-.13-.19-.06-.05-.12-.1-.19-.13-.07-.03-.15-.04-.22-.04s-.15.01-.22.04c-.07.03-.14.07-.19.13-.05.05-.1.12-.13.19-.03.07-.04.14-.04.22Z"/>
        <path class="cls-7" d="M27.61,18.75c0,.06.01.11.03.17.02.05.05.1.1.14.04.04.09.07.14.09.05.02.11.03.17.03s.11-.01.17-.03c.05-.02.1-.05.14-.09.04-.04.07-.09.1-.14.02-.05.03-.11.03-.17s-.01-.11-.03-.17c-.02-.05-.05-.1-.1-.14-.04-.04-.09-.07-.14-.09-.05-.02-.11-.03-.17-.03s-.11.01-.17.03c-.05.02-.1.05-.14.09-.04.04-.07.09-.1.14-.02.05-.03.11-.03.17Z"/>
        <path class="cls-5" d="M24.4,13.99l.04.25c.03.2-.08.4-.28.48l-.37.14c-.25.09-.52-.05-.58-.3l-.13-.52c-.08-.33.23-.62.55-.52l.46.14c.16.05.28.18.31.34Z"/>
        <path class="cls-5" d="M22.92,15.57l.18.09c.14.07.2.23.14.37l-.14.33c-.09.2-.35.24-.49.07l-.23-.27c-.11-.13-.08-.32.05-.42l.19-.14c.09-.07.21-.08.31-.03Z"/>
        <path class="cls-5" d="M21.75,14.7s0,.08.02.11c.01.04.04.07.06.09.03.03.06.05.1.06s.07.02.11.02.08,0,.11-.02c.04-.01.07-.04.1-.06s.05-.06.06-.09.02-.07.02-.11,0-.08-.02-.11-.04-.07-.06-.09-.06-.05-.1-.06c-.04-.01-.07-.02-.11-.02s-.08,0-.11.02c-.04.01-.07.04-.1.06-.03.03-.05.06-.06.09-.01.04-.02.07-.02.11Z"/>
        <path class="cls-7" d="M25.74,21.24c2.51,0,4.55-2.01,4.55-4.48,0-1.1-.4-2.11-1.07-2.89.99.82,1.62,2.05,1.62,3.43,0,2.47-2.04,4.48-4.55,4.48-1.4,0-2.64-.62-3.48-1.59.79.66,1.81,1.05,2.93,1.05Z"/>
        <path class="cls-7" d="M23.73,14.52c.25-.09.39-.34.35-.6l-.05-.3.07.02c.16.05.28.18.31.34l.04.25c.03.2-.08.4-.28.48l-.37.14c-.2.07-.41,0-.52-.17l.45-.17Z"/>
        <path class="cls-7" d="M22.78,16.17l.16-.37c.03-.07.03-.14.01-.21l.14.07c.14.07.2.23.14.37l-.14.33c-.09.2-.35.24-.49.07l-.06-.07c.1-.02.19-.08.24-.19Z"/>
        <path class="cls-3" d="M28.03,16.13c.32,0,.59-.26.59-.58,0-.08-.02-.16-.05-.23.21.09.36.29.36.53,0,.32-.26.58-.59.58-.24,0-.45-.15-.54-.35.07.03.15.05.23.05Z"/>
        <path class="cls-3" d="M27.82,18.95c.24,0,.44-.19.44-.43,0-.06-.01-.12-.04-.17.16.07.27.22.27.4,0,.24-.2.43-.44.43-.18,0-.34-.11-.4-.26.05.02.11.04.17.04Z"/>
        <path class="cls-7" d="M24.68,19.18c0,.08.01.15.04.22.03.07.07.13.13.19s.12.1.19.13.15.04.22.04.15-.01.22-.04.14-.07.19-.13.1-.12.13-.19c.03-.07.04-.14.04-.22s-.01-.15-.04-.22c-.03-.07-.07-.13-.13-.19s-.12-.1-.19-.13c-.07-.03-.15-.04-.22-.04s-.15.01-.22.04c-.07.03-.14.07-.19.13s-.1.12-.13.19c-.03.07-.04.14-.04.22Z"/>
        <path class="cls-3" d="M24.95,19.45c.32,0,.59-.26.59-.58,0-.08-.02-.16-.05-.23.21.09.36.29.36.53,0,.32-.26.58-.59.58-.24,0-.45-.15-.54-.35.07.03.15.05.23.05Z"/>
        <path class="cls-7" d="M26.15,16.58s0,.08.02.11c.01.04.04.07.06.09.03.03.06.05.1.06.04.01.07.02.11.02s.08,0,.11-.02.07-.04.1-.06c.03-.03.05-.06.06-.09.01-.04.02-.07.02-.11s0-.08-.02-.11c-.01-.04-.04-.07-.06-.09-.03-.03-.06-.05-.1-.06-.04-.01-.07-.02-.11-.02s-.08,0-.11.02c-.04.01-.07.04-.1.06-.03.03-.05.06-.06.09-.01.04-.02.07-.02.11Z"/>
        <path class="cls-1" d="M28.34,16.3c.25,0,.45-.2.45-.44s-.2-.44-.45-.44-.45.2-.45.44.2.44.45.44ZM28.34,15.14c.4,0,.72.32.72.71s-.32.71-.72.71-.72-.32-.72-.71.32-.71.72-.71Z"/>
        <path class="cls-1" d="M25.26,18.74c-.25,0-.45.2-.45.44s.2.44.45.44.45-.2.45-.44-.2-.44-.45-.44ZM25.99,19.18c0,.39-.32.71-.72.71s-.72-.32-.72-.71.32-.71.72-.71.72.32.72.71Z"/>
        <path class="cls-1" d="M28.05,19.04c.17,0,.3-.13.3-.3s-.14-.3-.3-.3-.3.13-.3.3.14.3.3.3ZM28.05,18.18c.32,0,.58.26.58.57s-.26.57-.58.57-.58-.26-.58-.57.26-.57.58-.57Z"/>
        <path class="cls-1" d="M26.44,16.42c-.09,0-.16.07-.16.15s.07.15.16.15.16-.07.16-.15-.07-.15-.16-.15ZM26.87,16.58c0,.23-.19.42-.43.42s-.43-.19-.43-.42.19-.42.43-.42.43.19.43.42Z"/>
        <path class="cls-1" d="M23.65,18.74s-.04,0-.06-.01c-.07-.03-.1-.11-.06-.18l.15-.29c.03-.07.12-.09.18-.06.07.03.1.11.06.18l-.15.29s-.07.07-.12.07Z"/>
        <path class="cls-1" d="M25.26,17.87s-.04,0-.06-.01l-.29-.14c-.07-.03-.1-.11-.06-.18.03-.07.12-.09.18-.06l.29.14c.07.03.1.11.06.18-.02.05-.07.07-.12.07Z"/>
        <path class="cls-1" d="M29.35,17.51s-.07.07-.12.07c-.02,0-.04,0-.06-.01-.07-.03-.1-.11-.06-.18l.15-.29c.03-.07.12-.09.18-.06.07.03.1.11.06.18l-.15.29Z"/>
        <path class="cls-1" d="M27.08,19.78l.29.14c.07.03.1.11.06.18-.02.05-.07.07-.12.07-.02,0-.04,0-.06-.01l-.29-.14c-.07-.03-.1-.11-.06-.18.03-.07.12-.09.18-.06Z"/>
        <path class="cls-1" d="M26.93,14.31l.15-.14c.05-.05.14-.05.19,0,.05.05.05.14,0,.19l-.15.14s-.06.04-.1.04-.07-.01-.1-.04c-.05-.05-.05-.14,0-.19Z"/>
        <path class="cls-1" d="M27.56,17.49c.05.05.05.14,0,.19l-.15.14s-.06.04-.1.04-.07-.01-.1-.04c-.05-.05-.05-.14,0-.19l.15-.14c.05-.05.14-.05.19,0Z"/>
        <path class="cls-1" d="M25.84,20.63v.14c0,.07-.06.14-.14.14s-.14-.06-.14-.14v-.14c0-.07.06-.14.14-.14s.14.06.14.14Z"/>
        <path class="cls-1" d="M26.49,15.37l-.15-.14c-.05-.05-.05-.14,0-.19.05-.05.14-.05.19,0l.15.14c.05.05.05.14,0,.19-.03.03-.06.04-.1.04s-.07-.01-.1-.04Z"/>
        <path class="cls-1" d="M24.31,14.26l-.04-.25c-.02-.11-.1-.2-.21-.24l-.46-.14s-.06-.01-.09-.01c-.08,0-.15.03-.21.08-.08.08-.11.18-.08.29l.13.52c.02.08.08.15.15.19.08.04.17.05.25.02l.37-.14c.14-.05.22-.19.19-.33ZM24.21,14.84l-.37.14c-.07.02-.13.04-.2.04-.09,0-.18-.02-.27-.07-.15-.08-.25-.21-.29-.37l-.13-.52c-.05-.2,0-.41.16-.55.15-.14.36-.19.56-.13l.46.14c.21.06.37.24.4.45l.04.25c.05.27-.11.53-.37.63Z"/>
        <path class="cls-1" d="M22.86,15.69s-.05-.02-.07-.02c-.03,0-.07.01-.09.03l-.19.14s-.06.06-.06.11,0,.08.04.12l.23.27s.09.06.14.05c.05,0,.1-.04.12-.09l.14-.33c.03-.07,0-.16-.07-.2l-.18-.09ZM23.16,15.53c.2.1.29.34.2.55l-.14.33c-.06.14-.18.23-.33.25-.02,0-.04,0-.06,0-.13,0-.25-.05-.33-.15l-.23-.27c-.08-.09-.11-.2-.1-.32.01-.12.07-.22.17-.29l.19-.14c.13-.1.3-.11.45-.04l.18.09Z"/>
        <path class="cls-1" d="M22.04,14.55c-.09,0-.16.07-.16.15s.07.15.16.15.16-.07.16-.15-.07-.15-.16-.15ZM22.04,15.12c-.24,0-.43-.19-.43-.42s.19-.42.43-.42.43.19.43.42-.19.42-.43.42Z"/>
        <path class="cls-1" d="M22,17.73c.06,0,.13.01.19.01.58,0,1.09-.37,1.26-.91.05-.15.17-.26.32-.29,1.04-.2,1.79-1.09,1.79-2.14,0-.43-.13-.85-.37-1.21-.05-.08-.06-.18-.03-.26.04-.09.11-.15.21-.17.47-.09.95-.11,1.42-.06.96.1,1.85.49,2.58,1.12.06.05.06.13.01.19-.05.06-.14.06-.19.01-.69-.6-1.53-.96-2.42-1.06-.45-.05-.9-.03-1.34.06h0s0,.02,0,.02c.27.4.42.87.42,1.36,0,1.17-.85,2.18-2.02,2.4-.05,0-.1.05-.11.1-.21.66-.83,1.1-1.53,1.1-.08,0-.15,0-.23-.02h-.02c.13.81.49,1.56,1.04,2.17.05.06.04.14-.01.19-.03.02-.06.03-.09.03-.04,0-.08-.02-.1-.05-.58-.65-.96-1.45-1.1-2.3-.01-.09.01-.17.08-.24.06-.06.16-.1.25-.08Z"/>
        <path class="cls-1" d="M23.38,20.57c.8.7,1.84,1.08,2.91,1.08.62,0,1.21-.12,1.77-.37.54-.24,1.02-.57,1.43-1,.41-.43.72-.92.93-1.46.21-.57.31-1.16.27-1.78-.06-.95-.44-1.88-1.09-2.61-.05-.06-.04-.14.01-.19.06-.05.14-.04.19.01.69.77,1.1,1.76,1.16,2.77.04.65-.06,1.29-.29,1.89-.22.58-.55,1.1-.98,1.55-.43.45-.94.81-1.52,1.06-.6.26-1.23.39-1.89.39-1.14,0-2.24-.41-3.09-1.15-.06-.05-.06-.13-.01-.19.05-.06.14-.06.19-.01Z"/>
      </g>
      <path class="cls-5" d="M33.53,16.02v-1.06c0-.14-.01-.29-.02-.43,0-.15-.01-.29-.02-.42,0-.17-.02-.33-.03-.5,0-.17-.02-.33-.03-.49,0-.11-.07-.16-.18-.16-.05,0-.1.01-.16.01h-.16c-.13,0-.25,0-.38,0-.13,0-.26,0-.38,0-.03,0-.06,0-.09,0-.03,0-.06.01-.09.02-.1,0-.15.08-.15.2,0,.16-.01.32-.02.48,0,.16,0,.32,0,.49,0,.16,0,.31.01.46,0,.15.01.3.01.45v.9c0,.3,0,.6-.01.9v.33c0,.2-.01.4-.02.59,0,.2,0,.39,0,.59v1.09c0,.18,0,.37,0,.55,0,.18-.01.37-.02.56v.6c0,.2,0,.4.01.59v.1c.02.08.05.13.11.14.05.02.08.03.1.03.14,0,.28.02.42.04.14.02.27.02.41.01.06,0,.12-.01.18-.01h.18c.14-.02.22-.09.23-.21,0-.03.01-.06.01-.09s0-.06.01-.09c0-.14,0-.28,0-.43,0-.14,0-.28,0-.41,0-.15.02-.3.03-.44.01-.15.02-.29.02-.44,0-.22.01-.43.02-.65,0-.21.01-.42.02-.63,0-.07,0-.11.03-.13.05-.08.1-.15.16-.23.06-.08.12-.15.18-.24.03.05.05.09.08.13s.05.08.08.12c.04.08.09.15.14.22.05.07.09.14.13.22.03.03.06.08.08.14.06.14.13.28.2.41.08.13.15.27.23.41.02.03.03.05.05.07.02.02.03.04.04.07.13.17.24.34.35.52.11.18.21.37.3.56.1.18.19.35.26.53.04.08.08.16.13.24.04.08.09.16.15.23.04.04.08.06.13.06.12,0,.24.02.36.03.13,0,.25.02.36.03.05,0,.1,0,.14,0,.11,0,.22-.01.33-.02.11,0,.22-.01.33-.02.08,0,.13-.04.17-.1.04-.06.04-.12,0-.19,0-.02-.02-.04-.03-.06,0-.02-.02-.04-.04-.04-.1-.15-.19-.3-.28-.46-.08-.16-.16-.32-.24-.48-.02-.03-.04-.07-.06-.1-.02-.03-.04-.07-.06-.1-.03-.07-.07-.14-.12-.21-.05-.08-.09-.15-.13-.21-.04-.09-.08-.18-.13-.28-.04-.09-.08-.18-.13-.26,0-.03-.03-.07-.05-.11s-.05-.07-.06-.11c-.02-.03-.04-.05-.06-.08-.03-.03-.05-.06-.06-.09-.06-.09-.11-.19-.17-.29-.05-.1-.11-.2-.17-.3l-.23-.38c-.08-.13-.15-.25-.21-.38-.08-.13-.15-.27-.23-.41s-.15-.27-.23-.41c-.03-.04-.06-.09-.09-.14s-.05-.1-.09-.15c-.03-.04-.02-.08.01-.11.04-.04.08-.09.11-.13.03-.05.07-.09.1-.13.07-.09.14-.18.21-.28.08-.09.14-.18.2-.28.18-.29.36-.57.56-.83.04-.06.09-.12.13-.18.05-.06.09-.12.12-.18.1-.16.2-.31.29-.46.1-.15.19-.3.28-.45.04-.08.08-.15.13-.23.04-.08.08-.15.13-.23.02-.03.02-.07,0-.11s-.03-.06-.06-.07c-.06-.03-.12-.04-.19-.04-.08-.02-.15-.03-.23-.04-.08,0-.15-.01-.23-.01-.14,0-.28,0-.42,0-.14,0-.28,0-.42.02-.08,0-.15.05-.2.11-.04.06-.08.12-.13.18-.04.06-.08.12-.13.18-.02.03-.04.07-.06.1-.02.03-.04.07-.06.1-.1.15-.2.3-.3.45s-.2.3-.3.45c-.04.07-.09.14-.14.21-.05.07-.1.14-.15.21-.13.16-.27.32-.4.48-.13.16-.26.33-.38.51,0,.03-.03.05-.06.09h-.03Z"/>
      <path class="cls-5" d="M40.52,14.08v-.91c0-.13-.07-.2-.21-.19-.05,0-.1.01-.15.01h-.68c-.06,0-.11,0-.16,0-.05,0-.1.01-.16.02-.1,0-.15.06-.16.16,0,.08-.01.15-.02.23,0,.08,0,.15,0,.23,0,.12,0,.24,0,.36,0,.12,0,.24,0,.36v1c0,.07,0,.14,0,.21,0,.07,0,.14,0,.21,0,.34,0,.69,0,1.03,0,.35,0,.69,0,1.03v.76c0,.25,0,.51-.03.77-.02.52-.02,1.04,0,1.57,0,.13.01.25,0,.38,0,.13,0,.26,0,.38,0,.03,0,.07,0,.1,0,.03,0,.07,0,.11,0,.08.05.13.14.14h.65c.19,0,.37,0,.56-.01.08,0,.14-.04.16-.13v-.05s.01-.05.01-.05c0-.21.01-.42.02-.63,0-.21.01-.42.02-.63,0-.05,0-.1,0-.16,0-.05,0-.11,0-.16,0-.09.01-.19.02-.28,0-.1,0-.19,0-.28,0-.23.01-.47.01-.7v-.68c0-.08,0-.16,0-.24,0-.08,0-.16,0-.24,0-.12-.01-.23-.02-.35,0-.12,0-.23,0-.34,0-.12,0-.23,0-.34,0-.11,0-.22,0-.33,0-.2,0-.4,0-.59,0-.2,0-.39,0-.58,0-.04,0-.09,0-.13,0-.05,0-.09,0-.14v-.9h-.01Z"/>
      <path class="cls-5" d="M41.65,18.22c0,.22-.01.45-.02.7,0,.26-.01.52-.02.78,0,.26-.01.52-.02.79,0,.18-.01.37-.01.55s0,.37-.01.56c0,.07,0,.13.03.18.03.05.06.11.09.16.02.03.05.05.09.06.07,0,.13.02.19.04.06.02.12.03.18.03.25.02.5.02.74,0,.12,0,.24-.02.36-.03.12,0,.24-.02.36-.03h.51c.17,0,.34,0,.49-.01.12,0,.23-.02.33-.03.1,0,.21-.01.32-.01.22,0,.43-.01.64-.01s.42,0,.63-.01c.03,0,.06,0,.09,0,.03,0,.05-.02.07-.04.04-.05.08-.1.11-.16.03-.05.04-.11.04-.18,0-.14,0-.29-.01-.43-.02-.15-.03-.29-.04-.43,0-.05,0-.1-.01-.16,0-.06-.04-.1-.1-.14v-.03c-.08-.13-.18-.18-.33-.15-.03,0-.05,0-.08,0-.03,0-.05,0-.08,0-.08,0-.15,0-.23,0-.08,0-.16,0-.23,0-.12,0-.24.02-.36.03-.12,0-.24.01-.36.01-.21,0-.42.01-.63.01h-.63c-.06,0-.09,0-.1,0,0-.01-.01-.04-.01-.09v-.78c0-.23-.01-.46-.01-.69v-.68c0-.08,0-.13.03-.14.02-.01.07-.02.15-.02.14-.02.29-.03.43-.04.15,0,.29-.02.43-.03.13,0,.26-.02.39-.04.13-.02.25-.03.39-.04h.36c.11-.02.16-.08.16-.18v-.43c0-.14,0-.28-.01-.41,0-.07,0-.13,0-.19,0-.06-.01-.12-.02-.18,0-.04-.02-.07-.03-.08,0,0-.03-.01-.08-.01h-.25c-.17,0-.34,0-.51,0-.18,0-.35,0-.53,0-.13,0-.27,0-.41,0-.14,0-.28,0-.43,0-.04,0-.07,0-.08-.01-.01,0-.02-.04-.02-.09,0-.18.01-.35.02-.53,0-.18,0-.35,0-.54,0-.05.04-.08.09-.09.14-.02.29-.03.44-.04.15,0,.3-.02.44-.03h.52c.17,0,.34,0,.52-.01.13,0,.25-.01.38-.02.13,0,.26-.01.38-.02.05,0,.1-.02.14-.03.05-.01.09-.04.12-.08.06-.09.08-.18.08-.25,0-.19-.01-.39-.02-.58,0-.2-.01-.39-.02-.58-.02-.24-.13-.37-.35-.38-.06,0-.1,0-.11.01-.06,0-.12.01-.18.01h-.18c-.12,0-.23,0-.35,0-.12,0-.23,0-.35,0-.08,0-.15,0-.22,0-.07,0-.14,0-.21,0-.26,0-.52,0-.79,0-.27,0-.53,0-.8,0-.02,0-.04,0-.06,0-.02,0-.04,0-.07,0h-1.05c-.18.03-.26.12-.26.29,0,.03-.01.05,0,.07,0,.02,0,.04,0,.06,0,.08,0,.17,0,.26,0,.09,0,.18,0,.27,0,.58-.02,1.18-.03,1.78,0,.61-.02,1.25-.04,1.95,0,.14-.01.32-.02.54Z"/>
    </g>
  </g>
</svg>