<?xml version="1.0" encoding="UTF-8"?>
<svg id="Layer_2" data-name="Layer 2" xmlns="http://www.w3.org/2000/svg" viewBox="0 0 59.53 12.47">
  <defs>
    <style>
      .cls-1 {
        fill: #6e787b;
      }
    </style>
  </defs>
  <g id="Layer_10" data-name="Layer 10">
    <g>
      <path class="cls-1" d="M10.55,0l-2.27,4.42L6.08,0,.05,11.77c-.12.24-.03.53.21.65.07.03.14.05.22.05.18,0,.35-.1.43-.26L6.07,2.14l1.67,3.35-3.22,6.28c-.06.11-.07.25-.03.37.04.12.12.22.24.28.07.04.14.05.22.05.05,0,.1,0,.15-.02.12-.04.22-.12.28-.24L10.54,2.14l5.07,10.07c.08.16.25.27.43.27.07,0,.15-.02.22-.05.12-.06.2-.16.24-.28.04-.12.03-.25-.03-.37L10.55,0Z"/>
      <path class="cls-1" d="M24.15,0l-6.38,12.47h6.25c.27,0,.48-.22.48-.48s-.22-.48-.48-.48h-4.67l4.8-9.37,5.05,10.07c.08.16.25.27.43.27.07,0,.15-.02.22-.05.24-.12.33-.41.22-.65L24.15,0Z"/>
      <path class="cls-1" d="M35.95.59l-.02.28h0v-.28s-3.92,0-3.92,0c-.27,0-.48.22-.48.48s.22.48.48.48h3.88c1.67.14,2.96,1.54,2.94,3.19-.02,1.56-1.22,2.89-2.8,3.09h-4.5v4.16c0,.27.22.48.48.48s.48-.22.48-.48v-3.19h3.62c2.07-.25,3.65-1.98,3.68-4.04.01-1.04-.37-2.04-1.09-2.82-.72-.78-1.7-1.26-2.76-1.34Z"/>
      <path class="cls-1" d="M50.32,6.89c-.27,0-.48.22-.48.48v4.13h-7.65V1.07c0-.27-.22-.48-.48-.48s-.48.22-.48.48v11.4h9.58v-5.1c0-.27-.22-.48-.48-.48Z"/>
      <path class="cls-1" d="M59.04,11.51h-5.85v-4.62h.85c.27,0,.48-.22.48-.48s-.22-.48-.48-.48h-.85V1.55h5.85c.27,0,.48-.22.48-.48s-.22-.48-.48-.48h-6.82v11.89h6.82c.27,0,.48-.22.48-.48s-.22-.48-.48-.48Z"/>
    </g>
  </g>
</svg>