<?xml version="1.0" encoding="UTF-8"?>
<svg id="Layer_2" data-name="Layer 2" xmlns="http://www.w3.org/2000/svg" viewBox="0 0 59.53 13.32">
  <defs>
    <style>
      .cls-1 {
        fill: #335532;
      }
    </style>
  </defs>
  <g id="Layer_10" data-name="Layer 10">
    <g>
      <polygon class="cls-1" points="15.53 1.34 14.54 .59 13.8 1.59 14.88 2.33 15.53 1.34"/>
      <path class="cls-1" d="M15.26,3.32s-.07-.02-.11-.02c-.25,0-.53.25-.82.76-.35.59-.52,1.14-.52,1.66,0,.43.14.7.43.81.2.07.37.11.52.11.17,0,.38-.06.63-.18.3-.34.5-.62.58-.85.14.27.21.51.21.72,0,.23-.07.4-.21.5-.21.24-.64.43-1.29.58-.54.12-1.01.18-1.43.18h-.26c-.52,0-.85-.22-1-.67,0-.07,0-.18.02-.33.02-.14.02-.25.02-.33-.39.33-.6.55-.63.67,0,.34-.05.58-.16.74-.87,0-1.33-.25-1.4-.75,0-.04.02-.17.05-.39.01-.09-.02-.14-.08-.14-.09,0-.19.08-.29.25-.21.34-.32.53-.34.56-.15.19-.29.32-.42.38-.21.09-.57.13-1.06.13-.42,0-.76-.11-1.01-.34-.16-.14-.4-.46-.72-.95l-.54,1.02c.46.8.69,1.51.69,2.13,0,.4-.04.73-.13.98-.14.37-.58.68-1.33.94-.63.21-1.22.31-1.77.31-.52,0-1.02-.12-1.5-.36-.58-.29-.86-.66-.86-1.13,0-.31.1-.71.3-1.18.2-.47.3-.72.3-.75,0-.06-.05-.1-.16-.1-.12,0-.3.28-.55.85-.28.63-.42,1.17-.42,1.62,0,1.48.86,2.22,2.58,2.22,1.25,0,2.23-.32,2.95-.96.82-.74,1.26-1.85,1.3-3.34.24.12.48.18.72.18.26,0,.71-.12,1.35-.37.33-.13.53-.22.6-.28l.33.21c.3.2.67.3,1.09.3.19,0,.42-.26.67-.78.08,0,.19.13.35.38.07.12.21.22.4.31.2.09.37.13.52.13h.33c.41,0,.93-.09,1.55-.26.56-.16.91-.29,1.03-.39.57-.49.86-1.21.86-2.16,0-.46-.12-.98-.37-1.54-.28-.64-.61-.99-1-1.05ZM15.16,5.55c-.12,0-.23-.02-.34-.05-.16-.05-.33-.2-.49-.45.19-.38.38-.57.55-.57.35,0,.64.26.86.77,0,.2-.2.3-.59.3Z"/>
      <path class="cls-1" d="M24.44,10.99c-.41-.27-.7-.48-.9-.64l-.61.9,1.03.78c.21-.4.39-.68.53-.84.41.27.7.48.87.62l.64-.94-1.03-.69c-.22.38-.4.65-.53.81Z"/>
      <path class="cls-1" d="M33.15,6.4c.16.14.24.41.24.81,0,.1-.02.15-.05.16-.1.02-.21.03-.3.03-.17,0-.42-.05-.74-.15-.39-.12-.56-.25-.53-.37.17-.37.26-.66.26-.86,0-.1-.03-.15-.08-.16-.12.03-.24.19-.37.49-.16.36-.35.62-.54.78-.35.29-.84.44-1.48.46-.46.01-.84-.11-1.13-.36.18-.33.26-.62.26-.87,0-.09-.02-.14-.07-.16-.08-.03-.29.24-.63.8-.24.39-.71.59-1.43.59h-.45c-.38,0-.65-.1-.81-.3-.09-.11-.17-.3-.23-.56-.05-.2-.11-.3-.19-.3-.06,0-.16.1-.29.3-.18.26-.35.45-.52.56-.31.2-.74.3-1.27.3h-.22c-.24,0-.44-.08-.61-.23-.24-.27-.48-.54-.72-.8l-.45,1.06c.27.29.47.51.61.66.2.23.3.53.3.88,0,.4-.46,1.03-1.37,1.87-.26.23-.61.44-1.04.62-.44.18-.83.26-1.18.26-.12,0-.36-.12-.7-.37-.35-.25-.56-.37-.62-.37-.06,0-.09.03-.09.1,0,.22.32.52.96.89.6.35,1.04.53,1.32.53.88,0,1.6-.39,2.16-1.18.62-.88,1.03-1.81,1.23-2.78h.56c.39,0,.77-.18,1.13-.53l.53-.52s.1.07.17.22c.1.19.18.31.23.38.28.3.6.46.95.46h.56c.56,0,1.01-.23,1.33-.69.44.5.94.75,1.5.75.66,0,1.29-.26,1.89-.78.02-.02.05-.03.1-.03.06,0,.27.1.64.3.36.2.65.3.84.3.22,0,.42-.1.59-.31.4-.5.6-1.15.6-1.93,0-.51-.08-.83-.23-.97l-.61,1.03Z"/>
      <path class="cls-1" d="M46.5,2.37c.3,0,.6-.15.9-.46.18.09.36.14.55.14.28,0,.49-.18.64-.53.11-.27.16-.56.16-.88v-.64c-.31.24-.47.51-.47.82,0,.04,0,.1.02.18.01.08.02.14.02.18,0,.09-.07.14-.2.14-.32,0-.48-.12-.48-.36,0-.14,0-.25.02-.33.02-.09,0-.14-.05-.14-.17,0-.28.16-.34.48-.08.45-.28.67-.61.67-.19,0-.28-.13-.28-.38,0-.08.02-.19.07-.34.05-.15.07-.25.07-.3,0-.1-.03-.15-.08-.15-.14,0-.27.19-.39.57-.1.31-.16.56-.16.74,0,.4.2.61.59.61Z"/>
      <path class="cls-1" d="M47.35,10.99c-.41-.27-.7-.48-.9-.64l-.61.9,1.03.78c.21-.4.39-.68.53-.84.41.27.7.48.87.62l.64-.94-1.03-.69c-.22.38-.4.65-.53.81Z"/>
      <path class="cls-1" d="M59.3,5.37l-.61,1.03c.16.14.24.41.24.81,0,.1-.02.15-.05.16-.1.02-.21.03-.3.03-.17,0-.42-.05-.74-.15-.39-.12-.56-.25-.53-.37.17-.37.26-.66.26-.86,0-.1-.03-.15-.08-.16-.12.03-.24.19-.37.49-.16.36-.35.62-.54.78-.35.29-.84.44-1.48.46-.46.01-.84-.11-1.13-.36.18-.33.26-.62.26-.87,0-.09-.02-.14-.07-.16-.08-.03-.29.24-.63.8-.24.39-.71.59-1.43.59h-3.08c-.38,0-.65-.1-.81-.3-.09-.11-.17-.3-.23-.56-.05-.2-.11-.3-.19-.3-.06,0-.16.1-.29.3-.18.26-.35.45-.52.56-.31.2-.74.3-1.27.3h-.03c-.48,0-.8-.12-.95-.36-.31-.47-.55-1.63-.72-3.45-.14-1.66-.25-2.9-.31-3.72-.5.68-.74,1.08-.72,1.21l.76,8.74c.05.66-.32,1.19-1.11,1.6-.61.32-1.29.48-2.04.48s-1.29-.14-1.72-.42c-.36-.24-.54-.52-.54-.84,0-.64.19-1.32.58-2.05.22-.42.34-.66.34-.74,0-.05-.03-.08-.1-.08-.13,0-.37.33-.72,1-.42.77-.63,1.48-.63,2.14,0,1.47.83,2.21,2.49,2.21.92,0,1.74-.22,2.46-.65.97-.59,1.45-1.48,1.45-2.65v-2.25c.22.62.7.93,1.43.95h0s.07,0,.07,0h.17c.39,0,.76-.18,1.11-.53l.53-.52s.1.07.17.22c.1.19.18.31.23.38.28.3.6.46.95.46h3.18c.56,0,1.01-.23,1.33-.69.44.5.94.75,1.5.75.66,0,1.29-.26,1.89-.78.02-.02.05-.03.1-.03.06,0,.27.1.64.3s.65.3.84.3c.22,0,.42-.1.59-.31.4-.5.6-1.15.6-1.93,0-.51-.08-.83-.23-.97Z"/>
    </g>
  </g>
</svg>