<?xml version="1.0" encoding="UTF-8"?>
<svg id="Layer_2" data-name="Layer 2" xmlns="http://www.w3.org/2000/svg" viewBox="0 0 678.64 302.64">
  <defs>
    <style>
      .cls-1 {
        fill: #009cdf;
      }
    </style>
  </defs>
  <g id="Layer_1-2" data-name="Layer 1">
    <g>
      <g>
        <path class="cls-1" d="M342.95,168.75c-14.95,0-31.03.72-48.24,2.16-4.95,4.43-9.74,8.91-14.38,13.45-4.64,4.53-9.38,9.12-14.22,13.76,22.78.2,44.09,1.13,63.93,2.78,19.84,1.65,38.06,4.12,54.65,7.42,4.64-5.98,9.3-11.78,13.99-17.39,4.69-5.62,9.3-11.42,13.84-17.39-16.39-2.27-30.69-3.63-42.9-4.1-12.21-.46-21.1-.7-26.67-.7Z"/>
        <path class="cls-1" d="M642.19,92.84c-13.6,1.08-28.04,2.29-43.29,3.63-15.25,1.34-30.76,2.65-46.54,3.94-15.77,1.29-31.59,2.53-47.46,3.71-15.87,1.19-31.23,2.19-46.07,3.01-14.84.83-27.5,1.37-37.96,1.62-10.46.26-19.1.39-25.9.39-3.62,0-7.1-.04-10.51-.09v-.22c-16.7-.51-32.88-1.65-48.55-3.4-15.67-1.75-30.43-4.35-44.3-7.81-13.86-3.45-26.59-7.88-38.19-13.3-11.6-5.41-21.7-12.06-30.3-19.94-8.61-7.89-15.46-17.13-20.56-27.75-5.1-10.61-14.34-22.83-15.27-36.64-3.3,5.98-.47,11.98-3.98,18.01-3.51,6.03-13.24,12.04-16.74,18.01,2.16,8.25,8.42,15.56,12.8,24.66,1.96,4.07,2.35,8.74,3.51,13.14,2.55,9.64.83,20.07-5.2,28.01-.03.04-.06.08-.1.13-3.05,3.98-6.14,6.37-9.28,7.21v-.18c-3.3,0-6.6-2.27-9.9-6.8-3.3-4.53-6.03-11.7-8.19-21.49-4.54,2.58-9.04,5.08-13.53,7.5-4.48,2.42-9.25,4.69-14.3,6.8-5.05,2.11-10.57,4.02-16.54,5.72-5.98,1.7-12.75,3.17-20.33,4.41-7.58,1.24-16.13,2.19-25.66,2.86-9.53.67-20.33,1-32.39,1h-.46v.31H0v42.78c4.51,1.51,9.32,2.36,14.34,2.36h14.07c9.19-.05,18.65-.66,28.37-1.86,10.05-1.24,19.89-3.09,29.53-5.57,9.64-2.47,18.86-5.54,27.68-9.2,8.81-3.66,16.77-7.86,23.89-12.6,1.03,6.18,2.68,11.18,4.95,15,2.27,3.82,4.79,6.78,7.57,8.89,2.78,2.11,5.67,3.53,8.66,4.25,2.52.61,4.89.94,7.11,1.04v.35c3.81-.21,7.5-1.57,11.05-4.1,3.56-2.52,6.96-5.87,10.2-10.05,3.25-4.17,6.39-9.02,9.43-14.53,3.04-5.51,6-11.42,8.89-17.7,7.83,9.89,17.49,17.93,28.99,24.12,11.49,6.18,24.74,10.98,39.73,14.38,15,3.4,30.69,5.59,47.08,6.57,16.39.98,32.77,1.47,49.16,1.47,3.06,0,6.17-.06,9.28-.1v.1c7.93-.1,17.24-.44,27.91-1,10.67-.57,22.26-1.29,34.79-2.16,12.52-.87,25.79-1.83,39.81-2.86,14.02-1.03,28.32-2.14,42.9-3.32,14.58-1.18,29.27-2.34,44.06-3.48,14.79-1.13,29.27-2.21,43.44-3.25,14.17-1.03,27.78-1.96,40.82-2.78,8.75-.55,17.04-1,24.93-1.37v-44.47c-11.17.71-23.3,1.58-36.45,2.63Z"/>
        <path class="cls-1" d="M69.98,55.97c1.03-1.24,1.7-2.63,2.01-4.17.31-1.55.47-2.99.47-4.33v-1.39c-.21-1.85-.7-3.61-1.47-5.26-.77-1.65-1.83-2.88-3.17-3.71l-32.62-20.72L14.01,49.78l39.27,29.53,16.7-23.35Z"/>
      </g>
      <polygon class="cls-1" points="365 300.68 0 300.68 0 270.68 374.35 270.68 365 300.68"/>
      <g>
        <path class="cls-1" d="M392.21,294.32l-2.33,7.84h-6.61c.43-1.29,9.61-31.55,10.09-33.01h8.7l10.61,33.01h-7.06l-2.5-7.84h-10.9ZM401.79,288.75c-2.05-6.69-3.48-11.41-4.23-14.5h-.05c-.8,3.67-2.3,8.82-4.02,14.5h8.3Z"/>
        <path class="cls-1" d="M416.76,269.16h11.47c10.03,0,15.54,6.14,15.54,15.81,0,10.73-5.79,17.2-15.8,17.2h-11.21v-33.01ZM423.53,296.86h4.37c5.84,0,8.92-4.38,8.92-11.8,0-6.13-2.76-10.52-8.87-10.52h-4.42v22.32Z"/>
        <path class="cls-1" d="M456.37,302.16l-10.64-33.01h7.22l4.38,15c1.29,4.39,2.5,8.57,3.11,11.69h.1c.67-2.94,2-7.4,3.27-11.52l4.65-15.17h6.88l-10.95,33.01h-8.02Z"/>
        <path class="cls-1" d="M499.95,287.76h-14.35v8.88h15.84l-.81,5.52h-21.59v-33.01h21.51v5.56h-14.95v7.48h14.35v5.57Z"/>
        <path class="cls-1" d="M512.86,288.53v13.64h-6.61v-33.01h13.45c6.23,0,10.68,3.09,10.68,8.93,0,4.5-2.37,6.66-5.13,7.72,3.27,1.27,4.45,3.85,4.45,7.95v.86c0,2.92.17,5.7.44,7.55h-6.49c-.48-1.39-.61-3.6-.61-7.66v-.87c0-3.78-1.38-5.1-5.69-5.1h-4.49ZM512.86,283.18h5.02c3.2,0,5.83-.86,5.83-4.51,0-3.05-2.21-4.18-4.9-4.18h-5.95v8.69Z"/>
        <path class="cls-1" d="M542.55,274.72h-8.95v-5.57h24.67v5.57h-8.95v27.44h-6.78v-27.44Z"/>
        <path class="cls-1" d="M569.29,269.16v33.01h-6.73v-33.01h6.73Z"/>
        <path class="cls-1" d="M580.91,292.42c.47,3,2.43,4.95,5.95,4.95,3.76,0,5.07-1.63,5.07-3.97,0-3-1.81-4.23-6.58-5.58-7.65-2.12-10.26-4.86-10.26-9.63,0-6.12,4.9-9.46,11.19-9.46,7.92,0,11.27,4.12,11.65,9.42h-6.61c-.41-2.43-1.59-4.29-5.1-4.29-2.96,0-4.42,1.37-4.42,3.67,0,2.46,1.66,3.16,6.33,4.52,8.43,2.46,10.64,5.83,10.64,10.57,0,5.38-3.58,9.98-12.22,9.98-7.21,0-11.88-3.63-12.29-10.17h6.65Z"/>
        <path class="cls-1" d="M610.96,269.16v33.01h-6.73v-33.01h6.73Z"/>
        <path class="cls-1" d="M618.44,302.16v-33.01h8.59c9.8,20.11,11.39,23.37,11.89,24.94h.09c-.33-3.92-.38-9.31-.38-14.71v-10.23h6.14v33.01h-8.24c-10.52-22.12-11.69-24.75-12.18-25.99h-.05c.24,4.17.27,9.88.27,15.77v10.22h-6.13Z"/>
        <path class="cls-1" d="M678.58,302.16h-4.95c-.23-1.08-.41-2.6-.5-3.83-1.7,3.29-5.01,4.31-9.15,4.31-8.63,0-13.18-7.19-13.18-16.8s5.36-17.13,15.09-17.13c7.86,0,11.93,4.39,12.74,9.91h-6.6c-.62-2.08-2.05-4.51-6.53-4.51-5.75,0-7.79,5.49-7.79,11.78s2.2,11.4,7.78,11.4c4.97,0,6.41-3.47,6.41-7.7v-.16h-6.9v-5.7h13.58v18.43Z"/>
      </g>
    </g>
  </g>
</svg>