<?xml version="1.0" encoding="UTF-8"?>
<svg id="Layer_2" data-name="Layer 2" xmlns="http://www.w3.org/2000/svg" xmlns:xlink="http://www.w3.org/1999/xlink" viewBox="0 0 91.25 66.46">
  <defs>
    <style>
      .cls-1 {
        mask: url(#mask-5);
      }

      .cls-2 {
        fill: url(#linear-gradient-2);
      }

      .cls-3 {
        mask: url(#mask-1);
      }

      .cls-4 {
        fill: #231f20;
      }

      .cls-5 {
        mask: url(#mask-6);
      }

      .cls-6 {
        mask: url(#mask-7);
      }

      .cls-7 {
        mask: url(#mask);
      }

      .cls-8 {
        fill: #1b9dbf;
      }

      .cls-8, .cls-9, .cls-10 {
        fill-rule: evenodd;
      }

      .cls-9 {
        fill: #fff;
      }

      .cls-11 {
        fill: url(#linear-gradient-4);
      }

      .cls-12 {
        mask: url(#mask-2);
      }

      .cls-13 {
        fill: url(#linear-gradient-3);
      }

      .cls-14 {
        fill: url(#linear-gradient-5);
      }

      .cls-15 {
        fill: url(#linear-gradient-8);
      }

      .cls-16 {
        fill: url(#linear-gradient-7);
      }

      .cls-17 {
        fill: url(#linear-gradient-6);
      }

      .cls-10 {
        fill: #2cade3;
      }

      .cls-18 {
        mask: url(#mask-4);
      }

      .cls-19 {
        fill: url(#linear-gradient);
      }

      .cls-20 {
        mask: url(#mask-3);
      }
    </style>
    <linearGradient id="linear-gradient" x1="-193.06" y1="603.86" x2="-264.64" y2="636.91" gradientTransform="translate(322.85 -619.5)" gradientUnits="userSpaceOnUse">
      <stop offset="0" stop-color="#fff"/>
      <stop offset="1" stop-color="#000"/>
    </linearGradient>
    <mask id="mask" x="52.48" y="0" width="37.36" height="22.85" maskUnits="userSpaceOnUse">
      <rect class="cls-19" x="52.48" width="37.36" height="22.85"/>
    </mask>
    <linearGradient id="linear-gradient-2" x1="-212.76" y1="602.78" x2="-284.34" y2="635.83" gradientTransform="translate(346.93 -608.91)" xlink:href="#linear-gradient"/>
    <mask id="mask-1" x="62.28" y="14.58" width="26.81" height="12.58" maskUnits="userSpaceOnUse">
      <rect class="cls-2" x="62.28" y="14.58" width="26.81" height="12.58"/>
    </mask>
    <linearGradient id="linear-gradient-3" x1="-216.35" y1="597.93" x2="-287.93" y2="630.98" gradientTransform="translate(353.61 -597.36)" xlink:href="#linear-gradient"/>
    <mask id="mask-2" x="65" y="26.99" width="19.53" height="4.87" maskUnits="userSpaceOnUse">
      <rect class="cls-13" x="65" y="26.99" width="19.53" height="4.87"/>
    </mask>
    <linearGradient id="linear-gradient-4" x1="-252.93" y1="589.25" x2="-259.99" y2="621.23" gradientTransform="translate(318.73 -592.51)" xlink:href="#linear-gradient"/>
    <mask id="mask-3" x="50.81" y="10.47" width="18.78" height="23.36" maskUnits="userSpaceOnUse">
      <rect class="cls-11" x="50.81" y="10.47" width="18.78" height="23.36"/>
    </mask>
    <linearGradient id="linear-gradient-5" x1="-234.96" y1="603.86" x2="-163.38" y2="636.91" gradientTransform="translate(195.82 -619.5)" xlink:href="#linear-gradient"/>
    <mask id="mask-4" x=".8" y="0" width="37.36" height="22.85" maskUnits="userSpaceOnUse">
      <rect class="cls-14" x=".8" width="37.36" height="22.85"/>
    </mask>
    <linearGradient id="linear-gradient-6" x1="-241.2" y1="602.78" x2="-169.62" y2="635.83" gradientTransform="translate(197.68 -608.91)" xlink:href="#linear-gradient"/>
    <mask id="mask-5" x="1.56" y="14.58" width="26.81" height="12.58" maskUnits="userSpaceOnUse">
      <rect class="cls-17" x="1.56" y="14.58" width="26.81" height="12.58"/>
    </mask>
    <linearGradient id="linear-gradient-7" x1="-255.51" y1="597.93" x2="-183.93" y2="630.98" gradientTransform="translate(208.89 -597.36)" xlink:href="#linear-gradient"/>
    <mask id="mask-6" x="6.12" y="26.99" width="19.53" height="4.87" maskUnits="userSpaceOnUse">
      <rect class="cls-16" x="6.12" y="26.99" width="19.53" height="4.87"/>
    </mask>
    <linearGradient id="linear-gradient-8" x1="-220.78" y1="589.25" x2="-213.72" y2="621.23" gradientTransform="translate(245.63 -592.51)" xlink:href="#linear-gradient"/>
    <mask id="mask-7" x="21.06" y="10.47" width="18.78" height="23.36" maskUnits="userSpaceOnUse">
      <rect class="cls-15" x="21.06" y="10.47" width="18.78" height="23.36"/>
    </mask>
  </defs>
  <g id="Layer_1-2" data-name="Layer 1">
    <g>
      <path class="cls-10" d="M48.12,6.52h0c2.66,1.54,3.58,4.97,2.04,7.62l-11.07,19.18c-1.53,2.66-4.97,3.58-7.62,2.04h0c-.83-.48-1.49-1.15-1.96-1.92-3.5,1.12-6.98.71-6.98.71,7.59-1.58,15.51-6.67,17.53-13.44,1.31-4.36.04-9.9-5.17-10.43,0,0,1.94-.35,4,1.07l1.61-2.8c1.53-2.66,4.97-3.58,7.63-2.04"/>
      <path class="cls-10" d="M42.53,6.52h0c-2.66,1.54-3.58,4.97-2.04,7.62l11.07,19.18c1.54,2.66,4.97,3.58,7.62,2.04h0c.83-.48,1.49-1.15,1.96-1.92,3.5,1.12,6.98.71,6.98.71-7.6-1.58-15.51-6.67-17.53-13.44-1.31-4.36-.04-9.9,5.17-10.43,0,0-1.94-.35-4,1.07l-1.61-2.8c-1.54-2.66-4.97-3.58-7.63-2.04"/>
      <path class="cls-8" d="M50.31,8.84c.82,1.63.83,3.62-.14,5.31l-4.84,8.39-4.85-8.39c-.96-1.66-.96-3.61-.18-5.22l.2-.35c1.15-1.99,3.35-3,5.51-2.75,1.68.21,3.24,1.17,4.14,2.74l.16.28Z"/>
      <path class="cls-10" d="M58.29,10.52c-9.35-.93-10.8,12.25.6,19.11,9.53,5.73,22.1,7.37,25.64-2.64,0,0-11,5.2-18.75,1.1,0,0,23.22,2.01,23.32-13.51,0,0-11.68,13.32-26.83,9.49,11.41-1.19,33.04-9.56,27.49-24.07-3.39,4.6-11.8,16.3-23.24,19.98-14.35,4.61-15.4-7.86-8.22-9.46"/>
      <g class="cls-7">
        <path class="cls-9" d="M52.68,18.43c3.53,12.26,39.22-3.29,37.07-18.43-3.39,4.6-11.8,16.3-23.24,19.98-14.24,4.58-15.38-7.68-8.38-9.42-7.25,1.76-5.46,7.88-5.46,7.88"/>
      </g>
      <g class="cls-3">
        <path class="cls-9" d="M89.09,14.58s-11.29,12.88-26.06,9.67l-.75.07.21,2.79c24.55,1.05,26.6-12.53,26.6-12.53"/>
      </g>
      <g class="cls-12">
        <path class="cls-9" d="M84.53,26.99s-11,5.2-18.75,1.1l-.78,2.44s12.32,4.7,19.53-3.54"/>
      </g>
      <g class="cls-20">
        <path class="cls-9" d="M69.58,33.83c-9.39-3.2-16.24-10.08-16.98-15.72-.25-1.28-.73-6.04,5.53-7.56.05-.01.1-.03.16-.04-9.35-.93-10.8,12.25.6,19.11,3.36,2.02,7.1,3.54,10.69,4.21"/>
      </g>
      <path class="cls-10" d="M32.36,10.52c9.35-.93,10.8,12.25-.6,19.11-9.53,5.73-22.1,7.37-25.64-2.64,0,0,11,5.2,18.75,1.1,0,0-23.22,2.01-23.32-13.51,0,0,11.68,13.32,26.83,9.49C16.98,22.88-4.66,14.51.9,0c3.39,4.6,11.8,16.3,23.24,19.98,14.35,4.61,15.4-7.86,8.22-9.46"/>
      <g class="cls-18">
        <path class="cls-9" d="M37.97,18.43C34.44,30.69-1.25,15.14.9,0c3.39,4.6,11.8,16.3,23.24,19.98,14.24,4.58,15.38-7.68,8.38-9.42,7.25,1.76,5.46,7.88,5.46,7.88"/>
      </g>
      <g class="cls-1">
        <path class="cls-9" d="M1.56,14.58s11.29,12.88,26.06,9.67l.75.07-.21,2.79C3.61,28.15,1.56,14.58,1.56,14.58"/>
      </g>
      <g class="cls-5">
        <path class="cls-9" d="M6.12,26.99s11,5.2,18.75,1.1l.78,2.44s-12.32,4.7-19.53-3.54"/>
      </g>
      <g class="cls-6">
        <path class="cls-9" d="M21.06,33.83c9.39-3.2,16.24-10.08,16.98-15.72.25-1.28.73-6.04-5.53-7.56-.05-.01-.1-.03-.16-.04,9.35-.93,10.8,12.25-.6,19.11-3.36,2.02-7.1,3.54-10.69,4.21"/>
      </g>
      <path class="cls-4" d="M91.25,54.26v-14.58h-3.23v14.58h3.23ZM79.53,41.41c-1.5-1.75-3.19-2.25-5.44-2.25-3,0-5.75,1.54-5.77,4.44-.04,3.44,2.71,4.21,5.79,4.5,1.98.17,2.96.73,2.94,1.96,0,1.04-1.19,1.73-2.92,1.73-1.48,0-3.33-.62-4.46-2.06l-1.94,2.02c1.23,2.04,3.85,3.02,6.37,3,3.15-.02,6.14-1.44,6.14-4.69s-2.73-4.48-5.6-4.73c-1.87-.17-3.14-.42-3.14-1.75,0-1,1.17-1.6,2.6-1.6,1.15,0,2.56.37,3.37,1.23l2.04-1.79ZM49.66,39.68h-2.79v14.58h3.29v-4.54l-.13-4.79,7.25,9.33h2.79v-14.58h-3.27v4.89l.21,4.58-7.35-9.48ZM33.97,48.88h-5.02l2.52-5.91,2.5,5.91ZM36.26,54.26h3.52l-6.54-14.58h-3.54l-6.54,14.58h3.5l1.06-2.5h7.48l1.06,2.5ZM12.83,54.26h3.25v-14.58h-3.69l-4.27,5.6-4.25-5.6H.15v14.58h3.25v-10.18l4.35,5.71h.58l4.5-5.66v10.14Z"/>
      <path class="cls-4" d="M68.1,65.05h-3.72v-1.38h3.38v-1.34h-3.38v-1.32h3.58v-1.4h-5.08v6.86h5.22v-1.41ZM48.82,59.6h-1.31v6.86h1.55v-2.13l-.06-2.25,3.41,4.39h1.31v-6.86h-1.54v2.3l.1,2.15-3.46-4.46ZM38.33,66.46v-6.86h-1.52v6.86h1.52ZM23.3,59.6v6.86h4.96v-1.4h-3.43v-5.46h-1.53Z"/>
    </g>
  </g>
</svg>