<?xml version="1.0" encoding="UTF-8"?>
<svg id="Layer_1" xmlns="http://www.w3.org/2000/svg" version="1.1" viewBox="0 0 1000 1000">
  <!-- Generator: Adobe Illustrator 29.8.2, SVG Export Plug-In . SVG Version: 2.1.1 Build 3)  -->
  <defs>
    <style>
      .st0 {
        fill: #fff;
      }

      .st1 {
        fill: #009cdf;
      }
    </style>
  </defs>
  <rect class="st1" width="1000" height="1000"/>
  <g id="Post_5">
    <g>
      <path class="st0" d="M503.6,564.4c-14.9,0-30.9.7-48.1,2.2-4.9,4.4-9.7,8.9-14.3,13.4-4.6,4.5-9.4,9.1-14.2,13.7,22.7.2,44,1.1,63.8,2.8s37.9,4.1,54.5,7.4c4.6-6,9.3-11.7,13.9-17.4,4.7-5.6,9.3-11.4,13.8-17.4-16.4-2.3-30.6-3.6-42.8-4.1-12.2-.5-21-.7-26.6-.7h0Z"/>
      <path class="st0" d="M802,488.7c-13.6,1.1-28,2.3-43.2,3.6-15.2,1.3-30.7,2.7-46.4,3.9s-31.5,2.5-47.3,3.7c-15.8,1.2-31.1,2.2-45.9,3-14.8.8-27.4,1.4-37.8,1.6-10.4.3-19,.4-25.8.4s-7.1,0-10.5,0v-.2c-16.6-.5-32.8-1.6-48.4-3.4-15.6-1.8-30.3-4.3-44.2-7.8-13.8-3.4-26.5-7.9-38.1-13.3-11.5-5.4-21.6-12-30.2-19.9-8.6-7.9-15.4-17.1-20.5-27.7-5.1-10.6-14.3-22.8-15.2-36.5-3.3,6-.5,11.9-4,18-3.5,6-13.2,12-16.7,18,2.2,8.2,8.4,15.5,12.8,24.6,1.9,4.1,2.3,8.7,3.5,13.1,2.5,9.6.8,20-5.2,27.9,0,0,0,0-.1.1-3,4-6.1,6.3-9.3,7.2v-.2c-3.3,0-6.6-2.3-9.9-6.8s-6-11.7-8.2-21.4c-4.5,2.6-9,5.1-13.5,7.5s-9.2,4.7-14.3,6.8c-5,2.1-10.5,4-16.5,5.7-6,1.7-12.7,3.2-20.3,4.4-7.6,1.2-16.1,2.2-25.6,2.9-9.5.7-20.3,1-32.3,1h-.5v.3h-26.9v42.7c4.5,1.5,9.3,2.4,14.3,2.4h14c9.2,0,18.6-.6,28.3-1.9,10-1.2,19.8-3.1,29.4-5.6s18.8-5.5,27.6-9.2c8.8-3.7,16.7-7.9,23.8-12.6,1,6.2,2.7,11.2,4.9,15,2.3,3.8,4.8,6.7,7.6,8.9,2.8,2.1,5.7,3.5,8.6,4.2,2.5.6,4.9.9,7.1,1v.4c3.8-.2,7.5-1.6,11-4.1,3.6-2.5,6.9-5.8,10.2-10,3.2-4.2,6.4-9,9.4-14.5,3-5.5,6-11.4,8.9-17.6,7.8,9.9,17.4,17.9,28.9,24.1,11.5,6.2,24.7,10.9,39.6,14.3,15,3.4,30.6,5.6,46.9,6.6s32.7,1.5,49,1.5,6.2,0,9.3-.1h0c7.9,0,17.2-.3,27.8-.9,10.7-.6,22.2-1.3,34.7-2.2,12.5-.9,25.7-1.8,39.7-2.9,14-1,28.2-2.1,42.8-3.3,14.6-1.2,29.2-2.3,43.9-3.5,14.7-1.1,29.2-2.2,43.3-3.2,14.1-1,27.7-1.9,40.7-2.8,8.7-.5,17-1,24.9-1.4v-44.3c-11.2.7-23.2,1.6-36.3,2.6h0Z"/>
      <path class="st0" d="M231.4,451.9c1-1.2,1.7-2.6,2-4.2.3-1.5.5-3,.5-4.3v-1.4c-.2-1.9-.7-3.6-1.5-5.2-.8-1.6-1.8-2.9-3.2-3.7l-32.5-20.7-21.1,33.3,39.2,29.4s16.6-23.3,16.6-23.3Z"/>
    </g>
  </g>
</svg>